%TF.GenerationSoftware,KiCad,Pcbnew,8.0.4*%
%TF.CreationDate,2024-12-10T19:57:21+05:30*%
%TF.ProjectId,controller-v3,636f6e74-726f-46c6-9c65-722d76332e6b,rev?*%
%TF.SameCoordinates,Original*%
%TF.FileFunction,Drillmap*%
%TF.FilePolarity,Positive*%
%FSLAX45Y45*%
G04 Gerber Fmt 4.5, Leading zero omitted, Abs format (unit mm)*
G04 Created by KiCad (PCBNEW 8.0.4) date 2024-12-10 19:57:21*
%MOMM*%
%LPD*%
G01*
G04 APERTURE LIST*
%ADD10C,0.050000*%
%ADD11C,0.200000*%
G04 APERTURE END LIST*
D10*
X8960000Y-8280000D02*
X16560000Y-8280000D01*
X16560000Y-14610000D01*
X8960000Y-14610000D01*
X8960000Y-8280000D01*
D11*
X9218277Y-14923984D02*
X9218277Y-14723984D01*
X9218277Y-14723984D02*
X9265896Y-14723984D01*
X9265896Y-14723984D02*
X9294467Y-14733508D01*
X9294467Y-14733508D02*
X9313515Y-14752555D01*
X9313515Y-14752555D02*
X9323039Y-14771603D01*
X9323039Y-14771603D02*
X9332563Y-14809698D01*
X9332563Y-14809698D02*
X9332563Y-14838269D01*
X9332563Y-14838269D02*
X9323039Y-14876365D01*
X9323039Y-14876365D02*
X9313515Y-14895412D01*
X9313515Y-14895412D02*
X9294467Y-14914460D01*
X9294467Y-14914460D02*
X9265896Y-14923984D01*
X9265896Y-14923984D02*
X9218277Y-14923984D01*
X9418277Y-14923984D02*
X9418277Y-14790650D01*
X9418277Y-14828746D02*
X9427801Y-14809698D01*
X9427801Y-14809698D02*
X9437324Y-14800174D01*
X9437324Y-14800174D02*
X9456372Y-14790650D01*
X9456372Y-14790650D02*
X9475420Y-14790650D01*
X9542086Y-14923984D02*
X9542086Y-14790650D01*
X9542086Y-14723984D02*
X9532563Y-14733508D01*
X9532563Y-14733508D02*
X9542086Y-14743031D01*
X9542086Y-14743031D02*
X9551610Y-14733508D01*
X9551610Y-14733508D02*
X9542086Y-14723984D01*
X9542086Y-14723984D02*
X9542086Y-14743031D01*
X9665896Y-14923984D02*
X9646848Y-14914460D01*
X9646848Y-14914460D02*
X9637324Y-14895412D01*
X9637324Y-14895412D02*
X9637324Y-14723984D01*
X9770658Y-14923984D02*
X9751610Y-14914460D01*
X9751610Y-14914460D02*
X9742086Y-14895412D01*
X9742086Y-14895412D02*
X9742086Y-14723984D01*
X9999229Y-14923984D02*
X9999229Y-14723984D01*
X9999229Y-14723984D02*
X10065896Y-14866841D01*
X10065896Y-14866841D02*
X10132563Y-14723984D01*
X10132563Y-14723984D02*
X10132563Y-14923984D01*
X10313515Y-14923984D02*
X10313515Y-14819222D01*
X10313515Y-14819222D02*
X10303991Y-14800174D01*
X10303991Y-14800174D02*
X10284944Y-14790650D01*
X10284944Y-14790650D02*
X10246848Y-14790650D01*
X10246848Y-14790650D02*
X10227801Y-14800174D01*
X10313515Y-14914460D02*
X10294467Y-14923984D01*
X10294467Y-14923984D02*
X10246848Y-14923984D01*
X10246848Y-14923984D02*
X10227801Y-14914460D01*
X10227801Y-14914460D02*
X10218277Y-14895412D01*
X10218277Y-14895412D02*
X10218277Y-14876365D01*
X10218277Y-14876365D02*
X10227801Y-14857317D01*
X10227801Y-14857317D02*
X10246848Y-14847793D01*
X10246848Y-14847793D02*
X10294467Y-14847793D01*
X10294467Y-14847793D02*
X10313515Y-14838269D01*
X10408753Y-14790650D02*
X10408753Y-14990650D01*
X10408753Y-14800174D02*
X10427801Y-14790650D01*
X10427801Y-14790650D02*
X10465896Y-14790650D01*
X10465896Y-14790650D02*
X10484944Y-14800174D01*
X10484944Y-14800174D02*
X10494467Y-14809698D01*
X10494467Y-14809698D02*
X10503991Y-14828746D01*
X10503991Y-14828746D02*
X10503991Y-14885888D01*
X10503991Y-14885888D02*
X10494467Y-14904936D01*
X10494467Y-14904936D02*
X10484944Y-14914460D01*
X10484944Y-14914460D02*
X10465896Y-14923984D01*
X10465896Y-14923984D02*
X10427801Y-14923984D01*
X10427801Y-14923984D02*
X10408753Y-14914460D01*
X10589705Y-14904936D02*
X10599229Y-14914460D01*
X10599229Y-14914460D02*
X10589705Y-14923984D01*
X10589705Y-14923984D02*
X10580182Y-14914460D01*
X10580182Y-14914460D02*
X10589705Y-14904936D01*
X10589705Y-14904936D02*
X10589705Y-14923984D01*
X10589705Y-14800174D02*
X10599229Y-14809698D01*
X10599229Y-14809698D02*
X10589705Y-14819222D01*
X10589705Y-14819222D02*
X10580182Y-14809698D01*
X10580182Y-14809698D02*
X10589705Y-14800174D01*
X10589705Y-14800174D02*
X10589705Y-14819222D01*
M02*
