M48
; DRILL file {KiCad 8.0.4} date 2024-12-10T19:57:17+0530
; FORMAT={-:-/ absolute / inch / decimal}
; #@! TF.CreationDate,2024-12-10T19:57:17+05:30
; #@! TF.GenerationSoftware,Kicad,Pcbnew,8.0.4
; #@! TF.FileFunction,Plated,1,4,PTH
FMAT,2
INCH
; #@! TA.AperFunction,Plated,PTH,ViaDrill
T1C0.0118
; #@! TA.AperFunction,Plated,PTH,ComponentDrill
T2C0.0236
; #@! TA.AperFunction,Plated,PTH,ComponentDrill
T3C0.0315
; #@! TA.AperFunction,Plated,PTH,ComponentDrill
T4C0.0354
; #@! TA.AperFunction,Plated,PTH,ComponentDrill
T5C0.0394
%
G90
G05
T1
X3.6791Y-5.3666
X3.7913Y-5.3666
X4.4547Y-3.9856
X5.4562Y-4.7992
T3
X4.2874Y-3.9
X4.2874Y-4.0
X4.2874Y-4.1
X4.2874Y-4.2
X4.2874Y-4.3
X4.2874Y-4.4
X4.2874Y-4.5
X4.2874Y-4.6
X4.2874Y-4.7
X4.2874Y-4.8
X4.2874Y-4.9
X4.2874Y-5.0
X4.2874Y-5.1
X4.2874Y-5.2
X4.2874Y-5.3
X4.2874Y-5.4
X4.2874Y-5.5
X4.2874Y-5.6
X4.2874Y-5.7
X5.2873Y-5.5999
X5.2873Y-5.6999
X5.2874Y-3.9
X5.2874Y-4.0
X5.2874Y-4.1
X5.2874Y-4.2
X5.2874Y-4.3
X5.2874Y-4.4
X5.2874Y-4.5
X5.2874Y-4.6
X5.2874Y-4.7
X5.2874Y-4.8
X5.2874Y-4.9
X5.2874Y-5.0
X5.2874Y-5.1
X5.2874Y-5.2
X5.2874Y-5.3
X5.2874Y-5.4
X5.2874Y-5.5
T4
X5.6707Y-5.1969
X5.6707Y-5.4154
X5.6707Y-5.6339
X5.7707Y-5.1969
X5.7707Y-5.4154
X5.7707Y-5.6339
T5
X3.6514Y-4.7687
X3.653Y-4.0148
X3.653Y-4.2667
X3.653Y-4.5157
X3.6535Y-3.7628
X3.7514Y-4.7687
X3.753Y-4.0148
X3.753Y-4.2667
X3.753Y-4.5157
X3.7535Y-3.7628
X3.8514Y-4.7687
X3.853Y-4.0148
X3.853Y-4.2667
X3.853Y-4.5157
X3.8535Y-3.7628
X3.9514Y-4.7687
X3.953Y-4.0148
X3.953Y-4.2667
X3.953Y-4.5157
X3.9535Y-3.7628
X4.0266Y-5.2466
X4.0266Y-5.3466
X4.0514Y-4.7687
X4.053Y-4.0148
X4.053Y-4.2667
X4.053Y-4.5157
X4.5673Y-3.3791
X4.5673Y-3.4791
X4.6673Y-3.3791
X4.6673Y-3.4791
X4.7673Y-3.3791
X4.7673Y-3.4791
X4.8673Y-3.3791
X4.8673Y-3.4791
X5.6707Y-4.7077
X5.6707Y-4.8888
X5.7707Y-4.7077
X5.7707Y-4.8888
X5.9961Y-4.7077
X5.9961Y-4.8888
X5.9961Y-5.0699
X5.9961Y-5.251
X5.9961Y-5.4331
X5.9961Y-5.6142
X5.9976Y-3.9833
X5.9976Y-4.1644
X5.9976Y-4.3455
X5.9976Y-4.5266
X6.0961Y-4.7077
X6.0961Y-4.8888
X6.0961Y-5.0699
X6.0961Y-5.251
X6.0961Y-5.4331
X6.0961Y-5.6142
X6.0976Y-3.9833
X6.0976Y-4.1644
X6.0976Y-4.3455
X6.0976Y-4.5266
T2
G00X3.6522Y-5.4779
M15
G01X3.6522Y-5.5015
M16
G05
G00X3.6522Y-5.6275
M15
G01X3.6522Y-5.6511
M16
G05
G00X3.9923Y-5.4779
M15
G01X3.9923Y-5.5015
M16
G05
G00X3.9923Y-5.6275
M15
G01X3.9923Y-5.6511
M16
G05
M30
