%TF.GenerationSoftware,KiCad,Pcbnew,8.0.4*%
%TF.CreationDate,2024-12-10T19:57:11+05:30*%
%TF.ProjectId,controller-v3,636f6e74-726f-46c6-9c65-722d76332e6b,rev?*%
%TF.SameCoordinates,Original*%
%TF.FileFunction,Copper,L3,Inr*%
%TF.FilePolarity,Positive*%
%FSLAX46Y46*%
G04 Gerber Fmt 4.6, Leading zero omitted, Abs format (unit mm)*
G04 Created by KiCad (PCBNEW 8.0.4) date 2024-12-10 19:57:11*
%MOMM*%
%LPD*%
G01*
G04 APERTURE LIST*
%TA.AperFunction,ComponentPad*%
%ADD10R,1.700000X1.700000*%
%TD*%
%TA.AperFunction,ComponentPad*%
%ADD11C,1.700000*%
%TD*%
%TA.AperFunction,ComponentPad*%
%ADD12O,1.700000X1.700000*%
%TD*%
%TA.AperFunction,ComponentPad*%
%ADD13R,1.800000X1.800000*%
%TD*%
%TA.AperFunction,ComponentPad*%
%ADD14C,1.800000*%
%TD*%
%TA.AperFunction,ComponentPad*%
%ADD15R,2.000000X1.200000*%
%TD*%
%TA.AperFunction,ComponentPad*%
%ADD16O,2.000000X1.200000*%
%TD*%
%TA.AperFunction,ComponentPad*%
%ADD17O,1.100000X1.700000*%
%TD*%
%TA.AperFunction,ViaPad*%
%ADD18C,0.985000*%
%TD*%
%TA.AperFunction,ViaPad*%
%ADD19C,0.600000*%
%TD*%
%TA.AperFunction,Conductor*%
%ADD20C,0.885000*%
%TD*%
%TA.AperFunction,Conductor*%
%ADD21C,0.500000*%
%TD*%
G04 APERTURE END LIST*
D10*
%TO.N,GND*%
%TO.C,U4*%
X116010000Y-88370000D03*
D11*
%TO.N,/3v3*%
X116010000Y-85830000D03*
%TO.N,/CE*%
X118550000Y-88370000D03*
%TO.N,/CSN*%
X118550000Y-85830000D03*
%TO.N,/SCK*%
X121090000Y-88370000D03*
%TO.N,/MOSI*%
X121090000Y-85830000D03*
%TO.N,/MISO*%
X123630000Y-88370000D03*
%TO.N,/IRQ*%
X123630000Y-85830000D03*
%TD*%
D10*
%TO.N,/sw_analog_in*%
%TO.C,SW5*%
X152300000Y-119575000D03*
D12*
%TO.N,Net-(R14-Pad2)*%
X154840000Y-119575000D03*
%TD*%
D10*
%TO.N,/sw_analog_in*%
%TO.C,SW8*%
X152300000Y-133375000D03*
D12*
%TO.N,Net-(R16-Pad1)*%
X154840000Y-133375000D03*
%TD*%
D10*
%TO.N,GND*%
%TO.C,joy3*%
X92745000Y-121125000D03*
D12*
%TO.N,/3v3*%
X95285000Y-121125000D03*
%TO.N,/joy3_x*%
X97825000Y-121125000D03*
%TO.N,/joy3_y*%
X100365000Y-121125000D03*
%TO.N,/calibrate_joy3*%
X102905000Y-121125000D03*
%TD*%
D10*
%TO.N,/sw_analog_in*%
%TO.C,SW6*%
X152300000Y-124175000D03*
D12*
%TO.N,Net-(R14-Pad1)*%
X154840000Y-124175000D03*
%TD*%
D13*
%TO.N,GND*%
%TO.C,D1*%
X146575000Y-132000000D03*
D14*
%TO.N,Net-(D1-A)*%
X144035000Y-132000000D03*
%TD*%
D10*
%TO.N,GND*%
%TO.C,joy0*%
X92785000Y-114700000D03*
D12*
%TO.N,/3v3*%
X95325000Y-114700000D03*
%TO.N,/joy0_x*%
X97865000Y-114700000D03*
%TO.N,/joy0_y*%
X100405000Y-114700000D03*
%TO.N,/calibrate_joy0*%
X102945000Y-114700000D03*
%TD*%
D10*
%TO.N,GND*%
%TO.C,joy2*%
X92785000Y-101975000D03*
D12*
%TO.N,/3v3*%
X95325000Y-101975000D03*
%TO.N,/joy2_x*%
X97865000Y-101975000D03*
%TO.N,/joy2_y*%
X100405000Y-101975000D03*
%TO.N,/calibrate_joy2*%
X102945000Y-101975000D03*
%TD*%
D10*
%TO.N,GND*%
%TO.C,joy1*%
X92785000Y-108375000D03*
D12*
%TO.N,/3v3*%
X95325000Y-108375000D03*
%TO.N,/joy1_x*%
X97865000Y-108375000D03*
%TO.N,/joy1_y*%
X100405000Y-108375000D03*
%TO.N,/calibrate_joy1*%
X102945000Y-108375000D03*
%TD*%
D10*
%TO.N,/sw_analog_in*%
%TO.C,SW1*%
X152340000Y-101175000D03*
D12*
%TO.N,Net-(R1-Pad1)*%
X154880000Y-101175000D03*
%TD*%
D10*
%TO.N,/sw_analog_in*%
%TO.C,SW2*%
X152340000Y-105775000D03*
D12*
%TO.N,Net-(R2-Pad1)*%
X154880000Y-105775000D03*
%TD*%
D10*
%TO.N,/sw_analog_in*%
%TO.C,SW7*%
X152300000Y-128775000D03*
D12*
%TO.N,Net-(R15-Pad1)*%
X154840000Y-128775000D03*
%TD*%
D15*
%TO.N,/3v3*%
%TO.C,U7*%
X108900000Y-99060000D03*
D16*
%TO.N,unconnected-(U7-CHIP_PU-Pad2)*%
X108900000Y-101600000D03*
%TO.N,/calibrate_joy2*%
X108900000Y-104140000D03*
%TO.N,/calibrate_joy1*%
X108900000Y-106680000D03*
%TO.N,/calibrate_joy0*%
X108900000Y-109220000D03*
%TO.N,/calibrate_joy3*%
X108900000Y-111760000D03*
%TO.N,/joy2_y*%
X108900000Y-114300000D03*
%TO.N,/joy2_x*%
X108900000Y-116840000D03*
%TO.N,/joy1_y*%
X108900000Y-119380000D03*
%TO.N,/joy1_x*%
X108900000Y-121920000D03*
%TO.N,/joy0_y*%
X108900000Y-124460000D03*
%TO.N,/joy0_x*%
X108900000Y-127000000D03*
%TO.N,/joy3_y*%
X108900000Y-129540000D03*
%TO.N,GND*%
X108900000Y-132080000D03*
%TO.N,/joy3_x*%
X108900000Y-134620000D03*
%TO.N,unconnected-(U7-SD_DATA2{slash}GPIO9-Pad16)*%
X108900000Y-137160000D03*
%TO.N,unconnected-(U7-SD_DATA3{slash}GPIO10-Pad17)*%
X108900000Y-139700000D03*
%TO.N,unconnected-(U7-CMD-Pad18)*%
X108900000Y-142240000D03*
%TO.N,unconnected-(U7-5V-Pad19)*%
X108900000Y-144780000D03*
%TO.N,/LED0*%
X134296320Y-144777280D03*
%TO.N,/LED2*%
X134296320Y-142237280D03*
%TO.N,/LED1*%
X134300000Y-139700000D03*
%TO.N,/oled_cycle*%
X134300000Y-137160000D03*
%TO.N,/mode_select*%
X134300000Y-134620000D03*
%TO.N,unconnected-(U7-GPIO0{slash}BOOT{slash}ADC2_CH1-Pad25)*%
X134300000Y-132080000D03*
%TO.N,/CE*%
X134300000Y-129540000D03*
%TO.N,unconnected-(U7-GPIO16-Pad27)*%
X134300000Y-127000000D03*
%TO.N,/sw_analog_in*%
X134300000Y-124460000D03*
%TO.N,/CSN*%
X134300000Y-121920000D03*
%TO.N,/SCK*%
X134300000Y-119380000D03*
%TO.N,/MISO*%
X134300000Y-116840000D03*
%TO.N,GND*%
X134300000Y-114300000D03*
%TO.N,/oled_sda*%
X134300000Y-111760000D03*
%TO.N,unconnected-(U7-U0RXD{slash}GPIO3-Pad34)*%
X134300000Y-109220000D03*
%TO.N,/IRQ*%
X134300000Y-106680000D03*
%TO.N,/oled_scl*%
X134300000Y-104140000D03*
%TO.N,/MOSI*%
X134300000Y-101600000D03*
%TO.N,GND*%
X134300000Y-99060000D03*
%TD*%
D10*
%TO.N,GND*%
%TO.C,U1*%
X92800000Y-95575000D03*
D12*
%TO.N,/3v3*%
X95340000Y-95575000D03*
%TO.N,/oled_scl*%
X97880000Y-95575000D03*
%TO.N,/oled_sda*%
X100420000Y-95575000D03*
%TD*%
D13*
%TO.N,GND*%
%TO.C,D3*%
X146575000Y-143100000D03*
D14*
%TO.N,Net-(D3-A)*%
X144035000Y-143100000D03*
%TD*%
D10*
%TO.N,Net-(on/off1-A)*%
%TO.C,on/off1*%
X102275000Y-135802500D03*
D12*
%TO.N,Net-(U5-VI)*%
X102275000Y-133262500D03*
%TD*%
D17*
%TO.N,GND*%
%TO.C,J1*%
X92765000Y-139437500D03*
X92765000Y-143237500D03*
X101405000Y-139437500D03*
X101405000Y-143237500D03*
%TD*%
D10*
%TO.N,/sw_analog_in*%
%TO.C,SW4*%
X152340000Y-114975000D03*
D12*
%TO.N,Net-(R4-Pad1)*%
X154880000Y-114975000D03*
%TD*%
D10*
%TO.N,/sw_analog_in*%
%TO.C,SW10*%
X152300000Y-142600000D03*
D12*
%TO.N,/3v3*%
X154840000Y-142600000D03*
%TD*%
D10*
%TO.N,/sw_analog_in*%
%TO.C,SW3*%
X152340000Y-110375000D03*
D12*
%TO.N,Net-(R3-Pad1)*%
X154880000Y-110375000D03*
%TD*%
D10*
%TO.N,/3v3*%
%TO.C,mode_select1*%
X146575000Y-119575000D03*
D12*
%TO.N,/mode_select*%
X144035000Y-119575000D03*
%TD*%
D10*
%TO.N,/sw_analog_in*%
%TO.C,SW9*%
X152300000Y-138000000D03*
D12*
%TO.N,Net-(R17-Pad1)*%
X154840000Y-138000000D03*
%TD*%
D13*
%TO.N,GND*%
%TO.C,D2*%
X146575000Y-137550000D03*
D14*
%TO.N,Net-(D2-A)*%
X144035000Y-137550000D03*
%TD*%
D10*
%TO.N,/3v3*%
%TO.C,oled_cycle1*%
X146575000Y-124175000D03*
D12*
%TO.N,/oled_cycle*%
X144035000Y-124175000D03*
%TD*%
D18*
%TO.N,GND*%
X93450000Y-136312500D03*
D19*
X138587500Y-121900000D03*
D18*
%TO.N,/3v3*%
X96300000Y-136312500D03*
%TO.N,/CSN*%
X113150000Y-101235000D03*
%TD*%
D20*
%TO.N,GND*%
X116150000Y-92530000D02*
X127770000Y-92530000D01*
X93450000Y-136250000D02*
X91100000Y-133900000D01*
D21*
X140300000Y-127000000D02*
X144600000Y-127000000D01*
X138587500Y-125287500D02*
X140300000Y-127000000D01*
X92785000Y-95745000D02*
X92615000Y-95575000D01*
D20*
X92785000Y-101975000D02*
X92785000Y-95745000D01*
D21*
X138587500Y-121900000D02*
X138587500Y-125287500D01*
D20*
X92785000Y-108375000D02*
X92785000Y-101975000D01*
X116055000Y-88805000D02*
X116055000Y-92435000D01*
X91100000Y-116385000D02*
X92785000Y-114700000D01*
D21*
X146575000Y-128975000D02*
X146575000Y-132000000D01*
D20*
X93450000Y-136312500D02*
X93450000Y-136250000D01*
D21*
X144600000Y-127000000D02*
X146575000Y-128975000D01*
D20*
X92785000Y-114700000D02*
X92785000Y-108375000D01*
X92615000Y-95575000D02*
X95590000Y-92600000D01*
X116055000Y-92435000D02*
X116150000Y-92530000D01*
D21*
X134300000Y-114300000D02*
X138587500Y-118587500D01*
D20*
X91100000Y-133900000D02*
X91100000Y-116385000D01*
D21*
X138587500Y-118587500D02*
X138587500Y-121900000D01*
D20*
X95590000Y-92600000D02*
X121000000Y-92600000D01*
X127770000Y-92530000D02*
X134300000Y-99060000D01*
%TD*%
M02*
