%TF.GenerationSoftware,KiCad,Pcbnew,8.0.4*%
%TF.CreationDate,2024-12-10T19:57:11+05:30*%
%TF.ProjectId,controller-v3,636f6e74-726f-46c6-9c65-722d76332e6b,rev?*%
%TF.SameCoordinates,Original*%
%TF.FileFunction,Copper,L1,Top*%
%TF.FilePolarity,Positive*%
%FSLAX46Y46*%
G04 Gerber Fmt 4.6, Leading zero omitted, Abs format (unit mm)*
G04 Created by KiCad (PCBNEW 8.0.4) date 2024-12-10 19:57:11*
%MOMM*%
%LPD*%
G01*
G04 APERTURE LIST*
G04 Aperture macros list*
%AMRoundRect*
0 Rectangle with rounded corners*
0 $1 Rounding radius*
0 $2 $3 $4 $5 $6 $7 $8 $9 X,Y pos of 4 corners*
0 Add a 4 corners polygon primitive as box body*
4,1,4,$2,$3,$4,$5,$6,$7,$8,$9,$2,$3,0*
0 Add four circle primitives for the rounded corners*
1,1,$1+$1,$2,$3*
1,1,$1+$1,$4,$5*
1,1,$1+$1,$6,$7*
1,1,$1+$1,$8,$9*
0 Add four rect primitives between the rounded corners*
20,1,$1+$1,$2,$3,$4,$5,0*
20,1,$1+$1,$4,$5,$6,$7,0*
20,1,$1+$1,$6,$7,$8,$9,0*
20,1,$1+$1,$8,$9,$2,$3,0*%
G04 Aperture macros list end*
%TA.AperFunction,ComponentPad*%
%ADD10R,1.700000X1.700000*%
%TD*%
%TA.AperFunction,ComponentPad*%
%ADD11C,1.700000*%
%TD*%
%TA.AperFunction,ComponentPad*%
%ADD12O,1.700000X1.700000*%
%TD*%
%TA.AperFunction,SMDPad,CuDef*%
%ADD13RoundRect,0.250000X-0.262500X-0.450000X0.262500X-0.450000X0.262500X0.450000X-0.262500X0.450000X0*%
%TD*%
%TA.AperFunction,SMDPad,CuDef*%
%ADD14RoundRect,0.250000X0.262500X0.450000X-0.262500X0.450000X-0.262500X-0.450000X0.262500X-0.450000X0*%
%TD*%
%TA.AperFunction,SMDPad,CuDef*%
%ADD15RoundRect,0.375000X0.375000X-0.625000X0.375000X0.625000X-0.375000X0.625000X-0.375000X-0.625000X0*%
%TD*%
%TA.AperFunction,SMDPad,CuDef*%
%ADD16RoundRect,0.500000X1.400000X-0.500000X1.400000X0.500000X-1.400000X0.500000X-1.400000X-0.500000X0*%
%TD*%
%TA.AperFunction,ComponentPad*%
%ADD17R,1.800000X1.800000*%
%TD*%
%TA.AperFunction,ComponentPad*%
%ADD18C,1.800000*%
%TD*%
%TA.AperFunction,ComponentPad*%
%ADD19R,2.000000X1.200000*%
%TD*%
%TA.AperFunction,ComponentPad*%
%ADD20O,2.000000X1.200000*%
%TD*%
%TA.AperFunction,SMDPad,CuDef*%
%ADD21RoundRect,0.175000X-0.175000X-0.425000X0.175000X-0.425000X0.175000X0.425000X-0.175000X0.425000X0*%
%TD*%
%TA.AperFunction,SMDPad,CuDef*%
%ADD22RoundRect,0.190000X0.190000X0.410000X-0.190000X0.410000X-0.190000X-0.410000X0.190000X-0.410000X0*%
%TD*%
%TA.AperFunction,SMDPad,CuDef*%
%ADD23RoundRect,0.200000X0.200000X0.400000X-0.200000X0.400000X-0.200000X-0.400000X0.200000X-0.400000X0*%
%TD*%
%TA.AperFunction,SMDPad,CuDef*%
%ADD24RoundRect,0.175000X0.175000X0.425000X-0.175000X0.425000X-0.175000X-0.425000X0.175000X-0.425000X0*%
%TD*%
%TA.AperFunction,SMDPad,CuDef*%
%ADD25RoundRect,0.190000X-0.190000X-0.410000X0.190000X-0.410000X0.190000X0.410000X-0.190000X0.410000X0*%
%TD*%
%TA.AperFunction,SMDPad,CuDef*%
%ADD26RoundRect,0.200000X-0.200000X-0.400000X0.200000X-0.400000X0.200000X0.400000X-0.200000X0.400000X0*%
%TD*%
%TA.AperFunction,ComponentPad*%
%ADD27O,1.100000X1.700000*%
%TD*%
%TA.AperFunction,SMDPad,CuDef*%
%ADD28RoundRect,0.250000X-0.475000X0.250000X-0.475000X-0.250000X0.475000X-0.250000X0.475000X0.250000X0*%
%TD*%
%TA.AperFunction,ViaPad*%
%ADD29C,0.985000*%
%TD*%
%TA.AperFunction,ViaPad*%
%ADD30C,0.600000*%
%TD*%
%TA.AperFunction,Conductor*%
%ADD31C,0.500000*%
%TD*%
%TA.AperFunction,Conductor*%
%ADD32C,0.885000*%
%TD*%
G04 APERTURE END LIST*
D10*
%TO.P,U4,1,GND*%
%TO.N,GND*%
X116010000Y-88370000D03*
D11*
%TO.P,U4,2,VCC*%
%TO.N,/3v3*%
X116010000Y-85830000D03*
%TO.P,U4,3,CE*%
%TO.N,/CE*%
X118550000Y-88370000D03*
%TO.P,U4,4,~{CSN}*%
%TO.N,/CSN*%
X118550000Y-85830000D03*
%TO.P,U4,5,SCK*%
%TO.N,/SCK*%
X121090000Y-88370000D03*
%TO.P,U4,6,MOSI*%
%TO.N,/MOSI*%
X121090000Y-85830000D03*
%TO.P,U4,7,MISO*%
%TO.N,/MISO*%
X123630000Y-88370000D03*
%TO.P,U4,8,IRQ*%
%TO.N,/IRQ*%
X123630000Y-85830000D03*
%TD*%
D10*
%TO.P,SW5,1,1*%
%TO.N,/sw_analog_in*%
X152300000Y-119575000D03*
D12*
%TO.P,SW5,2,2*%
%TO.N,Net-(R14-Pad2)*%
X154840000Y-119575000D03*
%TD*%
D13*
%TO.P,R4,1*%
%TO.N,Net-(R4-Pad1)*%
X161615000Y-117750000D03*
%TO.P,R4,2*%
%TO.N,Net-(R3-Pad1)*%
X163440000Y-117750000D03*
%TD*%
D14*
%TO.P,R11,1*%
%TO.N,/oled_cycle*%
X140412500Y-123400000D03*
%TO.P,R11,2*%
%TO.N,GND*%
X138587500Y-123400000D03*
%TD*%
D10*
%TO.P,SW8,1,1*%
%TO.N,/sw_analog_in*%
X152300000Y-133375000D03*
D12*
%TO.P,SW8,2,2*%
%TO.N,Net-(R16-Pad1)*%
X154840000Y-133375000D03*
%TD*%
D13*
%TO.P,R8,1*%
%TO.N,/LED1*%
X138717500Y-134900000D03*
%TO.P,R8,2*%
%TO.N,Net-(D1-A)*%
X140542500Y-134900000D03*
%TD*%
D15*
%TO.P,U5,1,GND*%
%TO.N,GND*%
X92800000Y-133287500D03*
%TO.P,U5,2,VO*%
%TO.N,/3v3*%
X95100000Y-133287500D03*
D16*
X95100000Y-126987500D03*
D15*
%TO.P,U5,3,VI*%
%TO.N,Net-(U5-VI)*%
X97400000Y-133287500D03*
%TD*%
D13*
%TO.P,R1,1*%
%TO.N,Net-(R1-Pad1)*%
X161615000Y-108900000D03*
%TO.P,R1,2*%
%TO.N,GND*%
X163440000Y-108900000D03*
%TD*%
D10*
%TO.P,joy3,1,GND*%
%TO.N,GND*%
X92745000Y-121125000D03*
D12*
%TO.P,joy3,2,Vcc*%
%TO.N,/3v3*%
X95285000Y-121125000D03*
%TO.P,joy3,3,VRX*%
%TO.N,/joy3_x*%
X97825000Y-121125000D03*
%TO.P,joy3,4,VRY*%
%TO.N,/joy3_y*%
X100365000Y-121125000D03*
%TO.P,joy3,5,SW*%
%TO.N,/calibrate_joy3*%
X102905000Y-121125000D03*
%TD*%
D10*
%TO.P,SW6,1,1*%
%TO.N,/sw_analog_in*%
X152300000Y-124175000D03*
D12*
%TO.P,SW6,2,2*%
%TO.N,Net-(R14-Pad1)*%
X154840000Y-124175000D03*
%TD*%
D17*
%TO.P,D1,1,K*%
%TO.N,GND*%
X146575000Y-132000000D03*
D18*
%TO.P,D1,2,A*%
%TO.N,Net-(D1-A)*%
X144035000Y-132000000D03*
%TD*%
D13*
%TO.P,R9,1*%
%TO.N,/LED2*%
X138717500Y-137600000D03*
%TO.P,R9,2*%
%TO.N,Net-(D2-A)*%
X140542500Y-137600000D03*
%TD*%
D10*
%TO.P,joy0,1,GND*%
%TO.N,GND*%
X92785000Y-114700000D03*
D12*
%TO.P,joy0,2,Vcc*%
%TO.N,/3v3*%
X95325000Y-114700000D03*
%TO.P,joy0,3,VRX*%
%TO.N,/joy0_x*%
X97865000Y-114700000D03*
%TO.P,joy0,4,VRY*%
%TO.N,/joy0_y*%
X100405000Y-114700000D03*
%TO.P,joy0,5,SW*%
%TO.N,/calibrate_joy0*%
X102945000Y-114700000D03*
%TD*%
D13*
%TO.P,R5,1*%
%TO.N,Net-(R14-Pad2)*%
X161627500Y-120700000D03*
%TO.P,R5,2*%
%TO.N,Net-(R4-Pad1)*%
X163452500Y-120700000D03*
%TD*%
D14*
%TO.P,R13,1*%
%TO.N,/calibrate_joy0*%
X98872500Y-112125000D03*
%TO.P,R13,2*%
%TO.N,GND*%
X97047500Y-112125000D03*
%TD*%
D10*
%TO.P,joy2,1,GND*%
%TO.N,GND*%
X92785000Y-101975000D03*
D12*
%TO.P,joy2,2,Vcc*%
%TO.N,/3v3*%
X95325000Y-101975000D03*
%TO.P,joy2,3,VRX*%
%TO.N,/joy2_x*%
X97865000Y-101975000D03*
%TO.P,joy2,4,VRY*%
%TO.N,/joy2_y*%
X100405000Y-101975000D03*
%TO.P,joy2,5,SW*%
%TO.N,/calibrate_joy2*%
X102945000Y-101975000D03*
%TD*%
D10*
%TO.P,joy1,1,GND*%
%TO.N,GND*%
X92785000Y-108375000D03*
D12*
%TO.P,joy1,2,Vcc*%
%TO.N,/3v3*%
X95325000Y-108375000D03*
%TO.P,joy1,3,VRX*%
%TO.N,/joy1_x*%
X97865000Y-108375000D03*
%TO.P,joy1,4,VRY*%
%TO.N,/joy1_y*%
X100405000Y-108375000D03*
%TO.P,joy1,5,SW*%
%TO.N,/calibrate_joy1*%
X102945000Y-108375000D03*
%TD*%
D13*
%TO.P,R17,1*%
%TO.N,Net-(R17-Pad1)*%
X161602500Y-132550000D03*
%TO.P,R17,2*%
%TO.N,Net-(R16-Pad1)*%
X163427500Y-132550000D03*
%TD*%
D14*
%TO.P,R19,1*%
%TO.N,/calibrate_joy3*%
X98902500Y-118500000D03*
%TO.P,R19,2*%
%TO.N,GND*%
X97077500Y-118500000D03*
%TD*%
D10*
%TO.P,SW1,1,1*%
%TO.N,/sw_analog_in*%
X152340000Y-101175000D03*
D12*
%TO.P,SW1,2,2*%
%TO.N,Net-(R1-Pad1)*%
X154880000Y-101175000D03*
%TD*%
D14*
%TO.P,R_pulldown1,1*%
%TO.N,/sw_analog_in*%
X147902500Y-101100000D03*
%TO.P,R_pulldown1,2*%
%TO.N,GND*%
X146077500Y-101100000D03*
%TD*%
D13*
%TO.P,R16,1*%
%TO.N,Net-(R16-Pad1)*%
X161602500Y-129600000D03*
%TO.P,R16,2*%
%TO.N,Net-(R15-Pad1)*%
X163427500Y-129600000D03*
%TD*%
D10*
%TO.P,SW2,1,1*%
%TO.N,/sw_analog_in*%
X152340000Y-105775000D03*
D12*
%TO.P,SW2,2,2*%
%TO.N,Net-(R2-Pad1)*%
X154880000Y-105775000D03*
%TD*%
D10*
%TO.P,SW7,1,1*%
%TO.N,/sw_analog_in*%
X152300000Y-128775000D03*
D12*
%TO.P,SW7,2,2*%
%TO.N,Net-(R15-Pad1)*%
X154840000Y-128775000D03*
%TD*%
D13*
%TO.P,R15,1*%
%TO.N,Net-(R15-Pad1)*%
X161615000Y-126650000D03*
%TO.P,R15,2*%
%TO.N,Net-(R14-Pad1)*%
X163440000Y-126650000D03*
%TD*%
D19*
%TO.P,U7,1,3V3*%
%TO.N,/3v3*%
X108900000Y-99060000D03*
D20*
%TO.P,U7,2,CHIP_PU*%
%TO.N,unconnected-(U7-CHIP_PU-Pad2)*%
X108900000Y-101600000D03*
%TO.P,U7,3,SENSOR_VP/GPIO36/ADC1_CH0*%
%TO.N,/calibrate_joy2*%
X108900000Y-104140000D03*
%TO.P,U7,4,SENSOR_VN/GPIO39/ADC1_CH3*%
%TO.N,/calibrate_joy1*%
X108900000Y-106680000D03*
%TO.P,U7,5,VDET_1/GPIO34/ADC1_CH6*%
%TO.N,/calibrate_joy0*%
X108900000Y-109220000D03*
%TO.P,U7,6,VDET_2/GPIO35/ADC1_CH7*%
%TO.N,/calibrate_joy3*%
X108900000Y-111760000D03*
%TO.P,U7,7,32K_XP/GPIO32/ADC1_CH4*%
%TO.N,/joy2_y*%
X108900000Y-114300000D03*
%TO.P,U7,8,32K_XN/GPIO33/ADC1_CH5*%
%TO.N,/joy2_x*%
X108900000Y-116840000D03*
%TO.P,U7,9,DAC_1/ADC2_CH8/GPIO25*%
%TO.N,/joy1_y*%
X108900000Y-119380000D03*
%TO.P,U7,10,DAC_2/ADC2_CH9/GPIO26*%
%TO.N,/joy1_x*%
X108900000Y-121920000D03*
%TO.P,U7,11,ADC2_CH7/GPIO27*%
%TO.N,/joy0_y*%
X108900000Y-124460000D03*
%TO.P,U7,12,MTMS/GPIO14/ADC2_CH6*%
%TO.N,/joy0_x*%
X108900000Y-127000000D03*
%TO.P,U7,13,MTDI/GPIO12/ADC2_CH5*%
%TO.N,/joy3_y*%
X108900000Y-129540000D03*
%TO.P,U7,14,GND*%
%TO.N,GND*%
X108900000Y-132080000D03*
%TO.P,U7,15,MTCK/GPIO13/ADC2_CH4*%
%TO.N,/joy3_x*%
X108900000Y-134620000D03*
%TO.P,U7,16,SD_DATA2/GPIO9*%
%TO.N,unconnected-(U7-SD_DATA2{slash}GPIO9-Pad16)*%
X108900000Y-137160000D03*
%TO.P,U7,17,SD_DATA3/GPIO10*%
%TO.N,unconnected-(U7-SD_DATA3{slash}GPIO10-Pad17)*%
X108900000Y-139700000D03*
%TO.P,U7,18,CMD*%
%TO.N,unconnected-(U7-CMD-Pad18)*%
X108900000Y-142240000D03*
%TO.P,U7,19,5V*%
%TO.N,unconnected-(U7-5V-Pad19)*%
X108900000Y-144780000D03*
%TO.P,U7,20,SD_CLK/GPIO6*%
%TO.N,/LED0*%
X134296320Y-144777280D03*
%TO.P,U7,21,SD_DATA0/GPIO7*%
%TO.N,/LED2*%
X134296320Y-142237280D03*
%TO.P,U7,22,SD_DATA1/GPIO8*%
%TO.N,/LED1*%
X134300000Y-139700000D03*
%TO.P,U7,23,MTDO/GPIO15/ADC2_CH3*%
%TO.N,/oled_cycle*%
X134300000Y-137160000D03*
%TO.P,U7,24,ADC2_CH2/GPIO2*%
%TO.N,/mode_select*%
X134300000Y-134620000D03*
%TO.P,U7,25,GPIO0/BOOT/ADC2_CH1*%
%TO.N,unconnected-(U7-GPIO0{slash}BOOT{slash}ADC2_CH1-Pad25)*%
X134300000Y-132080000D03*
%TO.P,U7,26,ADC2_CH0/GPIO4*%
%TO.N,/CE*%
X134300000Y-129540000D03*
%TO.P,U7,27,GPIO16*%
%TO.N,unconnected-(U7-GPIO16-Pad27)*%
X134300000Y-127000000D03*
%TO.P,U7,28,GPIO17*%
%TO.N,/sw_analog_in*%
X134300000Y-124460000D03*
%TO.P,U7,29,GPIO5*%
%TO.N,/CSN*%
X134300000Y-121920000D03*
%TO.P,U7,30,GPIO18*%
%TO.N,/SCK*%
X134300000Y-119380000D03*
%TO.P,U7,31,GPIO19*%
%TO.N,/MISO*%
X134300000Y-116840000D03*
%TO.P,U7,32,GND*%
%TO.N,GND*%
X134300000Y-114300000D03*
%TO.P,U7,33,GPIO21*%
%TO.N,/oled_sda*%
X134300000Y-111760000D03*
%TO.P,U7,34,U0RXD/GPIO3*%
%TO.N,unconnected-(U7-U0RXD{slash}GPIO3-Pad34)*%
X134300000Y-109220000D03*
%TO.P,U7,35,U0TXD/GPIO1*%
%TO.N,/IRQ*%
X134300000Y-106680000D03*
%TO.P,U7,36,GPIO22*%
%TO.N,/oled_scl*%
X134300000Y-104140000D03*
%TO.P,U7,37,GPIO23*%
%TO.N,/MOSI*%
X134300000Y-101600000D03*
%TO.P,U7,38,GND*%
%TO.N,GND*%
X134300000Y-99060000D03*
%TD*%
D10*
%TO.P,U1,1,gnd*%
%TO.N,GND*%
X92800000Y-95575000D03*
D12*
%TO.P,U1,2,vcc*%
%TO.N,/3v3*%
X95340000Y-95575000D03*
%TO.P,U1,3,SCL*%
%TO.N,/oled_scl*%
X97880000Y-95575000D03*
%TO.P,U1,4,SDA*%
%TO.N,/oled_sda*%
X100420000Y-95575000D03*
%TD*%
D17*
%TO.P,D3,1,K*%
%TO.N,GND*%
X146575000Y-143100000D03*
D18*
%TO.P,D3,2,A*%
%TO.N,Net-(D3-A)*%
X144035000Y-143100000D03*
%TD*%
D10*
%TO.P,on/off1,1,A*%
%TO.N,Net-(on/off1-A)*%
X102275000Y-135802500D03*
D12*
%TO.P,on/off1,2,B*%
%TO.N,Net-(U5-VI)*%
X102275000Y-133262500D03*
%TD*%
D21*
%TO.P,J1,A5,CC1*%
%TO.N,unconnected-(J1-CC1-PadA5)*%
X96585000Y-139357500D03*
D22*
%TO.P,J1,A9,VBUS*%
%TO.N,Net-(on/off1-A)*%
X98605000Y-139357500D03*
D23*
%TO.P,J1,A12,GND*%
%TO.N,GND*%
X99835000Y-139357500D03*
D24*
%TO.P,J1,B5,CC2*%
%TO.N,unconnected-(J1-CC2-PadB5)*%
X97585000Y-139357500D03*
D25*
%TO.P,J1,B9,VBUS*%
%TO.N,Net-(on/off1-A)*%
X95565000Y-139357500D03*
D26*
%TO.P,J1,B12,GND*%
%TO.N,GND*%
X94335000Y-139357500D03*
D27*
%TO.P,J1,S1,SHIELD*%
X92765000Y-139437500D03*
X92765000Y-143237500D03*
X101405000Y-139437500D03*
X101405000Y-143237500D03*
%TD*%
D10*
%TO.P,SW4,1,1*%
%TO.N,/sw_analog_in*%
X152340000Y-114975000D03*
D12*
%TO.P,SW4,2,2*%
%TO.N,Net-(R4-Pad1)*%
X154880000Y-114975000D03*
%TD*%
D10*
%TO.P,SW10,1,1*%
%TO.N,/sw_analog_in*%
X152300000Y-142600000D03*
D12*
%TO.P,SW10,2,2*%
%TO.N,/3v3*%
X154840000Y-142600000D03*
%TD*%
D14*
%TO.P,R10,1*%
%TO.N,/mode_select*%
X140412500Y-120450000D03*
%TO.P,R10,2*%
%TO.N,GND*%
X138587500Y-120450000D03*
%TD*%
D10*
%TO.P,SW3,1,1*%
%TO.N,/sw_analog_in*%
X152340000Y-110375000D03*
D12*
%TO.P,SW3,2,2*%
%TO.N,Net-(R3-Pad1)*%
X154880000Y-110375000D03*
%TD*%
D14*
%TO.P,R12,1*%
%TO.N,/calibrate_joy1*%
X98882500Y-105800000D03*
%TO.P,R12,2*%
%TO.N,GND*%
X97057500Y-105800000D03*
%TD*%
D10*
%TO.P,mode_select1,1,1*%
%TO.N,/3v3*%
X146575000Y-119575000D03*
D12*
%TO.P,mode_select1,2,2*%
%TO.N,/mode_select*%
X144035000Y-119575000D03*
%TD*%
D28*
%TO.P,C1,1*%
%TO.N,/3v3*%
X111650000Y-86430000D03*
%TO.P,C1,2*%
%TO.N,GND*%
X111650000Y-88330000D03*
%TD*%
D14*
%TO.P,R6,1*%
%TO.N,/calibrate_joy2*%
X98872500Y-99300000D03*
%TO.P,R6,2*%
%TO.N,GND*%
X97047500Y-99300000D03*
%TD*%
D10*
%TO.P,SW9,1,1*%
%TO.N,/sw_analog_in*%
X152300000Y-138000000D03*
D12*
%TO.P,SW9,2,2*%
%TO.N,Net-(R17-Pad1)*%
X154840000Y-138000000D03*
%TD*%
D17*
%TO.P,D2,1,K*%
%TO.N,GND*%
X146575000Y-137550000D03*
D18*
%TO.P,D2,2,A*%
%TO.N,Net-(D2-A)*%
X144035000Y-137550000D03*
%TD*%
D13*
%TO.P,R3,1*%
%TO.N,Net-(R3-Pad1)*%
X161615000Y-114800000D03*
%TO.P,R3,2*%
%TO.N,Net-(R2-Pad1)*%
X163440000Y-114800000D03*
%TD*%
%TO.P,R14,1*%
%TO.N,Net-(R14-Pad1)*%
X161615000Y-123700000D03*
%TO.P,R14,2*%
%TO.N,Net-(R14-Pad2)*%
X163440000Y-123700000D03*
%TD*%
%TO.P,R18,1*%
%TO.N,/3v3*%
X161602500Y-135500000D03*
%TO.P,R18,2*%
%TO.N,Net-(R17-Pad1)*%
X163427500Y-135500000D03*
%TD*%
%TO.P,R7,1*%
%TO.N,/LED0*%
X138717500Y-140500000D03*
%TO.P,R7,2*%
%TO.N,Net-(D3-A)*%
X140542500Y-140500000D03*
%TD*%
D10*
%TO.P,oled_cycle1,1,1*%
%TO.N,/3v3*%
X146575000Y-124175000D03*
D12*
%TO.P,oled_cycle1,2,2*%
%TO.N,/oled_cycle*%
X144035000Y-124175000D03*
%TD*%
D13*
%TO.P,R2,1*%
%TO.N,Net-(R2-Pad1)*%
X161615000Y-111850000D03*
%TO.P,R2,2*%
%TO.N,Net-(R1-Pad1)*%
X163440000Y-111850000D03*
%TD*%
D29*
%TO.N,GND*%
X93450000Y-136312500D03*
D30*
X138587500Y-121900000D03*
D29*
%TO.N,/3v3*%
X96300000Y-136312500D03*
%TO.N,/CSN*%
X113150000Y-101235000D03*
%TD*%
D31*
%TO.N,GND*%
X97047500Y-99300000D02*
X95460000Y-99300000D01*
X138587500Y-123400000D02*
X138587500Y-121900000D01*
X95360000Y-112125000D02*
X92785000Y-114700000D01*
X136360000Y-97000000D02*
X155100000Y-97000000D01*
X94255000Y-139437500D02*
X94335000Y-139357500D01*
D32*
X93450000Y-136312500D02*
X92800000Y-135662500D01*
X93450000Y-136312500D02*
X94335000Y-137197500D01*
X92765000Y-139437500D02*
X94255000Y-139437500D01*
D31*
X97057500Y-105800000D02*
X95360000Y-105800000D01*
X97077500Y-118500000D02*
X95370000Y-118500000D01*
D32*
X94335000Y-137197500D02*
X94335000Y-139357500D01*
D31*
X146077500Y-101100000D02*
X136340000Y-101100000D01*
X95360000Y-105800000D02*
X92785000Y-108375000D01*
X99915000Y-139437500D02*
X99835000Y-139357500D01*
X146575000Y-132000000D02*
X146575000Y-137550000D01*
X97047500Y-112125000D02*
X95360000Y-112125000D01*
D32*
X101405000Y-143237500D02*
X101405000Y-139437500D01*
D31*
X136340000Y-101100000D02*
X134300000Y-99060000D01*
D32*
X101405000Y-139437500D02*
X99915000Y-139437500D01*
D31*
X95460000Y-99300000D02*
X92785000Y-101975000D01*
X134300000Y-99060000D02*
X136360000Y-97000000D01*
X95370000Y-118500000D02*
X92745000Y-121125000D01*
D32*
X92765000Y-143237500D02*
X92765000Y-139437500D01*
D31*
X146575000Y-137550000D02*
X146575000Y-143100000D01*
X163440000Y-105340000D02*
X163440000Y-108900000D01*
D32*
X92800000Y-135662500D02*
X92800000Y-133287500D01*
D31*
X155100000Y-97000000D02*
X163440000Y-105340000D01*
X138587500Y-121900000D02*
X138587500Y-120450000D01*
X111650000Y-88315000D02*
X115565000Y-88315000D01*
%TO.N,/3v3*%
X154840000Y-142600000D02*
X161602500Y-135837500D01*
D32*
X95100000Y-135112500D02*
X95100000Y-133287500D01*
D31*
X115910000Y-85730000D02*
X116010000Y-85830000D01*
X161602500Y-135837500D02*
X161602500Y-135500000D01*
X112350000Y-85730000D02*
X115910000Y-85730000D01*
D32*
X96300000Y-136312500D02*
X95100000Y-135112500D01*
D31*
X111650000Y-86430000D02*
X112350000Y-85730000D01*
%TO.N,Net-(D1-A)*%
X141400000Y-134900000D02*
X144035000Y-132265000D01*
X140542500Y-134900000D02*
X141400000Y-134900000D01*
X144035000Y-132265000D02*
X144035000Y-132000000D01*
%TO.N,Net-(D2-A)*%
X140542500Y-137550000D02*
X144035000Y-137550000D01*
%TO.N,Net-(D3-A)*%
X141400000Y-140700000D02*
X143800000Y-143100000D01*
X140542500Y-140700000D02*
X141400000Y-140700000D01*
X143800000Y-143100000D02*
X144035000Y-143100000D01*
%TO.N,/calibrate_joy0*%
X98872500Y-112125000D02*
X100370000Y-112125000D01*
X105310000Y-109290000D02*
X102945000Y-111655000D01*
X108900000Y-109220000D02*
X108830000Y-109290000D01*
X108830000Y-109290000D02*
X105310000Y-109290000D01*
X100370000Y-112125000D02*
X102945000Y-114700000D01*
X102945000Y-111655000D02*
X102945000Y-114700000D01*
%TO.N,/calibrate_joy1*%
X100370000Y-105800000D02*
X102945000Y-108375000D01*
X108900000Y-106680000D02*
X108830000Y-106750000D01*
X98882500Y-105800000D02*
X100370000Y-105800000D01*
X108830000Y-106750000D02*
X104570000Y-106750000D01*
X104570000Y-106750000D02*
X102945000Y-108375000D01*
%TO.N,/mode_select*%
X137200000Y-131720000D02*
X134300000Y-134620000D01*
X137800000Y-118900000D02*
X137200000Y-119500000D01*
X143110000Y-120500000D02*
X140462500Y-120500000D01*
X137200000Y-119500000D02*
X137200000Y-131720000D01*
X144035000Y-119575000D02*
X143110000Y-120500000D01*
X138862500Y-118900000D02*
X137800000Y-118900000D01*
X140412500Y-120450000D02*
X138862500Y-118900000D01*
X140462500Y-120500000D02*
X140412500Y-120450000D01*
%TO.N,/oled_cycle*%
X140412500Y-123400000D02*
X140412500Y-131047500D01*
X143260000Y-123400000D02*
X144035000Y-124175000D01*
X140412500Y-131047500D02*
X134300000Y-137160000D01*
X140412500Y-123400000D02*
X143260000Y-123400000D01*
%TO.N,Net-(R1-Pad1)*%
X161440000Y-108900000D02*
X154880000Y-102340000D01*
X161615000Y-108900000D02*
X161615000Y-110025000D01*
X154880000Y-102340000D02*
X154880000Y-101175000D01*
X161615000Y-110025000D02*
X163440000Y-111850000D01*
X161615000Y-108900000D02*
X161440000Y-108900000D01*
%TO.N,Net-(R2-Pad1)*%
X161615000Y-111850000D02*
X161615000Y-112975000D01*
X154880000Y-106440000D02*
X160290000Y-111850000D01*
X161615000Y-112975000D02*
X163440000Y-114800000D01*
X160290000Y-111850000D02*
X161615000Y-111850000D01*
X154880000Y-105775000D02*
X154880000Y-106440000D01*
%TO.N,Net-(R3-Pad1)*%
X161615000Y-114800000D02*
X161615000Y-115925000D01*
X159305000Y-114800000D02*
X161615000Y-114800000D01*
X154880000Y-110375000D02*
X159305000Y-114800000D01*
X161615000Y-115925000D02*
X163440000Y-117750000D01*
%TO.N,Net-(R4-Pad1)*%
X161615000Y-118862500D02*
X163452500Y-120700000D01*
X161615000Y-117750000D02*
X161615000Y-118862500D01*
X161565000Y-117700000D02*
X161615000Y-117750000D01*
X154880000Y-114975000D02*
X157605000Y-117700000D01*
X157605000Y-117700000D02*
X161565000Y-117700000D01*
%TO.N,/LED1*%
X138717500Y-135382500D02*
X134400000Y-139700000D01*
X138717500Y-135282500D02*
X138717500Y-135382500D01*
X134400000Y-139700000D02*
X134300000Y-139700000D01*
%TO.N,/LED2*%
X138717500Y-137800000D02*
X138717500Y-138066100D01*
X138717500Y-137816100D02*
X134296320Y-142237280D01*
%TO.N,/LED0*%
X138623600Y-140450000D02*
X134296320Y-144777280D01*
X138717500Y-140700000D02*
X138623600Y-140700000D01*
%TO.N,/oled_scl*%
X99370000Y-93900000D02*
X124060000Y-93900000D01*
X124060000Y-93900000D02*
X134300000Y-104140000D01*
X97695000Y-95575000D02*
X99370000Y-93900000D01*
%TO.N,/oled_sda*%
X118115000Y-95575000D02*
X118220000Y-95680000D01*
X118220000Y-95680000D02*
X134300000Y-111760000D01*
X100235000Y-95575000D02*
X118115000Y-95575000D01*
%TO.N,/CSN*%
X113150000Y-101235000D02*
X133835000Y-121920000D01*
%TO.N,/calibrate_joy2*%
X100270000Y-99300000D02*
X102945000Y-101975000D01*
X108830000Y-104210000D02*
X108900000Y-104140000D01*
X102945000Y-101975000D02*
X105180000Y-104210000D01*
X98872500Y-99300000D02*
X100270000Y-99300000D01*
X105180000Y-104210000D02*
X108830000Y-104210000D01*
D32*
%TO.N,Net-(on/off1-A)*%
X98605000Y-137207500D02*
X100010000Y-135802500D01*
X98605000Y-139357500D02*
X98605000Y-137207500D01*
X100010000Y-135802500D02*
X102275000Y-135802500D01*
%TO.N,Net-(U5-VI)*%
X101785000Y-133287500D02*
X97400000Y-133287500D01*
D31*
%TO.N,/sw_analog_in*%
X152340000Y-119535000D02*
X152300000Y-119575000D01*
X152340000Y-105775000D02*
X152340000Y-110375000D01*
X152340000Y-110375000D02*
X152340000Y-114975000D01*
X152300000Y-133375000D02*
X152300000Y-138000000D01*
X152300000Y-128775000D02*
X152300000Y-133375000D01*
X147977500Y-101175000D02*
X147902500Y-101100000D01*
X152340000Y-114975000D02*
X152340000Y-119535000D01*
X152300000Y-119575000D02*
X152300000Y-124175000D01*
X152300000Y-124175000D02*
X152300000Y-128775000D01*
X152300000Y-138000000D02*
X152300000Y-142600000D01*
X152340000Y-101175000D02*
X147977500Y-101175000D01*
X152340000Y-101175000D02*
X152340000Y-105775000D01*
%TO.N,/calibrate_joy3*%
X108900000Y-111760000D02*
X108830000Y-111830000D01*
X100280000Y-118500000D02*
X102905000Y-121125000D01*
X106070000Y-111830000D02*
X105100000Y-112800000D01*
X105100000Y-112800000D02*
X105100000Y-117200000D01*
X102905000Y-119395000D02*
X102905000Y-121125000D01*
X98902500Y-118500000D02*
X100280000Y-118500000D01*
X108830000Y-111830000D02*
X106070000Y-111830000D01*
X105100000Y-117200000D02*
X102905000Y-119395000D01*
%TO.N,Net-(R14-Pad2)*%
X161627500Y-120700000D02*
X161627500Y-121887500D01*
X161627500Y-121887500D02*
X163440000Y-123700000D01*
X155965000Y-120700000D02*
X161627500Y-120700000D01*
X154840000Y-119575000D02*
X155965000Y-120700000D01*
%TO.N,Net-(R14-Pad1)*%
X161615000Y-124825000D02*
X163440000Y-126650000D01*
X161140000Y-124175000D02*
X161615000Y-123700000D01*
X154840000Y-124175000D02*
X161140000Y-124175000D01*
X161615000Y-123700000D02*
X161615000Y-124825000D01*
%TO.N,Net-(R15-Pad1)*%
X154840000Y-128775000D02*
X157015000Y-126600000D01*
X161615000Y-126650000D02*
X161615000Y-127787500D01*
X161565000Y-126600000D02*
X161615000Y-126650000D01*
X157015000Y-126600000D02*
X161565000Y-126600000D01*
X161615000Y-127787500D02*
X163427500Y-129600000D01*
%TO.N,Net-(R16-Pad1)*%
X158615000Y-129600000D02*
X161602500Y-129600000D01*
X154840000Y-133375000D02*
X158615000Y-129600000D01*
X161602500Y-129600000D02*
X161602500Y-130725000D01*
X161602500Y-130725000D02*
X163427500Y-132550000D01*
%TO.N,Net-(R17-Pad1)*%
X154840000Y-138000000D02*
X160290000Y-132550000D01*
X161602500Y-132550000D02*
X161602500Y-133675000D01*
X160290000Y-132550000D02*
X161602500Y-132550000D01*
X161602500Y-133675000D02*
X163427500Y-135500000D01*
%TD*%
M02*
