G04*
G04 #@! TF.GenerationSoftware,Altium Limited,Altium Designer,25.2.1 (25)*
G04*
G04 Layer_Color=16711935*
%FSLAX44Y44*%
%MOMM*%
G71*
G04*
G04 #@! TF.SameCoordinates,47AF1686-E751-4D8C-A91A-F2C49F431613*
G04*
G04*
G04 #@! TF.FilePolarity,Negative*
G04*
G01*
G75*
%ADD49C,1.6532*%
%ADD50C,1.5500*%
%ADD51R,1.5500X1.5500*%
%ADD52R,1.7112X1.7112*%
%ADD53C,1.7112*%
%ADD54R,1.5500X1.5500*%
%ADD55R,1.7112X1.7112*%
G04:AMPARAMS|DCode=56|XSize=2.95mm|YSize=1.6mm|CornerRadius=0.8mm|HoleSize=0mm|Usage=FLASHONLY|Rotation=90.000|XOffset=0mm|YOffset=0mm|HoleType=Round|Shape=RoundedRectangle|*
%AMROUNDEDRECTD56*
21,1,2.9500,0.0000,0,0,90.0*
21,1,1.3500,1.6000,0,0,90.0*
1,1,1.6000,0.0000,0.6750*
1,1,1.6000,0.0000,-0.6750*
1,1,1.6000,0.0000,-0.6750*
1,1,1.6000,0.0000,0.6750*
%
%ADD56ROUNDEDRECTD56*%
%ADD57C,2.3000*%
%ADD58C,0.9532*%
%ADD59C,0.7032*%
D49*
X340000Y708000D02*
D03*
X290000D02*
D03*
X417500Y709000D02*
D03*
X467500D02*
D03*
D50*
X652500Y687500D02*
D03*
Y622500D02*
D03*
X607500Y687500D02*
D03*
X392500Y537500D02*
D03*
Y472500D02*
D03*
X347500Y537500D02*
D03*
X967500Y190000D02*
D03*
X902500Y145000D02*
D03*
X967500D02*
D03*
X837500Y190000D02*
D03*
X772500Y145000D02*
D03*
X837500D02*
D03*
X702500Y190000D02*
D03*
X637500Y145000D02*
D03*
X702500D02*
D03*
X567500Y190000D02*
D03*
X502500Y145000D02*
D03*
X567500D02*
D03*
X435919Y190000D02*
D03*
X370919Y145000D02*
D03*
X435919D02*
D03*
X1105000Y547500D02*
D03*
X1130000D02*
D03*
X1032500Y425000D02*
D03*
Y450000D02*
D03*
Y475000D02*
D03*
X235000Y364250D02*
D03*
X210000D02*
D03*
X307500Y486750D02*
D03*
Y461750D02*
D03*
Y436750D02*
D03*
X235000Y53250D02*
D03*
X210000D02*
D03*
X307500Y175750D02*
D03*
Y150750D02*
D03*
Y125750D02*
D03*
X1003290Y655250D02*
D03*
X1105000Y235750D02*
D03*
X1130000D02*
D03*
X1032500Y113250D02*
D03*
Y138250D02*
D03*
Y163250D02*
D03*
D51*
X607500Y622500D02*
D03*
X347500Y472500D02*
D03*
X1155000Y547500D02*
D03*
X185000Y364250D02*
D03*
Y53250D02*
D03*
X1155000Y235750D02*
D03*
D52*
X910400Y650000D02*
D03*
D53*
X885000D02*
D03*
X859600D02*
D03*
X517500Y275000D02*
D03*
Y300400D02*
D03*
X820000Y272500D02*
D03*
Y247100D02*
D03*
D54*
X902500Y190000D02*
D03*
X772500Y190000D02*
D03*
X637500D02*
D03*
X502500D02*
D03*
X370919Y190000D02*
D03*
X978290Y655250D02*
D03*
D55*
X517500Y249600D02*
D03*
X820000Y297900D02*
D03*
D56*
X1257500Y481750D02*
D03*
X1212500D02*
D03*
X1257500Y418250D02*
D03*
X1212500D02*
D03*
X82500Y430000D02*
D03*
X127500D02*
D03*
X82500Y493500D02*
D03*
X127500D02*
D03*
X82500Y119000D02*
D03*
X127500D02*
D03*
X82500Y182500D02*
D03*
X127500D02*
D03*
X1257500Y170000D02*
D03*
X1212500D02*
D03*
X1257500Y106500D02*
D03*
X1212500D02*
D03*
D57*
X1063500Y527500D02*
D03*
Y372500D02*
D03*
X1196500Y527500D02*
D03*
Y372500D02*
D03*
X276500Y384250D02*
D03*
Y539250D02*
D03*
X143500Y384250D02*
D03*
Y539250D02*
D03*
X276500Y73250D02*
D03*
Y228250D02*
D03*
X143500Y73250D02*
D03*
Y228250D02*
D03*
X1063500Y215750D02*
D03*
Y60750D02*
D03*
X1196500Y215750D02*
D03*
Y60750D02*
D03*
D58*
X652500Y452500D02*
D03*
X642500Y445000D02*
D03*
X632500Y437500D02*
D03*
X622500Y430000D02*
D03*
X350000Y642500D02*
D03*
X441628Y577313D02*
D03*
X375000Y602500D02*
D03*
X425000Y547500D02*
D03*
X285000Y627500D02*
D03*
X335000Y690000D02*
D03*
X312500Y680000D02*
D03*
X545000Y612500D02*
D03*
X552500Y597500D02*
D03*
X457500Y685000D02*
D03*
X445000D02*
D03*
X650000Y512500D02*
D03*
Y525000D02*
D03*
X662500Y495000D02*
D03*
X767500Y602500D02*
D03*
X740000Y387500D02*
D03*
X728893Y387553D02*
D03*
X712500Y370000D02*
D03*
X720000Y380000D02*
D03*
X705000Y360000D02*
D03*
X697500Y350000D02*
D03*
X690000Y340000D02*
D03*
X630000Y362500D02*
D03*
X617500D02*
D03*
X372500Y212500D02*
D03*
X337500D02*
D03*
X767500Y582500D02*
D03*
X965000Y257500D02*
D03*
X375000Y342500D02*
D03*
X415000Y247500D02*
D03*
X447500D02*
D03*
X695000Y550000D02*
D03*
X694850Y537350D02*
D03*
X487500Y487500D02*
D03*
X485000Y511800D02*
D03*
X485500Y524500D02*
D03*
X522500Y402500D02*
D03*
X530000Y415000D02*
D03*
X515480Y499709D02*
D03*
X560000Y402500D02*
D03*
X572500D02*
D03*
X642500Y362500D02*
D03*
X655000D02*
D03*
X890000Y355000D02*
D03*
X745000Y460000D02*
D03*
Y482500D02*
D03*
X546055Y402762D02*
D03*
X585000Y367500D02*
D03*
X922500Y355000D02*
D03*
X950000Y462500D02*
D03*
Y482500D02*
D03*
X949544Y502956D02*
D03*
X949544Y522956D02*
D03*
X610000Y402500D02*
D03*
X597500D02*
D03*
D59*
X406000Y626500D02*
D03*
X395000D02*
D03*
X384000D02*
D03*
X406000Y637500D02*
D03*
X395000D02*
D03*
X384000D02*
D03*
X406000Y648500D02*
D03*
X395000D02*
D03*
X384000D02*
D03*
M02*
