G04*
G04 #@! TF.GenerationSoftware,Altium Limited,Altium Designer,25.2.1 (25)*
G04*
G04 Layer_Physical_Order=2*
G04 Layer_Color=16711680*
%FSLAX44Y44*%
%MOMM*%
G71*
G04*
G04 #@! TF.SameCoordinates,47AF1686-E751-4D8C-A91A-F2C49F431613*
G04*
G04*
G04 #@! TF.FilePolarity,Positive*
G04*
G01*
G75*
%ADD10C,0.2500*%
%ADD13C,0.2540*%
%ADD50C,1.5500*%
%ADD51R,1.5500X1.5500*%
%ADD54R,1.5500X1.5500*%
G04:AMPARAMS|DCode=56|XSize=2.95mm|YSize=1.6mm|CornerRadius=0.8mm|HoleSize=0mm|Usage=FLASHONLY|Rotation=90.000|XOffset=0mm|YOffset=0mm|HoleType=Round|Shape=RoundedRectangle|*
%AMROUNDEDRECTD56*
21,1,2.9500,0.0000,0,0,90.0*
21,1,1.3500,1.6000,0,0,90.0*
1,1,1.6000,0.0000,0.6750*
1,1,1.6000,0.0000,-0.6750*
1,1,1.6000,0.0000,-0.6750*
1,1,1.6000,0.0000,0.6750*
%
%ADD56ROUNDEDRECTD56*%
%ADD57C,2.3000*%
%ADD61C,1.4500*%
%ADD62C,0.4000*%
%ADD63R,1.5080X1.5080*%
%ADD64C,1.5080*%
%ADD65R,1.5080X1.5080*%
%ADD66C,0.7500*%
%ADD67C,0.5000*%
G36*
X1340000Y10000D02*
X10000D01*
Y740000D01*
X273120D01*
X274352Y738500D01*
Y736270D01*
X285648D01*
Y738500D01*
X286880Y740000D01*
X343120D01*
X344352Y738500D01*
Y736270D01*
X355648D01*
Y738500D01*
X356880Y740000D01*
X401441D01*
X401851Y739500D01*
Y737270D01*
X413148D01*
Y739500D01*
X413559Y740000D01*
X471441D01*
X471851Y739500D01*
Y737270D01*
X483148D01*
Y739500D01*
X483559Y740000D01*
X1340000D01*
Y10000D01*
D02*
G37*
%LPC*%
G36*
X483148Y734730D02*
X478770D01*
Y727104D01*
X479661Y727281D01*
X481494Y728506D01*
X482719Y730338D01*
X483148Y732500D01*
Y734730D01*
D02*
G37*
G36*
X413148D02*
X408770D01*
Y727104D01*
X409661Y727281D01*
X411494Y728506D01*
X412719Y730338D01*
X413148Y732500D01*
Y734730D01*
D02*
G37*
G36*
X476230D02*
X471851D01*
Y732500D01*
X472281Y730338D01*
X473506Y728506D01*
X475338Y727281D01*
X476230Y727104D01*
Y734730D01*
D02*
G37*
G36*
X406230D02*
X401851D01*
Y732500D01*
X402281Y730338D01*
X403506Y728506D01*
X405338Y727281D01*
X406230Y727104D01*
Y734730D01*
D02*
G37*
G36*
X355648Y733730D02*
X351270D01*
Y726104D01*
X352162Y726282D01*
X353994Y727506D01*
X355219Y729338D01*
X355648Y731500D01*
Y733730D01*
D02*
G37*
G36*
X285648D02*
X281270D01*
Y726104D01*
X282162Y726282D01*
X283994Y727506D01*
X285219Y729338D01*
X285648Y731500D01*
Y733730D01*
D02*
G37*
G36*
X348730D02*
X344352D01*
Y731500D01*
X344781Y729338D01*
X346006Y727506D01*
X347838Y726282D01*
X348730Y726104D01*
Y733730D01*
D02*
G37*
G36*
X278730D02*
X274352D01*
Y731500D01*
X274781Y729338D01*
X276006Y727506D01*
X277838Y726282D01*
X278730Y726104D01*
Y733730D01*
D02*
G37*
G36*
X468789Y718790D02*
X468770D01*
Y710270D01*
X477290D01*
Y710289D01*
X476623Y712779D01*
X475334Y715011D01*
X473511Y716834D01*
X471279Y718123D01*
X468789Y718790D01*
D02*
G37*
G36*
X466230D02*
X466211D01*
X463721Y718123D01*
X461489Y716834D01*
X459666Y715011D01*
X458377Y712779D01*
X457710Y710289D01*
Y710270D01*
X466230D01*
Y718790D01*
D02*
G37*
G36*
X418789D02*
X418770D01*
Y710270D01*
X427290D01*
Y710289D01*
X426623Y712779D01*
X425334Y715011D01*
X423511Y716834D01*
X421279Y718123D01*
X418789Y718790D01*
D02*
G37*
G36*
X416230D02*
X416211D01*
X413721Y718123D01*
X411489Y716834D01*
X409666Y715011D01*
X408377Y712779D01*
X407710Y710289D01*
Y710270D01*
X416230D01*
Y718790D01*
D02*
G37*
G36*
X341289Y717790D02*
X341270D01*
Y709270D01*
X349790D01*
Y709289D01*
X349123Y711779D01*
X347834Y714011D01*
X346011Y715834D01*
X343779Y717123D01*
X341289Y717790D01*
D02*
G37*
G36*
X338730D02*
X338711D01*
X336221Y717123D01*
X333989Y715834D01*
X332166Y714011D01*
X330877Y711779D01*
X330210Y709289D01*
Y709270D01*
X338730D01*
Y717790D01*
D02*
G37*
G36*
X291289D02*
X291270D01*
Y709270D01*
X299790D01*
Y709289D01*
X299123Y711779D01*
X297834Y714011D01*
X296011Y715834D01*
X293779Y717123D01*
X291289Y717790D01*
D02*
G37*
G36*
X288730D02*
X288711D01*
X286221Y717123D01*
X283989Y715834D01*
X282166Y714011D01*
X280877Y711779D01*
X280210Y709289D01*
Y709270D01*
X288730D01*
Y717790D01*
D02*
G37*
G36*
X477290Y707730D02*
X468770D01*
Y699210D01*
X468789D01*
X471279Y699877D01*
X473511Y701166D01*
X475334Y702989D01*
X476623Y705221D01*
X477290Y707711D01*
Y707730D01*
D02*
G37*
G36*
X466230D02*
X457710D01*
Y707711D01*
X458377Y705221D01*
X459666Y702989D01*
X461489Y701166D01*
X463721Y699877D01*
X466211Y699210D01*
X466230D01*
Y707730D01*
D02*
G37*
G36*
X427290D02*
X418770D01*
Y699210D01*
X418789D01*
X421279Y699877D01*
X423511Y701166D01*
X425334Y702989D01*
X426623Y705221D01*
X427290Y707711D01*
Y707730D01*
D02*
G37*
G36*
X416230D02*
X407710D01*
Y707711D01*
X408377Y705221D01*
X409666Y702989D01*
X411489Y701166D01*
X413721Y699877D01*
X416211Y699210D01*
X416230D01*
Y707730D01*
D02*
G37*
G36*
X349790Y706730D02*
X341270D01*
Y698210D01*
X341289D01*
X343779Y698877D01*
X346011Y700166D01*
X347834Y701989D01*
X349123Y704221D01*
X349790Y706711D01*
Y706730D01*
D02*
G37*
G36*
X338730D02*
X330210D01*
Y706711D01*
X330877Y704221D01*
X332166Y701989D01*
X333989Y700166D01*
X336221Y698877D01*
X338711Y698210D01*
X338730D01*
Y706730D01*
D02*
G37*
G36*
X299790D02*
X291270D01*
Y698210D01*
X291289D01*
X293779Y698877D01*
X296011Y700166D01*
X297834Y701989D01*
X299123Y704221D01*
X299790Y706711D01*
Y706730D01*
D02*
G37*
G36*
X288730D02*
X280210D01*
Y706711D01*
X280877Y704221D01*
X282166Y701989D01*
X283989Y700166D01*
X286221Y698877D01*
X288711Y698210D01*
X288730D01*
Y706730D01*
D02*
G37*
G36*
X458644Y690750D02*
X456356D01*
X454243Y689875D01*
X452625Y688257D01*
X452625Y688255D01*
X449875D01*
X449875Y688257D01*
X448257Y689875D01*
X446144Y690750D01*
X443856D01*
X441743Y689875D01*
X440125Y688257D01*
X439250Y686144D01*
Y683856D01*
X440125Y681743D01*
X441743Y680125D01*
X443856Y679250D01*
X446035D01*
X519166Y606119D01*
Y507156D01*
X516626Y505458D01*
X516624Y505459D01*
X514336D01*
X512223Y504584D01*
X510605Y502966D01*
X509730Y500853D01*
Y498566D01*
X510605Y496452D01*
X512146Y494912D01*
Y382940D01*
X493181Y363975D01*
X490834Y364947D01*
Y482702D01*
X492375Y484243D01*
X493250Y486356D01*
Y488644D01*
X492375Y490757D01*
X490757Y492375D01*
X488644Y493250D01*
X486356D01*
X484243Y492375D01*
X482625Y490757D01*
X481750Y488644D01*
Y486356D01*
X482625Y484243D01*
X484166Y482702D01*
Y361381D01*
X412643Y289858D01*
X411920Y288776D01*
X411666Y287500D01*
Y252298D01*
X410125Y250757D01*
X409250Y248644D01*
Y246356D01*
X410125Y244243D01*
X411743Y242625D01*
X413856Y241750D01*
X416035D01*
X420143Y237642D01*
X421224Y236920D01*
X422500Y236666D01*
X455000D01*
X456276Y236920D01*
X457357Y237642D01*
X467357Y247642D01*
X468080Y248724D01*
X468334Y250000D01*
Y271119D01*
X538881Y341666D01*
X598632D01*
X599604Y339319D01*
X538619Y278334D01*
X526483D01*
X526390Y278682D01*
X525134Y280858D01*
X523358Y282634D01*
X521182Y283890D01*
X518756Y284540D01*
X516244D01*
X513818Y283890D01*
X511642Y282634D01*
X509866Y280858D01*
X508610Y278682D01*
X507960Y276256D01*
Y273744D01*
X508610Y271318D01*
X509866Y269142D01*
X511642Y267366D01*
X513818Y266110D01*
X516244Y265460D01*
X518756D01*
X521182Y266110D01*
X523358Y267366D01*
X525134Y269142D01*
X526390Y271318D01*
X526483Y271666D01*
X540000D01*
X541276Y271920D01*
X542357Y272642D01*
X606381Y336666D01*
X670072D01*
X671348Y336920D01*
X672430Y337643D01*
X696904Y362116D01*
X698552Y361433D01*
X699250Y360871D01*
Y358856D01*
X699565Y358097D01*
X699327Y357492D01*
X697800Y355750D01*
X696356D01*
X694243Y354875D01*
X692625Y353257D01*
X691750Y351144D01*
Y348856D01*
X692065Y348097D01*
X691827Y347492D01*
X690300Y345750D01*
X688856D01*
X686743Y344875D01*
X685125Y343257D01*
X684250Y341144D01*
Y338856D01*
X685125Y336743D01*
X686666Y335202D01*
Y323881D01*
X573619Y210834D01*
X453419D01*
X452143Y210580D01*
X451061Y209858D01*
X440067Y198863D01*
X439682Y199086D01*
X437202Y199750D01*
X434635D01*
X432155Y199086D01*
X429932Y197802D01*
X428117Y195987D01*
X426833Y193763D01*
X426169Y191284D01*
Y188716D01*
X426833Y186237D01*
X428117Y184013D01*
X429932Y182198D01*
X432155Y180914D01*
X434635Y180250D01*
X437202D01*
X439682Y180914D01*
X441906Y182198D01*
X443721Y184013D01*
X445004Y186237D01*
X445669Y188716D01*
Y191284D01*
X445004Y193763D01*
X444782Y194148D01*
X454800Y204166D01*
X573359D01*
X574411Y201626D01*
X571648Y198863D01*
X571263Y199086D01*
X568784Y199750D01*
X566216D01*
X563737Y199086D01*
X561513Y197802D01*
X559698Y195987D01*
X558414Y193763D01*
X557750Y191284D01*
Y188716D01*
X558414Y186237D01*
X559698Y184013D01*
X561513Y182198D01*
X563737Y180914D01*
X566216Y180250D01*
X568784D01*
X571263Y180914D01*
X573487Y182198D01*
X575302Y184013D01*
X576586Y186237D01*
X577250Y188716D01*
Y191284D01*
X576586Y193763D01*
X576363Y194148D01*
X698646Y316431D01*
X701186Y315379D01*
Y199742D01*
X698737Y199086D01*
X696513Y197802D01*
X694698Y195987D01*
X693414Y193763D01*
X692750Y191284D01*
Y188716D01*
X693414Y186237D01*
X694698Y184013D01*
X696513Y182198D01*
X698737Y180914D01*
X701216Y180250D01*
X703784D01*
X706263Y180914D01*
X708487Y182198D01*
X710302Y184013D01*
X711585Y186237D01*
X712250Y188716D01*
Y191284D01*
X711585Y193763D01*
X710302Y195987D01*
X708487Y197802D01*
X707854Y198167D01*
Y316495D01*
X709348Y317244D01*
X710394Y317391D01*
X830748Y197037D01*
X829698Y195987D01*
X828414Y193763D01*
X827750Y191284D01*
Y188716D01*
X828414Y186237D01*
X829698Y184013D01*
X831513Y182198D01*
X833737Y180914D01*
X836216Y180250D01*
X838784D01*
X841263Y180914D01*
X843487Y182198D01*
X845302Y184013D01*
X846585Y186237D01*
X847250Y188716D01*
Y191284D01*
X846585Y193763D01*
X845302Y195987D01*
X843487Y197802D01*
X841263Y199086D01*
X838784Y199750D01*
X837436D01*
X837378Y199837D01*
X835589Y201626D01*
X836641Y204166D01*
X948619D01*
X958637Y194148D01*
X958414Y193763D01*
X957750Y191284D01*
Y188716D01*
X958414Y186237D01*
X959698Y184013D01*
X961513Y182198D01*
X963737Y180914D01*
X966216Y180250D01*
X968784D01*
X971263Y180914D01*
X973487Y182198D01*
X975302Y184013D01*
X976585Y186237D01*
X977250Y188716D01*
Y191284D01*
X976585Y193763D01*
X975302Y195987D01*
X973487Y197802D01*
X971263Y199086D01*
X968784Y199750D01*
X966216D01*
X963737Y199086D01*
X963352Y198863D01*
X952358Y209858D01*
X951276Y210580D01*
X950000Y210834D01*
X836381D01*
X780589Y266626D01*
X781641Y269166D01*
X811017D01*
X811110Y268818D01*
X812366Y266642D01*
X814142Y264866D01*
X816318Y263610D01*
X818744Y262960D01*
X821256D01*
X823682Y263610D01*
X825858Y264866D01*
X827634Y266642D01*
X828890Y268818D01*
X829540Y271244D01*
Y273756D01*
X828890Y276182D01*
X827634Y278358D01*
X825858Y280134D01*
X823682Y281390D01*
X821256Y282040D01*
X818744D01*
X816318Y281390D01*
X814142Y280134D01*
X812366Y278358D01*
X811110Y276182D01*
X811017Y275834D01*
X781381D01*
X743334Y313881D01*
Y382702D01*
X744875Y384243D01*
X745750Y386356D01*
Y388644D01*
X744875Y390757D01*
X744006Y391626D01*
X745058Y394166D01*
X836119D01*
X887643Y342643D01*
X888724Y341920D01*
X890000Y341666D01*
X910000D01*
X911276Y341920D01*
X912357Y342643D01*
X919665Y349950D01*
X921356Y349250D01*
X923644D01*
X925757Y350125D01*
X927375Y351743D01*
X928250Y353856D01*
Y356144D01*
X927375Y358257D01*
X925757Y359875D01*
X923644Y360750D01*
X921356D01*
X919243Y359875D01*
X917625Y358257D01*
X916923Y356562D01*
X916693Y356409D01*
X908619Y348334D01*
X895058D01*
X894006Y350874D01*
X894875Y351743D01*
X895750Y353856D01*
Y356144D01*
X894875Y358257D01*
X893257Y359875D01*
X891144Y360750D01*
X888965D01*
X844857Y404857D01*
X843776Y405580D01*
X842500Y405834D01*
X724678D01*
X723707Y408181D01*
X774692Y459166D01*
X945202D01*
X946743Y457625D01*
X948856Y456750D01*
X951144D01*
X953257Y457625D01*
X954875Y459243D01*
X955750Y461356D01*
Y463644D01*
X954875Y465757D01*
X953257Y467375D01*
X951144Y468250D01*
X948856D01*
X946743Y467375D01*
X945202Y465834D01*
X773311D01*
X772035Y465580D01*
X770953Y464857D01*
X664605Y358509D01*
X662027Y358665D01*
X660550Y360874D01*
X660750Y361356D01*
Y363644D01*
X659875Y365757D01*
X658334Y367298D01*
Y392500D01*
X658080Y393776D01*
X657357Y394858D01*
X655834Y396381D01*
Y447702D01*
X657375Y449243D01*
X658250Y451356D01*
Y453644D01*
X657375Y455757D01*
X655757Y457375D01*
X653644Y458250D01*
X651356D01*
X649243Y457375D01*
X647625Y455757D01*
X646750Y453644D01*
Y452200D01*
X645008Y450673D01*
X644403Y450435D01*
X643644Y450750D01*
X641356D01*
X639243Y449875D01*
X637625Y448257D01*
X636750Y446144D01*
Y444700D01*
X635008Y443173D01*
X634403Y442935D01*
X633644Y443250D01*
X631356D01*
X629243Y442375D01*
X627625Y440757D01*
X626750Y438644D01*
Y437200D01*
X625008Y435673D01*
X624403Y435435D01*
X623644Y435750D01*
X621356D01*
X619243Y434875D01*
X617625Y433257D01*
X616750Y431144D01*
Y428856D01*
X617625Y426743D01*
X619166Y425202D01*
Y396381D01*
X615143Y392357D01*
X614420Y391276D01*
X614166Y390000D01*
Y367298D01*
X612625Y365757D01*
X611750Y363644D01*
Y361356D01*
X611950Y360874D01*
X610253Y358334D01*
X598881D01*
X590750Y366465D01*
Y368644D01*
X589875Y370757D01*
X588257Y372375D01*
X586144Y373250D01*
X583856D01*
X581743Y372375D01*
X580125Y370757D01*
X579250Y368644D01*
Y366356D01*
X580125Y364243D01*
X581743Y362625D01*
X583856Y361750D01*
X586035D01*
X592104Y355681D01*
X591132Y353334D01*
X533579D01*
X532304Y353080D01*
X531222Y352357D01*
X453181Y274316D01*
X450834Y275288D01*
Y312199D01*
X517837Y379202D01*
X518560Y380284D01*
X518814Y381559D01*
Y395054D01*
X521354Y396751D01*
X521356Y396750D01*
X523644D01*
X525757Y397625D01*
X527375Y399243D01*
X528250Y401356D01*
Y403644D01*
X527375Y405757D01*
X527511Y407058D01*
X528856Y409250D01*
X531144D01*
X533257Y410125D01*
X534875Y411743D01*
X535750Y413856D01*
Y416144D01*
X534875Y418257D01*
X533314Y419818D01*
Y612500D01*
X533061Y613768D01*
X532343Y614843D01*
X463250Y683936D01*
Y686144D01*
X462375Y688257D01*
X460757Y689875D01*
X458644Y690750D01*
D02*
G37*
G36*
X653784Y697250D02*
X651216D01*
X648737Y696586D01*
X646513Y695302D01*
X644698Y693487D01*
X643415Y691263D01*
X642750Y688784D01*
Y686216D01*
X643415Y683737D01*
X644698Y681513D01*
X646513Y679698D01*
X648737Y678415D01*
X651216Y677750D01*
X653784D01*
X656263Y678415D01*
X658487Y679698D01*
X660302Y681513D01*
X661585Y683737D01*
X662250Y686216D01*
Y688784D01*
X661585Y691263D01*
X660302Y693487D01*
X658487Y695302D01*
X656263Y696586D01*
X653784Y697250D01*
D02*
G37*
G36*
X1004645Y665540D02*
X1004560D01*
Y656520D01*
X1013580D01*
Y656605D01*
X1012879Y659222D01*
X1011524Y661568D01*
X1009608Y663484D01*
X1007262Y664839D01*
X1004645Y665540D01*
D02*
G37*
G36*
X1002020D02*
X1001935D01*
X999318Y664839D01*
X996972Y663484D01*
X995056Y661568D01*
X993701Y659222D01*
X993000Y656605D01*
Y656520D01*
X1002020D01*
Y665540D01*
D02*
G37*
G36*
X404730Y653429D02*
X403145Y652773D01*
X401936Y651563D01*
X400500Y651451D01*
X399064Y651563D01*
X397855Y652773D01*
X396270Y653429D01*
Y648500D01*
X393730D01*
Y653429D01*
X392145Y652773D01*
X390936Y651563D01*
X389500Y651451D01*
X388064Y651563D01*
X386855Y652773D01*
X385270Y653429D01*
Y648500D01*
X384000D01*
Y647230D01*
X379071D01*
X379727Y645645D01*
X380937Y644436D01*
X381049Y643000D01*
X380937Y641564D01*
X379727Y640355D01*
X379071Y638770D01*
X384000D01*
Y636230D01*
X379071D01*
X379727Y634645D01*
X380937Y633436D01*
X381049Y632000D01*
X380937Y630564D01*
X379727Y629355D01*
X379071Y627770D01*
X384000D01*
Y626500D01*
X385270D01*
Y621571D01*
X386855Y622227D01*
X388064Y623437D01*
X389500Y623549D01*
X390936Y623437D01*
X392145Y622227D01*
X393730Y621571D01*
Y626500D01*
X396270D01*
Y621571D01*
X397855Y622227D01*
X399064Y623437D01*
X400500Y623549D01*
X401936Y623437D01*
X403145Y622227D01*
X404730Y621571D01*
Y626500D01*
X406000D01*
Y627770D01*
X410929D01*
X410273Y629355D01*
X409063Y630564D01*
X408951Y632000D01*
X409063Y633436D01*
X410273Y634645D01*
X410929Y636230D01*
X406000D01*
Y638770D01*
X410929D01*
X410273Y640355D01*
X409063Y641564D01*
X408951Y643000D01*
X409063Y644436D01*
X410273Y645645D01*
X410929Y647230D01*
X406000D01*
Y648500D01*
X404730D01*
Y653429D01*
D02*
G37*
G36*
X920480Y660080D02*
X911670D01*
Y651270D01*
X920480D01*
Y660080D01*
D02*
G37*
G36*
X909130D02*
X900320D01*
Y651270D01*
X909130D01*
Y660080D01*
D02*
G37*
G36*
X407270Y653429D02*
Y649770D01*
X410929D01*
X410273Y651355D01*
X408855Y652773D01*
X407270Y653429D01*
D02*
G37*
G36*
X382730D02*
X381145Y652773D01*
X379727Y651355D01*
X379071Y649770D01*
X382730D01*
Y653429D01*
D02*
G37*
G36*
X988040Y665000D02*
X968540D01*
Y645500D01*
X988040D01*
Y665000D01*
D02*
G37*
G36*
X1013580Y653980D02*
X1004560D01*
Y644960D01*
X1004645D01*
X1007262Y645661D01*
X1009608Y647016D01*
X1011524Y648932D01*
X1012879Y651278D01*
X1013580Y653895D01*
Y653980D01*
D02*
G37*
G36*
X1002020D02*
X993000D01*
Y653895D01*
X993701Y651278D01*
X995056Y648932D01*
X996972Y647016D01*
X999318Y645661D01*
X1001935Y644960D01*
X1002020D01*
Y653980D01*
D02*
G37*
G36*
X886256Y659540D02*
X883744D01*
X881318Y658890D01*
X879142Y657634D01*
X877366Y655858D01*
X876110Y653682D01*
X875460Y651256D01*
Y648744D01*
X876110Y646318D01*
X877366Y644142D01*
X879142Y642366D01*
X881318Y641110D01*
X883744Y640460D01*
X886256D01*
X888682Y641110D01*
X890858Y642366D01*
X892634Y644142D01*
X893890Y646318D01*
X894540Y648744D01*
Y651256D01*
X893890Y653682D01*
X892634Y655858D01*
X890858Y657634D01*
X888682Y658890D01*
X886256Y659540D01*
D02*
G37*
G36*
X860856D02*
X858344D01*
X855918Y658890D01*
X853742Y657634D01*
X851966Y655858D01*
X850710Y653682D01*
X850060Y651256D01*
Y648744D01*
X850710Y646318D01*
X851966Y644142D01*
X853742Y642366D01*
X855918Y641110D01*
X858344Y640460D01*
X860856D01*
X863282Y641110D01*
X865458Y642366D01*
X867234Y644142D01*
X868490Y646318D01*
X869140Y648744D01*
Y651256D01*
X868490Y653682D01*
X867234Y655858D01*
X865458Y657634D01*
X863282Y658890D01*
X860856Y659540D01*
D02*
G37*
G36*
X920480Y648730D02*
X911670D01*
Y639920D01*
X920480D01*
Y648730D01*
D02*
G37*
G36*
X909130D02*
X900320D01*
Y639920D01*
X909130D01*
Y648730D01*
D02*
G37*
G36*
X313644Y685750D02*
X311356D01*
X309243Y684875D01*
X307625Y683257D01*
X306750Y681144D01*
Y678856D01*
X307625Y676743D01*
X309243Y675125D01*
X311356Y674250D01*
X313535D01*
X344250Y643535D01*
Y641356D01*
X345125Y639243D01*
X346743Y637625D01*
X348856Y636750D01*
X351144D01*
X353257Y637625D01*
X354875Y639243D01*
X355750Y641356D01*
Y643644D01*
X354875Y645757D01*
X353257Y647375D01*
X351144Y648250D01*
X348965D01*
X318250Y678965D01*
Y681144D01*
X317375Y683257D01*
X315757Y684875D01*
X313644Y685750D01*
D02*
G37*
G36*
X653855Y632790D02*
X653770D01*
Y623770D01*
X662790D01*
Y623855D01*
X662089Y626472D01*
X660734Y628818D01*
X658818Y630734D01*
X656472Y632089D01*
X653855Y632790D01*
D02*
G37*
G36*
X651230D02*
X651145D01*
X648528Y632089D01*
X646182Y630734D01*
X644266Y628818D01*
X642911Y626472D01*
X642210Y623855D01*
Y623770D01*
X651230D01*
Y632790D01*
D02*
G37*
G36*
X410929Y625230D02*
X407270D01*
Y621571D01*
X408855Y622227D01*
X410273Y623645D01*
X410929Y625230D01*
D02*
G37*
G36*
X382730D02*
X379071D01*
X379727Y623645D01*
X381145Y622227D01*
X382730Y621571D01*
Y625230D01*
D02*
G37*
G36*
X662790Y621230D02*
X653770D01*
Y612210D01*
X653855D01*
X656472Y612911D01*
X658818Y614266D01*
X660734Y616182D01*
X662089Y618528D01*
X662790Y621145D01*
Y621230D01*
D02*
G37*
G36*
X608784Y697250D02*
X606216D01*
X603737Y696586D01*
X601513Y695302D01*
X599698Y693487D01*
X598414Y691263D01*
X597750Y688784D01*
Y686216D01*
X598414Y683737D01*
X599698Y681513D01*
X601513Y679698D01*
X603737Y678415D01*
X604166Y678299D01*
Y645000D01*
X604420Y643724D01*
X605143Y642643D01*
X613188Y634597D01*
X612216Y632250D01*
X597750D01*
Y612750D01*
X617250D01*
Y627216D01*
X619597Y628188D01*
X659166Y588619D01*
Y499798D01*
X657625Y498257D01*
X656750Y496144D01*
Y493856D01*
X657625Y491743D01*
X658494Y490874D01*
X657442Y488334D01*
X628293D01*
X627017Y488080D01*
X625935Y487357D01*
X547090Y408512D01*
X544911D01*
X542798Y407637D01*
X541180Y406019D01*
X540305Y403906D01*
Y401619D01*
X541180Y399505D01*
X542798Y397888D01*
X544911Y397012D01*
X547199D01*
X549312Y397888D01*
X550929Y399505D01*
X551805Y401618D01*
X554250Y401389D01*
Y401356D01*
X555125Y399243D01*
X556743Y397625D01*
X558856Y396750D01*
X561144D01*
X563257Y397625D01*
X564875Y399243D01*
X564875Y399245D01*
X567625D01*
X567625Y399243D01*
X569243Y397625D01*
X571356Y396750D01*
X573644D01*
X575757Y397625D01*
X577375Y399243D01*
X578250Y401356D01*
Y403644D01*
X577375Y405757D01*
X575834Y407298D01*
Y413960D01*
X591819Y429945D01*
X594166Y428973D01*
Y407298D01*
X592625Y405757D01*
X591750Y403644D01*
Y401356D01*
X592625Y399243D01*
X594243Y397625D01*
X596356Y396750D01*
X598644D01*
X600757Y397625D01*
X602375Y399243D01*
X602375Y399245D01*
X605125D01*
X605125Y399243D01*
X606743Y397625D01*
X608856Y396750D01*
X611144D01*
X613257Y397625D01*
X614875Y399243D01*
X615750Y401356D01*
Y403644D01*
X614875Y405757D01*
X613334Y407298D01*
Y437707D01*
X637497Y461870D01*
X737073D01*
X739250Y459693D01*
Y458856D01*
X740125Y456743D01*
X741743Y455125D01*
X743856Y454250D01*
X746144D01*
X748257Y455125D01*
X749875Y456743D01*
X750750Y458856D01*
Y461144D01*
X749875Y463257D01*
X749262Y463870D01*
X750314Y466410D01*
X750874D01*
X752150Y466664D01*
X753231Y467386D01*
X765011Y479166D01*
X945202D01*
X946743Y477625D01*
X948856Y476750D01*
X951144D01*
X953257Y477625D01*
X954875Y479243D01*
X955750Y481356D01*
Y483644D01*
X954875Y485757D01*
X953257Y487375D01*
X951144Y488250D01*
X948856D01*
X946743Y487375D01*
X945202Y485834D01*
X768577D01*
X767605Y488181D01*
X779046Y499622D01*
X944746D01*
X946287Y498081D01*
X948400Y497206D01*
X950688D01*
X952801Y498081D01*
X954419Y499699D01*
X955294Y501812D01*
Y504100D01*
X954419Y506213D01*
X952801Y507831D01*
X950688Y508706D01*
X948400D01*
X946287Y507831D01*
X944746Y506290D01*
X777665D01*
X776390Y506036D01*
X775308Y505313D01*
X753290Y483296D01*
X752282Y483434D01*
X750544Y484142D01*
X749875Y485757D01*
X748257Y487375D01*
X748204Y487397D01*
X747608Y490393D01*
X776837Y519622D01*
X944746D01*
X946287Y518081D01*
X948400Y517206D01*
X950688D01*
X952801Y518081D01*
X954419Y519699D01*
X955294Y521812D01*
Y524100D01*
X954419Y526213D01*
X952801Y527831D01*
X950688Y528706D01*
X948400D01*
X946287Y527831D01*
X944746Y526290D01*
X775456D01*
X774180Y526036D01*
X773099Y525313D01*
X736119Y488334D01*
X667558D01*
X666506Y490874D01*
X667375Y491743D01*
X668250Y493856D01*
Y496144D01*
X667375Y498257D01*
X665834Y499798D01*
Y590000D01*
X665580Y591276D01*
X664857Y592357D01*
X645473Y611743D01*
X647032Y613775D01*
X648528Y612911D01*
X651145Y612210D01*
X651230D01*
Y621230D01*
X642210D01*
Y621145D01*
X642911Y618528D01*
X643775Y617032D01*
X641742Y615473D01*
X610834Y646381D01*
Y678299D01*
X611263Y678415D01*
X613487Y679698D01*
X615302Y681513D01*
X616586Y683737D01*
X617250Y686216D01*
Y688784D01*
X616586Y691263D01*
X615302Y693487D01*
X613487Y695302D01*
X611263Y696586D01*
X608784Y697250D01*
D02*
G37*
G36*
X336144Y695750D02*
X333856D01*
X331743Y694875D01*
X330125Y693257D01*
X329250Y691144D01*
Y688856D01*
X330125Y686743D01*
X331743Y685125D01*
X333856Y684250D01*
X336035D01*
X364166Y656119D01*
Y610000D01*
X364379Y608928D01*
X364266Y608780D01*
X361535Y608180D01*
X339857Y629857D01*
X338776Y630580D01*
X337500Y630834D01*
X289798D01*
X288257Y632375D01*
X286144Y633250D01*
X283856D01*
X281743Y632375D01*
X280125Y630757D01*
X279250Y628644D01*
Y626356D01*
X280125Y624243D01*
X281743Y622625D01*
X283856Y621750D01*
X286144D01*
X288257Y622625D01*
X289798Y624166D01*
X336119D01*
X415143Y545142D01*
X416224Y544420D01*
X417500Y544166D01*
X420202D01*
X421743Y542625D01*
X423856Y541750D01*
X426144D01*
X428257Y542625D01*
X429875Y544243D01*
X430750Y546356D01*
Y548644D01*
X429875Y550757D01*
X428257Y552375D01*
X426144Y553250D01*
X423856D01*
X421743Y552375D01*
X420202Y550834D01*
X418881D01*
X375505Y594210D01*
X375852Y595588D01*
X376436Y596871D01*
X378257Y597625D01*
X379875Y599243D01*
X380750Y601356D01*
Y603644D01*
X379875Y605757D01*
X378257Y607375D01*
X376144Y608250D01*
X373965D01*
X370834Y611381D01*
Y657500D01*
X370580Y658776D01*
X369857Y659857D01*
X340750Y688965D01*
Y691144D01*
X339875Y693257D01*
X338257Y694875D01*
X336144Y695750D01*
D02*
G37*
G36*
X768770Y608782D02*
Y603770D01*
X773782D01*
X772832Y606063D01*
X771063Y607832D01*
X768770Y608782D01*
D02*
G37*
G36*
X766230D02*
X763937Y607832D01*
X762168Y606063D01*
X761218Y603770D01*
X766230D01*
Y608782D01*
D02*
G37*
G36*
X773782Y601230D02*
X768770D01*
Y596218D01*
X771063Y597168D01*
X772832Y598937D01*
X773782Y601230D01*
D02*
G37*
G36*
X766230D02*
X761218D01*
X762168Y598937D01*
X763937Y597168D01*
X766230Y596218D01*
Y601230D01*
D02*
G37*
G36*
X768770Y588782D02*
Y583770D01*
X773782D01*
X772832Y586063D01*
X771063Y587832D01*
X768770Y588782D01*
D02*
G37*
G36*
X766230D02*
X763937Y587832D01*
X762168Y586063D01*
X761218Y583770D01*
X766230D01*
Y588782D01*
D02*
G37*
G36*
X442898Y583595D02*
Y578583D01*
X447911D01*
X446961Y580876D01*
X445191Y582645D01*
X442898Y583595D01*
D02*
G37*
G36*
X440359D02*
X438065Y582645D01*
X436296Y580876D01*
X435346Y578583D01*
X440359D01*
Y583595D01*
D02*
G37*
G36*
X773782Y581230D02*
X768770D01*
Y576218D01*
X771063Y577168D01*
X772832Y578937D01*
X773782Y581230D01*
D02*
G37*
G36*
X766230D02*
X761218D01*
X762168Y578937D01*
X763937Y577168D01*
X766230Y576218D01*
Y581230D01*
D02*
G37*
G36*
X447911Y576043D02*
X442898D01*
Y571030D01*
X445191Y571980D01*
X446961Y573750D01*
X447911Y576043D01*
D02*
G37*
G36*
X440359D02*
X435346D01*
X436296Y573750D01*
X438065Y571980D01*
X440359Y571030D01*
Y576043D01*
D02*
G37*
G36*
X1106355Y557790D02*
X1106270D01*
Y548770D01*
X1115290D01*
Y548855D01*
X1114589Y551472D01*
X1113234Y553818D01*
X1111318Y555734D01*
X1108972Y557089D01*
X1106355Y557790D01*
D02*
G37*
G36*
X1103730D02*
X1103645D01*
X1101028Y557089D01*
X1098682Y555734D01*
X1096766Y553818D01*
X1095411Y551472D01*
X1094710Y548855D01*
Y548770D01*
X1103730D01*
Y557790D01*
D02*
G37*
G36*
X1164750Y557250D02*
X1145250D01*
Y537750D01*
X1164750D01*
Y557250D01*
D02*
G37*
G36*
X1131284D02*
X1128716D01*
X1126237Y556586D01*
X1124013Y555302D01*
X1122198Y553487D01*
X1120915Y551263D01*
X1120250Y548784D01*
Y546216D01*
X1120915Y543737D01*
X1122198Y541513D01*
X1124013Y539698D01*
X1126237Y538414D01*
X1128716Y537750D01*
X1131284D01*
X1133763Y538414D01*
X1135987Y539698D01*
X1137802Y541513D01*
X1139085Y543737D01*
X1139750Y546216D01*
Y548784D01*
X1139085Y551263D01*
X1137802Y553487D01*
X1135987Y555302D01*
X1133763Y556586D01*
X1131284Y557250D01*
D02*
G37*
G36*
X1115290Y546230D02*
X1106270D01*
Y537210D01*
X1106355D01*
X1108972Y537911D01*
X1111318Y539266D01*
X1113234Y541182D01*
X1114589Y543528D01*
X1115290Y546145D01*
Y546230D01*
D02*
G37*
G36*
X1103730D02*
X1094710D01*
Y546145D01*
X1095411Y543528D01*
X1096766Y541182D01*
X1098682Y539266D01*
X1101028Y537911D01*
X1103645Y537210D01*
X1103730D01*
Y546230D01*
D02*
G37*
G36*
X393784Y547250D02*
X391216D01*
X388737Y546586D01*
X386513Y545302D01*
X384698Y543487D01*
X383414Y541263D01*
X382750Y538784D01*
Y536216D01*
X383414Y533737D01*
X384698Y531513D01*
X386513Y529698D01*
X388737Y528414D01*
X391216Y527750D01*
X393784D01*
X396263Y528414D01*
X398487Y529698D01*
X400302Y531513D01*
X401586Y533737D01*
X402250Y536216D01*
Y538784D01*
X401586Y541263D01*
X400302Y543487D01*
X398487Y545302D01*
X396263Y546586D01*
X393784Y547250D01*
D02*
G37*
G36*
X348784D02*
X346216D01*
X343737Y546586D01*
X341513Y545302D01*
X339698Y543487D01*
X338414Y541263D01*
X337750Y538784D01*
Y536216D01*
X338414Y533737D01*
X339698Y531513D01*
X341513Y529698D01*
X343737Y528414D01*
X346216Y527750D01*
X348784D01*
X351263Y528414D01*
X353487Y529698D01*
X355302Y531513D01*
X356586Y533737D01*
X357250Y536216D01*
Y538784D01*
X356586Y541263D01*
X355302Y543487D01*
X353487Y545302D01*
X351263Y546586D01*
X348784Y547250D01*
D02*
G37*
G36*
X278277Y552750D02*
X274723D01*
X271289Y551830D01*
X268211Y550053D01*
X265697Y547539D01*
X263920Y544461D01*
X263000Y541027D01*
Y537473D01*
X263920Y534039D01*
X265697Y530961D01*
X268211Y528447D01*
X271289Y526670D01*
X274723Y525750D01*
X278277D01*
X281711Y526670D01*
X284789Y528447D01*
X287303Y530961D01*
X289080Y534039D01*
X290000Y537473D01*
Y541027D01*
X289080Y544461D01*
X287303Y547539D01*
X284789Y550053D01*
X281711Y551830D01*
X278277Y552750D01*
D02*
G37*
G36*
X145277D02*
X141723D01*
X138289Y551830D01*
X135211Y550053D01*
X132697Y547539D01*
X130920Y544461D01*
X130000Y541027D01*
Y537473D01*
X130920Y534039D01*
X132697Y530961D01*
X135211Y528447D01*
X138289Y526670D01*
X141723Y525750D01*
X145277D01*
X148711Y526670D01*
X151789Y528447D01*
X154303Y530961D01*
X156080Y534039D01*
X157000Y537473D01*
Y541027D01*
X156080Y544461D01*
X154303Y547539D01*
X151789Y550053D01*
X148711Y551830D01*
X145277Y552750D01*
D02*
G37*
G36*
X546144Y618250D02*
X543856D01*
X541743Y617375D01*
X540125Y615757D01*
X539250Y613644D01*
Y611356D01*
X540125Y609243D01*
X541743Y607625D01*
X543856Y606750D01*
X546144D01*
X548257Y607625D01*
X549798Y609166D01*
X561119D01*
X644250Y526035D01*
Y523856D01*
X645125Y521743D01*
X646637Y520231D01*
X646638Y517629D01*
X644843Y515834D01*
X638881D01*
X558250Y596465D01*
Y598644D01*
X557375Y600757D01*
X555757Y602375D01*
X553644Y603250D01*
X551356D01*
X549243Y602375D01*
X547625Y600757D01*
X546750Y598644D01*
Y596356D01*
X547625Y594243D01*
X549243Y592625D01*
X551356Y591750D01*
X553535D01*
X635143Y510143D01*
X636224Y509420D01*
X637500Y509166D01*
X645202D01*
X646743Y507625D01*
X648856Y506750D01*
X651144D01*
X653257Y507625D01*
X654875Y509243D01*
X655750Y511356D01*
Y513644D01*
X654875Y515757D01*
X653257Y517375D01*
X653255Y517375D01*
Y520125D01*
X653257Y520125D01*
X654875Y521743D01*
X655750Y523856D01*
Y526144D01*
X654875Y528257D01*
X653257Y529875D01*
X651144Y530750D01*
X648965D01*
X564857Y614857D01*
X563776Y615580D01*
X562500Y615834D01*
X549798D01*
X548257Y617375D01*
X546144Y618250D01*
D02*
G37*
G36*
X1065277Y541000D02*
X1061723D01*
X1058289Y540080D01*
X1055211Y538303D01*
X1052697Y535789D01*
X1050920Y532711D01*
X1050000Y529277D01*
Y525723D01*
X1050920Y522289D01*
X1052697Y519211D01*
X1055211Y516697D01*
X1058289Y514920D01*
X1061723Y514000D01*
X1065277D01*
X1068711Y514920D01*
X1071789Y516697D01*
X1074303Y519211D01*
X1076080Y522289D01*
X1077000Y525723D01*
Y529277D01*
X1076080Y532711D01*
X1074303Y535789D01*
X1071789Y538303D01*
X1068711Y540080D01*
X1065277Y541000D01*
D02*
G37*
G36*
X486644Y530250D02*
X484356D01*
X482243Y529375D01*
X480702Y527834D01*
X472000D01*
X470724Y527580D01*
X469642Y526857D01*
X288619Y345834D01*
X153881D01*
X130834Y368881D01*
Y374327D01*
X133374Y375284D01*
X135211Y373447D01*
X138289Y371670D01*
X141723Y370750D01*
X145277D01*
X148711Y371670D01*
X151789Y373447D01*
X154303Y375961D01*
X156080Y379039D01*
X157000Y382473D01*
Y386027D01*
X156080Y389461D01*
X154303Y392539D01*
X151789Y395053D01*
X148711Y396830D01*
X145277Y397750D01*
X141723D01*
X138289Y396830D01*
X135211Y395053D01*
X133374Y393216D01*
X130834Y394173D01*
Y413807D01*
X132543Y414515D01*
X134632Y416118D01*
X136235Y418207D01*
X137243Y420639D01*
X137586Y423250D01*
Y436750D01*
X137243Y439361D01*
X136235Y441793D01*
X134632Y443882D01*
X132543Y445485D01*
X130111Y446493D01*
X127500Y446836D01*
X124889Y446493D01*
X122457Y445485D01*
X120368Y443882D01*
X118765Y441793D01*
X117757Y439361D01*
X117414Y436750D01*
Y423250D01*
X117757Y420639D01*
X118765Y418207D01*
X120368Y416118D01*
X122457Y414515D01*
X124166Y413807D01*
Y367500D01*
X124420Y366224D01*
X125142Y365143D01*
X150142Y340142D01*
X151224Y339420D01*
X152500Y339166D01*
X288359D01*
X289411Y336626D01*
X210142Y257358D01*
X209420Y256276D01*
X209166Y255000D01*
Y205381D01*
X136542Y132757D01*
X134632Y132882D01*
X132543Y134485D01*
X130111Y135493D01*
X127500Y135836D01*
X124889Y135493D01*
X122457Y134485D01*
X120368Y132882D01*
X118765Y130793D01*
X117757Y128361D01*
X117414Y125750D01*
Y112250D01*
X117757Y109640D01*
X118765Y107207D01*
X120368Y105118D01*
X122457Y103515D01*
X124889Y102507D01*
X127500Y102164D01*
X130111Y102507D01*
X132543Y103515D01*
X134632Y105118D01*
X136235Y107207D01*
X137243Y109640D01*
X137586Y112250D01*
Y125031D01*
X137962Y125106D01*
X139044Y125828D01*
X214858Y201642D01*
X215580Y202724D01*
X215834Y204000D01*
Y253619D01*
X470681Y508466D01*
X480202D01*
X481743Y506925D01*
X483856Y506050D01*
X486144D01*
X488257Y506925D01*
X489875Y508543D01*
X490750Y510656D01*
Y512944D01*
X489875Y515057D01*
X488257Y516675D01*
X488264Y519421D01*
X488757Y519625D01*
X490375Y521243D01*
X491250Y523356D01*
Y525644D01*
X490375Y527757D01*
X488757Y529375D01*
X486644Y530250D01*
D02*
G37*
G36*
X255000Y521879D02*
X251084Y521364D01*
X247435Y519852D01*
X244302Y517448D01*
X241898Y514315D01*
X240386Y510666D01*
X239871Y506750D01*
X240386Y502834D01*
X241898Y499185D01*
X244302Y496052D01*
X247435Y493648D01*
X251084Y492136D01*
X255000Y491621D01*
X258916Y492136D01*
X262565Y493648D01*
X265698Y496052D01*
X268102Y499185D01*
X269614Y502834D01*
X270129Y506750D01*
X269614Y510666D01*
X268102Y514315D01*
X265698Y517448D01*
X262565Y519852D01*
X258916Y521364D01*
X255000Y521879D01*
D02*
G37*
G36*
X165000D02*
X161084Y521364D01*
X157435Y519852D01*
X154302Y517448D01*
X151897Y514315D01*
X150386Y510666D01*
X149871Y506750D01*
X150386Y502834D01*
X151897Y499185D01*
X154302Y496052D01*
X157435Y493648D01*
X161084Y492136D01*
X165000Y491621D01*
X168916Y492136D01*
X172565Y493648D01*
X175698Y496052D01*
X178102Y499185D01*
X179614Y502834D01*
X180129Y506750D01*
X179614Y510666D01*
X178102Y514315D01*
X175698Y517448D01*
X172565Y519852D01*
X168916Y521364D01*
X165000Y521879D01*
D02*
G37*
G36*
X308855Y497040D02*
X308770D01*
Y488020D01*
X317790D01*
Y488105D01*
X317089Y490722D01*
X315734Y493068D01*
X313818Y494984D01*
X311472Y496339D01*
X308855Y497040D01*
D02*
G37*
G36*
X306230D02*
X306145D01*
X303528Y496339D01*
X301182Y494984D01*
X299266Y493068D01*
X297911Y490722D01*
X297210Y488105D01*
Y488020D01*
X306230D01*
Y497040D01*
D02*
G37*
G36*
X1175000Y510129D02*
X1171084Y509614D01*
X1167435Y508102D01*
X1164302Y505698D01*
X1161898Y502565D01*
X1160386Y498916D01*
X1159871Y495000D01*
X1160386Y491084D01*
X1161898Y487435D01*
X1164302Y484302D01*
X1167435Y481898D01*
X1171084Y480386D01*
X1175000Y479871D01*
X1178916Y480386D01*
X1182565Y481898D01*
X1185698Y484302D01*
X1188102Y487435D01*
X1189614Y491084D01*
X1190129Y495000D01*
X1189614Y498916D01*
X1188102Y502565D01*
X1185698Y505698D01*
X1182565Y508102D01*
X1178916Y509614D01*
X1175000Y510129D01*
D02*
G37*
G36*
X1085000D02*
X1081084Y509614D01*
X1077435Y508102D01*
X1074302Y505698D01*
X1071898Y502565D01*
X1070386Y498916D01*
X1069871Y495000D01*
X1070386Y491084D01*
X1071898Y487435D01*
X1074302Y484302D01*
X1077435Y481898D01*
X1081084Y480386D01*
X1085000Y479871D01*
X1088916Y480386D01*
X1092565Y481898D01*
X1095698Y484302D01*
X1098102Y487435D01*
X1099614Y491084D01*
X1100129Y495000D01*
X1099614Y498916D01*
X1098102Y502565D01*
X1095698Y505698D01*
X1092565Y508102D01*
X1088916Y509614D01*
X1085000Y510129D01*
D02*
G37*
G36*
X127500Y510336D02*
X124889Y509993D01*
X122457Y508985D01*
X120368Y507382D01*
X118765Y505293D01*
X117757Y502860D01*
X117414Y500250D01*
Y486750D01*
X117757Y484140D01*
X118765Y481707D01*
X120368Y479618D01*
X122457Y478015D01*
X124889Y477007D01*
X127500Y476664D01*
X130111Y477007D01*
X132543Y478015D01*
X134632Y479618D01*
X136235Y481707D01*
X137243Y484140D01*
X137586Y486750D01*
Y500250D01*
X137243Y502860D01*
X136235Y505293D01*
X134632Y507382D01*
X132543Y508985D01*
X130111Y509993D01*
X127500Y510336D01*
D02*
G37*
G36*
X82500D02*
X79889Y509993D01*
X77457Y508985D01*
X75368Y507382D01*
X73765Y505293D01*
X72757Y502860D01*
X72414Y500250D01*
Y486750D01*
X72757Y484140D01*
X73765Y481707D01*
X75368Y479618D01*
X77457Y478015D01*
X79889Y477007D01*
X82500Y476664D01*
X85111Y477007D01*
X87543Y478015D01*
X89632Y479618D01*
X91235Y481707D01*
X92243Y484140D01*
X92586Y486750D01*
Y500250D01*
X92243Y502860D01*
X91235Y505293D01*
X89632Y507382D01*
X87543Y508985D01*
X85111Y509993D01*
X82500Y510336D01*
D02*
G37*
G36*
X317790Y485480D02*
X308770D01*
Y476460D01*
X308855D01*
X311472Y477161D01*
X313818Y478516D01*
X315734Y480432D01*
X317089Y482778D01*
X317790Y485395D01*
Y485480D01*
D02*
G37*
G36*
X306230D02*
X297210D01*
Y485395D01*
X297911Y482778D01*
X299266Y480432D01*
X301182Y478516D01*
X303528Y477161D01*
X306145Y476460D01*
X306230D01*
Y485480D01*
D02*
G37*
G36*
X393855Y482790D02*
X393770D01*
Y473770D01*
X402790D01*
Y473855D01*
X402089Y476472D01*
X400734Y478818D01*
X398818Y480734D01*
X396472Y482089D01*
X393855Y482790D01*
D02*
G37*
G36*
X391230D02*
X391145D01*
X388528Y482089D01*
X386182Y480734D01*
X384266Y478818D01*
X382911Y476472D01*
X382210Y473855D01*
Y473770D01*
X391230D01*
Y482790D01*
D02*
G37*
G36*
X1033784Y484750D02*
X1031216D01*
X1028737Y484086D01*
X1026513Y482802D01*
X1024698Y480987D01*
X1023415Y478763D01*
X1022750Y476284D01*
Y473716D01*
X1023415Y471237D01*
X1024698Y469013D01*
X1026513Y467198D01*
X1028737Y465914D01*
X1031216Y465250D01*
X1033784D01*
X1036263Y465914D01*
X1038487Y467198D01*
X1040302Y469013D01*
X1041585Y471237D01*
X1042250Y473716D01*
Y476284D01*
X1041585Y478763D01*
X1040302Y480987D01*
X1038487Y482802D01*
X1036263Y484086D01*
X1033784Y484750D01*
D02*
G37*
G36*
X1257500Y498586D02*
X1254890Y498243D01*
X1252457Y497235D01*
X1250368Y495632D01*
X1248765Y493543D01*
X1247757Y491110D01*
X1247414Y488500D01*
Y475000D01*
X1247757Y472389D01*
X1248765Y469957D01*
X1250368Y467868D01*
X1252457Y466265D01*
X1254890Y465257D01*
X1257500Y464914D01*
X1260110Y465257D01*
X1262543Y466265D01*
X1264632Y467868D01*
X1266235Y469957D01*
X1267243Y472389D01*
X1267586Y475000D01*
Y488500D01*
X1267243Y491110D01*
X1266235Y493543D01*
X1264632Y495632D01*
X1262543Y497235D01*
X1260110Y498243D01*
X1257500Y498586D01*
D02*
G37*
G36*
X1177388Y570834D02*
X712500D01*
X711224Y570580D01*
X710143Y569858D01*
X696035Y555750D01*
X693856D01*
X691743Y554875D01*
X690125Y553257D01*
X689250Y551144D01*
Y548856D01*
X690125Y546743D01*
X691743Y545125D01*
X691851Y545081D01*
Y542331D01*
X691593Y542225D01*
X689975Y540607D01*
X689100Y538494D01*
Y536206D01*
X689975Y534093D01*
X691593Y532475D01*
X693706Y531600D01*
X695994D01*
X698107Y532475D01*
X699725Y534093D01*
X700600Y536206D01*
Y538385D01*
X716381Y554166D01*
X976119D01*
X1209166Y321119D01*
Y225673D01*
X1206626Y224716D01*
X1204789Y226553D01*
X1201711Y228330D01*
X1198277Y229250D01*
X1194723D01*
X1191289Y228330D01*
X1188211Y226553D01*
X1185697Y224039D01*
X1183920Y220961D01*
X1183000Y217527D01*
Y213973D01*
X1183920Y210539D01*
X1185697Y207461D01*
X1188211Y204947D01*
X1191289Y203170D01*
X1194723Y202250D01*
X1198277D01*
X1201711Y203170D01*
X1204789Y204947D01*
X1206626Y206784D01*
X1209166Y205827D01*
Y186193D01*
X1207457Y185485D01*
X1205368Y183882D01*
X1203765Y181793D01*
X1202757Y179361D01*
X1202414Y176750D01*
Y163250D01*
X1202757Y160639D01*
X1203765Y158207D01*
X1205368Y156118D01*
X1207457Y154515D01*
X1209890Y153507D01*
X1212500Y153164D01*
X1215110Y153507D01*
X1217543Y154515D01*
X1219632Y156118D01*
X1221235Y158207D01*
X1222243Y160639D01*
X1222586Y163250D01*
Y176750D01*
X1222243Y179361D01*
X1221235Y181793D01*
X1219632Y183882D01*
X1217543Y185485D01*
X1215834Y186193D01*
Y322500D01*
X1215580Y323776D01*
X1214857Y324857D01*
X979857Y559857D01*
X978776Y560580D01*
X977500Y560834D01*
Y564166D01*
X1176007D01*
X1196633Y543540D01*
X1195581Y541000D01*
X1194723D01*
X1191289Y540080D01*
X1188211Y538303D01*
X1185697Y535789D01*
X1183920Y532711D01*
X1183000Y529277D01*
Y525723D01*
X1183920Y522289D01*
X1185697Y519211D01*
X1188211Y516697D01*
X1191289Y514920D01*
X1194723Y514000D01*
X1198277D01*
X1201711Y514920D01*
X1204789Y516697D01*
X1206626Y518534D01*
X1209166Y517577D01*
Y497943D01*
X1207457Y497235D01*
X1205368Y495632D01*
X1203765Y493543D01*
X1202757Y491110D01*
X1202414Y488500D01*
Y475000D01*
X1202757Y472389D01*
X1203765Y469957D01*
X1205368Y467868D01*
X1207457Y466265D01*
X1209890Y465257D01*
X1212500Y464914D01*
X1215110Y465257D01*
X1217543Y466265D01*
X1219632Y467868D01*
X1221235Y469957D01*
X1222243Y472389D01*
X1222586Y475000D01*
Y488500D01*
X1222243Y491110D01*
X1221235Y493543D01*
X1219632Y495632D01*
X1217543Y497235D01*
X1215834Y497943D01*
Y532388D01*
X1215580Y533664D01*
X1214857Y534745D01*
X1179745Y569857D01*
X1178664Y570580D01*
X1177388Y570834D01*
D02*
G37*
G36*
X357250Y482250D02*
X337750D01*
Y462750D01*
X357250D01*
Y482250D01*
D02*
G37*
G36*
X402790Y471230D02*
X393770D01*
Y462210D01*
X393855D01*
X396472Y462911D01*
X398818Y464266D01*
X400734Y466182D01*
X402089Y468528D01*
X402790Y471145D01*
Y471230D01*
D02*
G37*
G36*
X391230D02*
X382210D01*
Y471145D01*
X382911Y468528D01*
X384266Y466182D01*
X386182Y464266D01*
X388528Y462911D01*
X391145Y462210D01*
X391230D01*
Y471230D01*
D02*
G37*
G36*
X308784Y471500D02*
X306216D01*
X303737Y470835D01*
X301513Y469552D01*
X299698Y467737D01*
X298414Y465513D01*
X297750Y463034D01*
Y460466D01*
X298414Y457987D01*
X299698Y455763D01*
X301513Y453948D01*
X303737Y452664D01*
X306216Y452000D01*
X308784D01*
X311263Y452664D01*
X313487Y453948D01*
X315302Y455763D01*
X316586Y457987D01*
X317250Y460466D01*
Y463034D01*
X316586Y465513D01*
X315302Y467737D01*
X313487Y469552D01*
X311263Y470835D01*
X308784Y471500D01*
D02*
G37*
G36*
X105000Y476879D02*
X101084Y476364D01*
X97435Y474852D01*
X94302Y472448D01*
X91897Y469315D01*
X90386Y465666D01*
X89871Y461750D01*
X90386Y457834D01*
X91897Y454185D01*
X94302Y451052D01*
X97435Y448647D01*
X101084Y447136D01*
X105000Y446621D01*
X108916Y447136D01*
X112565Y448647D01*
X115698Y451052D01*
X118103Y454185D01*
X119614Y457834D01*
X120129Y461750D01*
X119614Y465666D01*
X118103Y469315D01*
X115698Y472448D01*
X112565Y474852D01*
X108916Y476364D01*
X105000Y476879D01*
D02*
G37*
G36*
X1033784Y459750D02*
X1031216D01*
X1028737Y459086D01*
X1026513Y457802D01*
X1024698Y455987D01*
X1023415Y453763D01*
X1022750Y451284D01*
Y448716D01*
X1023415Y446237D01*
X1024698Y444013D01*
X1026513Y442198D01*
X1028737Y440914D01*
X1031216Y440250D01*
X1033784D01*
X1036263Y440914D01*
X1038487Y442198D01*
X1040302Y444013D01*
X1041585Y446237D01*
X1042250Y448716D01*
Y451284D01*
X1041585Y453763D01*
X1040302Y455987D01*
X1038487Y457802D01*
X1036263Y459086D01*
X1033784Y459750D01*
D02*
G37*
G36*
X1235000Y465129D02*
X1231084Y464614D01*
X1227435Y463102D01*
X1224302Y460698D01*
X1221898Y457565D01*
X1220386Y453916D01*
X1219871Y450000D01*
X1220386Y446084D01*
X1221898Y442435D01*
X1224302Y439302D01*
X1227435Y436898D01*
X1231084Y435386D01*
X1235000Y434871D01*
X1238916Y435386D01*
X1242565Y436898D01*
X1245698Y439302D01*
X1248102Y442435D01*
X1249614Y446084D01*
X1250129Y450000D01*
X1249614Y453916D01*
X1248102Y457565D01*
X1245698Y460698D01*
X1242565Y463102D01*
X1238916Y464614D01*
X1235000Y465129D01*
D02*
G37*
G36*
X308784Y446500D02*
X306216D01*
X303737Y445835D01*
X301513Y444552D01*
X299698Y442737D01*
X298414Y440513D01*
X297750Y438034D01*
Y435466D01*
X298414Y432987D01*
X299698Y430763D01*
X301513Y428948D01*
X303737Y427664D01*
X306216Y427000D01*
X308784D01*
X311263Y427664D01*
X313487Y428948D01*
X315302Y430763D01*
X316586Y432987D01*
X317250Y435466D01*
Y438034D01*
X316586Y440513D01*
X315302Y442737D01*
X313487Y444552D01*
X311263Y445835D01*
X308784Y446500D01*
D02*
G37*
G36*
X1033855Y435290D02*
X1033770D01*
Y426270D01*
X1042790D01*
Y426355D01*
X1042089Y428972D01*
X1040734Y431318D01*
X1038818Y433234D01*
X1036472Y434589D01*
X1033855Y435290D01*
D02*
G37*
G36*
X1031230D02*
X1031145D01*
X1028528Y434589D01*
X1026182Y433234D01*
X1024266Y431318D01*
X1022911Y428972D01*
X1022210Y426355D01*
Y426270D01*
X1031230D01*
Y435290D01*
D02*
G37*
G36*
X1042790Y423730D02*
X1033770D01*
Y414710D01*
X1033855D01*
X1036472Y415411D01*
X1038818Y416766D01*
X1040734Y418682D01*
X1042089Y421028D01*
X1042790Y423645D01*
Y423730D01*
D02*
G37*
G36*
X1031230D02*
X1022210D01*
Y423645D01*
X1022911Y421028D01*
X1024266Y418682D01*
X1026182Y416766D01*
X1028528Y415411D01*
X1031145Y414710D01*
X1031230D01*
Y423730D01*
D02*
G37*
G36*
X82500Y446836D02*
X79889Y446493D01*
X77457Y445485D01*
X75368Y443882D01*
X73765Y441793D01*
X72757Y439361D01*
X72414Y436750D01*
Y423250D01*
X72757Y420639D01*
X73765Y418207D01*
X75368Y416118D01*
X77457Y414515D01*
X79889Y413507D01*
X82500Y413164D01*
X85111Y413507D01*
X87543Y414515D01*
X89632Y416118D01*
X91235Y418207D01*
X92243Y420639D01*
X92586Y423250D01*
Y436750D01*
X92243Y439361D01*
X91235Y441793D01*
X89632Y443882D01*
X87543Y445485D01*
X85111Y446493D01*
X82500Y446836D01*
D02*
G37*
G36*
X255000Y431879D02*
X251084Y431364D01*
X247435Y429852D01*
X244302Y427448D01*
X241898Y424315D01*
X240386Y420666D01*
X239871Y416750D01*
X240386Y412834D01*
X241898Y409185D01*
X244302Y406052D01*
X247435Y403647D01*
X251084Y402136D01*
X255000Y401621D01*
X258916Y402136D01*
X262565Y403647D01*
X265698Y406052D01*
X268102Y409185D01*
X269614Y412834D01*
X270129Y416750D01*
X269614Y420666D01*
X268102Y424315D01*
X265698Y427448D01*
X262565Y429852D01*
X258916Y431364D01*
X255000Y431879D01*
D02*
G37*
G36*
X165000D02*
X161084Y431364D01*
X157435Y429852D01*
X154302Y427448D01*
X151897Y424315D01*
X150386Y420666D01*
X149871Y416750D01*
X150386Y412834D01*
X151897Y409185D01*
X154302Y406052D01*
X157435Y403647D01*
X161084Y402136D01*
X165000Y401621D01*
X168916Y402136D01*
X172565Y403647D01*
X175698Y406052D01*
X178102Y409185D01*
X179614Y412834D01*
X180129Y416750D01*
X179614Y420666D01*
X178102Y424315D01*
X175698Y427448D01*
X172565Y429852D01*
X168916Y431364D01*
X165000Y431879D01*
D02*
G37*
G36*
X1257500Y435086D02*
X1254890Y434743D01*
X1252457Y433735D01*
X1250368Y432132D01*
X1248765Y430043D01*
X1247757Y427611D01*
X1247414Y425000D01*
Y411500D01*
X1247757Y408890D01*
X1248765Y406457D01*
X1250368Y404368D01*
X1252457Y402765D01*
X1254890Y401757D01*
X1257500Y401414D01*
X1260110Y401757D01*
X1262543Y402765D01*
X1264632Y404368D01*
X1266235Y406457D01*
X1267243Y408890D01*
X1267586Y411500D01*
Y425000D01*
X1267243Y427611D01*
X1266235Y430043D01*
X1264632Y432132D01*
X1262543Y433735D01*
X1260110Y434743D01*
X1257500Y435086D01*
D02*
G37*
G36*
X1212500D02*
X1209890Y434743D01*
X1207457Y433735D01*
X1205368Y432132D01*
X1203765Y430043D01*
X1202757Y427611D01*
X1202414Y425000D01*
Y411500D01*
X1202757Y408890D01*
X1203765Y406457D01*
X1205368Y404368D01*
X1207457Y402765D01*
X1209890Y401757D01*
X1212500Y401414D01*
X1215110Y401757D01*
X1217543Y402765D01*
X1219632Y404368D01*
X1221235Y406457D01*
X1222243Y408890D01*
X1222586Y411500D01*
Y425000D01*
X1222243Y427611D01*
X1221235Y430043D01*
X1219632Y432132D01*
X1217543Y433735D01*
X1215110Y434743D01*
X1212500Y435086D01*
D02*
G37*
G36*
X1175000Y420129D02*
X1171084Y419614D01*
X1167435Y418102D01*
X1164302Y415698D01*
X1161898Y412565D01*
X1160386Y408916D01*
X1159871Y405000D01*
X1160386Y401084D01*
X1161898Y397435D01*
X1164302Y394302D01*
X1167435Y391898D01*
X1171084Y390386D01*
X1175000Y389870D01*
X1178916Y390386D01*
X1182565Y391898D01*
X1185698Y394302D01*
X1188102Y397435D01*
X1189614Y401084D01*
X1190129Y405000D01*
X1189614Y408916D01*
X1188102Y412565D01*
X1185698Y415698D01*
X1182565Y418102D01*
X1178916Y419614D01*
X1175000Y420129D01*
D02*
G37*
G36*
X1085000D02*
X1081084Y419614D01*
X1077435Y418102D01*
X1074302Y415698D01*
X1071898Y412565D01*
X1070386Y408916D01*
X1069871Y405000D01*
X1070386Y401084D01*
X1071898Y397435D01*
X1074302Y394302D01*
X1077435Y391898D01*
X1081084Y390386D01*
X1085000Y389870D01*
X1088916Y390386D01*
X1092565Y391898D01*
X1095698Y394302D01*
X1098102Y397435D01*
X1099614Y401084D01*
X1100129Y405000D01*
X1099614Y408916D01*
X1098102Y412565D01*
X1095698Y415698D01*
X1092565Y418102D01*
X1088916Y419614D01*
X1085000Y420129D01*
D02*
G37*
G36*
X278277Y397750D02*
X274723D01*
X271289Y396830D01*
X268211Y395053D01*
X265697Y392539D01*
X263920Y389461D01*
X263000Y386027D01*
Y382473D01*
X263920Y379039D01*
X265697Y375961D01*
X268211Y373447D01*
X271289Y371670D01*
X274723Y370750D01*
X278277D01*
X281711Y371670D01*
X284789Y373447D01*
X287303Y375961D01*
X289080Y379039D01*
X290000Y382473D01*
Y386027D01*
X289080Y389461D01*
X287303Y392539D01*
X284789Y395053D01*
X281711Y396830D01*
X278277Y397750D01*
D02*
G37*
G36*
X236355Y374540D02*
X236270D01*
Y365520D01*
X245290D01*
Y365605D01*
X244589Y368222D01*
X243234Y370568D01*
X241318Y372484D01*
X238972Y373839D01*
X236355Y374540D01*
D02*
G37*
G36*
X233730D02*
X233645D01*
X231028Y373839D01*
X228682Y372484D01*
X226766Y370568D01*
X225411Y368222D01*
X224710Y365605D01*
Y365520D01*
X233730D01*
Y374540D01*
D02*
G37*
G36*
X1198277Y386000D02*
X1194723D01*
X1191289Y385080D01*
X1188211Y383303D01*
X1185697Y380789D01*
X1183920Y377711D01*
X1183000Y374277D01*
Y370723D01*
X1183920Y367289D01*
X1185697Y364211D01*
X1188211Y361697D01*
X1191289Y359920D01*
X1194723Y359000D01*
X1198277D01*
X1201711Y359920D01*
X1204789Y361697D01*
X1207303Y364211D01*
X1209080Y367289D01*
X1210000Y370723D01*
Y374277D01*
X1209080Y377711D01*
X1207303Y380789D01*
X1204789Y383303D01*
X1201711Y385080D01*
X1198277Y386000D01*
D02*
G37*
G36*
X1065277D02*
X1061723D01*
X1058289Y385080D01*
X1055211Y383303D01*
X1052697Y380789D01*
X1050920Y377711D01*
X1050000Y374277D01*
Y370723D01*
X1050920Y367289D01*
X1052697Y364211D01*
X1055211Y361697D01*
X1058289Y359920D01*
X1061723Y359000D01*
X1065277D01*
X1068711Y359920D01*
X1071789Y361697D01*
X1074303Y364211D01*
X1076080Y367289D01*
X1077000Y370723D01*
Y374277D01*
X1076080Y377711D01*
X1074303Y380789D01*
X1071789Y383303D01*
X1068711Y385080D01*
X1065277Y386000D01*
D02*
G37*
G36*
X211284Y374000D02*
X208716D01*
X206237Y373335D01*
X204013Y372052D01*
X202198Y370237D01*
X200914Y368013D01*
X200250Y365534D01*
Y362966D01*
X200914Y360487D01*
X202198Y358263D01*
X204013Y356448D01*
X206237Y355164D01*
X208716Y354500D01*
X211284D01*
X213763Y355164D01*
X215987Y356448D01*
X217802Y358263D01*
X219086Y360487D01*
X219750Y362966D01*
Y365534D01*
X219086Y368013D01*
X217802Y370237D01*
X215987Y372052D01*
X213763Y373335D01*
X211284Y374000D01*
D02*
G37*
G36*
X194750D02*
X175250D01*
Y354500D01*
X194750D01*
Y374000D01*
D02*
G37*
G36*
X245290Y362980D02*
X236270D01*
Y353960D01*
X236355D01*
X238972Y354661D01*
X241318Y356016D01*
X243234Y357932D01*
X244589Y360278D01*
X245290Y362895D01*
Y362980D01*
D02*
G37*
G36*
X233730D02*
X224710D01*
Y362895D01*
X225411Y360278D01*
X226766Y357932D01*
X228682Y356016D01*
X231028Y354661D01*
X233645Y353960D01*
X233730D01*
Y362980D01*
D02*
G37*
G36*
X376270Y348782D02*
Y343770D01*
X381282D01*
X380332Y346063D01*
X378563Y347832D01*
X376270Y348782D01*
D02*
G37*
G36*
X373730D02*
X371437Y347832D01*
X369668Y346063D01*
X368718Y343770D01*
X373730D01*
Y348782D01*
D02*
G37*
G36*
X381282Y341230D02*
X376270D01*
Y336218D01*
X378563Y337168D01*
X380332Y338937D01*
X381282Y341230D01*
D02*
G37*
G36*
X373730D02*
X368718D01*
X369668Y338937D01*
X371437Y337168D01*
X373730Y336218D01*
Y341230D01*
D02*
G37*
G36*
X518827Y310480D02*
X518770D01*
Y301670D01*
X527580D01*
Y301727D01*
X526893Y304291D01*
X525566Y306589D01*
X523689Y308466D01*
X521391Y309793D01*
X518827Y310480D01*
D02*
G37*
G36*
X516230D02*
X516173D01*
X513609Y309793D01*
X511311Y308466D01*
X509434Y306589D01*
X508107Y304291D01*
X507420Y301727D01*
Y301670D01*
X516230D01*
Y310480D01*
D02*
G37*
G36*
X527580Y299130D02*
X518770D01*
Y290320D01*
X518827D01*
X521391Y291007D01*
X523689Y292334D01*
X525566Y294211D01*
X526893Y296509D01*
X527580Y299073D01*
Y299130D01*
D02*
G37*
G36*
X516230D02*
X507420D01*
Y299073D01*
X508107Y296509D01*
X509434Y294211D01*
X511311Y292334D01*
X513609Y291007D01*
X516173Y290320D01*
X516230D01*
Y299130D01*
D02*
G37*
G36*
X829540Y307440D02*
X810460D01*
Y288360D01*
X829540D01*
Y307440D01*
D02*
G37*
G36*
X966270Y263782D02*
Y258770D01*
X971282D01*
X970332Y261063D01*
X968563Y262832D01*
X966270Y263782D01*
D02*
G37*
G36*
X963730D02*
X961437Y262832D01*
X959668Y261063D01*
X958718Y258770D01*
X963730D01*
Y263782D01*
D02*
G37*
G36*
X971282Y256230D02*
X966270D01*
Y251218D01*
X968563Y252168D01*
X970332Y253937D01*
X971282Y256230D01*
D02*
G37*
G36*
X963730D02*
X958718D01*
X959668Y253937D01*
X961437Y252168D01*
X963730Y251218D01*
Y256230D01*
D02*
G37*
G36*
X821327Y257180D02*
X821270D01*
Y248370D01*
X830080D01*
Y248427D01*
X829393Y250991D01*
X828066Y253289D01*
X826189Y255166D01*
X823891Y256493D01*
X821327Y257180D01*
D02*
G37*
G36*
X818730D02*
X818673D01*
X816109Y256493D01*
X813811Y255166D01*
X811934Y253289D01*
X810607Y250991D01*
X809920Y248427D01*
Y248370D01*
X818730D01*
Y257180D01*
D02*
G37*
G36*
X527040Y259140D02*
X507960D01*
Y240060D01*
X527040D01*
Y259140D01*
D02*
G37*
G36*
X1106355Y246040D02*
X1106270D01*
Y237020D01*
X1115290D01*
Y237105D01*
X1114589Y239722D01*
X1113234Y242068D01*
X1111318Y243984D01*
X1108972Y245339D01*
X1106355Y246040D01*
D02*
G37*
G36*
X1103730D02*
X1103645D01*
X1101028Y245339D01*
X1098682Y243984D01*
X1096766Y242068D01*
X1095411Y239722D01*
X1094710Y237105D01*
Y237020D01*
X1103730D01*
Y246040D01*
D02*
G37*
G36*
X830080Y245830D02*
X821270D01*
Y237020D01*
X821327D01*
X823891Y237707D01*
X826189Y239034D01*
X828066Y240911D01*
X829393Y243209D01*
X830080Y245773D01*
Y245830D01*
D02*
G37*
G36*
X818730D02*
X809920D01*
Y245773D01*
X810607Y243209D01*
X811934Y240911D01*
X813811Y239034D01*
X816109Y237707D01*
X818673Y237020D01*
X818730D01*
Y245830D01*
D02*
G37*
G36*
X1164750Y245500D02*
X1145250D01*
Y226000D01*
X1164750D01*
Y245500D01*
D02*
G37*
G36*
X1131284D02*
X1128716D01*
X1126237Y244835D01*
X1124013Y243552D01*
X1122198Y241737D01*
X1120915Y239513D01*
X1120250Y237034D01*
Y234466D01*
X1120915Y231987D01*
X1122198Y229763D01*
X1124013Y227948D01*
X1126237Y226665D01*
X1128716Y226000D01*
X1131284D01*
X1133763Y226665D01*
X1135987Y227948D01*
X1137802Y229763D01*
X1139085Y231987D01*
X1139750Y234466D01*
Y237034D01*
X1139085Y239513D01*
X1137802Y241737D01*
X1135987Y243552D01*
X1133763Y244835D01*
X1131284Y245500D01*
D02*
G37*
G36*
X1115290Y234480D02*
X1106270D01*
Y225460D01*
X1106355D01*
X1108972Y226161D01*
X1111318Y227516D01*
X1113234Y229432D01*
X1114589Y231778D01*
X1115290Y234395D01*
Y234480D01*
D02*
G37*
G36*
X1103730D02*
X1094710D01*
Y234395D01*
X1095411Y231778D01*
X1096766Y229432D01*
X1098682Y227516D01*
X1101028Y226161D01*
X1103645Y225460D01*
X1103730D01*
Y234480D01*
D02*
G37*
G36*
X278277Y241750D02*
X274723D01*
X271289Y240830D01*
X268211Y239053D01*
X265697Y236539D01*
X263920Y233461D01*
X263000Y230027D01*
Y226473D01*
X263920Y223039D01*
X265697Y219961D01*
X268211Y217447D01*
X271289Y215670D01*
X274723Y214750D01*
X278277D01*
X281711Y215670D01*
X284789Y217447D01*
X287303Y219961D01*
X289080Y223039D01*
X290000Y226473D01*
Y230027D01*
X289080Y233461D01*
X287303Y236539D01*
X284789Y239053D01*
X281711Y240830D01*
X278277Y241750D01*
D02*
G37*
G36*
X145277D02*
X141723D01*
X138289Y240830D01*
X135211Y239053D01*
X132697Y236539D01*
X130920Y233461D01*
X130000Y230027D01*
Y226473D01*
X130920Y223039D01*
X132697Y219961D01*
X135211Y217447D01*
X138289Y215670D01*
X141723Y214750D01*
X145277D01*
X148711Y215670D01*
X151789Y217447D01*
X154303Y219961D01*
X156080Y223039D01*
X157000Y226473D01*
Y230027D01*
X156080Y233461D01*
X154303Y236539D01*
X151789Y239053D01*
X148711Y240830D01*
X145277Y241750D01*
D02*
G37*
G36*
X373770Y218782D02*
Y213770D01*
X378782D01*
X377832Y216063D01*
X376063Y217832D01*
X373770Y218782D01*
D02*
G37*
G36*
X371230D02*
X368937Y217832D01*
X367168Y216063D01*
X366218Y213770D01*
X371230D01*
Y218782D01*
D02*
G37*
G36*
X338770D02*
Y213770D01*
X343782D01*
X342832Y216063D01*
X341063Y217832D01*
X338770Y218782D01*
D02*
G37*
G36*
X336230D02*
X333937Y217832D01*
X332168Y216063D01*
X331218Y213770D01*
X336230D01*
Y218782D01*
D02*
G37*
G36*
X378782Y211230D02*
X373770D01*
Y206218D01*
X376063Y207168D01*
X377832Y208937D01*
X378782Y211230D01*
D02*
G37*
G36*
X371230D02*
X366218D01*
X367168Y208937D01*
X368937Y207168D01*
X371230Y206218D01*
Y211230D01*
D02*
G37*
G36*
X343782D02*
X338770D01*
Y206218D01*
X341063Y207168D01*
X342832Y208937D01*
X343782Y211230D01*
D02*
G37*
G36*
X336230D02*
X331218D01*
X332168Y208937D01*
X333937Y207168D01*
X336230Y206218D01*
Y211230D01*
D02*
G37*
G36*
X1065277Y229250D02*
X1061723D01*
X1058289Y228330D01*
X1055211Y226553D01*
X1052697Y224039D01*
X1050920Y220961D01*
X1050000Y217527D01*
Y213973D01*
X1050920Y210539D01*
X1052697Y207461D01*
X1055211Y204947D01*
X1058289Y203170D01*
X1061723Y202250D01*
X1065277D01*
X1068711Y203170D01*
X1071789Y204947D01*
X1074303Y207461D01*
X1076080Y210539D01*
X1077000Y213973D01*
Y217527D01*
X1076080Y220961D01*
X1074303Y224039D01*
X1071789Y226553D01*
X1068711Y228330D01*
X1065277Y229250D01*
D02*
G37*
G36*
X255000Y210879D02*
X251084Y210364D01*
X247435Y208853D01*
X244302Y206448D01*
X241898Y203315D01*
X240386Y199666D01*
X239871Y195750D01*
X240386Y191834D01*
X241898Y188185D01*
X244302Y185052D01*
X247435Y182647D01*
X251084Y181136D01*
X255000Y180621D01*
X258916Y181136D01*
X262565Y182647D01*
X265698Y185052D01*
X268102Y188185D01*
X269614Y191834D01*
X270129Y195750D01*
X269614Y199666D01*
X268102Y203315D01*
X265698Y206448D01*
X262565Y208853D01*
X258916Y210364D01*
X255000Y210879D01*
D02*
G37*
G36*
X165000D02*
X161084Y210364D01*
X157435Y208853D01*
X154302Y206448D01*
X151897Y203315D01*
X150386Y199666D01*
X149871Y195750D01*
X150386Y191834D01*
X151897Y188185D01*
X154302Y185052D01*
X157435Y182647D01*
X161084Y181136D01*
X165000Y180621D01*
X168916Y181136D01*
X172565Y182647D01*
X175698Y185052D01*
X178102Y188185D01*
X179614Y191834D01*
X180129Y195750D01*
X179614Y199666D01*
X178102Y203315D01*
X175698Y206448D01*
X172565Y208853D01*
X168916Y210364D01*
X165000Y210879D01*
D02*
G37*
G36*
X912250Y199750D02*
X892750D01*
Y180250D01*
X912250D01*
Y199750D01*
D02*
G37*
G36*
X380669D02*
X361169D01*
Y180250D01*
X380669D01*
Y199750D01*
D02*
G37*
G36*
X782250Y199750D02*
X762750D01*
Y180250D01*
X782250D01*
Y199750D01*
D02*
G37*
G36*
X647250D02*
X627750D01*
Y180250D01*
X647250D01*
Y199750D01*
D02*
G37*
G36*
X512250D02*
X492750D01*
Y180250D01*
X512250D01*
Y199750D01*
D02*
G37*
G36*
X308855Y186040D02*
X308770D01*
Y177020D01*
X317790D01*
Y177105D01*
X317089Y179722D01*
X315734Y182068D01*
X313818Y183984D01*
X311472Y185339D01*
X308855Y186040D01*
D02*
G37*
G36*
X306230D02*
X306145D01*
X303528Y185339D01*
X301182Y183984D01*
X299266Y182068D01*
X297911Y179722D01*
X297210Y177105D01*
Y177020D01*
X306230D01*
Y186040D01*
D02*
G37*
G36*
X1175000Y198379D02*
X1171084Y197864D01*
X1167435Y196353D01*
X1164302Y193948D01*
X1161898Y190815D01*
X1160386Y187166D01*
X1159871Y183250D01*
X1160386Y179334D01*
X1161898Y175685D01*
X1164302Y172552D01*
X1167435Y170147D01*
X1171084Y168636D01*
X1175000Y168121D01*
X1178916Y168636D01*
X1182565Y170147D01*
X1185698Y172552D01*
X1188102Y175685D01*
X1189614Y179334D01*
X1190129Y183250D01*
X1189614Y187166D01*
X1188102Y190815D01*
X1185698Y193948D01*
X1182565Y196353D01*
X1178916Y197864D01*
X1175000Y198379D01*
D02*
G37*
G36*
X1085000D02*
X1081084Y197864D01*
X1077435Y196353D01*
X1074302Y193948D01*
X1071898Y190815D01*
X1070386Y187166D01*
X1069871Y183250D01*
X1070386Y179334D01*
X1071898Y175685D01*
X1074302Y172552D01*
X1077435Y170147D01*
X1081084Y168636D01*
X1085000Y168121D01*
X1088916Y168636D01*
X1092565Y170147D01*
X1095698Y172552D01*
X1098102Y175685D01*
X1099614Y179334D01*
X1100129Y183250D01*
X1099614Y187166D01*
X1098102Y190815D01*
X1095698Y193948D01*
X1092565Y196353D01*
X1088916Y197864D01*
X1085000Y198379D01*
D02*
G37*
G36*
X127500Y199336D02*
X124889Y198993D01*
X122457Y197985D01*
X120368Y196382D01*
X118765Y194293D01*
X117757Y191861D01*
X117414Y189250D01*
Y175750D01*
X117757Y173139D01*
X118765Y170707D01*
X120368Y168618D01*
X122457Y167015D01*
X124889Y166007D01*
X127500Y165664D01*
X130111Y166007D01*
X132543Y167015D01*
X134632Y168618D01*
X136235Y170707D01*
X137243Y173139D01*
X137586Y175750D01*
Y189250D01*
X137243Y191861D01*
X136235Y194293D01*
X134632Y196382D01*
X132543Y197985D01*
X130111Y198993D01*
X127500Y199336D01*
D02*
G37*
G36*
X82500D02*
X79889Y198993D01*
X77457Y197985D01*
X75368Y196382D01*
X73765Y194293D01*
X72757Y191861D01*
X72414Y189250D01*
Y175750D01*
X72757Y173139D01*
X73765Y170707D01*
X75368Y168618D01*
X77457Y167015D01*
X79889Y166007D01*
X82500Y165664D01*
X85111Y166007D01*
X87543Y167015D01*
X89632Y168618D01*
X91235Y170707D01*
X92243Y173139D01*
X92586Y175750D01*
Y189250D01*
X92243Y191861D01*
X91235Y194293D01*
X89632Y196382D01*
X87543Y197985D01*
X85111Y198993D01*
X82500Y199336D01*
D02*
G37*
G36*
X317790Y174480D02*
X308770D01*
Y165460D01*
X308855D01*
X311472Y166161D01*
X313818Y167516D01*
X315734Y169432D01*
X317089Y171778D01*
X317790Y174395D01*
Y174480D01*
D02*
G37*
G36*
X306230D02*
X297210D01*
Y174395D01*
X297911Y171778D01*
X299266Y169432D01*
X301182Y167516D01*
X303528Y166161D01*
X306145Y165460D01*
X306230D01*
Y174480D01*
D02*
G37*
G36*
X1033784Y173000D02*
X1031216D01*
X1028737Y172335D01*
X1026513Y171052D01*
X1024698Y169237D01*
X1023415Y167013D01*
X1022750Y164534D01*
Y161966D01*
X1023415Y159487D01*
X1024698Y157263D01*
X1026513Y155448D01*
X1028737Y154164D01*
X1031216Y153500D01*
X1033784D01*
X1036263Y154164D01*
X1038487Y155448D01*
X1040302Y157263D01*
X1041585Y159487D01*
X1042250Y161966D01*
Y164534D01*
X1041585Y167013D01*
X1040302Y169237D01*
X1038487Y171052D01*
X1036263Y172335D01*
X1033784Y173000D01*
D02*
G37*
G36*
X1257500Y186836D02*
X1254890Y186493D01*
X1252457Y185485D01*
X1250368Y183882D01*
X1248765Y181793D01*
X1247757Y179361D01*
X1247414Y176750D01*
Y163250D01*
X1247757Y160639D01*
X1248765Y158207D01*
X1250368Y156118D01*
X1252457Y154515D01*
X1254890Y153507D01*
X1257500Y153164D01*
X1260110Y153507D01*
X1262543Y154515D01*
X1264632Y156118D01*
X1266235Y158207D01*
X1267243Y160639D01*
X1267586Y163250D01*
Y176750D01*
X1267243Y179361D01*
X1266235Y181793D01*
X1264632Y183882D01*
X1262543Y185485D01*
X1260110Y186493D01*
X1257500Y186836D01*
D02*
G37*
G36*
X308784Y160500D02*
X306216D01*
X303737Y159836D01*
X301513Y158552D01*
X299698Y156737D01*
X298414Y154513D01*
X297750Y152034D01*
Y149466D01*
X298414Y146987D01*
X299698Y144763D01*
X301513Y142948D01*
X303737Y141664D01*
X306216Y141000D01*
X308784D01*
X311263Y141664D01*
X313487Y142948D01*
X315302Y144763D01*
X316586Y146987D01*
X317250Y149466D01*
Y152034D01*
X316586Y154513D01*
X315302Y156737D01*
X313487Y158552D01*
X311263Y159836D01*
X308784Y160500D01*
D02*
G37*
G36*
X105000Y165879D02*
X101084Y165364D01*
X97435Y163853D01*
X94302Y161448D01*
X91897Y158315D01*
X90386Y154666D01*
X89871Y150750D01*
X90386Y146834D01*
X91897Y143185D01*
X94302Y140052D01*
X97435Y137647D01*
X101084Y136136D01*
X105000Y135621D01*
X108916Y136136D01*
X112565Y137647D01*
X115698Y140052D01*
X118103Y143185D01*
X119614Y146834D01*
X120129Y150750D01*
X119614Y154666D01*
X118103Y158315D01*
X115698Y161448D01*
X112565Y163853D01*
X108916Y165364D01*
X105000Y165879D01*
D02*
G37*
G36*
X968784Y154750D02*
X966216D01*
X963737Y154086D01*
X961513Y152802D01*
X959698Y150987D01*
X958414Y148763D01*
X957750Y146284D01*
Y143716D01*
X958414Y141237D01*
X959698Y139013D01*
X961513Y137198D01*
X963737Y135914D01*
X966216Y135250D01*
X968784D01*
X971263Y135914D01*
X973487Y137198D01*
X975302Y139013D01*
X976585Y141237D01*
X977250Y143716D01*
Y146284D01*
X976585Y148763D01*
X975302Y150987D01*
X973487Y152802D01*
X971263Y154086D01*
X968784Y154750D01*
D02*
G37*
G36*
X903784D02*
X901216D01*
X898737Y154086D01*
X896513Y152802D01*
X894698Y150987D01*
X893414Y148763D01*
X892750Y146284D01*
Y143716D01*
X893414Y141237D01*
X894698Y139013D01*
X896513Y137198D01*
X898737Y135914D01*
X901216Y135250D01*
X903784D01*
X906263Y135914D01*
X908487Y137198D01*
X910302Y139013D01*
X911585Y141237D01*
X912250Y143716D01*
Y146284D01*
X911585Y148763D01*
X910302Y150987D01*
X908487Y152802D01*
X906263Y154086D01*
X903784Y154750D01*
D02*
G37*
G36*
X437202D02*
X434635D01*
X432155Y154086D01*
X429932Y152802D01*
X428117Y150987D01*
X426833Y148763D01*
X426169Y146284D01*
Y143716D01*
X426833Y141237D01*
X428117Y139013D01*
X429932Y137198D01*
X432155Y135914D01*
X434635Y135250D01*
X437202D01*
X439682Y135914D01*
X441906Y137198D01*
X443721Y139013D01*
X445004Y141237D01*
X445669Y143716D01*
Y146284D01*
X445004Y148763D01*
X443721Y150987D01*
X441906Y152802D01*
X439682Y154086D01*
X437202Y154750D01*
D02*
G37*
G36*
X372202D02*
X369635D01*
X367155Y154086D01*
X364932Y152802D01*
X363117Y150987D01*
X361833Y148763D01*
X361169Y146284D01*
Y143716D01*
X361833Y141237D01*
X363117Y139013D01*
X364932Y137198D01*
X367155Y135914D01*
X369635Y135250D01*
X372202D01*
X374682Y135914D01*
X376906Y137198D01*
X378721Y139013D01*
X380004Y141237D01*
X380669Y143716D01*
Y146284D01*
X380004Y148763D01*
X378721Y150987D01*
X376906Y152802D01*
X374682Y154086D01*
X372202Y154750D01*
D02*
G37*
G36*
X838784Y154750D02*
X836216D01*
X833737Y154086D01*
X831513Y152802D01*
X829698Y150987D01*
X828414Y148763D01*
X827750Y146284D01*
Y143716D01*
X828414Y141237D01*
X829698Y139013D01*
X831513Y137198D01*
X833737Y135914D01*
X836216Y135250D01*
X838784D01*
X841263Y135914D01*
X843487Y137198D01*
X845302Y139013D01*
X846585Y141237D01*
X847250Y143716D01*
Y146284D01*
X846585Y148763D01*
X845302Y150987D01*
X843487Y152802D01*
X841263Y154086D01*
X838784Y154750D01*
D02*
G37*
G36*
X773784D02*
X771216D01*
X768737Y154086D01*
X766513Y152802D01*
X764698Y150987D01*
X763414Y148763D01*
X762750Y146284D01*
Y143716D01*
X763414Y141237D01*
X764698Y139013D01*
X766513Y137198D01*
X768737Y135914D01*
X771216Y135250D01*
X773784D01*
X776263Y135914D01*
X778487Y137198D01*
X780302Y139013D01*
X781585Y141237D01*
X782250Y143716D01*
Y146284D01*
X781585Y148763D01*
X780302Y150987D01*
X778487Y152802D01*
X776263Y154086D01*
X773784Y154750D01*
D02*
G37*
G36*
X703784D02*
X701216D01*
X698737Y154086D01*
X696513Y152802D01*
X694698Y150987D01*
X693414Y148763D01*
X692750Y146284D01*
Y143716D01*
X693414Y141237D01*
X694698Y139013D01*
X696513Y137198D01*
X698737Y135914D01*
X701216Y135250D01*
X703784D01*
X706263Y135914D01*
X708487Y137198D01*
X710302Y139013D01*
X711585Y141237D01*
X712250Y143716D01*
Y146284D01*
X711585Y148763D01*
X710302Y150987D01*
X708487Y152802D01*
X706263Y154086D01*
X703784Y154750D01*
D02*
G37*
G36*
X638784D02*
X636216D01*
X633737Y154086D01*
X631513Y152802D01*
X629698Y150987D01*
X628414Y148763D01*
X627750Y146284D01*
Y143716D01*
X628414Y141237D01*
X629698Y139013D01*
X631513Y137198D01*
X633737Y135914D01*
X636216Y135250D01*
X638784D01*
X641263Y135914D01*
X643487Y137198D01*
X645302Y139013D01*
X646585Y141237D01*
X647250Y143716D01*
Y146284D01*
X646585Y148763D01*
X645302Y150987D01*
X643487Y152802D01*
X641263Y154086D01*
X638784Y154750D01*
D02*
G37*
G36*
X568784D02*
X566216D01*
X563737Y154086D01*
X561513Y152802D01*
X559698Y150987D01*
X558414Y148763D01*
X557750Y146284D01*
Y143716D01*
X558414Y141237D01*
X559698Y139013D01*
X561513Y137198D01*
X563737Y135914D01*
X566216Y135250D01*
X568784D01*
X571263Y135914D01*
X573487Y137198D01*
X575302Y139013D01*
X576586Y141237D01*
X577250Y143716D01*
Y146284D01*
X576586Y148763D01*
X575302Y150987D01*
X573487Y152802D01*
X571263Y154086D01*
X568784Y154750D01*
D02*
G37*
G36*
X503784D02*
X501216D01*
X498737Y154086D01*
X496513Y152802D01*
X494698Y150987D01*
X493414Y148763D01*
X492750Y146284D01*
Y143716D01*
X493414Y141237D01*
X494698Y139013D01*
X496513Y137198D01*
X498737Y135914D01*
X501216Y135250D01*
X503784D01*
X506263Y135914D01*
X508487Y137198D01*
X510302Y139013D01*
X511586Y141237D01*
X512250Y143716D01*
Y146284D01*
X511586Y148763D01*
X510302Y150987D01*
X508487Y152802D01*
X506263Y154086D01*
X503784Y154750D01*
D02*
G37*
G36*
X1033784Y148000D02*
X1031216D01*
X1028737Y147336D01*
X1026513Y146052D01*
X1024698Y144237D01*
X1023415Y142013D01*
X1022750Y139534D01*
Y136966D01*
X1023415Y134487D01*
X1024698Y132263D01*
X1026513Y130448D01*
X1028737Y129164D01*
X1031216Y128500D01*
X1033784D01*
X1036263Y129164D01*
X1038487Y130448D01*
X1040302Y132263D01*
X1041585Y134487D01*
X1042250Y136966D01*
Y139534D01*
X1041585Y142013D01*
X1040302Y144237D01*
X1038487Y146052D01*
X1036263Y147336D01*
X1033784Y148000D01*
D02*
G37*
G36*
X1235000Y153379D02*
X1231084Y152864D01*
X1227435Y151353D01*
X1224302Y148948D01*
X1221898Y145815D01*
X1220386Y142166D01*
X1219871Y138250D01*
X1220386Y134334D01*
X1221898Y130685D01*
X1224302Y127552D01*
X1227435Y125147D01*
X1231084Y123636D01*
X1235000Y123121D01*
X1238916Y123636D01*
X1242565Y125147D01*
X1245698Y127552D01*
X1248102Y130685D01*
X1249614Y134334D01*
X1250129Y138250D01*
X1249614Y142166D01*
X1248102Y145815D01*
X1245698Y148948D01*
X1242565Y151353D01*
X1238916Y152864D01*
X1235000Y153379D01*
D02*
G37*
G36*
X308784Y135500D02*
X306216D01*
X303737Y134836D01*
X301513Y133552D01*
X299698Y131737D01*
X298414Y129513D01*
X297750Y127034D01*
Y124466D01*
X298414Y121987D01*
X299698Y119763D01*
X301513Y117948D01*
X303737Y116664D01*
X306216Y116000D01*
X308784D01*
X311263Y116664D01*
X313487Y117948D01*
X315302Y119763D01*
X316586Y121987D01*
X317250Y124466D01*
Y127034D01*
X316586Y129513D01*
X315302Y131737D01*
X313487Y133552D01*
X311263Y134836D01*
X308784Y135500D01*
D02*
G37*
G36*
X1033855Y123540D02*
X1033770D01*
Y114520D01*
X1042790D01*
Y114605D01*
X1042089Y117222D01*
X1040734Y119568D01*
X1038818Y121484D01*
X1036472Y122839D01*
X1033855Y123540D01*
D02*
G37*
G36*
X1031230D02*
X1031145D01*
X1028528Y122839D01*
X1026182Y121484D01*
X1024266Y119568D01*
X1022911Y117222D01*
X1022210Y114605D01*
Y114520D01*
X1031230D01*
Y123540D01*
D02*
G37*
G36*
X1042790Y111980D02*
X1033770D01*
Y102960D01*
X1033855D01*
X1036472Y103661D01*
X1038818Y105016D01*
X1040734Y106932D01*
X1042089Y109278D01*
X1042790Y111895D01*
Y111980D01*
D02*
G37*
G36*
X1031230D02*
X1022210D01*
Y111895D01*
X1022911Y109278D01*
X1024266Y106932D01*
X1026182Y105016D01*
X1028528Y103661D01*
X1031145Y102960D01*
X1031230D01*
Y111980D01*
D02*
G37*
G36*
X82500Y135836D02*
X79889Y135493D01*
X77457Y134485D01*
X75368Y132882D01*
X73765Y130793D01*
X72757Y128361D01*
X72414Y125750D01*
Y112250D01*
X72757Y109640D01*
X73765Y107207D01*
X75368Y105118D01*
X77457Y103515D01*
X79889Y102507D01*
X82500Y102164D01*
X85111Y102507D01*
X87543Y103515D01*
X89632Y105118D01*
X91235Y107207D01*
X92243Y109640D01*
X92586Y112250D01*
Y125750D01*
X92243Y128361D01*
X91235Y130793D01*
X89632Y132882D01*
X87543Y134485D01*
X85111Y135493D01*
X82500Y135836D01*
D02*
G37*
G36*
X255000Y120879D02*
X251084Y120364D01*
X247435Y118852D01*
X244302Y116448D01*
X241898Y113315D01*
X240386Y109666D01*
X239871Y105750D01*
X240386Y101834D01*
X241898Y98185D01*
X244302Y95052D01*
X247435Y92647D01*
X251084Y91136D01*
X255000Y90620D01*
X258916Y91136D01*
X262565Y92647D01*
X265698Y95052D01*
X268102Y98185D01*
X269614Y101834D01*
X270129Y105750D01*
X269614Y109666D01*
X268102Y113315D01*
X265698Y116448D01*
X262565Y118852D01*
X258916Y120364D01*
X255000Y120879D01*
D02*
G37*
G36*
X165000D02*
X161084Y120364D01*
X157435Y118852D01*
X154302Y116448D01*
X151897Y113315D01*
X150386Y109666D01*
X149871Y105750D01*
X150386Y101834D01*
X151897Y98185D01*
X154302Y95052D01*
X157435Y92647D01*
X161084Y91136D01*
X165000Y90620D01*
X168916Y91136D01*
X172565Y92647D01*
X175698Y95052D01*
X178102Y98185D01*
X179614Y101834D01*
X180129Y105750D01*
X179614Y109666D01*
X178102Y113315D01*
X175698Y116448D01*
X172565Y118852D01*
X168916Y120364D01*
X165000Y120879D01*
D02*
G37*
G36*
X1257500Y123336D02*
X1254890Y122993D01*
X1252457Y121985D01*
X1250368Y120382D01*
X1248765Y118293D01*
X1247757Y115861D01*
X1247414Y113250D01*
Y99750D01*
X1247757Y97140D01*
X1248765Y94707D01*
X1250368Y92618D01*
X1252457Y91015D01*
X1254890Y90007D01*
X1257500Y89664D01*
X1260110Y90007D01*
X1262543Y91015D01*
X1264632Y92618D01*
X1266235Y94707D01*
X1267243Y97140D01*
X1267586Y99750D01*
Y113250D01*
X1267243Y115861D01*
X1266235Y118293D01*
X1264632Y120382D01*
X1262543Y121985D01*
X1260110Y122993D01*
X1257500Y123336D01*
D02*
G37*
G36*
X1212500D02*
X1209890Y122993D01*
X1207457Y121985D01*
X1205368Y120382D01*
X1203765Y118293D01*
X1202757Y115861D01*
X1202414Y113250D01*
Y99750D01*
X1202757Y97140D01*
X1203765Y94707D01*
X1205368Y92618D01*
X1207457Y91015D01*
X1209890Y90007D01*
X1212500Y89664D01*
X1215110Y90007D01*
X1217543Y91015D01*
X1219632Y92618D01*
X1221235Y94707D01*
X1222243Y97140D01*
X1222586Y99750D01*
Y113250D01*
X1222243Y115861D01*
X1221235Y118293D01*
X1219632Y120382D01*
X1217543Y121985D01*
X1215110Y122993D01*
X1212500Y123336D01*
D02*
G37*
G36*
X1175000Y108379D02*
X1171084Y107864D01*
X1167435Y106352D01*
X1164302Y103948D01*
X1161898Y100815D01*
X1160386Y97166D01*
X1159871Y93250D01*
X1160386Y89334D01*
X1161898Y85685D01*
X1164302Y82552D01*
X1167435Y80147D01*
X1171084Y78636D01*
X1175000Y78120D01*
X1178916Y78636D01*
X1182565Y80147D01*
X1185698Y82552D01*
X1188102Y85685D01*
X1189614Y89334D01*
X1190129Y93250D01*
X1189614Y97166D01*
X1188102Y100815D01*
X1185698Y103948D01*
X1182565Y106352D01*
X1178916Y107864D01*
X1175000Y108379D01*
D02*
G37*
G36*
X1085000D02*
X1081084Y107864D01*
X1077435Y106352D01*
X1074302Y103948D01*
X1071898Y100815D01*
X1070386Y97166D01*
X1069871Y93250D01*
X1070386Y89334D01*
X1071898Y85685D01*
X1074302Y82552D01*
X1077435Y80147D01*
X1081084Y78636D01*
X1085000Y78120D01*
X1088916Y78636D01*
X1092565Y80147D01*
X1095698Y82552D01*
X1098102Y85685D01*
X1099614Y89334D01*
X1100129Y93250D01*
X1099614Y97166D01*
X1098102Y100815D01*
X1095698Y103948D01*
X1092565Y106352D01*
X1088916Y107864D01*
X1085000Y108379D01*
D02*
G37*
G36*
X278277Y86750D02*
X274723D01*
X271289Y85830D01*
X268211Y84053D01*
X265697Y81539D01*
X263920Y78461D01*
X263000Y75027D01*
Y71473D01*
X263920Y68039D01*
X265697Y64961D01*
X268211Y62447D01*
X271289Y60670D01*
X274723Y59750D01*
X278277D01*
X281711Y60670D01*
X284789Y62447D01*
X287303Y64961D01*
X289080Y68039D01*
X290000Y71473D01*
Y75027D01*
X289080Y78461D01*
X287303Y81539D01*
X284789Y84053D01*
X281711Y85830D01*
X278277Y86750D01*
D02*
G37*
G36*
X145277D02*
X141723D01*
X138289Y85830D01*
X135211Y84053D01*
X132697Y81539D01*
X130920Y78461D01*
X130000Y75027D01*
Y71473D01*
X130920Y68039D01*
X132697Y64961D01*
X135211Y62447D01*
X138289Y60670D01*
X141723Y59750D01*
X145277D01*
X148711Y60670D01*
X151789Y62447D01*
X154303Y64961D01*
X156080Y68039D01*
X157000Y71473D01*
Y75027D01*
X156080Y78461D01*
X154303Y81539D01*
X151789Y84053D01*
X148711Y85830D01*
X145277Y86750D01*
D02*
G37*
G36*
X236355Y63540D02*
X236270D01*
Y54520D01*
X245290D01*
Y54605D01*
X244589Y57222D01*
X243234Y59568D01*
X241318Y61484D01*
X238972Y62839D01*
X236355Y63540D01*
D02*
G37*
G36*
X233730D02*
X233645D01*
X231028Y62839D01*
X228682Y61484D01*
X226766Y59568D01*
X225411Y57222D01*
X224710Y54605D01*
Y54520D01*
X233730D01*
Y63540D01*
D02*
G37*
G36*
X1198277Y74250D02*
X1194723D01*
X1191289Y73330D01*
X1188211Y71553D01*
X1185697Y69039D01*
X1183920Y65961D01*
X1183000Y62527D01*
Y58973D01*
X1183920Y55539D01*
X1185697Y52461D01*
X1188211Y49947D01*
X1191289Y48170D01*
X1194723Y47250D01*
X1198277D01*
X1201711Y48170D01*
X1204789Y49947D01*
X1207303Y52461D01*
X1209080Y55539D01*
X1210000Y58973D01*
Y62527D01*
X1209080Y65961D01*
X1207303Y69039D01*
X1204789Y71553D01*
X1201711Y73330D01*
X1198277Y74250D01*
D02*
G37*
G36*
X1065277D02*
X1061723D01*
X1058289Y73330D01*
X1055211Y71553D01*
X1052697Y69039D01*
X1050920Y65961D01*
X1050000Y62527D01*
Y58973D01*
X1050920Y55539D01*
X1052697Y52461D01*
X1055211Y49947D01*
X1058289Y48170D01*
X1061723Y47250D01*
X1065277D01*
X1068711Y48170D01*
X1071789Y49947D01*
X1074303Y52461D01*
X1076080Y55539D01*
X1077000Y58973D01*
Y62527D01*
X1076080Y65961D01*
X1074303Y69039D01*
X1071789Y71553D01*
X1068711Y73330D01*
X1065277Y74250D01*
D02*
G37*
G36*
X211284Y63000D02*
X208716D01*
X206237Y62336D01*
X204013Y61052D01*
X202198Y59237D01*
X200914Y57013D01*
X200250Y54534D01*
Y51966D01*
X200914Y49487D01*
X202198Y47263D01*
X204013Y45448D01*
X206237Y44165D01*
X208716Y43500D01*
X211284D01*
X213763Y44165D01*
X215987Y45448D01*
X217802Y47263D01*
X219086Y49487D01*
X219750Y51966D01*
Y54534D01*
X219086Y57013D01*
X217802Y59237D01*
X215987Y61052D01*
X213763Y62336D01*
X211284Y63000D01*
D02*
G37*
G36*
X194750D02*
X175250D01*
Y43500D01*
X194750D01*
Y63000D01*
D02*
G37*
G36*
X245290Y51980D02*
X236270D01*
Y42960D01*
X236355D01*
X238972Y43661D01*
X241318Y45016D01*
X243234Y46932D01*
X244589Y49278D01*
X245290Y51895D01*
Y51980D01*
D02*
G37*
G36*
X233730D02*
X224710D01*
Y51895D01*
X225411Y49278D01*
X226766Y46932D01*
X228682Y45016D01*
X231028Y43661D01*
X233645Y42960D01*
X233730D01*
Y51980D01*
D02*
G37*
%LPD*%
G36*
X461666Y269779D02*
Y251381D01*
X455545Y245260D01*
X453784Y246101D01*
X453250Y246557D01*
Y248644D01*
X452375Y250757D01*
X450834Y252298D01*
Y262540D01*
X459126Y270831D01*
X461666Y269779D01*
D02*
G37*
G36*
X444166Y308632D02*
Y264869D01*
Y252298D01*
X442625Y250757D01*
X441750Y248644D01*
Y246356D01*
X441950Y245874D01*
X440252Y243334D01*
X423881D01*
X420750Y246465D01*
Y248644D01*
X419875Y250757D01*
X418334Y252298D01*
Y286119D01*
X441819Y309604D01*
X444166Y308632D01*
D02*
G37*
D10*
X530000Y415000D02*
Y612500D01*
X457500Y685000D02*
X530000Y612500D01*
D13*
X395000Y637500D02*
Y648500D01*
X384000Y637500D02*
X395000D01*
X406000D01*
X395000Y626500D02*
Y637500D01*
X312500Y680000D02*
X350000Y642500D01*
X335000Y690000D02*
X367500Y657500D01*
Y610000D02*
X375000Y602500D01*
X367500Y610000D02*
Y657500D01*
X285000Y627500D02*
X337500D01*
X417500Y547500D02*
X425000D01*
X337500Y627500D02*
X417500Y547500D01*
X637500Y512500D02*
X650000D01*
X552500Y597500D02*
X637500Y512500D01*
X562500Y612500D02*
X650000Y525000D01*
X545000Y612500D02*
X562500D01*
X445000Y685000D02*
X522500Y607500D01*
Y402500D02*
Y607500D01*
X662500Y495000D02*
Y590000D01*
X607500Y645000D02*
X662500Y590000D01*
X748993Y474284D02*
X777665Y502956D01*
X750874Y469744D02*
X763630Y482500D01*
X738806Y464852D02*
X738806D01*
X738454Y465204D02*
X738806Y464852D01*
X610000Y439088D02*
X636116Y465204D01*
X741158Y480000D02*
X743658Y482500D01*
X636116Y465204D02*
X738454D01*
X630000Y480000D02*
X741158D01*
X546055Y402762D02*
X628293Y485000D01*
X597500Y433339D02*
X633905Y469744D01*
X738806Y464852D02*
X743658Y460000D01*
X628293Y485000D02*
X737500D01*
X572500Y415341D02*
X631443Y474284D01*
X633905Y469744D02*
X750874D01*
X631443Y474284D02*
X748993D01*
X737500Y485000D02*
X775456Y522956D01*
X560000Y410000D02*
X630000Y480000D01*
X743658Y482500D02*
X745000D01*
X743658Y460000D02*
X745000D01*
X607500Y645000D02*
Y687500D01*
X642500Y362500D02*
Y445000D01*
X632500Y392500D02*
Y437500D01*
X630000Y390000D02*
X632500Y392500D01*
X630000Y362500D02*
Y390000D01*
X622500Y395000D02*
Y430000D01*
X652500Y395000D02*
Y452500D01*
Y395000D02*
X655000Y392500D01*
Y362500D02*
Y392500D01*
X617500Y390000D02*
X622500Y395000D01*
X617500Y362500D02*
Y390000D01*
X740000Y312500D02*
X780000Y272500D01*
X740000Y312500D02*
Y387500D01*
X717625Y387553D02*
X728893D01*
X780000Y272500D02*
X820000D01*
X670072Y340000D02*
X717625Y387553D01*
X712500Y320000D02*
Y370000D01*
X721152Y397500D02*
X837500D01*
X597500Y355000D02*
X665811D01*
X773311Y462500D01*
X719731Y402500D02*
X842500D01*
X605000Y340000D02*
X670072D01*
X667231Y350000D02*
X719731Y402500D01*
X773311Y462500D02*
X950000D01*
X533579Y350000D02*
X667231D01*
X720000Y322500D02*
Y380000D01*
X537500Y345000D02*
X668652D01*
X721152Y397500D01*
X702500Y190000D02*
X704520Y192020D01*
Y359520D01*
X705000Y360000D01*
X697500Y320000D02*
Y350000D01*
X567500Y190000D02*
X697500Y320000D01*
X712500Y320000D02*
X835020Y197480D01*
X690000Y322500D02*
Y340000D01*
X575000Y207500D02*
X690000Y322500D01*
X720000Y322500D02*
X835000Y207500D01*
X455000Y240000D02*
X465000Y250000D01*
X415000Y247500D02*
X422500Y240000D01*
X455000D01*
X415000Y247500D02*
Y287500D01*
X447500Y253057D02*
Y264869D01*
Y247500D02*
Y253057D01*
X212500Y204000D02*
Y255000D01*
X469300Y511800D01*
X485000D01*
X715000Y557500D02*
X977500D01*
X694850Y537350D02*
X715000Y557500D01*
X977500D02*
X1212500Y322500D01*
Y170000D02*
Y322500D01*
X712500Y567500D02*
X1177388D01*
X695000Y550000D02*
X712500Y567500D01*
X1177388D02*
X1212500Y532388D01*
Y481750D02*
Y532388D01*
X152500Y342500D02*
X290000D01*
X472000Y524500D01*
X485500D01*
X136686Y128186D02*
X212500Y204000D01*
X133718Y128186D02*
X136686D01*
X127500Y121968D02*
X133718Y128186D01*
X127500Y119000D02*
Y121968D01*
X415000Y287500D02*
X487500Y360000D01*
Y487500D01*
X127500Y367500D02*
X152500Y342500D01*
X127500Y367500D02*
Y430000D01*
X447500Y313580D02*
X515480Y381559D01*
Y499709D01*
X775456Y522956D02*
X949544D01*
X597500Y402500D02*
Y433339D01*
X560000Y402500D02*
Y410000D01*
X610000Y402500D02*
Y439088D01*
X572500Y402500D02*
Y415341D01*
X835000Y207500D02*
X950000D01*
X967500Y190000D01*
X835020Y192480D02*
Y197480D01*
Y192480D02*
X837500Y190000D01*
X435919Y190000D02*
X453419Y207500D01*
X575000D01*
X465000Y250000D02*
Y272500D01*
X537500Y345000D01*
X448449Y264869D02*
X533579Y350000D01*
X540000Y275000D02*
X605000Y340000D01*
X585000Y367500D02*
X597500Y355000D01*
X517500Y275000D02*
X540000D01*
X890000Y345000D02*
X910000D01*
X837500Y397500D02*
X890000Y345000D01*
X842500Y402500D02*
X890000Y355000D01*
X910000Y345000D02*
X919051Y354051D01*
X921551D01*
X922500Y355000D01*
X447500Y264869D02*
Y313580D01*
X777665Y502956D02*
X949544D01*
X763630Y482500D02*
X950000D01*
D50*
X652500Y687500D02*
D03*
Y622500D02*
D03*
X607500Y687500D02*
D03*
X392500Y537500D02*
D03*
Y472500D02*
D03*
X347500Y537500D02*
D03*
X967500Y190000D02*
D03*
X902500Y145000D02*
D03*
X967500D02*
D03*
X837500Y190000D02*
D03*
X772500Y145000D02*
D03*
X837500D02*
D03*
X702500Y190000D02*
D03*
X637500Y145000D02*
D03*
X702500D02*
D03*
X567500Y190000D02*
D03*
X502500Y145000D02*
D03*
X567500D02*
D03*
X435919Y190000D02*
D03*
X370919Y145000D02*
D03*
X435919D02*
D03*
X1105000Y547500D02*
D03*
X1130000D02*
D03*
X1032500Y425000D02*
D03*
Y450000D02*
D03*
Y475000D02*
D03*
X235000Y364250D02*
D03*
X210000D02*
D03*
X307500Y486750D02*
D03*
Y461750D02*
D03*
Y436750D02*
D03*
X235000Y53250D02*
D03*
X210000D02*
D03*
X307500Y175750D02*
D03*
Y150750D02*
D03*
Y125750D02*
D03*
X1003290Y655250D02*
D03*
X1105000Y235750D02*
D03*
X1130000D02*
D03*
X1032500Y113250D02*
D03*
Y138250D02*
D03*
Y163250D02*
D03*
D51*
X607500Y622500D02*
D03*
X347500Y472500D02*
D03*
X1155000Y547500D02*
D03*
X185000Y364250D02*
D03*
Y53250D02*
D03*
X1155000Y235750D02*
D03*
D54*
X902500Y190000D02*
D03*
X772500Y190000D02*
D03*
X637500D02*
D03*
X502500D02*
D03*
X370919Y190000D02*
D03*
X978290Y655250D02*
D03*
D56*
X1257500Y481750D02*
D03*
X1212500D02*
D03*
X1257500Y418250D02*
D03*
X1212500D02*
D03*
X82500Y430000D02*
D03*
X127500D02*
D03*
X82500Y493500D02*
D03*
X127500D02*
D03*
X82500Y119000D02*
D03*
X127500D02*
D03*
X82500Y182500D02*
D03*
X127500D02*
D03*
X1257500Y170000D02*
D03*
X1212500D02*
D03*
X1257500Y106500D02*
D03*
X1212500D02*
D03*
D57*
X1063500Y527500D02*
D03*
Y372500D02*
D03*
X1196500Y527500D02*
D03*
Y372500D02*
D03*
X276500Y384250D02*
D03*
Y539250D02*
D03*
X143500Y384250D02*
D03*
Y539250D02*
D03*
X276500Y73250D02*
D03*
Y228250D02*
D03*
X143500Y73250D02*
D03*
Y228250D02*
D03*
X1063500Y215750D02*
D03*
Y60750D02*
D03*
X1196500Y215750D02*
D03*
Y60750D02*
D03*
D61*
X340000Y708000D02*
D03*
X290000D02*
D03*
X417500Y709000D02*
D03*
X467500D02*
D03*
D62*
X575550Y492400D02*
D03*
X561550D02*
D03*
X589550D02*
D03*
X561550Y478400D02*
D03*
X575550D02*
D03*
X589550D02*
D03*
X568550Y499400D02*
D03*
X582550D02*
D03*
X568550Y485400D02*
D03*
X582550D02*
D03*
X568550Y471400D02*
D03*
X582550D02*
D03*
D63*
X910400Y650000D02*
D03*
D64*
X885000D02*
D03*
X859600D02*
D03*
X517500Y275000D02*
D03*
Y300400D02*
D03*
X820000Y272500D02*
D03*
Y247100D02*
D03*
D65*
X517500Y249600D02*
D03*
X820000Y297900D02*
D03*
D66*
X652500Y452500D02*
D03*
X642500Y445000D02*
D03*
X632500Y437500D02*
D03*
X622500Y430000D02*
D03*
X350000Y642500D02*
D03*
X441628Y577313D02*
D03*
X375000Y602500D02*
D03*
X425000Y547500D02*
D03*
X285000Y627500D02*
D03*
X335000Y690000D02*
D03*
X312500Y680000D02*
D03*
X545000Y612500D02*
D03*
X552500Y597500D02*
D03*
X457500Y685000D02*
D03*
X445000D02*
D03*
X650000Y512500D02*
D03*
Y525000D02*
D03*
X662500Y495000D02*
D03*
X767500Y602500D02*
D03*
X740000Y387500D02*
D03*
X728893Y387553D02*
D03*
X712500Y370000D02*
D03*
X720000Y380000D02*
D03*
X705000Y360000D02*
D03*
X697500Y350000D02*
D03*
X690000Y340000D02*
D03*
X630000Y362500D02*
D03*
X617500D02*
D03*
X372500Y212500D02*
D03*
X337500D02*
D03*
X767500Y582500D02*
D03*
X965000Y257500D02*
D03*
X375000Y342500D02*
D03*
X415000Y247500D02*
D03*
X447500D02*
D03*
X695000Y550000D02*
D03*
X694850Y537350D02*
D03*
X487500Y487500D02*
D03*
X485000Y511800D02*
D03*
X485500Y524500D02*
D03*
X522500Y402500D02*
D03*
X530000Y415000D02*
D03*
X515480Y499709D02*
D03*
X560000Y402500D02*
D03*
X572500D02*
D03*
X642500Y362500D02*
D03*
X655000D02*
D03*
X890000Y355000D02*
D03*
X745000Y460000D02*
D03*
Y482500D02*
D03*
X546055Y402762D02*
D03*
X585000Y367500D02*
D03*
X922500Y355000D02*
D03*
X950000Y462500D02*
D03*
Y482500D02*
D03*
X949544Y502956D02*
D03*
X949544Y522956D02*
D03*
X610000Y402500D02*
D03*
X597500D02*
D03*
D67*
X406000Y626500D02*
D03*
X395000D02*
D03*
X384000D02*
D03*
X406000Y637500D02*
D03*
X395000D02*
D03*
X384000D02*
D03*
X406000Y648500D02*
D03*
X395000D02*
D03*
X384000D02*
D03*
M02*
