G04*
G04 #@! TF.GenerationSoftware,Altium Limited,Altium Designer,25.2.1 (25)*
G04*
G04 Layer_Color=2752767*
%FSLAX44Y44*%
%MOMM*%
G71*
G04*
G04 #@! TF.SameCoordinates,47AF1686-E751-4D8C-A91A-F2C49F431613*
G04*
G04*
G04 #@! TF.FilePolarity,Positive*
G04*
G01*
G75*
%ADD12C,0.1270*%
%ADD72C,0.1693*%
D12*
X334920Y702920D02*
Y713080D01*
X345080D01*
Y702920D01*
X334920D01*
X284920D02*
Y713080D01*
X295080D01*
Y702920D01*
X284920D01*
X575550Y487320D02*
X570470Y497480D01*
X580630D01*
X575550Y487320D01*
X561550D02*
X556470Y497480D01*
X566630D01*
X561550Y487320D01*
X589550D02*
X584470Y497480D01*
X594630D01*
X589550Y487320D01*
X561550Y473320D02*
X556470Y483480D01*
X566630D01*
X561550Y473320D01*
X575550D02*
X570470Y483480D01*
X580630D01*
X575550Y473320D01*
X589550D02*
X584470Y483480D01*
X594630D01*
X589550Y473320D01*
X568550Y494320D02*
X563470Y504480D01*
X573630D01*
X568550Y494320D01*
X582550D02*
X577470Y504480D01*
X587630D01*
X582550Y494320D01*
X568550Y480320D02*
X563470Y490480D01*
X573630D01*
X568550Y480320D01*
X582550D02*
X577470Y490480D01*
X587630D01*
X582550Y480320D01*
X568550Y466320D02*
X563470Y476480D01*
X573630D01*
X568550Y466320D01*
X582550D02*
X577470Y476480D01*
X587630D01*
X582550Y466320D01*
X412420Y703920D02*
Y714080D01*
X422580D01*
Y703920D01*
X412420D01*
X462420D02*
Y714080D01*
X472580D01*
Y703920D01*
X462420D01*
X649960Y684960D02*
Y682420D01*
X655040D01*
Y684960D01*
X657580D01*
Y690040D01*
X655040D01*
Y692580D01*
X649960D01*
Y690040D01*
X647420D01*
Y684960D01*
X649960D01*
Y619960D02*
Y617420D01*
X655040D01*
Y619960D01*
X657580D01*
Y625040D01*
X655040D01*
Y627580D01*
X649960D01*
Y625040D01*
X647420D01*
Y619960D01*
X649960D01*
X604960Y684960D02*
Y682420D01*
X610040D01*
Y684960D01*
X612580D01*
Y690040D01*
X610040D01*
Y692580D01*
X604960D01*
Y690040D01*
X602420D01*
Y684960D01*
X604960D01*
Y619960D02*
Y617420D01*
X610040D01*
Y619960D01*
X612580D01*
Y625040D01*
X610040D01*
Y627580D01*
X604960D01*
Y625040D01*
X602420D01*
Y619960D01*
X604960D01*
X389960Y534960D02*
Y532420D01*
X395040D01*
Y534960D01*
X397580D01*
Y540040D01*
X395040D01*
Y542580D01*
X389960D01*
Y540040D01*
X387420D01*
Y534960D01*
X389960D01*
Y469960D02*
Y467420D01*
X395040D01*
Y469960D01*
X397580D01*
Y475040D01*
X395040D01*
Y477580D01*
X389960D01*
Y475040D01*
X387420D01*
Y469960D01*
X389960D01*
X344960Y534960D02*
Y532420D01*
X350040D01*
Y534960D01*
X352580D01*
Y540040D01*
X350040D01*
Y542580D01*
X344960D01*
Y540040D01*
X342420D01*
Y534960D01*
X344960D01*
Y469960D02*
Y467420D01*
X350040D01*
Y469960D01*
X352580D01*
Y475040D01*
X350040D01*
Y477580D01*
X344960D01*
Y475040D01*
X342420D01*
Y469960D01*
X344960D01*
X907860Y647460D02*
Y644920D01*
X912940D01*
Y647460D01*
X915480D01*
Y652540D01*
X912940D01*
Y655080D01*
X907860D01*
Y652540D01*
X905320D01*
Y647460D01*
X907860D01*
X882460D02*
Y644920D01*
X887540D01*
Y647460D01*
X890080D01*
Y652540D01*
X887540D01*
Y655080D01*
X882460D01*
Y652540D01*
X879920D01*
Y647460D01*
X882460D01*
X857060D02*
Y644920D01*
X862140D01*
Y647460D01*
X864680D01*
Y652540D01*
X862140D01*
Y655080D01*
X857060D01*
Y652540D01*
X854520D01*
Y647460D01*
X857060D01*
X899960Y187460D02*
Y184920D01*
X905040D01*
Y187460D01*
X907580D01*
Y192540D01*
X905040D01*
Y195080D01*
X899960D01*
Y192540D01*
X897420D01*
Y187460D01*
X899960D01*
X964960D02*
Y184920D01*
X970040D01*
Y187460D01*
X972580D01*
Y192540D01*
X970040D01*
Y195080D01*
X964960D01*
Y192540D01*
X962420D01*
Y187460D01*
X964960D01*
X899960Y142460D02*
Y139920D01*
X905040D01*
Y142460D01*
X907580D01*
Y147540D01*
X905040D01*
Y150080D01*
X899960D01*
Y147540D01*
X897420D01*
Y142460D01*
X899960D01*
X964960D02*
Y139920D01*
X970040D01*
Y142460D01*
X972580D01*
Y147540D01*
X970040D01*
Y150080D01*
X964960D01*
Y147540D01*
X962420D01*
Y142460D01*
X964960D01*
X769960Y187460D02*
Y184920D01*
X775040D01*
Y187460D01*
X777580D01*
Y192540D01*
X775040D01*
Y195080D01*
X769960D01*
Y192540D01*
X767420D01*
Y187460D01*
X769960D01*
X834960D02*
Y184920D01*
X840040D01*
Y187460D01*
X842580D01*
Y192540D01*
X840040D01*
Y195080D01*
X834960D01*
Y192540D01*
X832420D01*
Y187460D01*
X834960D01*
X769960Y142460D02*
Y139920D01*
X775040D01*
Y142460D01*
X777580D01*
Y147540D01*
X775040D01*
Y150080D01*
X769960D01*
Y147540D01*
X767420D01*
Y142460D01*
X769960D01*
X834960D02*
Y139920D01*
X840040D01*
Y142460D01*
X842580D01*
Y147540D01*
X840040D01*
Y150080D01*
X834960D01*
Y147540D01*
X832420D01*
Y142460D01*
X834960D01*
X634960Y187460D02*
Y184920D01*
X640040D01*
Y187460D01*
X642580D01*
Y192540D01*
X640040D01*
Y195080D01*
X634960D01*
Y192540D01*
X632420D01*
Y187460D01*
X634960D01*
X699960D02*
Y184920D01*
X705040D01*
Y187460D01*
X707580D01*
Y192540D01*
X705040D01*
Y195080D01*
X699960D01*
Y192540D01*
X697420D01*
Y187460D01*
X699960D01*
X634960Y142460D02*
Y139920D01*
X640040D01*
Y142460D01*
X642580D01*
Y147540D01*
X640040D01*
Y150080D01*
X634960D01*
Y147540D01*
X632420D01*
Y142460D01*
X634960D01*
X699960D02*
Y139920D01*
X705040D01*
Y142460D01*
X707580D01*
Y147540D01*
X705040D01*
Y150080D01*
X699960D01*
Y147540D01*
X697420D01*
Y142460D01*
X699960D01*
X499960Y187460D02*
Y184920D01*
X505040D01*
Y187460D01*
X507580D01*
Y192540D01*
X505040D01*
Y195080D01*
X499960D01*
Y192540D01*
X497420D01*
Y187460D01*
X499960D01*
X564960D02*
Y184920D01*
X570040D01*
Y187460D01*
X572580D01*
Y192540D01*
X570040D01*
Y195080D01*
X564960D01*
Y192540D01*
X562420D01*
Y187460D01*
X564960D01*
X499960Y142460D02*
Y139920D01*
X505040D01*
Y142460D01*
X507580D01*
Y147540D01*
X505040D01*
Y150080D01*
X499960D01*
Y147540D01*
X497420D01*
Y142460D01*
X499960D01*
X564960D02*
Y139920D01*
X570040D01*
Y142460D01*
X572580D01*
Y147540D01*
X570040D01*
Y150080D01*
X564960D01*
Y147540D01*
X562420D01*
Y142460D01*
X564960D01*
X368379Y187460D02*
Y184920D01*
X373459D01*
Y187460D01*
X375999D01*
Y192540D01*
X373459D01*
Y195080D01*
X368379D01*
Y192540D01*
X365839D01*
Y187460D01*
X368379D01*
X433379D02*
Y184920D01*
X438459D01*
Y187460D01*
X440999D01*
Y192540D01*
X438459D01*
Y195080D01*
X433379D01*
Y192540D01*
X430839D01*
Y187460D01*
X433379D01*
X368379Y142460D02*
Y139920D01*
X373459D01*
Y142460D01*
X375999D01*
Y147540D01*
X373459D01*
Y150080D01*
X368379D01*
Y147540D01*
X365839D01*
Y142460D01*
X368379D01*
X433379D02*
Y139920D01*
X438459D01*
Y142460D01*
X440999D01*
Y147540D01*
X438459D01*
Y150080D01*
X433379D01*
Y147540D01*
X430839D01*
Y142460D01*
X433379D01*
X514960Y247060D02*
Y244520D01*
X520040D01*
Y247060D01*
X522580D01*
Y252140D01*
X520040D01*
Y254680D01*
X514960D01*
Y252140D01*
X512420D01*
Y247060D01*
X514960D01*
Y272460D02*
Y269920D01*
X520040D01*
Y272460D01*
X522580D01*
Y277540D01*
X520040D01*
Y280080D01*
X514960D01*
Y277540D01*
X512420D01*
Y272460D01*
X514960D01*
Y297860D02*
Y295320D01*
X520040D01*
Y297860D01*
X522580D01*
Y302940D01*
X520040D01*
Y305480D01*
X514960D01*
Y302940D01*
X512420D01*
Y297860D01*
X514960D01*
X817460Y295360D02*
Y292820D01*
X822540D01*
Y295360D01*
X825080D01*
Y300440D01*
X822540D01*
Y302980D01*
X817460D01*
Y300440D01*
X814920D01*
Y295360D01*
X817460D01*
Y269960D02*
Y267420D01*
X822540D01*
Y269960D01*
X825080D01*
Y275040D01*
X822540D01*
Y277580D01*
X817460D01*
Y275040D01*
X814920D01*
Y269960D01*
X817460D01*
Y244560D02*
Y242020D01*
X822540D01*
Y244560D01*
X825080D01*
Y249640D01*
X822540D01*
Y252180D01*
X817460D01*
Y249640D01*
X814920D01*
Y244560D01*
X817460D01*
X1257500Y476670D02*
X1260040Y479210D01*
X1262580D01*
X1260040Y481750D01*
X1262580Y484290D01*
X1260040D01*
X1257500Y486830D01*
X1254960Y484290D01*
X1252420D01*
X1254960Y481750D01*
X1252420Y479210D01*
X1254960D01*
X1257500Y476670D01*
X1212500D02*
X1215040Y479210D01*
X1217580D01*
X1215040Y481750D01*
X1217580Y484290D01*
X1215040D01*
X1212500Y486830D01*
X1209960Y484290D01*
X1207420D01*
X1209960Y481750D01*
X1207420Y479210D01*
X1209960D01*
X1212500Y476670D01*
X1257500Y413170D02*
X1260040Y415710D01*
X1262580D01*
X1260040Y418250D01*
X1262580Y420790D01*
X1260040D01*
X1257500Y423330D01*
X1254960Y420790D01*
X1252420D01*
X1254960Y418250D01*
X1252420Y415710D01*
X1254960D01*
X1257500Y413170D01*
X1212500D02*
X1215040Y415710D01*
X1217580D01*
X1215040Y418250D01*
X1217580Y420790D01*
X1215040D01*
X1212500Y423330D01*
X1209960Y420790D01*
X1207420D01*
X1209960Y418250D01*
X1207420Y415710D01*
X1209960D01*
X1212500Y413170D01*
X1058420Y522420D02*
X1060960Y527500D01*
X1058420Y532580D01*
X1063500Y530040D01*
X1068580Y532580D01*
X1066040Y527500D01*
X1068580Y522420D01*
X1063500Y524960D01*
X1058420Y522420D01*
Y367420D02*
X1060960Y372500D01*
X1058420Y377580D01*
X1063500Y375040D01*
X1068580Y377580D01*
X1066040Y372500D01*
X1068580Y367420D01*
X1063500Y369960D01*
X1058420Y367420D01*
X1191420Y522420D02*
X1193960Y527500D01*
X1191420Y532580D01*
X1196500Y530040D01*
X1201580Y532580D01*
X1199040Y527500D01*
X1201580Y522420D01*
X1196500Y524960D01*
X1191420Y522420D01*
Y367420D02*
X1193960Y372500D01*
X1191420Y377580D01*
X1196500Y375040D01*
X1201580Y377580D01*
X1199040Y372500D01*
X1201580Y367420D01*
X1196500Y369960D01*
X1191420Y367420D01*
X1102460Y544960D02*
Y542420D01*
X1107540D01*
Y544960D01*
X1110080D01*
Y550040D01*
X1107540D01*
Y552580D01*
X1102460D01*
Y550040D01*
X1099920D01*
Y544960D01*
X1102460D01*
X1127460D02*
Y542420D01*
X1132540D01*
Y544960D01*
X1135080D01*
Y550040D01*
X1132540D01*
Y552580D01*
X1127460D01*
Y550040D01*
X1124920D01*
Y544960D01*
X1127460D01*
X1152460D02*
Y542420D01*
X1157540D01*
Y544960D01*
X1160080D01*
Y550040D01*
X1157540D01*
Y552580D01*
X1152460D01*
Y550040D01*
X1149920D01*
Y544960D01*
X1152460D01*
X1029960Y422460D02*
Y419920D01*
X1035040D01*
Y422460D01*
X1037580D01*
Y427540D01*
X1035040D01*
Y430080D01*
X1029960D01*
Y427540D01*
X1027420D01*
Y422460D01*
X1029960D01*
Y447460D02*
Y444920D01*
X1035040D01*
Y447460D01*
X1037580D01*
Y452540D01*
X1035040D01*
Y455080D01*
X1029960D01*
Y452540D01*
X1027420D01*
Y447460D01*
X1029960D01*
Y472460D02*
Y469920D01*
X1035040D01*
Y472460D01*
X1037580D01*
Y477540D01*
X1035040D01*
Y480080D01*
X1029960D01*
Y477540D01*
X1027420D01*
Y472460D01*
X1029960D01*
X82500Y424920D02*
X85040Y427460D01*
X87580D01*
X85040Y430000D01*
X87580Y432540D01*
X85040D01*
X82500Y435080D01*
X79960Y432540D01*
X77420D01*
X79960Y430000D01*
X77420Y427460D01*
X79960D01*
X82500Y424920D01*
X127500D02*
X130040Y427460D01*
X132580D01*
X130040Y430000D01*
X132580Y432540D01*
X130040D01*
X127500Y435080D01*
X124960Y432540D01*
X122420D01*
X124960Y430000D01*
X122420Y427460D01*
X124960D01*
X127500Y424920D01*
X82500Y488420D02*
X85040Y490960D01*
X87580D01*
X85040Y493500D01*
X87580Y496040D01*
X85040D01*
X82500Y498580D01*
X79960Y496040D01*
X77420D01*
X79960Y493500D01*
X77420Y490960D01*
X79960D01*
X82500Y488420D01*
X127500D02*
X130040Y490960D01*
X132580D01*
X130040Y493500D01*
X132580Y496040D01*
X130040D01*
X127500Y498580D01*
X124960Y496040D01*
X122420D01*
X124960Y493500D01*
X122420Y490960D01*
X124960D01*
X127500Y488420D01*
X271420Y379170D02*
X273960Y384250D01*
X271420Y389330D01*
X276500Y386790D01*
X281580Y389330D01*
X279040Y384250D01*
X281580Y379170D01*
X276500Y381710D01*
X271420Y379170D01*
Y534170D02*
X273960Y539250D01*
X271420Y544330D01*
X276500Y541790D01*
X281580Y544330D01*
X279040Y539250D01*
X281580Y534170D01*
X276500Y536710D01*
X271420Y534170D01*
X138420Y379170D02*
X140960Y384250D01*
X138420Y389330D01*
X143500Y386790D01*
X148580Y389330D01*
X146040Y384250D01*
X148580Y379170D01*
X143500Y381710D01*
X138420Y379170D01*
Y534170D02*
X140960Y539250D01*
X138420Y544330D01*
X143500Y541790D01*
X148580Y544330D01*
X146040Y539250D01*
X148580Y534170D01*
X143500Y536710D01*
X138420Y534170D01*
X232460Y361710D02*
Y359170D01*
X237540D01*
Y361710D01*
X240080D01*
Y366790D01*
X237540D01*
Y369330D01*
X232460D01*
Y366790D01*
X229920D01*
Y361710D01*
X232460D01*
X207460D02*
Y359170D01*
X212540D01*
Y361710D01*
X215080D01*
Y366790D01*
X212540D01*
Y369330D01*
X207460D01*
Y366790D01*
X204920D01*
Y361710D01*
X207460D01*
X182460D02*
Y359170D01*
X187540D01*
Y361710D01*
X190080D01*
Y366790D01*
X187540D01*
Y369330D01*
X182460D01*
Y366790D01*
X179920D01*
Y361710D01*
X182460D01*
X304960Y484210D02*
Y481670D01*
X310040D01*
Y484210D01*
X312580D01*
Y489290D01*
X310040D01*
Y491830D01*
X304960D01*
Y489290D01*
X302420D01*
Y484210D01*
X304960D01*
Y459210D02*
Y456670D01*
X310040D01*
Y459210D01*
X312580D01*
Y464290D01*
X310040D01*
Y466830D01*
X304960D01*
Y464290D01*
X302420D01*
Y459210D01*
X304960D01*
Y434210D02*
Y431670D01*
X310040D01*
Y434210D01*
X312580D01*
Y439290D01*
X310040D01*
Y441830D01*
X304960D01*
Y439290D01*
X302420D01*
Y434210D01*
X304960D01*
X82500Y113920D02*
X85040Y116460D01*
X87580D01*
X85040Y119000D01*
X87580Y121540D01*
X85040D01*
X82500Y124080D01*
X79960Y121540D01*
X77420D01*
X79960Y119000D01*
X77420Y116460D01*
X79960D01*
X82500Y113920D01*
X127500D02*
X130040Y116460D01*
X132580D01*
X130040Y119000D01*
X132580Y121540D01*
X130040D01*
X127500Y124080D01*
X124960Y121540D01*
X122420D01*
X124960Y119000D01*
X122420Y116460D01*
X124960D01*
X127500Y113920D01*
X82500Y177420D02*
X85040Y179960D01*
X87580D01*
X85040Y182500D01*
X87580Y185040D01*
X85040D01*
X82500Y187580D01*
X79960Y185040D01*
X77420D01*
X79960Y182500D01*
X77420Y179960D01*
X79960D01*
X82500Y177420D01*
X127500D02*
X130040Y179960D01*
X132580D01*
X130040Y182500D01*
X132580Y185040D01*
X130040D01*
X127500Y187580D01*
X124960Y185040D01*
X122420D01*
X124960Y182500D01*
X122420Y179960D01*
X124960D01*
X127500Y177420D01*
X271420Y68170D02*
X273960Y73250D01*
X271420Y78330D01*
X276500Y75790D01*
X281580Y78330D01*
X279040Y73250D01*
X281580Y68170D01*
X276500Y70710D01*
X271420Y68170D01*
Y223170D02*
X273960Y228250D01*
X271420Y233330D01*
X276500Y230790D01*
X281580Y233330D01*
X279040Y228250D01*
X281580Y223170D01*
X276500Y225710D01*
X271420Y223170D01*
X138420Y68170D02*
X140960Y73250D01*
X138420Y78330D01*
X143500Y75790D01*
X148580Y78330D01*
X146040Y73250D01*
X148580Y68170D01*
X143500Y70710D01*
X138420Y68170D01*
Y223170D02*
X140960Y228250D01*
X138420Y233330D01*
X143500Y230790D01*
X148580Y233330D01*
X146040Y228250D01*
X148580Y223170D01*
X143500Y225710D01*
X138420Y223170D01*
X232460Y50710D02*
Y48170D01*
X237540D01*
Y50710D01*
X240080D01*
Y55790D01*
X237540D01*
Y58330D01*
X232460D01*
Y55790D01*
X229920D01*
Y50710D01*
X232460D01*
X207460D02*
Y48170D01*
X212540D01*
Y50710D01*
X215080D01*
Y55790D01*
X212540D01*
Y58330D01*
X207460D01*
Y55790D01*
X204920D01*
Y50710D01*
X207460D01*
X182460D02*
Y48170D01*
X187540D01*
Y50710D01*
X190080D01*
Y55790D01*
X187540D01*
Y58330D01*
X182460D01*
Y55790D01*
X179920D01*
Y50710D01*
X182460D01*
X304960Y173210D02*
Y170670D01*
X310040D01*
Y173210D01*
X312580D01*
Y178290D01*
X310040D01*
Y180830D01*
X304960D01*
Y178290D01*
X302420D01*
Y173210D01*
X304960D01*
Y148210D02*
Y145670D01*
X310040D01*
Y148210D01*
X312580D01*
Y153290D01*
X310040D01*
Y155830D01*
X304960D01*
Y153290D01*
X302420D01*
Y148210D01*
X304960D01*
Y123210D02*
Y120670D01*
X310040D01*
Y123210D01*
X312580D01*
Y128290D01*
X310040D01*
Y130830D01*
X304960D01*
Y128290D01*
X302420D01*
Y123210D01*
X304960D01*
X1000750Y652710D02*
Y650170D01*
X1005830D01*
Y652710D01*
X1008370D01*
Y657790D01*
X1005830D01*
Y660330D01*
X1000750D01*
Y657790D01*
X998210D01*
Y652710D01*
X1000750D01*
X975750D02*
Y650170D01*
X980830D01*
Y652710D01*
X983370D01*
Y657790D01*
X980830D01*
Y660330D01*
X975750D01*
Y657790D01*
X973210D01*
Y652710D01*
X975750D01*
X1257500Y164920D02*
X1260040Y167460D01*
X1262580D01*
X1260040Y170000D01*
X1262580Y172540D01*
X1260040D01*
X1257500Y175080D01*
X1254960Y172540D01*
X1252420D01*
X1254960Y170000D01*
X1252420Y167460D01*
X1254960D01*
X1257500Y164920D01*
X1212500D02*
X1215040Y167460D01*
X1217580D01*
X1215040Y170000D01*
X1217580Y172540D01*
X1215040D01*
X1212500Y175080D01*
X1209960Y172540D01*
X1207420D01*
X1209960Y170000D01*
X1207420Y167460D01*
X1209960D01*
X1212500Y164920D01*
X1257500Y101420D02*
X1260040Y103960D01*
X1262580D01*
X1260040Y106500D01*
X1262580Y109040D01*
X1260040D01*
X1257500Y111580D01*
X1254960Y109040D01*
X1252420D01*
X1254960Y106500D01*
X1252420Y103960D01*
X1254960D01*
X1257500Y101420D01*
X1212500D02*
X1215040Y103960D01*
X1217580D01*
X1215040Y106500D01*
X1217580Y109040D01*
X1215040D01*
X1212500Y111580D01*
X1209960Y109040D01*
X1207420D01*
X1209960Y106500D01*
X1207420Y103960D01*
X1209960D01*
X1212500Y101420D01*
X1058420Y210670D02*
X1060960Y215750D01*
X1058420Y220830D01*
X1063500Y218290D01*
X1068580Y220830D01*
X1066040Y215750D01*
X1068580Y210670D01*
X1063500Y213210D01*
X1058420Y210670D01*
Y55670D02*
X1060960Y60750D01*
X1058420Y65830D01*
X1063500Y63290D01*
X1068580Y65830D01*
X1066040Y60750D01*
X1068580Y55670D01*
X1063500Y58210D01*
X1058420Y55670D01*
X1191420Y210670D02*
X1193960Y215750D01*
X1191420Y220830D01*
X1196500Y218290D01*
X1201580Y220830D01*
X1199040Y215750D01*
X1201580Y210670D01*
X1196500Y213210D01*
X1191420Y210670D01*
Y55670D02*
X1193960Y60750D01*
X1191420Y65830D01*
X1196500Y63290D01*
X1201580Y65830D01*
X1199040Y60750D01*
X1201580Y55670D01*
X1196500Y58210D01*
X1191420Y55670D01*
X1102460Y233210D02*
Y230670D01*
X1107540D01*
Y233210D01*
X1110080D01*
Y238290D01*
X1107540D01*
Y240830D01*
X1102460D01*
Y238290D01*
X1099920D01*
Y233210D01*
X1102460D01*
X1127460D02*
Y230670D01*
X1132540D01*
Y233210D01*
X1135080D01*
Y238290D01*
X1132540D01*
Y240830D01*
X1127460D01*
Y238290D01*
X1124920D01*
Y233210D01*
X1127460D01*
X1152460D02*
Y230670D01*
X1157540D01*
Y233210D01*
X1160080D01*
Y238290D01*
X1157540D01*
Y240830D01*
X1152460D01*
Y238290D01*
X1149920D01*
Y233210D01*
X1152460D01*
X1029960Y110710D02*
Y108170D01*
X1035040D01*
Y110710D01*
X1037580D01*
Y115790D01*
X1035040D01*
Y118330D01*
X1029960D01*
Y115790D01*
X1027420D01*
Y110710D01*
X1029960D01*
Y135710D02*
Y133170D01*
X1035040D01*
Y135710D01*
X1037580D01*
Y140790D01*
X1035040D01*
Y143330D01*
X1029960D01*
Y140790D01*
X1027420D01*
Y135710D01*
X1029960D01*
Y160710D02*
Y158170D01*
X1035040D01*
Y160710D01*
X1037580D01*
Y165790D01*
X1035040D01*
Y168330D01*
X1029960D01*
Y165790D01*
X1027420D01*
Y160710D01*
X1029960D01*
X647420Y447420D02*
X649960D01*
X652500Y449960D01*
X655040Y447420D01*
X657580D01*
Y449960D01*
X655040Y452500D01*
X657580Y455040D01*
Y457580D01*
X655040D01*
X652500Y455040D01*
X649960Y457580D01*
X647420D01*
Y455040D01*
X649960Y452500D01*
X647420Y449960D01*
Y447420D01*
X637420Y439920D02*
X639960D01*
X642500Y442460D01*
X645040Y439920D01*
X647580D01*
Y442460D01*
X645040Y445000D01*
X647580Y447540D01*
Y450080D01*
X645040D01*
X642500Y447540D01*
X639960Y450080D01*
X637420D01*
Y447540D01*
X639960Y445000D01*
X637420Y442460D01*
Y439920D01*
X627420Y432420D02*
X629960D01*
X632500Y434960D01*
X635040Y432420D01*
X637580D01*
Y434960D01*
X635040Y437500D01*
X637580Y440040D01*
Y442580D01*
X635040D01*
X632500Y440040D01*
X629960Y442580D01*
X627420D01*
Y440040D01*
X629960Y437500D01*
X627420Y434960D01*
Y432420D01*
X617420Y424920D02*
X619960D01*
X622500Y427460D01*
X625040Y424920D01*
X627580D01*
Y427460D01*
X625040Y430000D01*
X627580Y432540D01*
Y435080D01*
X625040D01*
X622500Y432540D01*
X619960Y435080D01*
X617420D01*
Y432540D01*
X619960Y430000D01*
X617420Y427460D01*
Y424920D01*
X344920Y637420D02*
X347460D01*
X350000Y639960D01*
X352540Y637420D01*
X355080D01*
Y639960D01*
X352540Y642500D01*
X355080Y645040D01*
Y647580D01*
X352540D01*
X350000Y645040D01*
X347460Y647580D01*
X344920D01*
Y645040D01*
X347460Y642500D01*
X344920Y639960D01*
Y637420D01*
X436549Y572233D02*
X439089D01*
X441628Y574773D01*
X444169Y572233D01*
X446708D01*
Y574773D01*
X444169Y577313D01*
X446708Y579853D01*
Y582393D01*
X444169D01*
X441628Y579853D01*
X439089Y582393D01*
X436549D01*
Y579853D01*
X439089Y577313D01*
X436549Y574773D01*
Y572233D01*
X369920Y597420D02*
X372460D01*
X375000Y599960D01*
X377540Y597420D01*
X380080D01*
Y599960D01*
X377540Y602500D01*
X380080Y605040D01*
Y607580D01*
X377540D01*
X375000Y605040D01*
X372460Y607580D01*
X369920D01*
Y605040D01*
X372460Y602500D01*
X369920Y599960D01*
Y597420D01*
X419920Y542420D02*
X422460D01*
X425000Y544960D01*
X427540Y542420D01*
X430080D01*
Y544960D01*
X427540Y547500D01*
X430080Y550040D01*
Y552580D01*
X427540D01*
X425000Y550040D01*
X422460Y552580D01*
X419920D01*
Y550040D01*
X422460Y547500D01*
X419920Y544960D01*
Y542420D01*
X279920Y622420D02*
X282460D01*
X285000Y624960D01*
X287540Y622420D01*
X290080D01*
Y624960D01*
X287540Y627500D01*
X290080Y630040D01*
Y632580D01*
X287540D01*
X285000Y630040D01*
X282460Y632580D01*
X279920D01*
Y630040D01*
X282460Y627500D01*
X279920Y624960D01*
Y622420D01*
X329920Y684920D02*
X332460D01*
X335000Y687460D01*
X337540Y684920D01*
X340080D01*
Y687460D01*
X337540Y690000D01*
X340080Y692540D01*
Y695080D01*
X337540D01*
X335000Y692540D01*
X332460Y695080D01*
X329920D01*
Y692540D01*
X332460Y690000D01*
X329920Y687460D01*
Y684920D01*
X307420Y674920D02*
X309960D01*
X312500Y677460D01*
X315040Y674920D01*
X317580D01*
Y677460D01*
X315040Y680000D01*
X317580Y682540D01*
Y685080D01*
X315040D01*
X312500Y682540D01*
X309960Y685080D01*
X307420D01*
Y682540D01*
X309960Y680000D01*
X307420Y677460D01*
Y674920D01*
X539920Y607420D02*
X542460D01*
X545000Y609960D01*
X547540Y607420D01*
X550080D01*
Y609960D01*
X547540Y612500D01*
X550080Y615040D01*
Y617580D01*
X547540D01*
X545000Y615040D01*
X542460Y617580D01*
X539920D01*
Y615040D01*
X542460Y612500D01*
X539920Y609960D01*
Y607420D01*
X547420Y592420D02*
X549960D01*
X552500Y594960D01*
X555040Y592420D01*
X557580D01*
Y594960D01*
X555040Y597500D01*
X557580Y600040D01*
Y602580D01*
X555040D01*
X552500Y600040D01*
X549960Y602580D01*
X547420D01*
Y600040D01*
X549960Y597500D01*
X547420Y594960D01*
Y592420D01*
X452420Y679920D02*
X454960D01*
X457500Y682460D01*
X460040Y679920D01*
X462580D01*
Y682460D01*
X460040Y685000D01*
X462580Y687540D01*
Y690080D01*
X460040D01*
X457500Y687540D01*
X454960Y690080D01*
X452420D01*
Y687540D01*
X454960Y685000D01*
X452420Y682460D01*
Y679920D01*
X439920D02*
X442460D01*
X445000Y682460D01*
X447540Y679920D01*
X450080D01*
Y682460D01*
X447540Y685000D01*
X450080Y687540D01*
Y690080D01*
X447540D01*
X445000Y687540D01*
X442460Y690080D01*
X439920D01*
Y687540D01*
X442460Y685000D01*
X439920Y682460D01*
Y679920D01*
X644920Y507420D02*
X647460D01*
X650000Y509960D01*
X652540Y507420D01*
X655080D01*
Y509960D01*
X652540Y512500D01*
X655080Y515040D01*
Y517580D01*
X652540D01*
X650000Y515040D01*
X647460Y517580D01*
X644920D01*
Y515040D01*
X647460Y512500D01*
X644920Y509960D01*
Y507420D01*
Y519920D02*
X647460D01*
X650000Y522460D01*
X652540Y519920D01*
X655080D01*
Y522460D01*
X652540Y525000D01*
X655080Y527540D01*
Y530080D01*
X652540D01*
X650000Y527540D01*
X647460Y530080D01*
X644920D01*
Y527540D01*
X647460Y525000D01*
X644920Y522460D01*
Y519920D01*
X657420Y489920D02*
X659960D01*
X662500Y492460D01*
X665040Y489920D01*
X667580D01*
Y492460D01*
X665040Y495000D01*
X667580Y497540D01*
Y500080D01*
X665040D01*
X662500Y497540D01*
X659960Y500080D01*
X657420D01*
Y497540D01*
X659960Y495000D01*
X657420Y492460D01*
Y489920D01*
X406000Y621420D02*
X400920Y631580D01*
X411080D01*
X406000Y621420D01*
X395000D02*
X389920Y631580D01*
X400080D01*
X395000Y621420D01*
X384000D02*
X378920Y631580D01*
X389080D01*
X384000Y621420D01*
X406000Y632420D02*
X400920Y642580D01*
X411080D01*
X406000Y632420D01*
X395000D02*
X389920Y642580D01*
X400080D01*
X395000Y632420D01*
X384000D02*
X378920Y642580D01*
X389080D01*
X384000Y632420D01*
X406000Y643420D02*
X400920Y653580D01*
X411080D01*
X406000Y643420D01*
X395000D02*
X389920Y653580D01*
X400080D01*
X395000Y643420D01*
X384000D02*
X378920Y653580D01*
X389080D01*
X384000Y643420D01*
X762420Y597420D02*
X764960D01*
X767500Y599960D01*
X770040Y597420D01*
X772580D01*
Y599960D01*
X770040Y602500D01*
X772580Y605040D01*
Y607580D01*
X770040D01*
X767500Y605040D01*
X764960Y607580D01*
X762420D01*
Y605040D01*
X764960Y602500D01*
X762420Y599960D01*
Y597420D01*
X734920Y382420D02*
X737460D01*
X740000Y384960D01*
X742540Y382420D01*
X745080D01*
Y384960D01*
X742540Y387500D01*
X745080Y390040D01*
Y392580D01*
X742540D01*
X740000Y390040D01*
X737460Y392580D01*
X734920D01*
Y390040D01*
X737460Y387500D01*
X734920Y384960D01*
Y382420D01*
X723813Y382473D02*
X726353D01*
X728893Y385013D01*
X731433Y382473D01*
X733973D01*
Y385013D01*
X731433Y387553D01*
X733973Y390093D01*
Y392633D01*
X731433D01*
X728893Y390093D01*
X726353Y392633D01*
X723813D01*
Y390093D01*
X726353Y387553D01*
X723813Y385013D01*
Y382473D01*
X707420Y364920D02*
X709960D01*
X712500Y367460D01*
X715040Y364920D01*
X717580D01*
Y367460D01*
X715040Y370000D01*
X717580Y372540D01*
Y375080D01*
X715040D01*
X712500Y372540D01*
X709960Y375080D01*
X707420D01*
Y372540D01*
X709960Y370000D01*
X707420Y367460D01*
Y364920D01*
X714920Y374920D02*
X717460D01*
X720000Y377460D01*
X722540Y374920D01*
X725080D01*
Y377460D01*
X722540Y380000D01*
X725080Y382540D01*
Y385080D01*
X722540D01*
X720000Y382540D01*
X717460Y385080D01*
X714920D01*
Y382540D01*
X717460Y380000D01*
X714920Y377460D01*
Y374920D01*
X699920Y354920D02*
X702460D01*
X705000Y357460D01*
X707540Y354920D01*
X710080D01*
Y357460D01*
X707540Y360000D01*
X710080Y362540D01*
Y365080D01*
X707540D01*
X705000Y362540D01*
X702460Y365080D01*
X699920D01*
Y362540D01*
X702460Y360000D01*
X699920Y357460D01*
Y354920D01*
X692420Y344920D02*
X694960D01*
X697500Y347460D01*
X700040Y344920D01*
X702580D01*
Y347460D01*
X700040Y350000D01*
X702580Y352540D01*
Y355080D01*
X700040D01*
X697500Y352540D01*
X694960Y355080D01*
X692420D01*
Y352540D01*
X694960Y350000D01*
X692420Y347460D01*
Y344920D01*
X684920Y334920D02*
X687460D01*
X690000Y337460D01*
X692540Y334920D01*
X695080D01*
Y337460D01*
X692540Y340000D01*
X695080Y342540D01*
Y345080D01*
X692540D01*
X690000Y342540D01*
X687460Y345080D01*
X684920D01*
Y342540D01*
X687460Y340000D01*
X684920Y337460D01*
Y334920D01*
X624920Y357420D02*
X627460D01*
X630000Y359960D01*
X632540Y357420D01*
X635080D01*
Y359960D01*
X632540Y362500D01*
X635080Y365040D01*
Y367580D01*
X632540D01*
X630000Y365040D01*
X627460Y367580D01*
X624920D01*
Y365040D01*
X627460Y362500D01*
X624920Y359960D01*
Y357420D01*
X612420D02*
X614960D01*
X617500Y359960D01*
X620040Y357420D01*
X622580D01*
Y359960D01*
X620040Y362500D01*
X622580Y365040D01*
Y367580D01*
X620040D01*
X617500Y365040D01*
X614960Y367580D01*
X612420D01*
Y365040D01*
X614960Y362500D01*
X612420Y359960D01*
Y357420D01*
X367420Y207420D02*
X369960D01*
X372500Y209960D01*
X375040Y207420D01*
X377580D01*
Y209960D01*
X375040Y212500D01*
X377580Y215040D01*
Y217580D01*
X375040D01*
X372500Y215040D01*
X369960Y217580D01*
X367420D01*
Y215040D01*
X369960Y212500D01*
X367420Y209960D01*
Y207420D01*
X332420D02*
X334960D01*
X337500Y209960D01*
X340040Y207420D01*
X342580D01*
Y209960D01*
X340040Y212500D01*
X342580Y215040D01*
Y217580D01*
X340040D01*
X337500Y215040D01*
X334960Y217580D01*
X332420D01*
Y215040D01*
X334960Y212500D01*
X332420Y209960D01*
Y207420D01*
X762420Y577420D02*
X764960D01*
X767500Y579960D01*
X770040Y577420D01*
X772580D01*
Y579960D01*
X770040Y582500D01*
X772580Y585040D01*
Y587580D01*
X770040D01*
X767500Y585040D01*
X764960Y587580D01*
X762420D01*
Y585040D01*
X764960Y582500D01*
X762420Y579960D01*
Y577420D01*
X959920Y252420D02*
X962460D01*
X965000Y254960D01*
X967540Y252420D01*
X970080D01*
Y254960D01*
X967540Y257500D01*
X970080Y260040D01*
Y262580D01*
X967540D01*
X965000Y260040D01*
X962460Y262580D01*
X959920D01*
Y260040D01*
X962460Y257500D01*
X959920Y254960D01*
Y252420D01*
X369920Y337420D02*
X372460D01*
X375000Y339960D01*
X377540Y337420D01*
X380080D01*
Y339960D01*
X377540Y342500D01*
X380080Y345040D01*
Y347580D01*
X377540D01*
X375000Y345040D01*
X372460Y347580D01*
X369920D01*
Y345040D01*
X372460Y342500D01*
X369920Y339960D01*
Y337420D01*
X409920Y242420D02*
X412460D01*
X415000Y244960D01*
X417540Y242420D01*
X420080D01*
Y244960D01*
X417540Y247500D01*
X420080Y250040D01*
Y252580D01*
X417540D01*
X415000Y250040D01*
X412460Y252580D01*
X409920D01*
Y250040D01*
X412460Y247500D01*
X409920Y244960D01*
Y242420D01*
X442420D02*
X444960D01*
X447500Y244960D01*
X450040Y242420D01*
X452580D01*
Y244960D01*
X450040Y247500D01*
X452580Y250040D01*
Y252580D01*
X450040D01*
X447500Y250040D01*
X444960Y252580D01*
X442420D01*
Y250040D01*
X444960Y247500D01*
X442420Y244960D01*
Y242420D01*
X689920Y544920D02*
X692460D01*
X695000Y547460D01*
X697540Y544920D01*
X700080D01*
Y547460D01*
X697540Y550000D01*
X700080Y552540D01*
Y555080D01*
X697540D01*
X695000Y552540D01*
X692460Y555080D01*
X689920D01*
Y552540D01*
X692460Y550000D01*
X689920Y547460D01*
Y544920D01*
X689770Y532270D02*
X692310D01*
X694850Y534810D01*
X697390Y532270D01*
X699930D01*
Y534810D01*
X697390Y537350D01*
X699930Y539890D01*
Y542430D01*
X697390D01*
X694850Y539890D01*
X692310Y542430D01*
X689770D01*
Y539890D01*
X692310Y537350D01*
X689770Y534810D01*
Y532270D01*
X482420Y482420D02*
X484960D01*
X487500Y484960D01*
X490040Y482420D01*
X492580D01*
Y484960D01*
X490040Y487500D01*
X492580Y490040D01*
Y492580D01*
X490040D01*
X487500Y490040D01*
X484960Y492580D01*
X482420D01*
Y490040D01*
X484960Y487500D01*
X482420Y484960D01*
Y482420D01*
X479920Y506720D02*
X482460D01*
X485000Y509260D01*
X487540Y506720D01*
X490080D01*
Y509260D01*
X487540Y511800D01*
X490080Y514340D01*
Y516880D01*
X487540D01*
X485000Y514340D01*
X482460Y516880D01*
X479920D01*
Y514340D01*
X482460Y511800D01*
X479920Y509260D01*
Y506720D01*
X480420Y519420D02*
X482960D01*
X485500Y521960D01*
X488040Y519420D01*
X490580D01*
Y521960D01*
X488040Y524500D01*
X490580Y527040D01*
Y529580D01*
X488040D01*
X485500Y527040D01*
X482960Y529580D01*
X480420D01*
Y527040D01*
X482960Y524500D01*
X480420Y521960D01*
Y519420D01*
X517420Y397420D02*
X519960D01*
X522500Y399960D01*
X525040Y397420D01*
X527580D01*
Y399960D01*
X525040Y402500D01*
X527580Y405040D01*
Y407580D01*
X525040D01*
X522500Y405040D01*
X519960Y407580D01*
X517420D01*
Y405040D01*
X519960Y402500D01*
X517420Y399960D01*
Y397420D01*
X524920Y409920D02*
X527460D01*
X530000Y412460D01*
X532540Y409920D01*
X535080D01*
Y412460D01*
X532540Y415000D01*
X535080Y417540D01*
Y420080D01*
X532540D01*
X530000Y417540D01*
X527460Y420080D01*
X524920D01*
Y417540D01*
X527460Y415000D01*
X524920Y412460D01*
Y409920D01*
X510400Y494629D02*
X512940D01*
X515480Y497169D01*
X518020Y494629D01*
X520560D01*
Y497169D01*
X518020Y499709D01*
X520560Y502249D01*
Y504789D01*
X518020D01*
X515480Y502249D01*
X512940Y504789D01*
X510400D01*
Y502249D01*
X512940Y499709D01*
X510400Y497169D01*
Y494629D01*
X554920Y397420D02*
X557460D01*
X560000Y399960D01*
X562540Y397420D01*
X565080D01*
Y399960D01*
X562540Y402500D01*
X565080Y405040D01*
Y407580D01*
X562540D01*
X560000Y405040D01*
X557460Y407580D01*
X554920D01*
Y405040D01*
X557460Y402500D01*
X554920Y399960D01*
Y397420D01*
X567420D02*
X569960D01*
X572500Y399960D01*
X575040Y397420D01*
X577580D01*
Y399960D01*
X575040Y402500D01*
X577580Y405040D01*
Y407580D01*
X575040D01*
X572500Y405040D01*
X569960Y407580D01*
X567420D01*
Y405040D01*
X569960Y402500D01*
X567420Y399960D01*
Y397420D01*
X637420Y357420D02*
X639960D01*
X642500Y359960D01*
X645040Y357420D01*
X647580D01*
Y359960D01*
X645040Y362500D01*
X647580Y365040D01*
Y367580D01*
X645040D01*
X642500Y365040D01*
X639960Y367580D01*
X637420D01*
Y365040D01*
X639960Y362500D01*
X637420Y359960D01*
Y357420D01*
X649920D02*
X652460D01*
X655000Y359960D01*
X657540Y357420D01*
X660080D01*
Y359960D01*
X657540Y362500D01*
X660080Y365040D01*
Y367580D01*
X657540D01*
X655000Y365040D01*
X652460Y367580D01*
X649920D01*
Y365040D01*
X652460Y362500D01*
X649920Y359960D01*
Y357420D01*
X884920Y349920D02*
X887460D01*
X890000Y352460D01*
X892540Y349920D01*
X895080D01*
Y352460D01*
X892540Y355000D01*
X895080Y357540D01*
Y360080D01*
X892540D01*
X890000Y357540D01*
X887460Y360080D01*
X884920D01*
Y357540D01*
X887460Y355000D01*
X884920Y352460D01*
Y349920D01*
X739920Y454920D02*
X742460D01*
X745000Y457460D01*
X747540Y454920D01*
X750080D01*
Y457460D01*
X747540Y460000D01*
X750080Y462540D01*
Y465080D01*
X747540D01*
X745000Y462540D01*
X742460Y465080D01*
X739920D01*
Y462540D01*
X742460Y460000D01*
X739920Y457460D01*
Y454920D01*
Y477420D02*
X742460D01*
X745000Y479960D01*
X747540Y477420D01*
X750080D01*
Y479960D01*
X747540Y482500D01*
X750080Y485040D01*
Y487580D01*
X747540D01*
X745000Y485040D01*
X742460Y487580D01*
X739920D01*
Y485040D01*
X742460Y482500D01*
X739920Y479960D01*
Y477420D01*
X540975Y397682D02*
X543515D01*
X546055Y400222D01*
X548595Y397682D01*
X551135D01*
Y400222D01*
X548595Y402762D01*
X551135Y405302D01*
Y407842D01*
X548595D01*
X546055Y405302D01*
X543515Y407842D01*
X540975D01*
Y405302D01*
X543515Y402762D01*
X540975Y400222D01*
Y397682D01*
X579920Y362420D02*
X582460D01*
X585000Y364960D01*
X587540Y362420D01*
X590080D01*
Y364960D01*
X587540Y367500D01*
X590080Y370040D01*
Y372580D01*
X587540D01*
X585000Y370040D01*
X582460Y372580D01*
X579920D01*
Y370040D01*
X582460Y367500D01*
X579920Y364960D01*
Y362420D01*
X917420Y349920D02*
X919960D01*
X922500Y352460D01*
X925040Y349920D01*
X927580D01*
Y352460D01*
X925040Y355000D01*
X927580Y357540D01*
Y360080D01*
X925040D01*
X922500Y357540D01*
X919960Y360080D01*
X917420D01*
Y357540D01*
X919960Y355000D01*
X917420Y352460D01*
Y349920D01*
X944920Y457420D02*
X947460D01*
X950000Y459960D01*
X952540Y457420D01*
X955080D01*
Y459960D01*
X952540Y462500D01*
X955080Y465040D01*
Y467580D01*
X952540D01*
X950000Y465040D01*
X947460Y467580D01*
X944920D01*
Y465040D01*
X947460Y462500D01*
X944920Y459960D01*
Y457420D01*
Y477420D02*
X947460D01*
X950000Y479960D01*
X952540Y477420D01*
X955080D01*
Y479960D01*
X952540Y482500D01*
X955080Y485040D01*
Y487580D01*
X952540D01*
X950000Y485040D01*
X947460Y487580D01*
X944920D01*
Y485040D01*
X947460Y482500D01*
X944920Y479960D01*
Y477420D01*
X944464Y497876D02*
X947004D01*
X949544Y500416D01*
X952084Y497876D01*
X954624D01*
Y500416D01*
X952084Y502956D01*
X954624Y505496D01*
Y508036D01*
X952084D01*
X949544Y505496D01*
X947004Y508036D01*
X944464D01*
Y505496D01*
X947004Y502956D01*
X944464Y500416D01*
Y497876D01*
X944464Y517876D02*
X947004D01*
X949544Y520416D01*
X952084Y517876D01*
X954624D01*
Y520416D01*
X952084Y522956D01*
X954624Y525496D01*
Y528036D01*
X952084D01*
X949544Y525496D01*
X947004Y528036D01*
X944464D01*
Y525496D01*
X947004Y522956D01*
X944464Y520416D01*
Y517876D01*
X604920Y397420D02*
X607460D01*
X610000Y399960D01*
X612540Y397420D01*
X615080D01*
Y399960D01*
X612540Y402500D01*
X615080Y405040D01*
Y407580D01*
X612540D01*
X610000Y405040D01*
X607460Y407580D01*
X604920D01*
Y405040D01*
X607460Y402500D01*
X604920Y399960D01*
Y397420D01*
X592420D02*
X594960D01*
X597500Y399960D01*
X600040Y397420D01*
X602580D01*
Y399960D01*
X600040Y402500D01*
X602580Y405040D01*
Y407580D01*
X600040D01*
X597500Y405040D01*
X594960Y407580D01*
X592420D01*
Y405040D01*
X594960Y402500D01*
X592420Y399960D01*
Y397420D01*
D72*
X355080Y735000D02*
G03*
X355080Y735000I-5080J0D01*
G01*
X285080D02*
G03*
X285080Y735000I-5080J0D01*
G01*
X412580Y736000D02*
G03*
X412580Y736000I-5080J0D01*
G01*
X482580D02*
G03*
X482580Y736000I-5080J0D01*
G01*
M02*
