G04*
G04 #@! TF.GenerationSoftware,Altium Limited,Altium Designer,25.2.1 (25)*
G04*
G04 Layer_Color=32768*
%FSLAX44Y44*%
%MOMM*%
G71*
G04*
G04 #@! TF.SameCoordinates,47AF1686-E751-4D8C-A91A-F2C49F431613*
G04*
G04*
G04 #@! TF.FilePolarity,Positive*
G04*
G01*
G75*
%ADD69C,0.0500*%
D69*
X741335Y292499D02*
Y287501D01*
X743834D01*
X744667Y288334D01*
Y291666D01*
X743834Y292499D01*
X741335D01*
X748832Y287501D02*
Y292499D01*
X746333Y290000D01*
X749665D01*
X641335Y292499D02*
Y287501D01*
X643834D01*
X644667Y288334D01*
Y291666D01*
X643834Y292499D01*
X641335D01*
X649665Y287501D02*
X646333D01*
X649665Y290833D01*
Y291666D01*
X648832Y292499D01*
X647166D01*
X646333Y291666D01*
X718337Y652916D02*
Y647917D01*
X720836D01*
X721669Y648750D01*
Y652083D01*
X720836Y652916D01*
X718337D01*
X723335Y647084D02*
X726668D01*
X728334Y647917D02*
Y652916D01*
X730833D01*
X731666Y652083D01*
Y650417D01*
X730833Y649584D01*
X728334D01*
X733332Y652916D02*
Y647917D01*
X734998Y649584D01*
X736665Y647917D01*
Y652916D01*
X738331Y647917D02*
Y652916D01*
X740830D01*
X741663Y652083D01*
Y650417D01*
X740830Y649584D01*
X738331D01*
X739997D02*
X741663Y647917D01*
M02*
