G04*
G04 #@! TF.GenerationSoftware,Altium Limited,Altium Designer,25.2.1 (25)*
G04*
G04 Layer_Color=16711935*
%FSLAX44Y44*%
%MOMM*%
G71*
G04*
G04 #@! TF.SameCoordinates,47AF1686-E751-4D8C-A91A-F2C49F431613*
G04*
G04*
G04 #@! TF.FilePolarity,Positive*
G04*
G01*
G75*
%ADD71C,1.3000*%
D71*
X1241500Y450000D02*
G03*
X1241500Y450000I-6500J0D01*
G01*
X1181500Y495000D02*
G03*
X1181500Y495000I-6500J0D01*
G01*
Y405000D02*
G03*
X1181500Y405000I-6500J0D01*
G01*
X1091500Y495000D02*
G03*
X1091500Y495000I-6500J0D01*
G01*
Y405000D02*
G03*
X1091500Y405000I-6500J0D01*
G01*
X111500Y461750D02*
G03*
X111500Y461750I-6500J0D01*
G01*
X171500Y416750D02*
G03*
X171500Y416750I-6500J0D01*
G01*
Y506750D02*
G03*
X171500Y506750I-6500J0D01*
G01*
X261500Y416750D02*
G03*
X261500Y416750I-6500J0D01*
G01*
Y506750D02*
G03*
X261500Y506750I-6500J0D01*
G01*
X111500Y150750D02*
G03*
X111500Y150750I-6500J0D01*
G01*
X171500Y105750D02*
G03*
X171500Y105750I-6500J0D01*
G01*
Y195750D02*
G03*
X171500Y195750I-6500J0D01*
G01*
X261500Y105750D02*
G03*
X261500Y105750I-6500J0D01*
G01*
Y195750D02*
G03*
X261500Y195750I-6500J0D01*
G01*
X1241500Y138250D02*
G03*
X1241500Y138250I-6500J0D01*
G01*
X1181500Y183250D02*
G03*
X1181500Y183250I-6500J0D01*
G01*
Y93250D02*
G03*
X1181500Y93250I-6500J0D01*
G01*
X1091500Y183250D02*
G03*
X1091500Y183250I-6500J0D01*
G01*
Y93250D02*
G03*
X1091500Y93250I-6500J0D01*
G01*
M02*
