G04*
G04 #@! TF.GenerationSoftware,Altium Limited,Altium Designer,25.2.1 (25)*
G04*
G04 Layer_Color=128*
%FSLAX44Y44*%
%MOMM*%
G71*
G04*
G04 #@! TF.SameCoordinates,47AF1686-E751-4D8C-A91A-F2C49F431613*
G04*
G04*
G04 #@! TF.FilePolarity,Positive*
G04*
G01*
G75*
%ADD12C,0.1270*%
D12*
X347000Y735000D02*
X353000D01*
X350000Y732000D02*
Y738000D01*
X277000Y735000D02*
X283000D01*
X280000Y732000D02*
Y738000D01*
X335750Y708000D02*
X344250D01*
X340000Y703750D02*
Y712250D01*
X285750Y708000D02*
X294250D01*
X290000Y703750D02*
Y712250D01*
X574550Y492400D02*
X576550D01*
X575550Y491400D02*
Y493400D01*
X560550Y492400D02*
X562550D01*
X561550Y491400D02*
Y493400D01*
X588550Y492400D02*
X590550D01*
X589550Y491400D02*
Y493400D01*
X560550Y478400D02*
X562550D01*
X561550Y477400D02*
Y479400D01*
X574550Y478400D02*
X576550D01*
X575550Y477400D02*
Y479400D01*
X588550Y478400D02*
X590550D01*
X589550Y477400D02*
Y479400D01*
X567550Y499400D02*
X569550D01*
X568550Y498400D02*
Y500400D01*
X581550Y499400D02*
X583550D01*
X582550Y498400D02*
Y500400D01*
X567550Y485400D02*
X569550D01*
X568550Y484400D02*
Y486400D01*
X581550Y485400D02*
X583550D01*
X582550Y484400D02*
Y486400D01*
X567550Y471400D02*
X569550D01*
X568550Y470400D02*
Y472400D01*
X581550Y471400D02*
X583550D01*
X582550Y470400D02*
Y472400D01*
X413250Y709000D02*
X421750D01*
X417500Y704750D02*
Y713250D01*
X463250Y709000D02*
X471750D01*
X467500Y704750D02*
Y713250D01*
X404500Y736000D02*
X410500D01*
X407500Y733000D02*
Y739000D01*
X474500Y736000D02*
X480500D01*
X477500Y733000D02*
Y739000D01*
X647500Y687500D02*
X657500D01*
X652500Y682500D02*
Y692500D01*
X647500Y622500D02*
X657500D01*
X652500Y617500D02*
Y627500D01*
X602500Y687500D02*
X612500D01*
X607500Y682500D02*
Y692500D01*
X602500Y622500D02*
X612500D01*
X607500Y617500D02*
Y627500D01*
X387500Y537500D02*
X397500D01*
X392500Y532500D02*
Y542500D01*
X387500Y472500D02*
X397500D01*
X392500Y467500D02*
Y477500D01*
X342500Y537500D02*
X352500D01*
X347500Y532500D02*
Y542500D01*
X342500Y472500D02*
X352500D01*
X347500Y467500D02*
Y477500D01*
X905400Y650000D02*
X915400D01*
X910400Y645000D02*
Y655000D01*
X880000Y650000D02*
X890000D01*
X885000Y645000D02*
Y655000D01*
X854600Y650000D02*
X864600D01*
X859600Y645000D02*
Y655000D01*
X897500Y190000D02*
X907500D01*
X902500Y185000D02*
Y195000D01*
X962500Y190000D02*
X972500D01*
X967500Y185000D02*
Y195000D01*
X897500Y145000D02*
X907500D01*
X902500Y140000D02*
Y150000D01*
X962500Y145000D02*
X972500D01*
X967500Y140000D02*
Y150000D01*
X767500Y190000D02*
X777500D01*
X772500Y185000D02*
Y195000D01*
X832500Y190000D02*
X842500D01*
X837500Y185000D02*
Y195000D01*
X767500Y145000D02*
X777500D01*
X772500Y140000D02*
Y150000D01*
X832500Y145000D02*
X842500D01*
X837500Y140000D02*
Y150000D01*
X632500Y190000D02*
X642500D01*
X637500Y185000D02*
Y195000D01*
X697500Y190000D02*
X707500D01*
X702500Y185000D02*
Y195000D01*
X632500Y145000D02*
X642500D01*
X637500Y140000D02*
Y150000D01*
X697500Y145000D02*
X707500D01*
X702500Y140000D02*
Y150000D01*
X497500Y190000D02*
X507500D01*
X502500Y185000D02*
Y195000D01*
X562500Y190000D02*
X572500D01*
X567500Y185000D02*
Y195000D01*
X497500Y145000D02*
X507500D01*
X502500Y140000D02*
Y150000D01*
X562500Y145000D02*
X572500D01*
X567500Y140000D02*
Y150000D01*
X365919Y190000D02*
X375919D01*
X370919Y185000D02*
Y195000D01*
X430919Y190000D02*
X440919D01*
X435919Y185000D02*
Y195000D01*
X365919Y145000D02*
X375919D01*
X370919Y140000D02*
Y150000D01*
X430919Y145000D02*
X440919D01*
X435919Y140000D02*
Y150000D01*
X512500Y249600D02*
X522500D01*
X517500Y244600D02*
Y254600D01*
X512500Y275000D02*
X522500D01*
X517500Y270000D02*
Y280000D01*
X512500Y300400D02*
X522500D01*
X517500Y295400D02*
Y305400D01*
X815000Y297900D02*
X825000D01*
X820000Y292900D02*
Y302900D01*
X815000Y272500D02*
X825000D01*
X820000Y267500D02*
Y277500D01*
X815000Y247100D02*
X825000D01*
X820000Y242100D02*
Y252100D01*
X1252500Y481750D02*
X1262500D01*
X1257500Y476750D02*
Y486750D01*
X1207500Y481750D02*
X1217500D01*
X1212500Y476750D02*
Y486750D01*
X1252500Y418250D02*
X1262500D01*
X1257500Y413250D02*
Y423250D01*
X1207500Y418250D02*
X1217500D01*
X1212500Y413250D02*
Y423250D01*
X1056000Y527500D02*
X1071000D01*
X1063500Y520000D02*
Y535000D01*
X1056000Y372500D02*
X1071000D01*
X1063500Y365000D02*
Y380000D01*
X1189000Y527500D02*
X1204000D01*
X1196500Y520000D02*
Y535000D01*
X1189000Y372500D02*
X1204000D01*
X1196500Y365000D02*
Y380000D01*
X1100000Y547500D02*
X1110000D01*
X1105000Y542500D02*
Y552500D01*
X1125000Y547500D02*
X1135000D01*
X1130000Y542500D02*
Y552500D01*
X1150000Y547500D02*
X1160000D01*
X1155000Y542500D02*
Y552500D01*
X1027500Y425000D02*
X1037500D01*
X1032500Y420000D02*
Y430000D01*
X1027500Y450000D02*
X1037500D01*
X1032500Y445000D02*
Y455000D01*
X1027500Y475000D02*
X1037500D01*
X1032500Y470000D02*
Y480000D01*
X77500Y430000D02*
X87500D01*
X82500Y425000D02*
Y435000D01*
X122500Y430000D02*
X132500D01*
X127500Y425000D02*
Y435000D01*
X77500Y493500D02*
X87500D01*
X82500Y488500D02*
Y498500D01*
X122500Y493500D02*
X132500D01*
X127500Y488500D02*
Y498500D01*
X269000Y384250D02*
X284000D01*
X276500Y376750D02*
Y391750D01*
X269000Y539250D02*
X284000D01*
X276500Y531750D02*
Y546750D01*
X136000Y384250D02*
X151000D01*
X143500Y376750D02*
Y391750D01*
X136000Y539250D02*
X151000D01*
X143500Y531750D02*
Y546750D01*
X230000Y364250D02*
X240000D01*
X235000Y359250D02*
Y369250D01*
X205000Y364250D02*
X215000D01*
X210000Y359250D02*
Y369250D01*
X180000Y364250D02*
X190000D01*
X185000Y359250D02*
Y369250D01*
X302500Y486750D02*
X312500D01*
X307500Y481750D02*
Y491750D01*
X302500Y461750D02*
X312500D01*
X307500Y456750D02*
Y466750D01*
X302500Y436750D02*
X312500D01*
X307500Y431750D02*
Y441750D01*
X77500Y119000D02*
X87500D01*
X82500Y114000D02*
Y124000D01*
X122500Y119000D02*
X132500D01*
X127500Y114000D02*
Y124000D01*
X77500Y182500D02*
X87500D01*
X82500Y177500D02*
Y187500D01*
X122500Y182500D02*
X132500D01*
X127500Y177500D02*
Y187500D01*
X269000Y73250D02*
X284000D01*
X276500Y65750D02*
Y80750D01*
X269000Y228250D02*
X284000D01*
X276500Y220750D02*
Y235750D01*
X136000Y73250D02*
X151000D01*
X143500Y65750D02*
Y80750D01*
X136000Y228250D02*
X151000D01*
X143500Y220750D02*
Y235750D01*
X230000Y53250D02*
X240000D01*
X235000Y48250D02*
Y58250D01*
X205000Y53250D02*
X215000D01*
X210000Y48250D02*
Y58250D01*
X180000Y53250D02*
X190000D01*
X185000Y48250D02*
Y58250D01*
X302500Y175750D02*
X312500D01*
X307500Y170750D02*
Y180750D01*
X302500Y150750D02*
X312500D01*
X307500Y145750D02*
Y155750D01*
X302500Y125750D02*
X312500D01*
X307500Y120750D02*
Y130750D01*
X998290Y655250D02*
X1008290D01*
X1003290Y650250D02*
Y660250D01*
X973290Y655250D02*
X983290D01*
X978290Y650250D02*
Y660250D01*
X1252500Y170000D02*
X1262500D01*
X1257500Y165000D02*
Y175000D01*
X1207500Y170000D02*
X1217500D01*
X1212500Y165000D02*
Y175000D01*
X1252500Y106500D02*
X1262500D01*
X1257500Y101500D02*
Y111500D01*
X1207500Y106500D02*
X1217500D01*
X1212500Y101500D02*
Y111500D01*
X1056000Y215750D02*
X1071000D01*
X1063500Y208250D02*
Y223250D01*
X1056000Y60750D02*
X1071000D01*
X1063500Y53250D02*
Y68250D01*
X1189000Y215750D02*
X1204000D01*
X1196500Y208250D02*
Y223250D01*
X1189000Y60750D02*
X1204000D01*
X1196500Y53250D02*
Y68250D01*
X1100000Y235750D02*
X1110000D01*
X1105000Y230750D02*
Y240750D01*
X1125000Y235750D02*
X1135000D01*
X1130000Y230750D02*
Y240750D01*
X1150000Y235750D02*
X1160000D01*
X1155000Y230750D02*
Y240750D01*
X1027500Y113250D02*
X1037500D01*
X1032500Y108250D02*
Y118250D01*
X1027500Y138250D02*
X1037500D01*
X1032500Y133250D02*
Y143250D01*
X1027500Y163250D02*
X1037500D01*
X1032500Y158250D02*
Y168250D01*
X650000Y452500D02*
X655000D01*
X652500Y450000D02*
Y455000D01*
X640000Y445000D02*
X645000D01*
X642500Y442500D02*
Y447500D01*
X630000Y437500D02*
X635000D01*
X632500Y435000D02*
Y440000D01*
X620000Y430000D02*
X625000D01*
X622500Y427500D02*
Y432500D01*
X347500Y642500D02*
X352500D01*
X350000Y640000D02*
Y645000D01*
X439128Y577313D02*
X444128D01*
X441628Y574813D02*
Y579813D01*
X372500Y602500D02*
X377500D01*
X375000Y600000D02*
Y605000D01*
X422500Y547500D02*
X427500D01*
X425000Y545000D02*
Y550000D01*
X282500Y627500D02*
X287500D01*
X285000Y625000D02*
Y630000D01*
X332500Y690000D02*
X337500D01*
X335000Y687500D02*
Y692500D01*
X310000Y680000D02*
X315000D01*
X312500Y677500D02*
Y682500D01*
X542500Y612500D02*
X547500D01*
X545000Y610000D02*
Y615000D01*
X550000Y597500D02*
X555000D01*
X552500Y595000D02*
Y600000D01*
X455000Y685000D02*
X460000D01*
X457500Y682500D02*
Y687500D01*
X442500Y685000D02*
X447500D01*
X445000Y682500D02*
Y687500D01*
X647500Y512500D02*
X652500D01*
X650000Y510000D02*
Y515000D01*
X647500Y525000D02*
X652500D01*
X650000Y522500D02*
Y527500D01*
X660000Y495000D02*
X665000D01*
X662500Y492500D02*
Y497500D01*
X405000Y626500D02*
X407000D01*
X406000Y625500D02*
Y627500D01*
X394000Y626500D02*
X396000D01*
X395000Y625500D02*
Y627500D01*
X383000Y626500D02*
X385000D01*
X384000Y625500D02*
Y627500D01*
X405000Y637500D02*
X407000D01*
X406000Y636500D02*
Y638500D01*
X394000Y637500D02*
X396000D01*
X395000Y636500D02*
Y638500D01*
X383000Y637500D02*
X385000D01*
X384000Y636500D02*
Y638500D01*
X405000Y648500D02*
X407000D01*
X406000Y647500D02*
Y649500D01*
X394000Y648500D02*
X396000D01*
X395000Y647500D02*
Y649500D01*
X383000Y648500D02*
X385000D01*
X384000Y647500D02*
Y649500D01*
X765000Y602500D02*
X770000D01*
X767500Y600000D02*
Y605000D01*
X737500Y387500D02*
X742500D01*
X740000Y385000D02*
Y390000D01*
X726393Y387553D02*
X731393D01*
X728893Y385053D02*
Y390053D01*
X710000Y370000D02*
X715000D01*
X712500Y367500D02*
Y372500D01*
X717500Y380000D02*
X722500D01*
X720000Y377500D02*
Y382500D01*
X702500Y360000D02*
X707500D01*
X705000Y357500D02*
Y362500D01*
X695000Y350000D02*
X700000D01*
X697500Y347500D02*
Y352500D01*
X687500Y340000D02*
X692500D01*
X690000Y337500D02*
Y342500D01*
X627500Y362500D02*
X632500D01*
X630000Y360000D02*
Y365000D01*
X615000Y362500D02*
X620000D01*
X617500Y360000D02*
Y365000D01*
X370000Y212500D02*
X375000D01*
X372500Y210000D02*
Y215000D01*
X335000Y212500D02*
X340000D01*
X337500Y210000D02*
Y215000D01*
X765000Y582500D02*
X770000D01*
X767500Y580000D02*
Y585000D01*
X962500Y257500D02*
X967500D01*
X965000Y255000D02*
Y260000D01*
X372500Y342500D02*
X377500D01*
X375000Y340000D02*
Y345000D01*
X412500Y247500D02*
X417500D01*
X415000Y245000D02*
Y250000D01*
X445000Y247500D02*
X450000D01*
X447500Y245000D02*
Y250000D01*
X692500Y550000D02*
X697500D01*
X695000Y547500D02*
Y552500D01*
X692350Y537350D02*
X697350D01*
X694850Y534850D02*
Y539850D01*
X485000Y487500D02*
X490000D01*
X487500Y485000D02*
Y490000D01*
X482500Y511800D02*
X487500D01*
X485000Y509300D02*
Y514300D01*
X483000Y524500D02*
X488000D01*
X485500Y522000D02*
Y527000D01*
X520000Y402500D02*
X525000D01*
X522500Y400000D02*
Y405000D01*
X527500Y415000D02*
X532500D01*
X530000Y412500D02*
Y417500D01*
X512980Y499709D02*
X517980D01*
X515480Y497209D02*
Y502209D01*
X557500Y402500D02*
X562500D01*
X560000Y400000D02*
Y405000D01*
X570000Y402500D02*
X575000D01*
X572500Y400000D02*
Y405000D01*
X640000Y362500D02*
X645000D01*
X642500Y360000D02*
Y365000D01*
X652500Y362500D02*
X657500D01*
X655000Y360000D02*
Y365000D01*
X887500Y355000D02*
X892500D01*
X890000Y352500D02*
Y357500D01*
X742500Y460000D02*
X747500D01*
X745000Y457500D02*
Y462500D01*
X742500Y482500D02*
X747500D01*
X745000Y480000D02*
Y485000D01*
X543555Y402762D02*
X548555D01*
X546055Y400262D02*
Y405262D01*
X582500Y367500D02*
X587500D01*
X585000Y365000D02*
Y370000D01*
X920000Y355000D02*
X925000D01*
X922500Y352500D02*
Y357500D01*
X947500Y462500D02*
X952500D01*
X950000Y460000D02*
Y465000D01*
X947500Y482500D02*
X952500D01*
X950000Y480000D02*
Y485000D01*
X947044Y502956D02*
X952044D01*
X949544Y500456D02*
Y505456D01*
X947044Y522956D02*
X952044D01*
X949544Y520456D02*
Y525456D01*
X607500Y402500D02*
X612500D01*
X610000Y400000D02*
Y405000D01*
X595000Y402500D02*
X600000D01*
X597500Y400000D02*
Y405000D01*
M02*
