G04*
G04 #@! TF.GenerationSoftware,Altium Limited,Altium Designer,25.2.1 (25)*
G04*
G04 Layer_Color=8388736*
%FSLAX44Y44*%
%MOMM*%
G71*
G04*
G04 #@! TF.SameCoordinates,47AF1686-E751-4D8C-A91A-F2C49F431613*
G04*
G04*
G04 #@! TF.FilePolarity,Negative*
G04*
G01*
G75*
%ADD21R,1.4562X1.3046*%
%ADD22R,1.3562X1.1046*%
%ADD23R,1.3046X1.4562*%
%ADD25R,1.5082X1.2065*%
%ADD26R,0.9500X1.4500*%
G04:AMPARAMS|DCode=33|XSize=1.0043mm|YSize=3.1821mm|CornerRadius=0.4369mm|HoleSize=0mm|Usage=FLASHONLY|Rotation=90.000|XOffset=0mm|YOffset=0mm|HoleType=Round|Shape=RoundedRectangle|*
%AMROUNDEDRECTD33*
21,1,1.0043,2.3084,0,0,90.0*
21,1,0.1306,3.1821,0,0,90.0*
1,1,0.8737,1.1542,0.0653*
1,1,0.8737,1.1542,-0.0653*
1,1,0.8737,-1.1542,-0.0653*
1,1,0.8737,-1.1542,0.0653*
%
%ADD33ROUNDEDRECTD33*%
G04:AMPARAMS|DCode=34|XSize=1.0043mm|YSize=0.8721mm|CornerRadius=0.4361mm|HoleSize=0mm|Usage=FLASHONLY|Rotation=90.000|XOffset=0mm|YOffset=0mm|HoleType=Round|Shape=RoundedRectangle|*
%AMROUNDEDRECTD34*
21,1,1.0043,0.0000,0,0,90.0*
21,1,0.1322,0.8721,0,0,90.0*
1,1,0.8721,0.0000,0.0661*
1,1,0.8721,0.0000,-0.0661*
1,1,0.8721,0.0000,-0.0661*
1,1,0.8721,0.0000,0.0661*
%
%ADD34ROUNDEDRECTD34*%
%ADD35R,0.8721X1.0043*%
%ADD36C,0.7032*%
%ADD37R,1.7032X2.1032*%
%ADD38R,0.6032X1.5532*%
%ADD39R,1.1032X1.1032*%
%ADD40R,1.7032X1.1032*%
%ADD41R,1.1032X1.7032*%
%ADD42R,1.3032X1.5032*%
%ADD43O,1.1532X0.4032*%
%ADD44R,3.3332X3.3332*%
%ADD45O,0.4032X1.1532*%
%ADD46O,0.5032X2.2032*%
%ADD47R,3.0032X1.3032*%
%ADD48R,2.8032X1.3032*%
%ADD49C,1.6532*%
%ADD50C,1.5500*%
%ADD51R,1.5500X1.5500*%
%ADD52R,1.7112X1.7112*%
%ADD53C,1.7112*%
%ADD54R,1.5500X1.5500*%
%ADD55R,1.7112X1.7112*%
G04:AMPARAMS|DCode=56|XSize=2.95mm|YSize=1.6mm|CornerRadius=0.8mm|HoleSize=0mm|Usage=FLASHONLY|Rotation=90.000|XOffset=0mm|YOffset=0mm|HoleType=Round|Shape=RoundedRectangle|*
%AMROUNDEDRECTD56*
21,1,2.9500,0.0000,0,0,90.0*
21,1,1.3500,1.6000,0,0,90.0*
1,1,1.6000,0.0000,0.6750*
1,1,1.6000,0.0000,-0.6750*
1,1,1.6000,0.0000,-0.6750*
1,1,1.6000,0.0000,0.6750*
%
%ADD56ROUNDEDRECTD56*%
%ADD57C,2.3000*%
%ADD58C,0.9532*%
%ADD59C,0.7032*%
G36*
X292133Y745509D02*
X292264Y745483D01*
X292390Y745441D01*
X292509Y745382D01*
X292620Y745308D01*
X292720Y745220D01*
X292808Y745120D01*
X292882Y745009D01*
X292941Y744890D01*
X292983Y744763D01*
X293009Y744633D01*
X293018Y744500D01*
Y725500D01*
X293009Y725367D01*
X292983Y725237D01*
X292941Y725110D01*
X292882Y724991D01*
X292808Y724880D01*
X292720Y724780D01*
X292620Y724692D01*
X292509Y724618D01*
X292390Y724559D01*
X292264Y724517D01*
X292133Y724491D01*
X292000Y724482D01*
X279000D01*
X278867Y724491D01*
X278736Y724517D01*
X278610Y724559D01*
X278491Y724618D01*
X278380Y724692D01*
X278280Y724780D01*
X278192Y724880D01*
X278118Y724991D01*
X278059Y725110D01*
X278016Y725237D01*
X277990Y725367D01*
X277982Y725500D01*
Y729482D01*
X274000D01*
X273867Y729490D01*
X273737Y729516D01*
X273611Y729559D01*
X273552Y729588D01*
X273491Y729618D01*
X273380Y729692D01*
X273280Y729780D01*
Y729780D01*
X273280D01*
X273192Y729880D01*
X273118Y729991D01*
X273089Y730051D01*
X273060Y730110D01*
X273017Y730236D01*
X272991Y730367D01*
X272982Y730500D01*
X272982Y739500D01*
D01*
Y739500D01*
X272990Y739633D01*
X273016Y739763D01*
X273059Y739890D01*
X273088Y739949D01*
X273118Y740009D01*
X273192Y740120D01*
X273280Y740220D01*
X273280D01*
Y740220D01*
X273380Y740308D01*
X273491Y740382D01*
X273551Y740412D01*
X273610Y740441D01*
X273736Y740483D01*
X273867Y740509D01*
X274000Y740518D01*
D01*
X274000D01*
X277982D01*
Y744500D01*
X277990Y744633D01*
X278016Y744763D01*
X278059Y744890D01*
X278118Y745009D01*
X278192Y745120D01*
X278280Y745220D01*
X278380Y745308D01*
X278491Y745382D01*
X278610Y745441D01*
X278736Y745483D01*
X278867Y745509D01*
X279000Y745518D01*
X292000D01*
X292133Y745509D01*
D02*
G37*
G36*
X351133D02*
X351264Y745483D01*
X351390Y745441D01*
X351509Y745382D01*
X351620Y745308D01*
X351720Y745220D01*
X351808Y745120D01*
X351882Y745009D01*
X351941Y744890D01*
X351983Y744763D01*
X352010Y744633D01*
X352018Y744500D01*
Y740518D01*
X356000D01*
X356133Y740510D01*
X356263Y740484D01*
X356389Y740441D01*
X356448Y740412D01*
X356509Y740382D01*
X356620Y740308D01*
X356720Y740220D01*
Y740220D01*
X356720D01*
X356808Y740120D01*
X356882Y740009D01*
X356911Y739949D01*
X356940Y739890D01*
X356983Y739764D01*
X357009Y739633D01*
X357018Y739500D01*
X357018Y730500D01*
D01*
Y730500D01*
X357010Y730367D01*
X356983Y730237D01*
X356941Y730110D01*
X356912Y730051D01*
X356882Y729991D01*
X356808Y729880D01*
X356720Y729780D01*
X356720D01*
Y729780D01*
X356620Y729692D01*
X356509Y729618D01*
X356449Y729588D01*
X356390Y729559D01*
X356264Y729517D01*
X356133Y729491D01*
X356000Y729482D01*
D01*
X356000D01*
X352018D01*
Y725500D01*
X352010Y725367D01*
X351983Y725237D01*
X351941Y725110D01*
X351882Y724991D01*
X351808Y724880D01*
X351720Y724780D01*
X351620Y724692D01*
X351509Y724618D01*
X351390Y724559D01*
X351264Y724517D01*
X351133Y724491D01*
X351000Y724482D01*
X338000D01*
X337867Y724491D01*
X337737Y724517D01*
X337610Y724559D01*
X337491Y724618D01*
X337380Y724692D01*
X337280Y724780D01*
X337192Y724880D01*
X337118Y724991D01*
X337059Y725110D01*
X337016Y725237D01*
X336991Y725367D01*
X336982Y725500D01*
Y744500D01*
X336991Y744633D01*
X337016Y744763D01*
X337059Y744890D01*
X337118Y745009D01*
X337192Y745120D01*
X337280Y745220D01*
X337380Y745308D01*
X337491Y745382D01*
X337610Y745441D01*
X337737Y745483D01*
X337867Y745509D01*
X338000Y745518D01*
X351000D01*
X351133Y745509D01*
D02*
G37*
G36*
X419633Y746509D02*
X419763Y746484D01*
X419890Y746441D01*
X420009Y746382D01*
X420120Y746308D01*
X420220Y746220D01*
X420308Y746120D01*
X420382Y746009D01*
X420441Y745890D01*
X420483Y745763D01*
X420509Y745633D01*
X420518Y745500D01*
Y726500D01*
X420509Y726367D01*
X420483Y726236D01*
X420441Y726110D01*
X420382Y725991D01*
X420308Y725880D01*
X420220Y725780D01*
X420120Y725692D01*
X420009Y725618D01*
X419890Y725559D01*
X419763Y725517D01*
X419633Y725490D01*
X419500Y725482D01*
X406500D01*
X406367Y725490D01*
X406236Y725517D01*
X406110Y725559D01*
X405991Y725618D01*
X405880Y725692D01*
X405780Y725780D01*
X405692Y725880D01*
X405618Y725991D01*
X405559Y726110D01*
X405516Y726236D01*
X405490Y726367D01*
X405482Y726500D01*
Y730481D01*
X401500D01*
X401367Y730490D01*
X401237Y730516D01*
X401110Y730559D01*
X401052Y730588D01*
X400991Y730618D01*
X400880Y730692D01*
X400780Y730780D01*
Y730780D01*
X400780D01*
X400692Y730880D01*
X400618Y730991D01*
X400588Y731051D01*
X400559Y731110D01*
X400517Y731236D01*
X400491Y731367D01*
X400482Y731500D01*
X400482Y740500D01*
Y740500D01*
D01*
X400490Y740633D01*
X400516Y740763D01*
X400559Y740890D01*
X400588Y740948D01*
X400618Y741009D01*
X400692Y741120D01*
X400780Y741220D01*
X400780D01*
Y741220D01*
X400880Y741308D01*
X400991Y741382D01*
X401051Y741412D01*
X401110Y741441D01*
X401236Y741484D01*
X401367Y741509D01*
X401500Y741518D01*
D01*
X401500D01*
X405482D01*
Y745500D01*
X405490Y745633D01*
X405516Y745763D01*
X405559Y745890D01*
X405618Y746009D01*
X405692Y746120D01*
X405780Y746220D01*
X405880Y746308D01*
X405991Y746382D01*
X406110Y746441D01*
X406236Y746484D01*
X406367Y746509D01*
X406500Y746518D01*
X419500D01*
X419633Y746509D01*
D02*
G37*
G36*
X478633D02*
X478764Y746484D01*
X478890Y746441D01*
X479009Y746382D01*
X479120Y746308D01*
X479220Y746220D01*
X479308Y746120D01*
X479382Y746009D01*
X479441Y745890D01*
X479483Y745763D01*
X479509Y745633D01*
X479518Y745500D01*
Y741518D01*
X483500D01*
X483633Y741510D01*
X483763Y741484D01*
X483889Y741441D01*
X483948Y741412D01*
X484009Y741382D01*
X484119Y741308D01*
X484220Y741220D01*
Y741220D01*
X484220D01*
X484308Y741120D01*
X484381Y741009D01*
X484411Y740949D01*
X484440Y740890D01*
X484483Y740764D01*
X484509Y740633D01*
X484518Y740500D01*
X484518Y731500D01*
Y731500D01*
D01*
X484509Y731367D01*
X484483Y731236D01*
X484441Y731110D01*
X484412Y731051D01*
X484382Y730991D01*
X484308Y730880D01*
X484220Y730780D01*
X484220D01*
Y730780D01*
X484120Y730692D01*
X484009Y730618D01*
X483949Y730588D01*
X483890Y730559D01*
X483764Y730517D01*
X483633Y730490D01*
X483500Y730482D01*
D01*
X483500D01*
X479518D01*
Y726500D01*
X479509Y726367D01*
X479483Y726236D01*
X479441Y726110D01*
X479382Y725991D01*
X479308Y725880D01*
X479220Y725780D01*
X479120Y725692D01*
X479009Y725618D01*
X478890Y725559D01*
X478764Y725517D01*
X478633Y725490D01*
X478500Y725482D01*
X465500D01*
X465367Y725490D01*
X465236Y725517D01*
X465110Y725559D01*
X464991Y725618D01*
X464880Y725692D01*
X464780Y725780D01*
X464692Y725880D01*
X464618Y725991D01*
X464559Y726110D01*
X464516Y726236D01*
X464491Y726367D01*
X464482Y726500D01*
Y745500D01*
X464491Y745633D01*
X464516Y745763D01*
X464559Y745890D01*
X464618Y746009D01*
X464692Y746120D01*
X464780Y746220D01*
X464880Y746308D01*
X464991Y746382D01*
X465110Y746441D01*
X465236Y746484D01*
X465367Y746509D01*
X465500Y746518D01*
X478500D01*
X478633Y746509D01*
D02*
G37*
D21*
X468729Y546059D02*
D03*
Y562175D02*
D03*
X459179Y500489D02*
D03*
Y484374D02*
D03*
X332500Y291942D02*
D03*
Y308058D02*
D03*
X1007500Y308058D02*
D03*
Y291942D02*
D03*
X732724Y504254D02*
D03*
Y520370D02*
D03*
X305000Y628058D02*
D03*
Y611942D02*
D03*
D22*
X441658Y548571D02*
D03*
Y562687D02*
D03*
X468760Y377246D02*
D03*
Y391362D02*
D03*
Y428753D02*
D03*
Y414637D02*
D03*
X332500Y612942D02*
D03*
Y627058D02*
D03*
X704305Y504871D02*
D03*
Y518987D02*
D03*
D23*
X376107Y358862D02*
D03*
X392223D02*
D03*
X349052Y590598D02*
D03*
X332937D02*
D03*
X351690Y358862D02*
D03*
X335575D02*
D03*
X351179Y238625D02*
D03*
X335063D02*
D03*
X374505D02*
D03*
X390621D02*
D03*
X964254Y239961D02*
D03*
X948138D02*
D03*
X988821Y240441D02*
D03*
X1004937D02*
D03*
X988821Y362281D02*
D03*
X1004937D02*
D03*
X964937D02*
D03*
X948821D02*
D03*
D25*
X430000Y500509D02*
D03*
Y479491D02*
D03*
X446588Y265240D02*
D03*
Y286257D02*
D03*
X416588Y264731D02*
D03*
Y285748D02*
D03*
X446588Y312740D02*
D03*
Y333757D02*
D03*
X416588D02*
D03*
Y312740D02*
D03*
X1302500Y126991D02*
D03*
Y148009D02*
D03*
X1302500Y458009D02*
D03*
Y436991D02*
D03*
X40000Y160509D02*
D03*
Y139491D02*
D03*
Y473009D02*
D03*
Y451991D02*
D03*
X890000Y335509D02*
D03*
Y314491D02*
D03*
X922500Y335509D02*
D03*
Y314491D02*
D03*
Y263983D02*
D03*
Y285000D02*
D03*
X470919Y178009D02*
D03*
Y156992D02*
D03*
X602500Y178009D02*
D03*
Y156991D02*
D03*
X737500Y157500D02*
D03*
Y178517D02*
D03*
X870000Y178009D02*
D03*
Y156991D02*
D03*
X1000000Y178009D02*
D03*
Y156992D02*
D03*
D26*
X699750Y650000D02*
D03*
X680250D02*
D03*
X604750Y260000D02*
D03*
X585250D02*
D03*
X635250D02*
D03*
X654750D02*
D03*
X685250D02*
D03*
X704750D02*
D03*
X735250D02*
D03*
X754750D02*
D03*
D33*
X790000Y682950D02*
D03*
D34*
X812900Y617050D02*
D03*
X790000D02*
D03*
D35*
X767100D02*
D03*
D36*
X281500Y730500D02*
G03*
X281500Y730500I-2500J0D01*
G01*
Y739500D02*
G03*
X281500Y739500I-2500J0D01*
G01*
X353500Y730500D02*
G03*
X353500Y730500I-2500J0D01*
G01*
Y739500D02*
G03*
X353500Y739500I-2500J0D01*
G01*
X481000Y740500D02*
G03*
X481000Y740500I-2500J0D01*
G01*
Y731500D02*
G03*
X481000Y731500I-2500J0D01*
G01*
X409000Y740500D02*
G03*
X409000Y740500I-2500J0D01*
G01*
Y731500D02*
G03*
X409000Y731500I-2500J0D01*
G01*
D37*
X305000Y735000D02*
D03*
X325000D02*
D03*
X452500Y736000D02*
D03*
X432500D02*
D03*
D38*
X302000Y708000D02*
D03*
X308500D02*
D03*
X315000D02*
D03*
X321500D02*
D03*
X328000D02*
D03*
X455500Y709000D02*
D03*
X449000D02*
D03*
X442500D02*
D03*
X436000D02*
D03*
X429500D02*
D03*
D39*
X575550Y485400D02*
D03*
X561550D02*
D03*
X589550D02*
D03*
X561550Y471400D02*
D03*
X575550D02*
D03*
X589550D02*
D03*
X561550Y499400D02*
D03*
X575550D02*
D03*
X589550D02*
D03*
D40*
X503050Y562600D02*
D03*
Y549900D02*
D03*
Y537200D02*
D03*
Y524500D02*
D03*
Y511800D02*
D03*
Y499100D02*
D03*
Y486400D02*
D03*
Y473700D02*
D03*
Y461000D02*
D03*
Y448300D02*
D03*
Y435600D02*
D03*
Y422900D02*
D03*
Y410200D02*
D03*
Y397500D02*
D03*
X678050D02*
D03*
Y410200D02*
D03*
Y422900D02*
D03*
Y435600D02*
D03*
Y448300D02*
D03*
Y461000D02*
D03*
Y473700D02*
D03*
Y486400D02*
D03*
Y499100D02*
D03*
Y511800D02*
D03*
Y524500D02*
D03*
Y537200D02*
D03*
Y549900D02*
D03*
Y562600D02*
D03*
D41*
X520700Y385000D02*
D03*
X533400D02*
D03*
X546100D02*
D03*
X558800D02*
D03*
X571500D02*
D03*
X584200D02*
D03*
X596900D02*
D03*
X609600D02*
D03*
X622300D02*
D03*
X635000D02*
D03*
X647700D02*
D03*
X660400D02*
D03*
D42*
X584500Y290000D02*
D03*
X605500D02*
D03*
X685000D02*
D03*
X706000D02*
D03*
X756000D02*
D03*
X735000D02*
D03*
X656000D02*
D03*
X635000D02*
D03*
X740500Y650000D02*
D03*
X719500D02*
D03*
D43*
X370250Y622500D02*
D03*
X419750Y652500D02*
D03*
Y647500D02*
D03*
Y642500D02*
D03*
Y637500D02*
D03*
Y632500D02*
D03*
Y627500D02*
D03*
Y622500D02*
D03*
X370250Y627500D02*
D03*
Y632500D02*
D03*
Y637500D02*
D03*
Y642500D02*
D03*
Y647500D02*
D03*
Y652500D02*
D03*
D44*
X395000Y637500D02*
D03*
D45*
X380000Y662250D02*
D03*
X385000D02*
D03*
X390000D02*
D03*
X395000D02*
D03*
X400000D02*
D03*
X405000D02*
D03*
X410000D02*
D03*
Y612750D02*
D03*
X405000D02*
D03*
X400000D02*
D03*
X395000D02*
D03*
X390000D02*
D03*
X385000D02*
D03*
X380000D02*
D03*
D46*
X960000Y279000D02*
D03*
X965000D02*
D03*
X970000D02*
D03*
X975000D02*
D03*
X980000D02*
D03*
X960000Y321000D02*
D03*
X965000D02*
D03*
X970000D02*
D03*
X975000D02*
D03*
X980000D02*
D03*
X360000Y279000D02*
D03*
X365000D02*
D03*
X370000D02*
D03*
X375000D02*
D03*
X380000D02*
D03*
X360000Y321000D02*
D03*
X365000D02*
D03*
X370000D02*
D03*
X375000D02*
D03*
X380000D02*
D03*
D47*
X769305Y542956D02*
D03*
D48*
X768305Y522956D02*
D03*
Y502956D02*
D03*
Y482956D02*
D03*
Y462956D02*
D03*
Y442956D02*
D03*
Y422956D02*
D03*
Y402956D02*
D03*
X922305D02*
D03*
Y422956D02*
D03*
Y442956D02*
D03*
Y462956D02*
D03*
Y482956D02*
D03*
Y502956D02*
D03*
Y522956D02*
D03*
Y542956D02*
D03*
D49*
X340000Y708000D02*
D03*
X290000D02*
D03*
X417500Y709000D02*
D03*
X467500D02*
D03*
D50*
X652500Y687500D02*
D03*
Y622500D02*
D03*
X607500Y687500D02*
D03*
X392500Y537500D02*
D03*
Y472500D02*
D03*
X347500Y537500D02*
D03*
X967500Y190000D02*
D03*
X902500Y145000D02*
D03*
X967500D02*
D03*
X837500Y190000D02*
D03*
X772500Y145000D02*
D03*
X837500D02*
D03*
X702500Y190000D02*
D03*
X637500Y145000D02*
D03*
X702500D02*
D03*
X567500Y190000D02*
D03*
X502500Y145000D02*
D03*
X567500D02*
D03*
X435919Y190000D02*
D03*
X370919Y145000D02*
D03*
X435919D02*
D03*
X1105000Y547500D02*
D03*
X1130000D02*
D03*
X1032500Y425000D02*
D03*
Y450000D02*
D03*
Y475000D02*
D03*
X235000Y364250D02*
D03*
X210000D02*
D03*
X307500Y486750D02*
D03*
Y461750D02*
D03*
Y436750D02*
D03*
X235000Y53250D02*
D03*
X210000D02*
D03*
X307500Y175750D02*
D03*
Y150750D02*
D03*
Y125750D02*
D03*
X1003290Y655250D02*
D03*
X1105000Y235750D02*
D03*
X1130000D02*
D03*
X1032500Y113250D02*
D03*
Y138250D02*
D03*
Y163250D02*
D03*
D51*
X607500Y622500D02*
D03*
X347500Y472500D02*
D03*
X1155000Y547500D02*
D03*
X185000Y364250D02*
D03*
Y53250D02*
D03*
X1155000Y235750D02*
D03*
D52*
X910400Y650000D02*
D03*
D53*
X885000D02*
D03*
X859600D02*
D03*
X517500Y275000D02*
D03*
Y300400D02*
D03*
X820000Y272500D02*
D03*
Y247100D02*
D03*
D54*
X902500Y190000D02*
D03*
X772500Y190000D02*
D03*
X637500D02*
D03*
X502500D02*
D03*
X370919Y190000D02*
D03*
X978290Y655250D02*
D03*
D55*
X517500Y249600D02*
D03*
X820000Y297900D02*
D03*
D56*
X1257500Y481750D02*
D03*
X1212500D02*
D03*
X1257500Y418250D02*
D03*
X1212500D02*
D03*
X82500Y430000D02*
D03*
X127500D02*
D03*
X82500Y493500D02*
D03*
X127500D02*
D03*
X82500Y119000D02*
D03*
X127500D02*
D03*
X82500Y182500D02*
D03*
X127500D02*
D03*
X1257500Y170000D02*
D03*
X1212500D02*
D03*
X1257500Y106500D02*
D03*
X1212500D02*
D03*
D57*
X1063500Y527500D02*
D03*
Y372500D02*
D03*
X1196500Y527500D02*
D03*
Y372500D02*
D03*
X276500Y384250D02*
D03*
Y539250D02*
D03*
X143500Y384250D02*
D03*
Y539250D02*
D03*
X276500Y73250D02*
D03*
Y228250D02*
D03*
X143500Y73250D02*
D03*
Y228250D02*
D03*
X1063500Y215750D02*
D03*
Y60750D02*
D03*
X1196500Y215750D02*
D03*
Y60750D02*
D03*
D58*
X652500Y452500D02*
D03*
X642500Y445000D02*
D03*
X632500Y437500D02*
D03*
X622500Y430000D02*
D03*
X350000Y642500D02*
D03*
X441628Y577313D02*
D03*
X375000Y602500D02*
D03*
X425000Y547500D02*
D03*
X285000Y627500D02*
D03*
X335000Y690000D02*
D03*
X312500Y680000D02*
D03*
X545000Y612500D02*
D03*
X552500Y597500D02*
D03*
X457500Y685000D02*
D03*
X445000D02*
D03*
X650000Y512500D02*
D03*
Y525000D02*
D03*
X662500Y495000D02*
D03*
X767500Y602500D02*
D03*
X740000Y387500D02*
D03*
X728893Y387553D02*
D03*
X712500Y370000D02*
D03*
X720000Y380000D02*
D03*
X705000Y360000D02*
D03*
X697500Y350000D02*
D03*
X690000Y340000D02*
D03*
X630000Y362500D02*
D03*
X617500D02*
D03*
X372500Y212500D02*
D03*
X337500D02*
D03*
X767500Y582500D02*
D03*
X965000Y257500D02*
D03*
X375000Y342500D02*
D03*
X415000Y247500D02*
D03*
X447500D02*
D03*
X695000Y550000D02*
D03*
X694850Y537350D02*
D03*
X487500Y487500D02*
D03*
X485000Y511800D02*
D03*
X485500Y524500D02*
D03*
X522500Y402500D02*
D03*
X530000Y415000D02*
D03*
X515480Y499709D02*
D03*
X560000Y402500D02*
D03*
X572500D02*
D03*
X642500Y362500D02*
D03*
X655000D02*
D03*
X890000Y355000D02*
D03*
X745000Y460000D02*
D03*
Y482500D02*
D03*
X546055Y402762D02*
D03*
X585000Y367500D02*
D03*
X922500Y355000D02*
D03*
X950000Y462500D02*
D03*
Y482500D02*
D03*
X949544Y502956D02*
D03*
X949544Y522956D02*
D03*
X610000Y402500D02*
D03*
X597500D02*
D03*
D59*
X406000Y626500D02*
D03*
X395000D02*
D03*
X384000D02*
D03*
X406000Y637500D02*
D03*
X395000D02*
D03*
X384000D02*
D03*
X406000Y648500D02*
D03*
X395000D02*
D03*
X384000D02*
D03*
M02*
