G04*
G04 #@! TF.GenerationSoftware,Altium Limited,Altium Designer,25.2.1 (25)*
G04*
G04 Layer_Color=65535*
%FSLAX44Y44*%
%MOMM*%
G71*
G04*
G04 #@! TF.SameCoordinates,47AF1686-E751-4D8C-A91A-F2C49F431613*
G04*
G04*
G04 #@! TF.FilePolarity,Positive*
G04*
G01*
G75*
%ADD10C,0.2500*%
%ADD11C,0.2000*%
%ADD12C,0.1270*%
%ADD13C,0.2540*%
%ADD14R,0.2000X1.2000*%
D10*
X329250Y695750D02*
G03*
X329250Y695750I-1250J0D01*
G01*
X456750Y696750D02*
G03*
X456750Y696750I-1250J0D01*
G01*
X363250Y662500D02*
G03*
X363250Y662500I-1250J0D01*
G01*
X608750Y608500D02*
G03*
X608750Y608500I-1250J0D01*
G01*
X348750Y458500D02*
G03*
X348750Y458500I-1250J0D01*
G01*
X954250Y279000D02*
G03*
X954250Y279000I-1250J0D01*
G01*
X889750Y190000D02*
G03*
X889750Y190000I-1250J0D01*
G01*
X759750Y190000D02*
G03*
X759750Y190000I-1250J0D01*
G01*
X624750D02*
G03*
X624750Y190000I-1250J0D01*
G01*
X489750D02*
G03*
X489750Y190000I-1250J0D01*
G01*
X358169Y190000D02*
G03*
X358169Y190000I-1250J0D01*
G01*
X1156250Y565250D02*
G03*
X1156250Y565250I-1250J0D01*
G01*
X186250Y346500D02*
G03*
X186250Y346500I-1250J0D01*
G01*
Y35500D02*
G03*
X186250Y35500I-1250J0D01*
G01*
X948290Y655250D02*
G03*
X948290Y655250I-1250J0D01*
G01*
X388250Y321000D02*
G03*
X388250Y321000I-1250J0D01*
G01*
X756250Y617050D02*
G03*
X756250Y617050I-1250J0D01*
G01*
X1156250Y253500D02*
G03*
X1156250Y253500I-1250J0D01*
G01*
D11*
X486550Y562600D02*
G03*
X486550Y562600I-1000J0D01*
G01*
X941000Y650000D02*
G03*
X941000Y650000I-1000J0D01*
G01*
X518500Y220000D02*
G03*
X518500Y220000I-1000J0D01*
G01*
X821000Y327500D02*
G03*
X821000Y327500I-1000J0D01*
G01*
X750545Y542956D02*
G03*
X750545Y542956I-1000J0D01*
G01*
X277550Y756499D02*
X352450D01*
X277547Y748380D02*
Y756500D01*
Y709500D02*
Y721620D01*
Y709500D02*
X278850D01*
X351140Y709547D02*
X352453D01*
Y721620D01*
X352450Y748380D02*
Y756499D01*
X480010Y539536D02*
Y568698D01*
X457448Y539536D02*
Y568698D01*
X447898Y477851D02*
Y507012D01*
X470460Y477851D02*
Y507012D01*
X452908Y543048D02*
Y568210D01*
X430408Y543048D02*
Y568210D01*
X343781Y285419D02*
Y314581D01*
X321219Y285419D02*
Y314581D01*
X480010Y371723D02*
Y396885D01*
X457510Y371723D02*
Y396885D01*
Y409114D02*
Y434276D01*
X480010Y409114D02*
Y434276D01*
X369584Y347581D02*
X398746D01*
X369584Y370143D02*
X398746D01*
X326414Y601879D02*
X355576D01*
X326414Y579317D02*
X355576D01*
X329052Y370143D02*
X358214D01*
X329052Y347581D02*
X358214D01*
X328540Y249906D02*
X357702D01*
X328540Y227344D02*
X357702D01*
X367982D02*
X397144D01*
X367982Y249906D02*
X397144D01*
X941615Y251242D02*
X970777D01*
X941615Y228680D02*
X970777D01*
X982298Y229160D02*
X1011460D01*
X982298Y251722D02*
X1011460D01*
X982298Y351000D02*
X1011460D01*
X982298Y373562D02*
X1011460D01*
X942298D02*
X971460D01*
X942298Y351000D02*
X971460D01*
X996219Y285419D02*
Y314581D01*
X1018781Y285419D02*
Y314581D01*
X744005Y497731D02*
Y526893D01*
X721443Y497731D02*
Y526893D01*
X293719Y605419D02*
Y634581D01*
X316281Y605419D02*
Y634581D01*
X343750Y607419D02*
Y632581D01*
X321250Y607419D02*
Y632581D01*
X436250Y489274D02*
Y490726D01*
X423750Y489274D02*
Y490726D01*
X440338Y275022D02*
Y276474D01*
X452838Y275022D02*
Y276474D01*
X410338Y274513D02*
Y275965D01*
X422838Y274513D02*
Y275965D01*
X440338Y322522D02*
Y323974D01*
X452838Y322522D02*
Y323974D01*
X422838Y322522D02*
Y323974D01*
X410338Y322522D02*
Y323974D01*
X1296250Y136774D02*
Y138226D01*
X1308750Y136774D02*
Y138226D01*
X1308750Y446774D02*
Y448226D01*
X1296250Y446774D02*
Y448226D01*
X46250Y149274D02*
Y150726D01*
X33750Y149274D02*
Y150726D01*
X46250Y461774D02*
Y463226D01*
X33750Y461774D02*
Y463226D01*
X896250Y324274D02*
Y325726D01*
X883750Y324274D02*
Y325726D01*
X928750Y324274D02*
Y325726D01*
X916250Y324274D02*
Y325726D01*
Y273765D02*
Y275217D01*
X928750Y273765D02*
Y275217D01*
X688750Y643000D02*
X691250D01*
X688750Y657000D02*
X691250D01*
X593750Y253000D02*
X596250D01*
X593750Y267000D02*
X596250D01*
X477169Y166774D02*
Y168226D01*
X464669Y166774D02*
Y168226D01*
X608750Y166774D02*
Y168226D01*
X596250Y166774D02*
Y168226D01*
X643750Y267000D02*
X646250D01*
X643750Y253000D02*
X646250D01*
X731250Y167283D02*
Y168735D01*
X743750Y167283D02*
Y168735D01*
X876250Y166774D02*
Y168226D01*
X863750Y166774D02*
Y168226D01*
X693750Y267000D02*
X696250D01*
X693750Y253000D02*
X696250D01*
X1006250Y166774D02*
Y168226D01*
X993750Y166774D02*
Y168226D01*
X479950Y749380D02*
Y757499D01*
X479953Y710547D02*
Y722620D01*
X478640Y710547D02*
X479953D01*
X405047Y710500D02*
X406350D01*
X405047Y710500D02*
Y722620D01*
Y749380D02*
Y757500D01*
X405050Y757499D02*
X479950D01*
X743750Y267000D02*
X746250D01*
X743750Y253000D02*
X746250D01*
X368500Y611000D02*
X375000D01*
X368500D02*
Y617500D01*
X415000Y611000D02*
X421500D01*
Y617500D01*
Y657500D02*
Y664000D01*
X415000D02*
X421500D01*
X368500D02*
X375000D01*
X368500Y657500D02*
Y664000D01*
X619000Y623500D02*
X641000D01*
X661500Y634000D02*
Y676000D01*
X619000Y686500D02*
X641000D01*
X598500Y634000D02*
Y676000D01*
X359000Y473500D02*
X381000D01*
X401500Y484000D02*
Y526000D01*
X359000Y536500D02*
X381000D01*
X338500Y484000D02*
Y526000D01*
X954500Y293000D02*
X985500D01*
X954500Y307000D02*
X985500D01*
X954500Y293000D02*
Y307000D01*
X985500Y293000D02*
Y307000D01*
X914000Y199000D02*
X956000D01*
X966500Y156500D02*
Y178500D01*
X914000Y136000D02*
X956000D01*
X903500Y156500D02*
Y178500D01*
X784000Y199000D02*
X826000D01*
X836500Y156500D02*
Y178500D01*
X784000Y136000D02*
X826000D01*
X773500Y156500D02*
Y178500D01*
X649000Y199000D02*
X691000D01*
X701500Y156500D02*
Y178500D01*
X649000Y136000D02*
X691000D01*
X638500Y156500D02*
Y178500D01*
X514000Y199000D02*
X556000D01*
X566500Y156500D02*
Y178500D01*
X514000Y136000D02*
X556000D01*
X503500Y156500D02*
Y178500D01*
X382419Y199000D02*
X424419D01*
X434919Y156500D02*
Y178500D01*
X382419Y136000D02*
X424419D01*
X371919Y156500D02*
Y178500D01*
X715555Y499348D02*
Y524510D01*
X693055Y499348D02*
Y524510D01*
X1019500Y353500D02*
X1273500D01*
Y560500D01*
X1019500D02*
X1273500D01*
X1019500Y353500D02*
Y560500D01*
X66500Y558250D02*
X320500D01*
X66500Y351250D02*
Y558250D01*
Y351250D02*
X320500D01*
Y558250D01*
X66500Y247250D02*
X320500D01*
X66500Y40250D02*
Y247250D01*
Y40250D02*
X320500D01*
Y247250D01*
X953790Y621250D02*
Y678750D01*
Y621250D02*
X1027790D01*
Y678750D01*
X953790D02*
X1027790D01*
X354500Y293000D02*
Y307000D01*
X385500Y293000D02*
Y307000D01*
X354500Y293000D02*
X385500D01*
X354500Y307000D02*
X385500D01*
X757475Y632475D02*
X822525D01*
Y667525D01*
X757475D02*
X822525D01*
X757475Y632475D02*
Y667525D01*
X1019500Y41750D02*
X1273500D01*
Y248750D01*
X1019500D02*
X1273500D01*
X1019500Y41750D02*
Y248750D01*
D12*
X680550Y570300D02*
Y574500D01*
Y382500D02*
Y389800D01*
X500550Y382500D02*
X513000D01*
X668100D02*
X680550D01*
X500550Y570300D02*
Y574500D01*
Y382500D02*
Y389800D01*
Y574500D02*
X680550D01*
X837500Y625000D02*
Y675000D01*
Y625000D02*
X932500D01*
Y675000D01*
X837500D02*
X932500D01*
X492500Y322500D02*
X542500D01*
X492500Y227500D02*
Y322500D01*
Y227500D02*
X542500D01*
Y322500D01*
X795000Y225000D02*
X845000D01*
Y320000D01*
X795000D02*
X845000D01*
X795000Y225000D02*
Y320000D01*
X765305Y557956D02*
X925305D01*
X765305Y387956D02*
X925305D01*
D13*
X685040Y320275D02*
Y305040D01*
X692657D01*
X695197Y307579D01*
Y317736D01*
X692657Y320275D01*
X685040D01*
X700275Y317736D02*
X702814Y320275D01*
X707893D01*
X710432Y317736D01*
Y315197D01*
X707893Y312658D01*
X705353D01*
X707893D01*
X710432Y310118D01*
Y307579D01*
X707893Y305040D01*
X702814D01*
X700275Y307579D01*
X585040Y320275D02*
Y305040D01*
X592658D01*
X595197Y307579D01*
Y317736D01*
X592658Y320275D01*
X585040D01*
X600275Y305040D02*
X605353D01*
X602814D01*
Y320275D01*
X600275Y317736D01*
X289569Y690117D02*
Y677422D01*
X292108Y674883D01*
X297187D01*
X299726Y677422D01*
Y690117D01*
X304804Y674883D02*
Y685039D01*
X309883Y690117D01*
X314961Y685039D01*
Y674883D01*
Y682500D01*
X304804D01*
X320039Y674883D02*
Y690117D01*
X327657D01*
X330196Y687578D01*
Y682500D01*
X327657Y679961D01*
X320039D01*
X325117D02*
X330196Y674883D01*
X335274Y690117D02*
X345431D01*
X340353D01*
Y674883D01*
X443260Y637578D02*
X440721Y640117D01*
X435643D01*
X433104Y637578D01*
Y627422D01*
X435643Y624883D01*
X440721D01*
X443260Y627422D01*
X448339Y624883D02*
Y640117D01*
X455956D01*
X458495Y637578D01*
Y632500D01*
X455956Y629961D01*
X448339D01*
X473730Y624883D02*
X463574D01*
X473730Y635039D01*
Y637578D01*
X471191Y640117D01*
X466113D01*
X463574Y637578D01*
X478809Y624883D02*
X483887D01*
X481348D01*
Y640117D01*
X478809Y637578D01*
X491505D02*
X494044Y640117D01*
X499122D01*
X501661Y637578D01*
Y627422D01*
X499122Y624883D01*
X494044D01*
X491505Y627422D01*
Y637578D01*
X516897Y624883D02*
X506740D01*
X516897Y635039D01*
Y637578D01*
X514357Y640117D01*
X509279D01*
X506740Y637578D01*
X598932Y720085D02*
Y704850D01*
X606549D01*
X609089Y707389D01*
Y709928D01*
X606549Y712467D01*
X598932D01*
X606549D01*
X609089Y715007D01*
Y717546D01*
X606549Y720085D01*
X598932D01*
X621785D02*
X616706D01*
X614167Y717546D01*
Y707389D01*
X616706Y704850D01*
X621785D01*
X624324Y707389D01*
Y717546D01*
X621785Y720085D01*
X637020D02*
X631941D01*
X629402Y717546D01*
Y707389D01*
X631941Y704850D01*
X637020D01*
X639559Y707389D01*
Y717546D01*
X637020Y720085D01*
X644637D02*
X654794D01*
X649716D01*
Y704850D01*
X496323Y600057D02*
X486166D01*
Y584822D01*
X496323D01*
X486166Y592439D02*
X491244D01*
X511558Y597518D02*
X509019Y600057D01*
X503940D01*
X501401Y597518D01*
Y594979D01*
X503940Y592439D01*
X509019D01*
X511558Y589900D01*
Y587361D01*
X509019Y584822D01*
X503940D01*
X501401Y587361D01*
X516636Y584822D02*
Y600057D01*
X524254D01*
X526793Y597518D01*
Y592439D01*
X524254Y589900D01*
X516636D01*
X531871Y597518D02*
X534410Y600057D01*
X539489D01*
X542028Y597518D01*
Y594979D01*
X539489Y592439D01*
X536950D01*
X539489D01*
X542028Y589900D01*
Y587361D01*
X539489Y584822D01*
X534410D01*
X531871Y587361D01*
X557263Y584822D02*
X547106D01*
X557263Y594979D01*
Y597518D01*
X554724Y600057D01*
X549646D01*
X547106Y597518D01*
X587733D02*
X585194Y600057D01*
X580116D01*
X577576Y597518D01*
Y594979D01*
X580116Y592439D01*
X585194D01*
X587733Y589900D01*
Y587361D01*
X585194Y584822D01*
X580116D01*
X577576Y587361D01*
X592812Y597518D02*
X595351Y600057D01*
X600429D01*
X602968Y597518D01*
Y594979D01*
X600429Y592439D01*
X597890D01*
X600429D01*
X602968Y589900D01*
Y587361D01*
X600429Y584822D01*
X595351D01*
X592812Y587361D01*
X947166Y706115D02*
Y695958D01*
X952244Y690880D01*
X957323Y695958D01*
Y706115D01*
X962401Y690880D02*
X967479D01*
X964940D01*
Y701037D01*
X962401D01*
X975097Y690880D02*
Y701037D01*
X982714D01*
X985254Y698497D01*
Y690880D01*
X990332Y688341D02*
X1000489D01*
X1015724Y706115D02*
X1010646D01*
X1013185D01*
Y693419D01*
X1010646Y690880D01*
X1008106D01*
X1005567Y693419D01*
X1030959Y703576D02*
X1028420Y706115D01*
X1023341D01*
X1020802Y703576D01*
Y701037D01*
X1023341Y698497D01*
X1028420D01*
X1030959Y695958D01*
Y693419D01*
X1028420Y690880D01*
X1023341D01*
X1020802Y693419D01*
X1036037Y706115D02*
X1046194D01*
X1041116D01*
Y690880D01*
X429687Y690117D02*
Y677422D01*
X432226Y674883D01*
X437304D01*
X439843Y677422D01*
Y690117D01*
X455078Y687578D02*
X452539Y690117D01*
X447461D01*
X444922Y687578D01*
Y685039D01*
X447461Y682500D01*
X452539D01*
X455078Y679961D01*
Y677422D01*
X452539Y674883D01*
X447461D01*
X444922Y677422D01*
X460157Y690117D02*
Y674883D01*
X467774D01*
X470313Y677422D01*
Y679961D01*
X467774Y682500D01*
X460157D01*
X467774D01*
X470313Y685039D01*
Y687578D01*
X467774Y690117D01*
X460157D01*
X854491Y698848D02*
X851952Y701387D01*
X846873D01*
X844334Y698848D01*
Y696309D01*
X846873Y693770D01*
X851952D01*
X854491Y691230D01*
Y688691D01*
X851952Y686152D01*
X846873D01*
X844334Y688691D01*
X859569Y701387D02*
Y686152D01*
X864647Y691230D01*
X869726Y686152D01*
Y701387D01*
X874804Y683613D02*
X884961D01*
X890039Y686152D02*
Y701387D01*
X897657D01*
X900196Y698848D01*
Y693770D01*
X897657Y691230D01*
X890039D01*
X905274Y701387D02*
Y686152D01*
X910353Y691230D01*
X915431Y686152D01*
Y701387D01*
X920509Y686152D02*
Y701387D01*
X928127D01*
X930666Y698848D01*
Y693770D01*
X928127Y691230D01*
X920509D01*
X925588D02*
X930666Y686152D01*
X928649Y121230D02*
X926110Y123769D01*
X921031D01*
X918492Y121230D01*
Y118691D01*
X921031Y116152D01*
X926110D01*
X928649Y113612D01*
Y111073D01*
X926110Y108534D01*
X921031D01*
X918492Y111073D01*
X933727Y123769D02*
Y108534D01*
X938805Y113612D01*
X943884Y108534D01*
Y123769D01*
X959119D02*
X948962D01*
Y116152D01*
X954041Y118691D01*
X956580D01*
X959119Y116152D01*
Y111073D01*
X956580Y108534D01*
X951501D01*
X948962Y111073D01*
X798611Y121344D02*
X796071Y123883D01*
X790993D01*
X788454Y121344D01*
Y118805D01*
X790993Y116265D01*
X796071D01*
X798611Y113726D01*
Y111187D01*
X796071Y108648D01*
X790993D01*
X788454Y111187D01*
X803689Y123883D02*
Y108648D01*
X808767Y113726D01*
X813846Y108648D01*
Y123883D01*
X826542Y108648D02*
Y123883D01*
X818924Y116265D01*
X829081D01*
X663737Y121344D02*
X661198Y123883D01*
X656119D01*
X653580Y121344D01*
Y118805D01*
X656119Y116265D01*
X661198D01*
X663737Y113726D01*
Y111187D01*
X661198Y108648D01*
X656119D01*
X653580Y111187D01*
X668815Y123883D02*
Y108648D01*
X673893Y113726D01*
X678972Y108648D01*
Y123883D01*
X684050Y121344D02*
X686589Y123883D01*
X691668D01*
X694207Y121344D01*
Y118805D01*
X691668Y116265D01*
X689128D01*
X691668D01*
X694207Y113726D01*
Y111187D01*
X691668Y108648D01*
X686589D01*
X684050Y111187D01*
X528609Y121344D02*
X526069Y123883D01*
X520991D01*
X518452Y121344D01*
Y118805D01*
X520991Y116265D01*
X526069D01*
X528609Y113726D01*
Y111187D01*
X526069Y108648D01*
X520991D01*
X518452Y111187D01*
X533687Y123883D02*
Y108648D01*
X538765Y113726D01*
X543844Y108648D01*
Y123883D01*
X559079Y108648D02*
X548922D01*
X559079Y118805D01*
Y121344D01*
X556540Y123883D01*
X551461D01*
X548922Y121344D01*
X397027Y121230D02*
X394488Y123769D01*
X389409D01*
X386870Y121230D01*
Y118691D01*
X389409Y116152D01*
X394488D01*
X397027Y113612D01*
Y111073D01*
X394488Y108534D01*
X389409D01*
X386870Y111073D01*
X402105Y123769D02*
Y108534D01*
X407183Y113612D01*
X412262Y108534D01*
Y123769D01*
X417340Y108534D02*
X422419D01*
X419879D01*
Y123769D01*
X417340Y121230D01*
X804804Y350117D02*
X814961D01*
X809883D01*
Y334883D01*
X830196D02*
X820039D01*
X830196Y345039D01*
Y347578D01*
X827657Y350117D01*
X822578D01*
X820039Y347578D01*
X499843Y347617D02*
X510000D01*
X504922D01*
Y332383D01*
X515078D02*
X520157D01*
X517618D01*
Y347617D01*
X515078Y345078D01*
X339090Y554990D02*
Y570225D01*
X346707D01*
X349247Y567686D01*
Y562607D01*
X346707Y560068D01*
X339090D01*
X344168D02*
X349247Y554990D01*
X364482Y570225D02*
X354325D01*
Y554990D01*
X364482D01*
X354325Y562607D02*
X359403D01*
X379717Y567686D02*
X377178Y570225D01*
X372099D01*
X369560Y567686D01*
Y565147D01*
X372099Y562607D01*
X377178D01*
X379717Y560068D01*
Y557529D01*
X377178Y554990D01*
X372099D01*
X369560Y557529D01*
X394952Y570225D02*
X384795D01*
Y554990D01*
X394952D01*
X384795Y562607D02*
X389874D01*
X400030Y570225D02*
X410187D01*
X405109D01*
Y554990D01*
X750062Y583687D02*
Y568452D01*
X760219D01*
X767836D02*
X772915D01*
X775454Y570991D01*
Y576069D01*
X772915Y578609D01*
X767836D01*
X765297Y576069D01*
Y570991D01*
X767836Y568452D01*
X780532D02*
Y583687D01*
X788150D01*
X790689Y581148D01*
Y576069D01*
X788150Y573530D01*
X780532D01*
X785611D02*
X790689Y568452D01*
X798306Y578609D02*
X803385D01*
X805924Y576069D01*
Y568452D01*
X798306D01*
X795767Y570991D01*
X798306Y573530D01*
X805924D01*
X755142Y712719D02*
Y697484D01*
X765299D01*
X770377Y712719D02*
Y697484D01*
X777995D01*
X780534Y700023D01*
Y710180D01*
X777995Y712719D01*
X770377D01*
X793230D02*
X788151D01*
X785612Y710180D01*
Y700023D01*
X788151Y697484D01*
X793230D01*
X795769Y700023D01*
Y710180D01*
X793230Y712719D01*
X1030231Y278747D02*
X1025152D01*
X1027691D01*
Y266051D01*
X1025152Y263512D01*
X1022613D01*
X1020074Y266051D01*
X1042927Y278747D02*
X1037848D01*
X1035309Y276208D01*
Y266051D01*
X1037848Y263512D01*
X1042927D01*
X1045466Y266051D01*
Y276208D01*
X1042927Y278747D01*
X1050544D02*
Y276208D01*
X1055622Y271129D01*
X1060701Y276208D01*
Y278747D01*
X1055622Y271129D02*
Y263512D01*
X1073397D02*
Y278747D01*
X1065779Y271129D01*
X1075936D01*
X1030231Y590659D02*
X1025152D01*
X1027691D01*
Y577963D01*
X1025152Y575424D01*
X1022613D01*
X1020074Y577963D01*
X1042927Y590659D02*
X1037848D01*
X1035309Y588120D01*
Y577963D01*
X1037848Y575424D01*
X1042927D01*
X1045466Y577963D01*
Y588120D01*
X1042927Y590659D01*
X1050544D02*
Y588120D01*
X1055622Y583041D01*
X1060701Y588120D01*
Y590659D01*
X1055622Y583041D02*
Y575424D01*
X1065779Y588120D02*
X1068318Y590659D01*
X1073397D01*
X1075936Y588120D01*
Y585581D01*
X1073397Y583041D01*
X1070857D01*
X1073397D01*
X1075936Y580502D01*
Y577963D01*
X1073397Y575424D01*
X1068318D01*
X1065779Y577963D01*
X77223Y272143D02*
X72144D01*
X74683D01*
Y259447D01*
X72144Y256908D01*
X69605D01*
X67066Y259447D01*
X89919Y272143D02*
X84840D01*
X82301Y269604D01*
Y259447D01*
X84840Y256908D01*
X89919D01*
X92458Y259447D01*
Y269604D01*
X89919Y272143D01*
X97536D02*
Y269604D01*
X102614Y264526D01*
X107693Y269604D01*
Y272143D01*
X102614Y264526D02*
Y256908D01*
X122928D02*
X112771D01*
X122928Y267065D01*
Y269604D01*
X120389Y272143D01*
X115310D01*
X112771Y269604D01*
X77223Y583039D02*
X72144D01*
X74683D01*
Y570343D01*
X72144Y567804D01*
X69605D01*
X67066Y570343D01*
X89919Y583039D02*
X84840D01*
X82301Y580500D01*
Y570343D01*
X84840Y567804D01*
X89919D01*
X92458Y570343D01*
Y580500D01*
X89919Y583039D01*
X97536D02*
Y580500D01*
X102614Y575421D01*
X107693Y580500D01*
Y583039D01*
X102614Y575421D02*
Y567804D01*
X112771D02*
X117850D01*
X115310D01*
Y583039D01*
X112771Y580500D01*
X674452Y686387D02*
Y671152D01*
X682069D01*
X684608Y673691D01*
Y683848D01*
X682069Y686387D01*
X674452D01*
X689687Y668613D02*
X699843D01*
X704922Y671152D02*
Y686387D01*
X712539D01*
X715078Y683848D01*
Y678770D01*
X712539Y676230D01*
X704922D01*
X720157Y686387D02*
Y671152D01*
X725235Y676230D01*
X730313Y671152D01*
Y686387D01*
X735392Y671152D02*
Y686387D01*
X743009D01*
X745548Y683848D01*
Y678770D01*
X743009Y676230D01*
X735392D01*
X740470D02*
X745548Y671152D01*
X732304Y320117D02*
Y304883D01*
X739922D01*
X742461Y307422D01*
Y317578D01*
X739922Y320117D01*
X732304D01*
X755157Y304883D02*
Y320117D01*
X747539Y312500D01*
X757696D01*
X632304Y320117D02*
Y304883D01*
X639922D01*
X642461Y307422D01*
Y317578D01*
X639922Y320117D01*
X632304D01*
X657696Y304883D02*
X647539D01*
X657696Y315039D01*
Y317578D01*
X655157Y320117D01*
X650078D01*
X647539Y317578D01*
X949569Y384883D02*
Y395039D01*
X954647Y400117D01*
X959726Y395039D01*
Y384883D01*
Y392500D01*
X949569D01*
X964804Y400117D02*
Y384883D01*
X972422D01*
X974961Y387422D01*
Y397578D01*
X972422Y400117D01*
X964804D01*
X990196Y397578D02*
X987657Y400117D01*
X982578D01*
X980039Y397578D01*
Y387422D01*
X982578Y384883D01*
X987657D01*
X990196Y387422D01*
X1005431Y384883D02*
X995274D01*
X1005431Y395039D01*
Y397578D01*
X1002892Y400117D01*
X997813D01*
X995274Y397578D01*
X342108Y379883D02*
Y390039D01*
X347187Y395117D01*
X352265Y390039D01*
Y379883D01*
Y387500D01*
X342108D01*
X357343Y395117D02*
Y379883D01*
X364961D01*
X367500Y382422D01*
Y392578D01*
X364961Y395117D01*
X357343D01*
X382735Y392578D02*
X380196Y395117D01*
X375118D01*
X372578Y392578D01*
Y382422D01*
X375118Y379883D01*
X380196D01*
X382735Y382422D01*
X387813Y379883D02*
X392892D01*
X390353D01*
Y395117D01*
X387813Y392578D01*
D14*
X576000Y290000D02*
D03*
X676500D02*
D03*
X726500D02*
D03*
X626500D02*
D03*
X711001Y650000D02*
D03*
M02*
