G04*
G04 #@! TF.GenerationSoftware,Altium Limited,Altium Designer,25.2.1 (25)*
G04*
G04 Layer_Color=32768*
%FSLAX44Y44*%
%MOMM*%
G71*
G04*
G04 #@! TF.SameCoordinates,47AF1686-E751-4D8C-A91A-F2C49F431613*
G04*
G04*
G04 #@! TF.FilePolarity,Positive*
G04*
G01*
G75*
%ADD68C,0.1000*%
%ADD69C,0.0500*%
D68*
X315000Y716500D02*
Y726500D01*
X310000Y721500D02*
X320000D01*
X437500Y722500D02*
X447500D01*
X442500Y717500D02*
Y727500D01*
X395000Y632500D02*
Y642500D01*
X390000Y637500D02*
X400000D01*
X970000Y295000D02*
Y305000D01*
X965000Y300000D02*
X975000D01*
X365000D02*
X375000D01*
X370000Y295000D02*
Y305000D01*
D69*
X357000Y699750D02*
Y761500D01*
X273000D02*
X357000D01*
X273000Y699750D02*
Y761500D01*
Y699750D02*
X357000D01*
X493050Y375000D02*
Y577000D01*
Y375000D02*
X688050D01*
Y577000D01*
X493050D02*
X688050D01*
X400500Y700750D02*
X484500D01*
X400500D02*
Y762500D01*
X484500D01*
Y700750D02*
Y762500D01*
X360500Y603000D02*
X429500D01*
X360500Y672000D02*
X429500D01*
Y603000D02*
Y672000D01*
X360500Y603000D02*
Y672000D01*
X835000Y677500D02*
X935000D01*
Y622500D02*
Y677500D01*
X835000Y622500D02*
X935000D01*
X835000D02*
Y677500D01*
X949500Y264000D02*
X990500D01*
X949500Y336000D02*
X990500D01*
X949500Y264000D02*
Y336000D01*
X990500Y264000D02*
Y336000D01*
X545000Y225000D02*
Y325000D01*
X490000Y225000D02*
X545000D01*
X490000D02*
Y325000D01*
X545000D01*
X792500Y222500D02*
Y322500D01*
X847500D01*
Y222500D02*
Y322500D01*
X792500Y222500D02*
X847500D01*
X349500Y264000D02*
Y336000D01*
X390500Y264000D02*
Y336000D01*
X349500Y264000D02*
X390500D01*
X349500Y336000D02*
X390500D01*
X752805Y560456D02*
X937805D01*
Y385456D02*
Y560456D01*
X752805Y385456D02*
X937805D01*
X752805D02*
Y560456D01*
M02*
