G04*
G04 #@! TF.GenerationSoftware,Altium Limited,Altium Designer,25.2.1 (25)*
G04*
G04 Layer_Color=16711935*
%FSLAX44Y44*%
%MOMM*%
G71*
G04*
G04 #@! TF.SameCoordinates,47AF1686-E751-4D8C-A91A-F2C49F431613*
G04*
G04*
G04 #@! TF.FilePolarity,Positive*
G04*
G01*
G75*
%ADD13C,0.2540*%
%ADD68C,0.1000*%
D13*
X1350000Y730000D02*
G03*
X1330000Y750000I-20000J0D01*
G01*
Y0D02*
G03*
X1350000Y20000I0J20000D01*
G01*
X20000Y750000D02*
G03*
X-0Y730000I0J-20000D01*
G01*
Y20000D02*
G03*
X20000Y0I20000J0D01*
G01*
X1330000D01*
X20000Y750000D02*
X1330000D01*
X1350000Y20000D02*
Y730000D01*
X-0Y20000D02*
Y730000D01*
D68*
X270350Y749500D02*
X362000D01*
X397850Y750500D02*
X489500D01*
X387000Y750500D02*
Y747501D01*
X385500D01*
X385001Y748001D01*
Y749000D01*
X385500Y749500D01*
X387000D01*
X382002Y748001D02*
X382501Y747501D01*
X383501D01*
X384001Y748001D01*
Y750000D01*
X383501Y750500D01*
X382501D01*
X382002Y750000D01*
X381002Y747501D02*
Y750500D01*
X379502D01*
X379002Y750000D01*
Y749500D01*
X379502Y749000D01*
X381002D01*
X379502D01*
X379002Y748501D01*
Y748001D01*
X379502Y747501D01*
X381002D01*
X373004D02*
X375004D01*
Y750500D01*
X373004D01*
X375004Y749000D02*
X374004D01*
X372005Y747501D02*
Y750500D01*
X370505D01*
X370005Y750000D01*
Y748001D01*
X370505Y747501D01*
X372005D01*
X367006Y748001D02*
X367506Y747501D01*
X368506D01*
X369006Y748001D01*
Y750000D01*
X368506Y750500D01*
X367506D01*
X367006Y750000D01*
Y749000D01*
X368006D01*
X364007Y747501D02*
X366007D01*
Y750500D01*
X364007D01*
X366007Y749000D02*
X365007D01*
X514500Y751500D02*
Y748501D01*
X513000D01*
X512500Y749001D01*
Y750001D01*
X513000Y750500D01*
X514500D01*
X509501Y749001D02*
X510001Y748501D01*
X511001D01*
X511501Y749001D01*
Y751000D01*
X511001Y751500D01*
X510001D01*
X509501Y751000D01*
X508502Y748501D02*
Y751500D01*
X507002D01*
X506502Y751000D01*
Y750500D01*
X507002Y750001D01*
X508502D01*
X507002D01*
X506502Y749501D01*
Y749001D01*
X507002Y748501D01*
X508502D01*
X500504D02*
X502504D01*
Y751500D01*
X500504D01*
X502504Y750001D02*
X501504D01*
X499505Y748501D02*
Y751500D01*
X498005D01*
X497505Y751000D01*
Y749001D01*
X498005Y748501D01*
X499505D01*
X494506Y749001D02*
X495006Y748501D01*
X496006D01*
X496506Y749001D01*
Y751000D01*
X496006Y751500D01*
X495006D01*
X494506Y751000D01*
Y750001D01*
X495506D01*
X491507Y748501D02*
X493507D01*
Y751500D01*
X491507D01*
X493507Y750001D02*
X492507D01*
M02*
