M48
;Layer_Color=9474304
;FILE_FORMAT=4:4
METRIC,LZ
;TYPE=PLATED
T03F00S00C0.6000
T06F00S00C1.0000
%
G90
G05
T03
G00X004075Y007395
M15
G01Y007325
M16
G00X004775Y007395
M15
G01Y007325
M16
G00X0035Y007385
M15
G01Y007315
M16
G00X0028Y007385
M15
G01Y007315
M16
T06
G00X000825Y0012575
M15
G01Y0011225
M16
G00X001275Y0012575
M15
G01Y0011225
M16
G00X001275Y0018925
M15
G01Y0017575
M16
G00X000825Y0018925
M15
G01Y0017575
M16
G00X012125Y0016325
M15
G01Y0017675
M16
G00X012575Y0016325
M15
G01Y0017675
M16
G00X012575Y0009975
M15
G01Y0011325
M16
G00X012125Y0009975
M15
G01Y0011325
M16
G00X012125Y004115
M15
G01Y00425
M16
G00X012575Y004115
M15
G01Y00425
M16
G00X012575Y00475
M15
G01Y004885
M16
G00X012125Y00475
M15
G01Y004885
M16
G00X001275Y0050025
M15
G01Y0048675
M16
G00X000825Y0050025
M15
G01Y0048675
M16
G00X000825Y0043675
M15
G01Y0042325
M16
G00X001275Y0043675
M15
G01Y0042325
M16
M17
M30
