G04*
G04 #@! TF.GenerationSoftware,Altium Limited,Altium Designer,25.2.1 (25)*
G04*
G04 Layer_Color=8388736*
%FSLAX44Y44*%
%MOMM*%
G71*
G04*
G04 #@! TF.SameCoordinates,47AF1686-E751-4D8C-A91A-F2C49F431613*
G04*
G04*
G04 #@! TF.FilePolarity,Positive*
G04*
G01*
G75*
%ADD11C,0.2000*%
D11*
X462479Y544067D02*
Y564167D01*
X474979D01*
Y544067D02*
Y564167D01*
X462479Y544067D02*
X474979D01*
X465429Y482382D02*
Y502481D01*
X452929Y482382D02*
X465429D01*
X452929D02*
Y502481D01*
X465429D01*
X435408Y545579D02*
Y565679D01*
X447908D01*
Y545579D02*
Y565679D01*
X435408Y545579D02*
X447908D01*
X326250Y289950D02*
Y310050D01*
X338750D01*
Y289950D02*
Y310050D01*
X326250Y289950D02*
X338750D01*
X462510Y394354D02*
X475010D01*
X462510Y374254D02*
Y394354D01*
Y374254D02*
X475010D01*
Y394354D01*
X462510Y411645D02*
X475010D01*
Y431745D01*
X462510D02*
X475010D01*
X462510Y411645D02*
Y431745D01*
X374115Y365112D02*
X394215D01*
Y352612D02*
Y365112D01*
X374115Y352612D02*
X394215D01*
X374115D02*
Y365112D01*
X330945Y584348D02*
X351045D01*
X330945D02*
Y596848D01*
X351045D01*
Y584348D02*
Y596848D01*
X333582Y352612D02*
X353683D01*
X333582D02*
Y365112D01*
X353683D01*
Y352612D02*
Y365112D01*
X333071Y232375D02*
X353171D01*
X333071D02*
Y244875D01*
X353171D01*
Y232375D02*
Y244875D01*
X372513D02*
X392613D01*
Y232375D02*
Y244875D01*
X372513Y232375D02*
X392613D01*
X372513D02*
Y244875D01*
X946146Y233711D02*
X966246D01*
X946146D02*
Y246211D01*
X966246D01*
Y233711D02*
Y246211D01*
X986829Y246691D02*
X1006929D01*
Y234191D02*
Y246691D01*
X986829Y234191D02*
X1006929D01*
X986829D02*
Y246691D01*
Y368531D02*
X1006929D01*
Y356031D02*
Y368531D01*
X986829Y356031D02*
X1006929D01*
X986829D02*
Y368531D01*
X946829Y356031D02*
X966929D01*
X946829D02*
Y368531D01*
X966929D01*
Y356031D02*
Y368531D01*
X1013750Y289950D02*
Y310050D01*
X1001250Y289950D02*
X1013750D01*
X1001250D02*
Y310050D01*
X1013750D01*
X726474Y502262D02*
Y522362D01*
X738974D01*
Y502262D02*
Y522362D01*
X726474Y502262D02*
X738974D01*
X311250Y609950D02*
Y630050D01*
X298750Y609950D02*
X311250D01*
X298750D02*
Y630050D01*
X311250D01*
X326250Y609950D02*
Y630050D01*
X338750D01*
Y609950D02*
Y630050D01*
X326250Y609950D02*
X338750D01*
X423750Y480000D02*
X436250D01*
Y500000D01*
X423750D02*
X436250D01*
X423750Y480000D02*
Y500000D01*
X440338Y265748D02*
Y285748D01*
X452838D01*
Y265748D02*
Y285748D01*
X440338Y265748D02*
X452838D01*
X410338Y265239D02*
Y285240D01*
X422838D01*
Y265239D02*
Y285240D01*
X410338Y265239D02*
X422838D01*
X440338Y333248D02*
X452838D01*
X440338Y313248D02*
Y333248D01*
Y313248D02*
X452838D01*
Y333248D01*
X422838Y313248D02*
Y333248D01*
X410338Y313248D02*
X422838D01*
X410338D02*
Y333248D01*
X422838D01*
X1296250Y127500D02*
Y147500D01*
X1308750D01*
Y127500D02*
Y147500D01*
X1296250Y127500D02*
X1308750D01*
X1296250Y437500D02*
X1308750D01*
Y457500D01*
X1296250D02*
X1308750D01*
X1296250Y437500D02*
Y457500D01*
X46250Y140000D02*
Y160000D01*
X33750Y140000D02*
X46250D01*
X33750D02*
Y160000D01*
X46250D01*
Y452500D02*
Y472500D01*
X33750Y452500D02*
X46250D01*
X33750D02*
Y472500D01*
X46250D01*
X896250Y315000D02*
Y335000D01*
X883750Y315000D02*
X896250D01*
X883750D02*
Y335000D01*
X896250D01*
X928750Y315000D02*
Y335000D01*
X916250Y315000D02*
X928750D01*
X916250D02*
Y335000D01*
X928750D01*
X916250Y264491D02*
Y284491D01*
X928750D01*
Y264491D02*
Y284491D01*
X916250Y264491D02*
X928750D01*
X679000Y643000D02*
X701000D01*
X679000D02*
Y657000D01*
X701000D01*
Y643000D02*
Y657000D01*
X584000Y253000D02*
Y267000D01*
Y253000D02*
X606000D01*
Y267000D01*
X584000D02*
X606000D01*
X477169Y157500D02*
Y177500D01*
X464669Y157500D02*
X477169D01*
X464669D02*
Y177500D01*
X477169D01*
X608750Y157500D02*
Y177500D01*
X596250Y157500D02*
X608750D01*
X596250D02*
Y177500D01*
X608750D01*
X634000Y267000D02*
X656000D01*
Y253000D02*
Y267000D01*
X634000Y253000D02*
X656000D01*
X634000D02*
Y267000D01*
X731250Y178009D02*
X743750D01*
X731250Y158008D02*
Y178009D01*
Y158008D02*
X743750D01*
Y178009D01*
X876250Y157500D02*
Y177500D01*
X863750Y157500D02*
X876250D01*
X863750D02*
Y177500D01*
X876250D01*
X684000Y267000D02*
X706000D01*
Y253000D02*
Y267000D01*
X684000Y253000D02*
X706000D01*
X684000D02*
Y267000D01*
X1006250Y157500D02*
Y177500D01*
X993750Y157500D02*
X1006250D01*
X993750D02*
Y177500D01*
X1006250D01*
X734000Y267000D02*
X756000D01*
Y253000D02*
Y267000D01*
X734000Y253000D02*
X756000D01*
X734000D02*
Y267000D01*
X598500Y623500D02*
X661500D01*
Y686500D01*
X598500D02*
X661500D01*
X598500Y623500D02*
Y686500D01*
X338500Y473500D02*
X401500D01*
Y536500D01*
X338500D02*
X401500D01*
X338500Y473500D02*
Y536500D01*
X903500Y199000D02*
X966500D01*
Y136000D02*
Y199000D01*
X903500Y136000D02*
X966500D01*
X903500D02*
Y199000D01*
X773500Y199000D02*
X836500D01*
Y136000D02*
Y199000D01*
X773500Y136000D02*
X836500D01*
X773500D02*
Y199000D01*
X638500D02*
X701500D01*
Y136000D02*
Y199000D01*
X638500Y136000D02*
X701500D01*
X638500D02*
Y199000D01*
X503500D02*
X566500D01*
Y136000D02*
Y199000D01*
X503500Y136000D02*
X566500D01*
X503500D02*
Y199000D01*
X371919Y199000D02*
X434919D01*
Y136000D02*
Y199000D01*
X371919Y136000D02*
X434919D01*
X371919D02*
Y199000D01*
X698055Y501879D02*
Y521979D01*
X710555D01*
Y501879D02*
Y521979D01*
X698055Y501879D02*
X710555D01*
X1019500Y353500D02*
X1273500D01*
Y560500D01*
X1019500D02*
X1273500D01*
X1019500Y353500D02*
Y560500D01*
X66500Y558250D02*
X320500D01*
X66500Y351250D02*
Y558250D01*
Y351250D02*
X320500D01*
Y558250D01*
X66500Y247250D02*
X320500D01*
X66500Y40250D02*
Y247250D01*
Y40250D02*
X320500D01*
Y247250D01*
X953790Y621250D02*
Y678750D01*
Y621250D02*
X1027790D01*
Y678750D01*
X953790D02*
X1027790D01*
X757475Y632475D02*
X822525D01*
Y667525D01*
X757475D02*
X822525D01*
X757475Y632475D02*
Y667525D01*
X1019500Y41750D02*
X1273500D01*
Y248750D01*
X1019500D02*
X1273500D01*
X1019500Y41750D02*
Y248750D01*
M02*
