M48
;Layer_Color=9474304
;FILE_FORMAT=4:4
METRIC,LZ
;TYPE=PLATED
T01F00S00C0.2000
T02F00S00C0.5000
T04F00S00C0.8500
T05F00S00C1.0000
T07F00S00C1.5000
%
T01
X00406Y006265
Y006375
Y006485
X0056855Y004994
X0056155Y004924
X0056855Y004854
X0057555Y004924
X0058255Y004854
X0058955Y004924
Y004784
X0057555
X0056155
X0056855Y004714
X0058255
Y004994
X00395Y006265
X00384
Y006375
X00395
Y006485
X00384
T02
X003375Y002125
X003725
X00375Y003425
X00415Y002475
X004475
X00585Y003675
X006175Y003625
X0063
X006425
X00655
X00705Y0036
X007125Y0037
X0072Y0038
X00728893Y00387553
X0074Y003875
X006975Y0035
X0069Y0034
X0089Y00355
X009225
X00965Y002575
X0095Y004625
Y004825
X00949544Y00502956
X00949544Y00522956
X007675Y005825
Y006025
X00695Y0055
X0069485Y0053735
X0065Y00525
Y005125
X006625Y00495
X006525Y004525
X006425Y00445
X006325Y004375
X006225Y0043
X0061Y004025
X005975
X005725
X0056
X00546055Y00402762
X005225Y004025
X0053Y00415
X0051548Y00499709
X004875Y004875
X00485Y005118
X004855Y005245
X00425Y005475
X00441628Y00577313
X00445Y00685
X004575
X00545Y006125
X005525Y005975
X00745Y004825
Y0046
X00375Y006025
X0035Y006425
X00335Y0069
X003125Y0068
X00285Y006275
T04
X004175Y00709
X004675
X0034Y00708
X0029
T05
X00185Y0005325
X0021
X00235
X003075Y0012575
Y0015075
Y0017575
X00370919Y0019
Y00145
X00235Y0036425
X0021
X00185
X005175Y003004
Y00275
Y002496
X005025Y0019
Y00145
X005675
Y0019
X006375
Y00145
X007025
Y0019
X007725
Y00145
X00435919Y00145
Y0019
X008375Y0019
Y00145
X009025Y00145
Y0019
X009675
Y00145
X010325Y0013825
Y0011325
Y0016325
X01105Y0023575
X0113
X01155
X0082Y002471
Y002725
Y002979
X010325Y00425
Y0045
Y00475
X01105Y005475
X0113
X01155
X0100329Y0065525
X0097829
X009104Y0065
X00885
X008596
X006525Y006225
X006075
Y006875
X006525
X003925Y005375
X003475
Y004725
X003925
X003075Y0046175
Y0048675
Y0043675
T07
X001435Y0007325
X002765
Y0022825
X001435
Y0038425
X002765
X010635Y003725
Y0021575
Y0006075
X011965
Y0021575
Y003725
Y005275
X010635
X002765Y0053925
X001435
M30
