G04*
G04 #@! TF.GenerationSoftware,Altium Limited,Altium Designer,25.2.1 (25)*
G04*
G04 Layer_Physical_Order=1*
G04 Layer_Color=255*
%FSLAX44Y44*%
%MOMM*%
G71*
G04*
G04 #@! TF.SameCoordinates,47AF1686-E751-4D8C-A91A-F2C49F431613*
G04*
G04*
G04 #@! TF.FilePolarity,Positive*
G04*
G01*
G75*
%ADD13C,0.2540*%
%ADD15C,0.5000*%
%ADD16R,1.5000X1.9000*%
%ADD17R,0.4000X1.3500*%
%ADD18R,0.9000X0.9000*%
%ADD19R,1.5000X0.9000*%
%ADD20R,0.9000X1.5000*%
%ADD21R,1.4562X1.3046*%
%ADD22R,1.3562X1.1046*%
%ADD23R,1.3046X1.4562*%
%ADD24R,1.1000X1.3000*%
%ADD25R,1.5082X1.2065*%
%ADD26R,0.9500X1.4500*%
%ADD27O,0.9500X0.2000*%
%ADD28R,3.1300X3.1300*%
%ADD29O,0.2000X0.9500*%
%ADD30O,0.3000X2.0000*%
%ADD31R,2.8000X1.1000*%
%ADD32R,2.6000X1.1000*%
G04:AMPARAMS|DCode=33|XSize=1.0043mm|YSize=3.1821mm|CornerRadius=0.4369mm|HoleSize=0mm|Usage=FLASHONLY|Rotation=90.000|XOffset=0mm|YOffset=0mm|HoleType=Round|Shape=RoundedRectangle|*
%AMROUNDEDRECTD33*
21,1,1.0043,2.3084,0,0,90.0*
21,1,0.1306,3.1821,0,0,90.0*
1,1,0.8737,1.1542,0.0653*
1,1,0.8737,1.1542,-0.0653*
1,1,0.8737,-1.1542,-0.0653*
1,1,0.8737,-1.1542,0.0653*
%
%ADD33ROUNDEDRECTD33*%
G04:AMPARAMS|DCode=34|XSize=1.0043mm|YSize=0.8721mm|CornerRadius=0.4361mm|HoleSize=0mm|Usage=FLASHONLY|Rotation=90.000|XOffset=0mm|YOffset=0mm|HoleType=Round|Shape=RoundedRectangle|*
%AMROUNDEDRECTD34*
21,1,1.0043,0.0000,0,0,90.0*
21,1,0.1322,0.8721,0,0,90.0*
1,1,0.8721,0.0000,0.0661*
1,1,0.8721,0.0000,-0.0661*
1,1,0.8721,0.0000,-0.0661*
1,1,0.8721,0.0000,0.0661*
%
%ADD34ROUNDEDRECTD34*%
%ADD35R,0.8721X1.0043*%
%ADD50C,1.5500*%
%ADD51R,1.5500X1.5500*%
%ADD54R,1.5500X1.5500*%
G04:AMPARAMS|DCode=56|XSize=2.95mm|YSize=1.6mm|CornerRadius=0.8mm|HoleSize=0mm|Usage=FLASHONLY|Rotation=90.000|XOffset=0mm|YOffset=0mm|HoleType=Round|Shape=RoundedRectangle|*
%AMROUNDEDRECTD56*
21,1,2.9500,0.0000,0,0,90.0*
21,1,1.3500,1.6000,0,0,90.0*
1,1,1.6000,0.0000,0.6750*
1,1,1.6000,0.0000,-0.6750*
1,1,1.6000,0.0000,-0.6750*
1,1,1.6000,0.0000,0.6750*
%
%ADD56ROUNDEDRECTD56*%
%ADD57C,2.3000*%
%ADD60C,0.7500*%
%ADD61C,1.4500*%
%ADD62C,0.4000*%
%ADD63R,1.5080X1.5080*%
%ADD64C,1.5080*%
%ADD65R,1.5080X1.5080*%
%ADD66C,0.7500*%
%ADD67C,0.5000*%
G36*
X483500Y731500D02*
X478500D01*
Y740500D01*
X483500D01*
X483500Y731500D01*
D02*
G37*
G36*
X406500Y731500D02*
X401500D01*
X401500Y740500D01*
X406500D01*
Y731500D01*
D02*
G37*
G36*
X356000Y730500D02*
X351000D01*
Y739500D01*
X356000D01*
X356000Y730500D01*
D02*
G37*
G36*
X279000Y730500D02*
X274000D01*
X274000Y739500D01*
X279000D01*
Y730500D01*
D02*
G37*
G36*
X478500Y726500D02*
X465500D01*
Y745500D01*
X478500D01*
Y726500D01*
D02*
G37*
G36*
X419500D02*
X406500D01*
Y745500D01*
X419500D01*
Y726500D01*
D02*
G37*
G36*
X351000Y725500D02*
X338000D01*
Y744500D01*
X351000D01*
Y725500D01*
D02*
G37*
G36*
X292000D02*
X279000D01*
Y744500D01*
X292000D01*
Y725500D01*
D02*
G37*
G36*
X809169Y737460D02*
X785854Y714146D01*
X784584Y712243D01*
X784137Y710000D01*
Y690096D01*
X778458D01*
X775973Y689602D01*
X773866Y688194D01*
X772459Y686088D01*
X771965Y683603D01*
Y682297D01*
X772459Y679812D01*
X773866Y677706D01*
X775973Y676298D01*
X778458Y675804D01*
X784137D01*
Y662428D01*
X767954Y646245D01*
X760955Y653244D01*
X759467Y654239D01*
X757711Y654588D01*
X748000D01*
Y658500D01*
X733000D01*
Y641500D01*
X748000D01*
Y645412D01*
X755810D01*
X763148Y638074D01*
X763439Y636612D01*
X764710Y634710D01*
X766612Y633439D01*
X768074Y633148D01*
X774120Y627102D01*
X773019Y624612D01*
X768370D01*
Y618320D01*
X774001D01*
Y623629D01*
X776491Y624731D01*
X783515Y617707D01*
Y616389D01*
X784008Y613907D01*
X785412Y611807D01*
Y597088D01*
X774576D01*
X774035Y597662D01*
X773119Y599628D01*
X773782Y601230D01*
X761218D01*
X761881Y599628D01*
X760965Y597662D01*
X760424Y597088D01*
X565000D01*
X563244Y596739D01*
X561756Y595744D01*
X560032Y594020D01*
X557878Y595459D01*
X558250Y596356D01*
Y598644D01*
X557375Y600757D01*
X555834Y602298D01*
Y615000D01*
X555580Y616276D01*
X554857Y617357D01*
X494857Y677357D01*
X493776Y678080D01*
X492500Y678334D01*
X462558D01*
X461506Y680874D01*
X462375Y681743D01*
X463250Y683856D01*
Y686144D01*
X462375Y688257D01*
X460757Y689875D01*
X458644Y690750D01*
X457192D01*
X452334Y695608D01*
Y700250D01*
X459500D01*
X459500Y700250D01*
X462040Y700848D01*
X463721Y699877D01*
X466211Y699210D01*
X466230D01*
Y709000D01*
Y718790D01*
X466211D01*
X463721Y718123D01*
X462040Y717152D01*
X459500Y717750D01*
Y717750D01*
X434040D01*
Y718290D01*
X432834D01*
Y723960D01*
X451230D01*
Y736000D01*
X453770D01*
Y723960D01*
X462540D01*
Y723960D01*
X465080Y724544D01*
X465500Y724461D01*
X478339D01*
X478500Y724440D01*
X480327Y724680D01*
X482030Y725386D01*
X483492Y726507D01*
X484614Y727970D01*
X485320Y729673D01*
X485560Y731500D01*
X485539Y731661D01*
X485539Y738204D01*
X487335Y740000D01*
X808117D01*
X809169Y737460D01*
D02*
G37*
G36*
X399461Y731663D02*
X399440Y731500D01*
X399680Y729673D01*
X400386Y727970D01*
X401507Y726507D01*
X402970Y725386D01*
X404673Y724680D01*
X406500Y724440D01*
X406661Y724461D01*
X419500D01*
X419920Y724544D01*
X422460Y723960D01*
X422460Y723960D01*
X426166D01*
Y720331D01*
X424960Y718290D01*
X422420Y717464D01*
X421279Y718123D01*
X418789Y718790D01*
X418770D01*
Y709000D01*
Y699210D01*
X418789D01*
X421279Y699877D01*
X422420Y700536D01*
X424960Y699710D01*
Y699710D01*
X428230D01*
Y709000D01*
X430770D01*
Y699710D01*
X434040D01*
Y700250D01*
X439166D01*
Y693891D01*
X439154Y693830D01*
Y688854D01*
X439408Y687578D01*
X439677Y687175D01*
X439250Y686144D01*
Y683856D01*
X440125Y681743D01*
X440994Y680874D01*
X439942Y678334D01*
X396541D01*
X395265Y678080D01*
X394183Y677357D01*
X387912Y671087D01*
X387190Y670005D01*
X385000Y669059D01*
X383829Y668826D01*
X382500Y668297D01*
X381171Y668826D01*
X380000Y669059D01*
X378829Y668826D01*
X377837Y668163D01*
X377174Y667170D01*
X376941Y666000D01*
Y658500D01*
X377174Y657329D01*
X377521Y656810D01*
X375690Y654979D01*
X375171Y655326D01*
X374000Y655559D01*
X366500D01*
X365330Y655326D01*
X364337Y654663D01*
X363674Y653671D01*
X363441Y652500D01*
X363674Y651329D01*
X364203Y650000D01*
X363674Y648671D01*
X363441Y647500D01*
X363674Y646329D01*
X363948Y645052D01*
X363165Y643881D01*
X362891Y642500D01*
X360632Y640834D01*
X357072D01*
X355750Y642157D01*
Y643644D01*
X354875Y645757D01*
X353257Y647375D01*
X351144Y648250D01*
X348856D01*
X346743Y647375D01*
X345125Y645757D01*
X345125Y645755D01*
X342128Y645159D01*
X323814Y663473D01*
Y680415D01*
X323857Y680459D01*
X324580Y681540D01*
X324834Y682816D01*
Y691859D01*
X327374Y692911D01*
X329250Y691035D01*
Y688856D01*
X330125Y686743D01*
X331743Y685125D01*
X333856Y684250D01*
X336144D01*
X338257Y685125D01*
X339875Y686743D01*
X340750Y688856D01*
Y691144D01*
X339875Y693257D01*
X338257Y694875D01*
X336144Y695750D01*
X334953D01*
X332884Y697842D01*
X332886Y698038D01*
X332922Y698101D01*
X336092Y698952D01*
X336221Y698877D01*
X338711Y698210D01*
X338730D01*
Y708000D01*
Y717790D01*
X338711D01*
X336221Y717123D01*
X334540Y716152D01*
X332000Y716750D01*
Y716750D01*
X306540D01*
Y717290D01*
X303270D01*
Y708000D01*
Y698710D01*
X306540D01*
Y699250D01*
X309601D01*
X310653Y696710D01*
X310142Y696200D01*
X309420Y695118D01*
X309166Y693842D01*
Y684798D01*
X307625Y683257D01*
X306750Y681144D01*
Y678856D01*
X307625Y676743D01*
X309243Y675125D01*
X311356Y674250D01*
X313644D01*
X314606Y674649D01*
X317146Y673195D01*
Y662092D01*
X317400Y660816D01*
X318123Y659735D01*
X340736Y637121D01*
X339684Y634581D01*
X323719D01*
Y630392D01*
X314281D01*
Y636581D01*
X295719D01*
Y630834D01*
X289798D01*
X288257Y632375D01*
X286144Y633250D01*
X283856D01*
X281743Y632375D01*
X280125Y630757D01*
X279250Y628644D01*
Y626356D01*
X280125Y624243D01*
X281743Y622625D01*
X283856Y621750D01*
X286144D01*
X288257Y622625D01*
X289798Y624166D01*
X295719D01*
Y621005D01*
X295179D01*
Y613212D01*
X314821D01*
Y621005D01*
X314281D01*
Y623724D01*
X323719D01*
Y621005D01*
X323179D01*
Y614212D01*
X341821D01*
Y621005D01*
X341281D01*
Y624166D01*
X348632D01*
X349604Y621819D01*
X347643Y619857D01*
X346920Y618776D01*
X346666Y617500D01*
Y599879D01*
X342000D01*
Y600419D01*
X334207D01*
Y590598D01*
Y580777D01*
X342000D01*
Y581317D01*
X357576D01*
Y599879D01*
X353334D01*
Y616119D01*
X356381Y619166D01*
X370250D01*
X371526Y619420D01*
X371558Y619441D01*
X374000D01*
X375171Y619674D01*
X375690Y620021D01*
X377521Y618190D01*
X377174Y617671D01*
X376941Y616500D01*
Y614058D01*
X376920Y614026D01*
X376666Y612750D01*
Y610921D01*
X373995Y608250D01*
X373856D01*
X371743Y607375D01*
X370125Y605757D01*
X369250Y603644D01*
Y601356D01*
X370125Y599243D01*
X371743Y597625D01*
X373856Y596750D01*
X376144D01*
X378257Y597625D01*
X379126Y598494D01*
X381666Y597442D01*
Y546348D01*
X381920Y545072D01*
X382643Y543991D01*
X384130Y542503D01*
X383414Y541263D01*
X382750Y538784D01*
Y536216D01*
X383414Y533737D01*
X384698Y531513D01*
X386513Y529698D01*
X388737Y528414D01*
X391216Y527750D01*
X393784D01*
X395953Y528331D01*
X420459Y503826D01*
Y492476D01*
X439541D01*
Y497155D01*
X449898D01*
Y493437D01*
X449358D01*
Y485644D01*
X469000D01*
Y493437D01*
X468460D01*
Y509012D01*
X464820D01*
X463768Y511553D01*
X477210Y524995D01*
X479750Y523943D01*
Y523356D01*
X480625Y521243D01*
X482243Y519625D01*
X482236Y516879D01*
X481743Y516675D01*
X480125Y515057D01*
X479250Y512944D01*
Y510656D01*
X480125Y508543D01*
X481743Y506925D01*
X483856Y506050D01*
X486144D01*
X488257Y506925D01*
X489798Y508466D01*
X493550D01*
Y493174D01*
X492255Y492356D01*
X491010Y492122D01*
X490757Y492375D01*
X488644Y493250D01*
X486356D01*
X484243Y492375D01*
X482625Y490757D01*
X481750Y488644D01*
Y486356D01*
X482625Y484243D01*
X484243Y482625D01*
X486356Y481750D01*
X488644D01*
X490757Y482625D01*
X491010Y482878D01*
X493550Y481826D01*
Y467200D01*
Y454500D01*
Y441800D01*
Y429100D01*
Y413534D01*
X486181D01*
X482720Y416995D01*
X481638Y417718D01*
X480363Y417971D01*
X477541D01*
Y420690D01*
X478081D01*
Y427483D01*
X459439D01*
Y420690D01*
X459979D01*
Y407114D01*
X477541D01*
Y409152D01*
X480081Y410204D01*
X482443Y407842D01*
X483524Y407120D01*
X484800Y406866D01*
X493550D01*
Y400834D01*
X487500D01*
X486224Y400580D01*
X485143Y399857D01*
X480081Y394796D01*
X477541Y395848D01*
Y398885D01*
X459979D01*
Y385309D01*
X459439D01*
Y378516D01*
X478081D01*
Y385309D01*
X479294Y387347D01*
X480681D01*
X481957Y387601D01*
X483038Y388323D01*
X488881Y394166D01*
X493550D01*
Y391000D01*
X512550D01*
X514200Y389143D01*
Y375500D01*
X581666D01*
Y372298D01*
X580125Y370757D01*
X579250Y368644D01*
Y366356D01*
X580125Y364243D01*
X581743Y362625D01*
X583856Y361750D01*
X586144D01*
X588257Y362625D01*
X589875Y364243D01*
X590750Y366356D01*
Y368644D01*
X589875Y370757D01*
X588334Y372298D01*
Y375500D01*
X666900D01*
Y389143D01*
X668550Y391000D01*
X686946D01*
Y344959D01*
X686743Y344875D01*
X685125Y343257D01*
X684250Y341144D01*
Y338856D01*
X685125Y336743D01*
X686743Y335125D01*
X688856Y334250D01*
X691144D01*
X693257Y335125D01*
X694875Y336743D01*
X695750Y338856D01*
Y341144D01*
X695435Y341903D01*
X695673Y342508D01*
X697200Y344250D01*
X698644D01*
X700757Y345125D01*
X702375Y346743D01*
X703250Y348856D01*
Y351144D01*
X702935Y351903D01*
X703173Y352508D01*
X704700Y354250D01*
X706144D01*
X708257Y355125D01*
X709875Y356743D01*
X710750Y358856D01*
Y361144D01*
X710435Y361903D01*
X710673Y362508D01*
X712200Y364250D01*
X713644D01*
X715757Y365125D01*
X717375Y366743D01*
X718250Y368856D01*
Y371144D01*
X717935Y371903D01*
X718173Y372508D01*
X719700Y374250D01*
X721144D01*
X723257Y375125D01*
X724875Y376743D01*
X725750Y378856D01*
Y379882D01*
X727606Y381665D01*
X728097Y381803D01*
X730037D01*
X732150Y382679D01*
X732768Y383296D01*
X734482Y383985D01*
X736079Y383289D01*
X736743Y382625D01*
X738856Y381750D01*
X741144D01*
X743257Y382625D01*
X744875Y384243D01*
X745750Y386356D01*
Y388644D01*
X744875Y390757D01*
X743547Y392085D01*
Y439787D01*
X743293Y441063D01*
X742570Y442145D01*
X695957Y488758D01*
X694876Y489480D01*
X693600Y489734D01*
X687550D01*
Y505300D01*
Y518000D01*
Y530700D01*
Y533925D01*
X690090Y533978D01*
X691593Y532475D01*
X693706Y531600D01*
X695994D01*
X698107Y532475D01*
X699725Y534093D01*
X700600Y536206D01*
Y538494D01*
X699725Y540607D01*
X698107Y542225D01*
X697999Y542269D01*
Y545019D01*
X698257Y545125D01*
X699875Y546743D01*
X700750Y548856D01*
Y551144D01*
X699875Y553257D01*
X698257Y554875D01*
X696144Y555750D01*
X693856D01*
X691743Y554875D01*
X691008Y554139D01*
X688247Y554854D01*
X688090Y555560D01*
X688090D01*
Y561330D01*
X668010D01*
Y555560D01*
X668550D01*
Y543400D01*
Y527834D01*
X655050D01*
X654875Y528257D01*
X653257Y529875D01*
X651144Y530750D01*
X648856D01*
X646743Y529875D01*
X645125Y528257D01*
X644250Y526144D01*
Y523856D01*
X645125Y521743D01*
X646743Y520125D01*
X646745Y520125D01*
Y517375D01*
X646743Y517375D01*
X645125Y515757D01*
X644250Y513644D01*
Y511356D01*
X645125Y509243D01*
X646743Y507625D01*
X648856Y506750D01*
X651144D01*
X653257Y507625D01*
X654798Y509166D01*
X668550D01*
Y500674D01*
X666010Y499622D01*
X665757Y499875D01*
X663644Y500750D01*
X661356D01*
X659243Y499875D01*
X657625Y498257D01*
X656750Y496144D01*
Y493856D01*
X657625Y491743D01*
X659166Y490202D01*
Y457558D01*
X656626Y456506D01*
X655757Y457375D01*
X653644Y458250D01*
X651465D01*
X645048Y464668D01*
X643966Y465390D01*
X642690Y465644D01*
X531571D01*
X521157Y476058D01*
X520076Y476780D01*
X518800Y477034D01*
X512550D01*
Y491950D01*
X514336Y493959D01*
X516624D01*
X518737Y494835D01*
X520355Y496452D01*
X521230Y498566D01*
Y500853D01*
X520355Y502966D01*
X518737Y504584D01*
X516624Y505459D01*
X514336D01*
X512550Y507469D01*
Y518000D01*
Y530700D01*
Y545312D01*
X522400D01*
X524156Y545661D01*
X525644Y546656D01*
X566900Y587912D01*
X760424D01*
X760965Y587338D01*
X761881Y585372D01*
X761218Y583770D01*
X773782D01*
X773119Y585372D01*
X774035Y587338D01*
X774576Y587912D01*
X785412D01*
Y550996D01*
X770575D01*
Y542956D01*
Y534916D01*
X784229D01*
X784754Y533159D01*
X783086Y530996D01*
X769575D01*
Y522956D01*
X767035D01*
Y530996D01*
X752765D01*
Y524958D01*
X742545D01*
Y529433D01*
X733994D01*
Y520370D01*
X731454D01*
Y529433D01*
X722903D01*
Y523575D01*
X713626D01*
Y527050D01*
X705575D01*
Y518987D01*
X704305D01*
Y517717D01*
X694984D01*
Y510924D01*
X695524D01*
Y497348D01*
X713086D01*
Y500283D01*
X723443D01*
Y495731D01*
X742005D01*
Y499666D01*
X753305D01*
Y495456D01*
X783305D01*
Y503967D01*
X793244Y513907D01*
X794239Y515395D01*
X794588Y517151D01*
Y592500D01*
Y611807D01*
X795992Y613907D01*
X796485Y616389D01*
Y617711D01*
X795992Y620193D01*
X794586Y622297D01*
X792482Y623702D01*
X790004Y624195D01*
X776245Y637954D01*
X794146Y655854D01*
X795416Y657757D01*
X795863Y660000D01*
Y675804D01*
X801542D01*
X804027Y676298D01*
X806133Y677706D01*
X807541Y679812D01*
X808035Y682297D01*
Y683603D01*
X807541Y686088D01*
X806133Y688194D01*
X804027Y689602D01*
X801542Y690096D01*
X795863D01*
Y707572D01*
X817428Y729137D01*
X1300072D01*
X1326637Y702572D01*
Y553363D01*
X1164750D01*
Y557250D01*
X1145250D01*
Y537750D01*
X1149137D01*
Y514928D01*
X1115072Y480863D01*
X1095388D01*
X1094526Y483403D01*
X1095698Y484302D01*
X1098102Y487435D01*
X1099614Y491084D01*
X1100129Y495000D01*
X1099614Y498916D01*
X1098102Y502565D01*
X1095698Y505698D01*
X1092565Y508102D01*
X1090394Y509002D01*
X1089760Y511961D01*
X1119571Y541771D01*
X1122170Y541561D01*
X1122198Y541513D01*
X1124013Y539698D01*
X1126237Y538414D01*
X1128716Y537750D01*
X1131284D01*
X1133763Y538414D01*
X1135987Y539698D01*
X1137802Y541513D01*
X1139085Y543737D01*
X1139750Y546216D01*
Y548784D01*
X1139085Y551263D01*
X1137802Y553487D01*
X1135987Y555302D01*
X1133763Y556586D01*
X1131284Y557250D01*
X1128716D01*
X1126237Y556586D01*
X1124013Y555302D01*
X1122198Y553487D01*
X1120915Y551263D01*
X1120250Y548784D01*
Y548689D01*
X1118440D01*
X1117830Y548568D01*
X1116826Y548681D01*
X1114976Y550028D01*
X1114589Y551472D01*
X1113234Y553818D01*
X1111318Y555734D01*
X1108972Y557089D01*
X1106355Y557790D01*
X1106270D01*
Y547500D01*
X1105000D01*
Y546230D01*
X1094710D01*
Y546145D01*
X1095411Y543528D01*
X1096766Y541182D01*
X1098682Y539266D01*
X1101028Y537911D01*
X1102338Y537560D01*
X1103147Y534777D01*
X1083996Y515626D01*
X1074310D01*
X1073258Y518167D01*
X1074303Y519211D01*
X1076080Y522289D01*
X1077000Y525723D01*
Y529277D01*
X1076080Y532711D01*
X1074303Y535789D01*
X1071789Y538303D01*
X1068711Y540080D01*
X1065277Y541000D01*
X1061723D01*
X1058289Y540080D01*
X1055211Y538303D01*
X1052697Y535789D01*
X1050920Y532711D01*
X1050000Y529277D01*
Y525723D01*
X1050920Y522289D01*
X1052697Y519211D01*
X1053742Y518167D01*
X1052690Y515626D01*
X1042292D01*
X1041016Y515373D01*
X1039935Y514650D01*
X962579Y437294D01*
X961857Y436213D01*
X961603Y434937D01*
Y371562D01*
X957884D01*
Y372102D01*
X950091D01*
Y362281D01*
Y352460D01*
X957884D01*
Y353000D01*
X968745D01*
X971666Y350079D01*
Y335327D01*
X970231Y333382D01*
X967610Y333181D01*
X967270Y333691D01*
X964333Y336628D01*
X963252Y337350D01*
X961976Y337604D01*
X932041D01*
Y343541D01*
X925834D01*
Y350202D01*
X927375Y351743D01*
X928250Y353856D01*
Y356144D01*
X927375Y358257D01*
X925757Y359875D01*
X923644Y360750D01*
X921356D01*
X919243Y359875D01*
X917625Y358257D01*
X916750Y356144D01*
Y353856D01*
X917625Y351743D01*
X919166Y350202D01*
Y343541D01*
X912959D01*
Y334885D01*
X910612Y333913D01*
X906659Y337866D01*
X905578Y338589D01*
X904302Y338843D01*
X899541D01*
Y343541D01*
X893334D01*
Y350202D01*
X894875Y351743D01*
X895750Y353856D01*
Y356144D01*
X894875Y358257D01*
X893257Y359875D01*
X891144Y360750D01*
X888856D01*
X886743Y359875D01*
X885125Y358257D01*
X884250Y356144D01*
Y353856D01*
X885125Y351743D01*
X886666Y350202D01*
Y343541D01*
X880459D01*
Y327476D01*
X899541D01*
Y332174D01*
X902921D01*
X911247Y323848D01*
X912480Y322894D01*
X911996Y320354D01*
X899541D01*
Y322524D01*
X880459D01*
Y320354D01*
X836991D01*
X834748Y319908D01*
X832846Y318637D01*
X821649Y307440D01*
X810460D01*
Y296251D01*
X768354Y254146D01*
X767084Y252243D01*
X766637Y250000D01*
Y199750D01*
X762750D01*
Y180250D01*
X773959D01*
X799137Y155072D01*
Y20863D01*
X675863D01*
Y157500D01*
X675416Y159743D01*
X674146Y161646D01*
X647250Y188541D01*
Y199750D01*
X627750D01*
Y180250D01*
X638959D01*
X664137Y155072D01*
Y20863D01*
X543363D01*
Y155000D01*
X542916Y157243D01*
X541646Y159145D01*
X512250Y188541D01*
Y191459D01*
X521646Y200854D01*
X522916Y202757D01*
X523363Y205000D01*
Y240060D01*
X527040D01*
Y259140D01*
X516251D01*
X484989Y290402D01*
X483087Y291673D01*
X480843Y292119D01*
X456129D01*
Y294289D01*
X437047D01*
Y291865D01*
X426129D01*
Y293780D01*
X422450D01*
Y304707D01*
X426129D01*
Y306877D01*
X437047D01*
Y304707D01*
X456129D01*
Y320772D01*
X437047D01*
Y318602D01*
X427925D01*
X427558Y318969D01*
X427574Y321890D01*
X427841Y322097D01*
X434506Y328762D01*
X437047Y327710D01*
Y325724D01*
X456129D01*
Y341789D01*
X437047D01*
Y337091D01*
X434786D01*
X433510Y336837D01*
X432428Y336114D01*
X428475Y332161D01*
X426129Y333133D01*
Y341789D01*
X407047D01*
Y337604D01*
X382318D01*
X380832Y340144D01*
X381282Y341230D01*
X375000D01*
Y343770D01*
X381282D01*
X380332Y346063D01*
X379354Y347041D01*
X380406Y349581D01*
X383160D01*
Y349041D01*
X390953D01*
Y358862D01*
Y368683D01*
X383160D01*
Y368143D01*
X379441D01*
Y393143D01*
X379188Y394418D01*
X378465Y395500D01*
X316363Y457602D01*
X316586Y457987D01*
X317250Y460466D01*
Y463034D01*
X316586Y465513D01*
X315302Y467737D01*
X313487Y469552D01*
X311263Y470835D01*
X308784Y471500D01*
X306216D01*
X303737Y470835D01*
X301513Y469552D01*
X299698Y467737D01*
X298414Y465513D01*
X297750Y463034D01*
Y460466D01*
X298414Y457987D01*
X299698Y455763D01*
X301513Y453948D01*
X303737Y452664D01*
X306216Y452000D01*
X308784D01*
X311263Y452664D01*
X311648Y452887D01*
X372773Y391762D01*
Y368143D01*
X367584D01*
Y354296D01*
X365578Y352290D01*
X365078Y352198D01*
X362457Y352761D01*
X362357Y352910D01*
X360214Y355054D01*
Y368143D01*
X344638D01*
Y368683D01*
X336845D01*
Y358862D01*
Y349041D01*
X338507D01*
X339479Y346694D01*
X336119Y343334D01*
X235631D01*
X218863Y360102D01*
X219086Y360487D01*
X219750Y362966D01*
Y365534D01*
X219086Y368013D01*
X217802Y370237D01*
X215987Y372052D01*
X213763Y373335D01*
X211284Y374000D01*
X208716D01*
X206237Y373335D01*
X204013Y372052D01*
X202198Y370237D01*
X200914Y368013D01*
X200250Y365534D01*
Y362966D01*
X200914Y360487D01*
X202198Y358263D01*
X204013Y356448D01*
X206237Y355164D01*
X208716Y354500D01*
X211284D01*
X213763Y355164D01*
X214148Y355387D01*
X231892Y337643D01*
X232974Y336920D01*
X234250Y336666D01*
X337500D01*
X338776Y336920D01*
X339857Y337643D01*
X349328Y347113D01*
X350050Y348194D01*
X350304Y349470D01*
Y349581D01*
X356256D01*
X356666Y349171D01*
Y330679D01*
X356431Y329500D01*
Y312500D01*
X354127Y311064D01*
X342321D01*
Y317121D01*
X333770D01*
Y308058D01*
X332500D01*
Y306788D01*
X322679D01*
Y298995D01*
X323219D01*
Y283419D01*
X341781D01*
Y288936D01*
X354127D01*
X356431Y287500D01*
Y270500D01*
X356666Y269321D01*
Y249585D01*
X354987Y247906D01*
X344126D01*
Y248446D01*
X336333D01*
Y238625D01*
Y228804D01*
X344126D01*
Y229344D01*
X347845D01*
Y195810D01*
X311648Y159613D01*
X311263Y159836D01*
X308784Y160500D01*
X306216D01*
X303737Y159836D01*
X301513Y158552D01*
X299698Y156737D01*
X298414Y154513D01*
X297750Y152034D01*
Y149466D01*
X298414Y146987D01*
X299698Y144763D01*
X301097Y143364D01*
X300708Y141651D01*
X300190Y140817D01*
X262045Y140543D01*
X261419Y140413D01*
X260794Y140289D01*
X260784Y140282D01*
X260772Y140280D01*
X260242Y139920D01*
X259712Y139566D01*
X207642Y87497D01*
X206920Y86415D01*
X206666Y85139D01*
Y62450D01*
X206237Y62336D01*
X204013Y61052D01*
X202198Y59237D01*
X200914Y57013D01*
X200250Y54534D01*
Y51966D01*
X200914Y49487D01*
X202198Y47263D01*
X204013Y45448D01*
X206237Y44165D01*
X208716Y43500D01*
X211284D01*
X213763Y44165D01*
X215987Y45448D01*
X217802Y47263D01*
X219086Y49487D01*
X219750Y51966D01*
Y54534D01*
X219086Y57013D01*
X217802Y59237D01*
X215987Y61052D01*
X213763Y62336D01*
X213334Y62450D01*
Y83758D01*
X237609Y108033D01*
X240015Y106847D01*
X239871Y105750D01*
X240386Y101834D01*
X241898Y98185D01*
X244302Y95052D01*
X247435Y92647D01*
X251084Y91136D01*
X255000Y90620D01*
X258916Y91136D01*
X262565Y92647D01*
X265698Y95052D01*
X268102Y98185D01*
X269614Y101834D01*
X270129Y105750D01*
X269614Y109666D01*
X268102Y113315D01*
X265698Y116448D01*
X262565Y118852D01*
X258916Y120364D01*
X255000Y120879D01*
X253903Y120735D01*
X252717Y123141D01*
X263461Y133884D01*
X298506Y134137D01*
X299473Y132190D01*
X299622Y131605D01*
X298414Y129513D01*
X297750Y127034D01*
Y124466D01*
X298414Y121987D01*
X299698Y119763D01*
X301513Y117948D01*
X303737Y116664D01*
X306216Y116000D01*
X308784D01*
X308922Y116037D01*
X334137Y90822D01*
Y20863D01*
X190863D01*
Y43500D01*
X194750D01*
Y63000D01*
X175250D01*
Y43500D01*
X179137D01*
Y20863D01*
X37428D01*
X18363Y39928D01*
Y209137D01*
X47572D01*
X69978Y186731D01*
X71880Y185460D01*
X72414Y185354D01*
Y175750D01*
X72757Y173139D01*
X73765Y170707D01*
X75368Y168618D01*
X77457Y167015D01*
X79889Y166007D01*
X82500Y165664D01*
X85111Y166007D01*
X87543Y167015D01*
X89632Y168618D01*
X91235Y170707D01*
X92243Y173139D01*
X92586Y175750D01*
Y189250D01*
X92243Y191861D01*
X91235Y194293D01*
X89632Y196382D01*
X87543Y197985D01*
X85111Y198993D01*
X82500Y199336D01*
X79889Y198993D01*
X77457Y197985D01*
X76240Y197051D01*
X54145Y219146D01*
X52243Y220416D01*
X50000Y220863D01*
X18363D01*
Y358387D01*
X175250D01*
Y354500D01*
X194750D01*
Y374000D01*
X190863D01*
Y392572D01*
X229178Y430887D01*
X244612D01*
X245474Y428347D01*
X244302Y427448D01*
X241898Y424315D01*
X240386Y420666D01*
X239871Y416750D01*
X240386Y412834D01*
X241898Y409185D01*
X244302Y406052D01*
X247435Y403647D01*
X251084Y402136D01*
X255000Y401621D01*
X258916Y402136D01*
X262565Y403647D01*
X265698Y406052D01*
X268102Y409185D01*
X269614Y412834D01*
X270129Y416750D01*
X269614Y420666D01*
X268102Y424315D01*
X265698Y427448D01*
X264526Y428347D01*
X265388Y430887D01*
X299627D01*
X299698Y430763D01*
X301513Y428948D01*
X303737Y427664D01*
X306216Y427000D01*
X308784D01*
X311263Y427664D01*
X313487Y428948D01*
X315302Y430763D01*
X316586Y432987D01*
X317250Y435466D01*
Y438034D01*
X316586Y440513D01*
X315302Y442737D01*
X313487Y444552D01*
X311263Y445835D01*
X308784Y446500D01*
X306216D01*
X303737Y445835D01*
X301513Y444552D01*
X299698Y442737D01*
X299627Y442613D01*
X285834D01*
Y493619D01*
X308881Y516666D01*
X376119D01*
X415651Y477134D01*
X416733Y476411D01*
X418009Y476157D01*
X420459D01*
Y471459D01*
X439541D01*
Y487524D01*
X420459D01*
Y485348D01*
X417919Y484296D01*
X379857Y522357D01*
X378776Y523080D01*
X377500Y523334D01*
X307500D01*
X306224Y523080D01*
X305142Y522358D01*
X280142Y497357D01*
X279420Y496276D01*
X279166Y495000D01*
Y442613D01*
X226750D01*
X224506Y442166D01*
X222605Y440896D01*
X180854Y399146D01*
X179584Y397243D01*
X179137Y395000D01*
Y374000D01*
X175250D01*
Y370113D01*
X151093D01*
X150413Y372653D01*
X151789Y373447D01*
X154303Y375961D01*
X156080Y379039D01*
X157000Y382473D01*
Y386027D01*
X156080Y389461D01*
X154303Y392539D01*
X151789Y395053D01*
X148711Y396830D01*
X145277Y397750D01*
X141723D01*
X138289Y396830D01*
X135211Y395053D01*
X132697Y392539D01*
X130920Y389461D01*
X130000Y386027D01*
Y382473D01*
X130920Y379039D01*
X132697Y375961D01*
X135211Y373447D01*
X136587Y372653D01*
X135907Y370113D01*
X18363D01*
X18363Y507572D01*
X29928Y519137D01*
X70072D01*
X76637Y512572D01*
Y508356D01*
X75368Y507382D01*
X73765Y505293D01*
X72757Y502860D01*
X72414Y500250D01*
Y486750D01*
X72757Y484140D01*
X73765Y481707D01*
X75368Y479618D01*
X77457Y478015D01*
X79889Y477007D01*
X82500Y476664D01*
X85111Y477007D01*
X87543Y478015D01*
X89632Y479618D01*
X91235Y481707D01*
X92243Y484140D01*
X92586Y486750D01*
Y500250D01*
X92243Y502860D01*
X91235Y505293D01*
X89632Y507382D01*
X88363Y508356D01*
Y515000D01*
X87916Y517244D01*
X86645Y519146D01*
X76645Y529146D01*
X74744Y530416D01*
X72500Y530863D01*
X27500D01*
X25257Y530416D01*
X23354Y529146D01*
X12347Y518138D01*
X10000Y519110D01*
Y740000D01*
X271501D01*
X271940Y739500D01*
X271961Y739339D01*
X271961Y730663D01*
X271940Y730500D01*
X272180Y728673D01*
X272885Y726970D01*
X274008Y725508D01*
X275470Y724386D01*
X277173Y723680D01*
X279000Y723440D01*
X279161Y723461D01*
X292000D01*
X292420Y723544D01*
X294960Y722960D01*
X294960Y722960D01*
X303730D01*
Y735000D01*
X306270D01*
Y722960D01*
X323730D01*
Y735000D01*
X326270D01*
Y722960D01*
X335040D01*
Y722960D01*
X337580Y723544D01*
X338000Y723461D01*
X350839D01*
X351000Y723440D01*
X352827Y723680D01*
X354530Y724386D01*
X355993Y725508D01*
X357114Y726970D01*
X357820Y728673D01*
X358060Y730500D01*
X358039Y730661D01*
X358039Y737460D01*
X360305Y740000D01*
X399461D01*
X399461Y731663D01*
D02*
G37*
G36*
X1340000Y708697D02*
X1337460Y707926D01*
X1336646Y709146D01*
X1308331Y737460D01*
X1309383Y740000D01*
X1340000D01*
Y708697D01*
D02*
G37*
G36*
X539250Y613535D02*
Y611356D01*
X540125Y609243D01*
X541743Y607625D01*
X543856Y606750D01*
X546144D01*
X546626Y606950D01*
X549166Y605252D01*
Y602298D01*
X547625Y600757D01*
X546750Y598644D01*
Y596356D01*
X547625Y594243D01*
X549243Y592625D01*
X551356Y591750D01*
X553644D01*
X554541Y592122D01*
X555980Y589968D01*
X520499Y554488D01*
X515186D01*
X513090Y555560D01*
Y561330D01*
X503050D01*
Y562600D01*
X501780D01*
Y569640D01*
X493010D01*
Y567188D01*
X478550D01*
Y571238D01*
X469999D01*
Y562175D01*
X467459D01*
Y571238D01*
X458908D01*
Y567188D01*
X450979D01*
Y570750D01*
X447553D01*
X446501Y573290D01*
X446961Y573750D01*
X447911Y576043D01*
X435346D01*
X436296Y573750D01*
X436756Y573290D01*
X435704Y570750D01*
X432337D01*
Y563957D01*
X441658D01*
Y561417D01*
X432337D01*
Y554624D01*
X432877D01*
Y551312D01*
X429319D01*
X428257Y552375D01*
X426144Y553250D01*
X423856D01*
X421743Y552375D01*
X420125Y550757D01*
X419250Y548644D01*
Y546356D01*
X420125Y544243D01*
X421743Y542625D01*
X423856Y541750D01*
X426144D01*
X428257Y542625D01*
X429875Y544243D01*
X430041Y544644D01*
X432877D01*
Y541048D01*
X450439D01*
Y542727D01*
X459448D01*
Y537536D01*
X476729D01*
X477781Y534996D01*
X456977Y514192D01*
X456254Y513111D01*
X456001Y511835D01*
Y509012D01*
X449898D01*
Y503823D01*
X439541D01*
Y508541D01*
X425174D01*
X400997Y532718D01*
X401586Y533737D01*
X402250Y536216D01*
Y538784D01*
X401586Y541263D01*
X400302Y543487D01*
X398487Y545302D01*
X396263Y546586D01*
X393784Y547250D01*
X391216D01*
X390608Y547087D01*
X388334Y548943D01*
Y603683D01*
X390000Y605941D01*
X391171Y606174D01*
X392500Y606703D01*
X393829Y606174D01*
X395000Y605941D01*
X396171Y606174D01*
X397500Y606703D01*
X398829Y606174D01*
X400000Y605941D01*
X401171Y606174D01*
X402500Y606703D01*
X403829Y606174D01*
X405000Y605941D01*
X406171Y606174D01*
X407500Y606703D01*
X408829Y606174D01*
X410000Y605941D01*
X411171Y606174D01*
X412163Y606837D01*
X412826Y607829D01*
X413059Y609000D01*
Y616500D01*
X412826Y617671D01*
X412479Y618190D01*
X414310Y620021D01*
X414829Y619674D01*
X416000Y619441D01*
X423500D01*
X424671Y619674D01*
X425663Y620337D01*
X426326Y621329D01*
X426559Y622500D01*
X426326Y623671D01*
X425797Y625000D01*
X426326Y626329D01*
X426559Y627500D01*
X426326Y628671D01*
X425797Y630000D01*
X426326Y631329D01*
X426559Y632500D01*
X426326Y633671D01*
X425797Y635000D01*
X426326Y636329D01*
X426559Y637500D01*
X426326Y638671D01*
X425797Y640000D01*
X426326Y641329D01*
X426559Y642500D01*
X426326Y643671D01*
X425797Y645000D01*
X426326Y646329D01*
X426559Y647500D01*
X426326Y648671D01*
X425797Y650000D01*
X426326Y651329D01*
X426559Y652500D01*
X426326Y653671D01*
X425663Y654663D01*
X424671Y655326D01*
X423500Y655559D01*
X416000D01*
X414829Y655326D01*
X414310Y654979D01*
X412479Y656810D01*
X412826Y657329D01*
X413059Y658500D01*
Y666000D01*
X413827Y666936D01*
X485849D01*
X539250Y613535D01*
D02*
G37*
G36*
X1326637Y393363D02*
X1290678D01*
X1267586Y416455D01*
Y425000D01*
X1267243Y427611D01*
X1266235Y430043D01*
X1264632Y432132D01*
X1262543Y433735D01*
X1260110Y434743D01*
X1257500Y435086D01*
X1254890Y434743D01*
X1252457Y433735D01*
X1250368Y432132D01*
X1248765Y430043D01*
X1247757Y427611D01*
X1247414Y425000D01*
Y411500D01*
X1247757Y408890D01*
X1248765Y406457D01*
X1250368Y404368D01*
X1252457Y402765D01*
X1254890Y401757D01*
X1257500Y401414D01*
X1260110Y401757D01*
X1262543Y402765D01*
X1263760Y403699D01*
X1284104Y383354D01*
X1286006Y382084D01*
X1288250Y381637D01*
X1326637D01*
Y241613D01*
X1164750D01*
Y245500D01*
X1145250D01*
Y226000D01*
X1149137D01*
Y202428D01*
X1115822Y169113D01*
X1095388D01*
X1094526Y171653D01*
X1095698Y172552D01*
X1098102Y175685D01*
X1099614Y179334D01*
X1100129Y183250D01*
X1099614Y187166D01*
X1098102Y190815D01*
X1095698Y193948D01*
X1094189Y195106D01*
X1095051Y197646D01*
X1095230D01*
X1096506Y197900D01*
X1097588Y198622D01*
X1125852Y226887D01*
X1126237Y226665D01*
X1128716Y226000D01*
X1131284D01*
X1133763Y226665D01*
X1135987Y227948D01*
X1137802Y229763D01*
X1139085Y231987D01*
X1139750Y234466D01*
Y237034D01*
X1139085Y239513D01*
X1137802Y241737D01*
X1135987Y243552D01*
X1133763Y244835D01*
X1131284Y245500D01*
X1128716D01*
X1126237Y244835D01*
X1124013Y243552D01*
X1122198Y241737D01*
X1120915Y239513D01*
X1120250Y237034D01*
Y234466D01*
X1120915Y231987D01*
X1121137Y231602D01*
X1093849Y204314D01*
X1074748D01*
X1073696Y206854D01*
X1074303Y207461D01*
X1076080Y210539D01*
X1077000Y213973D01*
Y217527D01*
X1076080Y220961D01*
X1074303Y224039D01*
X1071789Y226553D01*
X1068711Y228330D01*
X1065277Y229250D01*
X1061723D01*
X1058289Y228330D01*
X1055211Y226553D01*
X1052697Y224039D01*
X1050920Y220961D01*
X1050000Y217527D01*
Y213973D01*
X1050920Y210539D01*
X1052697Y207461D01*
X1053304Y206854D01*
X1052252Y204314D01*
X1012901D01*
X992155Y225060D01*
Y231160D01*
X995874D01*
Y230620D01*
X1003667D01*
Y240441D01*
Y250262D01*
X995874D01*
Y249722D01*
X985013D01*
X983334Y251401D01*
Y269321D01*
X983569Y270500D01*
Y287500D01*
X985873Y288936D01*
X997679D01*
Y282879D01*
X1006230D01*
Y291942D01*
X1007500D01*
Y293212D01*
X1017321D01*
Y301005D01*
X1016781D01*
Y316581D01*
X998219D01*
Y310746D01*
X985809D01*
X983569Y312500D01*
Y329500D01*
X983334Y330679D01*
Y351321D01*
X985013Y353000D01*
X995874D01*
Y352460D01*
X1003667D01*
Y362281D01*
Y372102D01*
X995874D01*
Y371562D01*
X992155D01*
Y404940D01*
X1028352Y441137D01*
X1028737Y440914D01*
X1031216Y440250D01*
X1033784D01*
X1036263Y440914D01*
X1038487Y442198D01*
X1040302Y444013D01*
X1041585Y446237D01*
X1042250Y448716D01*
Y451284D01*
X1041585Y453763D01*
X1040302Y455987D01*
X1038487Y457802D01*
X1036263Y459086D01*
X1033784Y459750D01*
X1031216D01*
X1028737Y459086D01*
X1026513Y457802D01*
X1024698Y455987D01*
X1023415Y453763D01*
X1022750Y451284D01*
Y448716D01*
X1023415Y446237D01*
X1023637Y445852D01*
X986464Y408679D01*
X985741Y407597D01*
X985487Y406321D01*
Y371562D01*
X980298D01*
Y357715D01*
X977643Y355060D01*
X976252Y354923D01*
X973460Y357715D01*
Y371562D01*
X968271D01*
Y433556D01*
X1043673Y508958D01*
X1074378D01*
X1075240Y506418D01*
X1074302Y505698D01*
X1071898Y502565D01*
X1070386Y498916D01*
X1069871Y495000D01*
X1070386Y491084D01*
X1071898Y487435D01*
X1074302Y484302D01*
X1075474Y483403D01*
X1074612Y480863D01*
X1040374D01*
X1040302Y480987D01*
X1038487Y482802D01*
X1036263Y484086D01*
X1033784Y484750D01*
X1031216D01*
X1028737Y484086D01*
X1026513Y482802D01*
X1024698Y480987D01*
X1023415Y478763D01*
X1022750Y476284D01*
Y473716D01*
X1023415Y471237D01*
X1024698Y469013D01*
X1026513Y467198D01*
X1028737Y465914D01*
X1031216Y465250D01*
X1033784D01*
X1036263Y465914D01*
X1038487Y467198D01*
X1040302Y469013D01*
X1040374Y469137D01*
X1117500D01*
X1119743Y469584D01*
X1121646Y470854D01*
X1159146Y508354D01*
X1160416Y510257D01*
X1160863Y512500D01*
Y537750D01*
X1164750D01*
Y541637D01*
X1188907D01*
X1189587Y539097D01*
X1188211Y538303D01*
X1185697Y535789D01*
X1183920Y532711D01*
X1183000Y529277D01*
Y525723D01*
X1183920Y522289D01*
X1185697Y519211D01*
X1188211Y516697D01*
X1191289Y514920D01*
X1194723Y514000D01*
X1198277D01*
X1201711Y514920D01*
X1204789Y516697D01*
X1207303Y519211D01*
X1209080Y522289D01*
X1210000Y525723D01*
Y529277D01*
X1209080Y532711D01*
X1207303Y535789D01*
X1204789Y538303D01*
X1203413Y539097D01*
X1204093Y541637D01*
X1326637D01*
Y393363D01*
D02*
G37*
G36*
X659166Y447442D02*
Y402500D01*
X659420Y401224D01*
X660143Y400143D01*
X663245Y397040D01*
X662193Y394500D01*
X613334D01*
Y397702D01*
X614875Y399243D01*
X615750Y401356D01*
Y403644D01*
X614875Y405757D01*
X613257Y407375D01*
X611144Y408250D01*
X608856D01*
X606743Y407375D01*
X605125Y405757D01*
X605125Y405755D01*
X602375D01*
X602375Y405757D01*
X600757Y407375D01*
X598644Y408250D01*
X596356D01*
X594243Y407375D01*
X592625Y405757D01*
X591750Y403644D01*
Y401356D01*
X592625Y399243D01*
X594166Y397702D01*
Y394500D01*
X575834D01*
Y397702D01*
X577375Y399243D01*
X578250Y401356D01*
Y403644D01*
X577375Y405757D01*
X575757Y407375D01*
X573644Y408250D01*
X571356D01*
X569243Y407375D01*
X567625Y405757D01*
X567625Y405755D01*
X564875D01*
X564875Y405757D01*
X563257Y407375D01*
X561144Y408250D01*
X558856D01*
X556743Y407375D01*
X555125Y405757D01*
X554250Y403644D01*
X551805Y403873D01*
Y403906D01*
X550929Y406019D01*
X549312Y407637D01*
X547199Y408512D01*
X544911D01*
X542798Y407637D01*
X541180Y406019D01*
X540305Y403906D01*
Y401619D01*
X541180Y399505D01*
X542721Y397965D01*
Y394500D01*
X524849D01*
X524344Y397040D01*
X525757Y397625D01*
X527375Y399243D01*
X528250Y401356D01*
Y403644D01*
X527375Y405757D01*
X526445Y406687D01*
X526559Y407842D01*
X528227Y409511D01*
X528856Y409250D01*
X531144D01*
X533257Y410125D01*
X534875Y411743D01*
X535750Y413856D01*
Y416144D01*
X534875Y418257D01*
X533257Y419875D01*
X531144Y420750D01*
X528856D01*
X526743Y419875D01*
X525125Y418257D01*
X524250Y416144D01*
Y414964D01*
X522821Y413534D01*
X512550D01*
Y416400D01*
Y431666D01*
X615428D01*
X616750Y430344D01*
Y428856D01*
X617625Y426743D01*
X619243Y425125D01*
X621356Y424250D01*
X623644D01*
X625757Y425125D01*
X627375Y426743D01*
X628250Y428856D01*
Y430300D01*
X629992Y431827D01*
X630597Y432065D01*
X631356Y431750D01*
X633644D01*
X635757Y432625D01*
X637375Y434243D01*
X638250Y436356D01*
Y437800D01*
X639992Y439327D01*
X640597Y439565D01*
X641356Y439250D01*
X643644D01*
X645757Y440125D01*
X647375Y441743D01*
X648250Y443856D01*
Y445300D01*
X649992Y446827D01*
X650597Y447065D01*
X651356Y446750D01*
X653644D01*
X655757Y447625D01*
X656626Y448494D01*
X659166Y447442D01*
D02*
G37*
G36*
X668550Y486462D02*
Y479900D01*
Y467200D01*
Y454500D01*
Y441800D01*
Y429100D01*
Y416400D01*
Y407622D01*
X666010Y406264D01*
X665834Y406381D01*
Y487702D01*
X666010Y487819D01*
X668550Y486462D01*
D02*
G37*
G36*
X407047Y320772D02*
Y304707D01*
X410725D01*
Y293780D01*
X407047D01*
Y277715D01*
X404651Y277367D01*
X383568D01*
Y287500D01*
X383297Y288866D01*
X382523Y290023D01*
X381366Y290797D01*
X380000Y291069D01*
X378634Y290797D01*
X377500Y290039D01*
X376366Y290797D01*
X375000Y291069D01*
X373634Y290797D01*
X373542Y290735D01*
X372992Y290610D01*
X372270Y291691D01*
X369333Y294627D01*
X368252Y295350D01*
X366976Y295604D01*
X341781D01*
Y298995D01*
X342321D01*
Y304396D01*
X366976D01*
X368252Y304650D01*
X369333Y305373D01*
X372270Y308309D01*
X372992Y309390D01*
X373542Y309265D01*
X373634Y309203D01*
X375000Y308931D01*
X376366Y309203D01*
X377500Y309961D01*
X378634Y309203D01*
X380000Y308931D01*
X381366Y309203D01*
X382523Y309977D01*
X383297Y311134D01*
X383568Y312500D01*
Y321120D01*
X404651D01*
X407047Y320772D01*
D02*
G37*
G36*
X912959Y306459D02*
X916637D01*
Y293032D01*
X912959D01*
Y276968D01*
X932041D01*
Y288317D01*
X940604Y296880D01*
X959327D01*
X960379Y294340D01*
X957730Y291691D01*
X957008Y290610D01*
X956918Y290159D01*
X956194Y289076D01*
X955881Y287500D01*
Y280270D01*
X960000D01*
Y277730D01*
X955881D01*
Y270500D01*
X956009Y269857D01*
X954677Y267693D01*
X954213Y267317D01*
X932041D01*
Y272015D01*
X912959D01*
Y255950D01*
X932041D01*
Y260649D01*
X957442D01*
X958697Y258770D01*
X965000D01*
Y256230D01*
X958718D01*
X959668Y253937D01*
X961437Y252168D01*
X962369Y251782D01*
X961863Y249242D01*
X957201D01*
Y249782D01*
X949408D01*
Y239961D01*
Y230140D01*
X957201D01*
Y230680D01*
X968820D01*
X1010589Y188911D01*
X1009326Y186581D01*
X1007854Y186581D01*
X1001270D01*
Y179279D01*
X1010081D01*
Y184172D01*
X1010081Y185826D01*
X1012411Y187089D01*
X1016666Y182833D01*
Y150750D01*
X1016920Y149474D01*
X1017643Y148392D01*
X1023637Y142398D01*
X1023415Y142013D01*
X1022750Y139534D01*
Y136966D01*
X1023415Y134487D01*
X1024698Y132263D01*
X1026513Y130448D01*
X1028737Y129164D01*
X1031216Y128500D01*
X1033784D01*
X1036263Y129164D01*
X1038487Y130448D01*
X1040302Y132263D01*
X1041585Y134487D01*
X1042250Y136966D01*
Y139534D01*
X1041585Y142013D01*
X1040302Y144237D01*
X1038487Y146052D01*
X1036263Y147336D01*
X1033784Y148000D01*
X1031216D01*
X1028737Y147336D01*
X1028352Y147113D01*
X1023334Y152131D01*
Y155035D01*
X1025874Y156087D01*
X1026513Y155448D01*
X1028737Y154164D01*
X1031216Y153500D01*
X1033784D01*
X1036263Y154164D01*
X1038487Y155448D01*
X1040302Y157263D01*
X1040374Y157387D01*
X1118250D01*
X1120493Y157834D01*
X1122395Y159104D01*
X1159146Y195854D01*
X1160416Y197757D01*
X1160863Y200000D01*
Y226000D01*
X1164750D01*
Y229887D01*
X1188907D01*
X1189587Y227347D01*
X1188211Y226553D01*
X1185697Y224039D01*
X1183920Y220961D01*
X1183000Y217527D01*
Y213973D01*
X1183920Y210539D01*
X1185697Y207461D01*
X1188211Y204947D01*
X1191289Y203170D01*
X1194723Y202250D01*
X1198277D01*
X1201711Y203170D01*
X1204789Y204947D01*
X1207303Y207461D01*
X1209080Y210539D01*
X1210000Y213973D01*
Y217527D01*
X1209080Y220961D01*
X1207303Y224039D01*
X1204789Y226553D01*
X1203413Y227347D01*
X1204093Y229887D01*
X1326637D01*
Y83363D01*
X1288928D01*
X1270022Y102269D01*
X1268120Y103540D01*
X1267586Y103646D01*
Y113250D01*
X1267243Y115861D01*
X1266235Y118293D01*
X1264632Y120382D01*
X1262543Y121985D01*
X1260110Y122993D01*
X1257500Y123336D01*
X1254890Y122993D01*
X1252457Y121985D01*
X1250368Y120382D01*
X1248765Y118293D01*
X1247757Y115861D01*
X1247414Y113250D01*
Y99750D01*
X1247757Y97140D01*
X1248765Y94707D01*
X1250368Y92618D01*
X1252457Y91015D01*
X1254890Y90007D01*
X1257500Y89664D01*
X1260110Y90007D01*
X1262543Y91015D01*
X1263760Y91949D01*
X1282354Y73355D01*
X1284256Y72084D01*
X1286500Y71637D01*
X1326637D01*
Y42428D01*
X1305072Y20863D01*
X940863D01*
Y157500D01*
X940416Y159743D01*
X939146Y161646D01*
X912250Y188541D01*
Y199750D01*
X892750D01*
Y180250D01*
X903959D01*
X929137Y155072D01*
Y20863D01*
X810863D01*
Y157500D01*
X810416Y159743D01*
X809146Y161646D01*
X782250Y188541D01*
Y199750D01*
X778363D01*
Y247572D01*
X809822Y279031D01*
X811854Y277471D01*
X811110Y276182D01*
X810460Y273756D01*
Y271244D01*
X811110Y268818D01*
X812366Y266642D01*
X814142Y264866D01*
X816318Y263610D01*
X818744Y262960D01*
X821256D01*
X823682Y263610D01*
X825858Y264866D01*
X827634Y266642D01*
X828890Y268818D01*
X829540Y271244D01*
Y273756D01*
X828890Y276182D01*
X827634Y278358D01*
X825858Y280134D01*
X823682Y281390D01*
X821256Y282040D01*
X818744D01*
X816318Y281390D01*
X815029Y280646D01*
X813469Y282678D01*
X819151Y288360D01*
X829540D01*
Y298749D01*
X839420Y308629D01*
X880459D01*
Y306459D01*
X899541D01*
Y308629D01*
X912959D01*
Y306459D01*
D02*
G37*
G36*
X956431Y312500D02*
X956703Y311134D01*
X957477Y309977D01*
X958634Y309203D01*
X960000Y308931D01*
X961366Y309203D01*
X963024Y308420D01*
X963595Y305634D01*
X961509Y303548D01*
X939223D01*
X937947Y303295D01*
X936865Y302572D01*
X930709Y296416D01*
X928363Y297388D01*
Y306459D01*
X932041D01*
Y322524D01*
X934437Y322872D01*
X956431D01*
Y312500D01*
D02*
G37*
G36*
X507960Y250849D02*
Y244775D01*
X501519Y238334D01*
X419617D01*
X417921Y240278D01*
X418257Y242625D01*
X419875Y244243D01*
X420750Y246356D01*
Y248644D01*
X419875Y250757D01*
X418334Y252298D01*
Y256698D01*
X426129D01*
Y265354D01*
X428475Y266326D01*
X431920Y262882D01*
X433001Y262159D01*
X434277Y261905D01*
X437047D01*
Y257207D01*
X444166D01*
Y252298D01*
X442625Y250757D01*
X441750Y248644D01*
Y246356D01*
X442625Y244243D01*
X444243Y242625D01*
X446356Y241750D01*
X448644D01*
X450757Y242625D01*
X452375Y244243D01*
X453250Y246356D01*
Y248644D01*
X452375Y250757D01*
X450834Y252298D01*
Y257207D01*
X456129D01*
Y273272D01*
X437047D01*
Y270777D01*
X434506Y269725D01*
X427841Y276391D01*
X426278Y277600D01*
X426245Y278302D01*
X427998Y280140D01*
X437047D01*
Y278224D01*
X456129D01*
Y280394D01*
X478415D01*
X507960Y250849D01*
D02*
G37*
G36*
X374785Y257833D02*
X375867Y257111D01*
X377143Y256857D01*
X391000D01*
X397065Y250793D01*
X396093Y248446D01*
X391891D01*
Y239895D01*
X399684D01*
Y244854D01*
X402031Y245826D01*
X415215Y232642D01*
X416296Y231920D01*
X417572Y231666D01*
X502900D01*
X504176Y231920D01*
X505257Y232642D01*
X509291Y236676D01*
X511637Y235704D01*
Y207428D01*
X503959Y199750D01*
X492750D01*
Y180250D01*
X503959D01*
X531637Y152572D01*
Y20863D01*
X410863D01*
Y155919D01*
X410416Y158162D01*
X409146Y160064D01*
X380669Y188541D01*
Y199750D01*
X361169D01*
X360834Y202151D01*
Y220239D01*
X369939Y229344D01*
X381558D01*
Y228804D01*
X389351D01*
Y238625D01*
Y248446D01*
X381558D01*
Y247906D01*
X370697D01*
X368334Y250269D01*
Y260966D01*
X370681Y261938D01*
X374785Y257833D01*
D02*
G37*
G36*
X1075811Y195106D02*
X1074302Y193948D01*
X1071898Y190815D01*
X1070386Y187166D01*
X1069871Y183250D01*
X1070386Y179334D01*
X1071898Y175685D01*
X1074302Y172552D01*
X1075474Y171653D01*
X1074612Y169113D01*
X1040374D01*
X1040302Y169237D01*
X1038487Y171052D01*
X1036263Y172335D01*
X1033784Y173000D01*
X1031216D01*
X1028737Y172335D01*
X1026513Y171052D01*
X1025874Y170413D01*
X1023334Y171465D01*
Y184214D01*
X1023080Y185490D01*
X1022357Y186572D01*
X1013824Y195106D01*
X1014876Y197646D01*
X1074949D01*
X1075811Y195106D01*
D02*
G37*
G36*
X354166Y189109D02*
Y176381D01*
X318736Y140951D01*
X314891Y140923D01*
X314611Y141327D01*
X313996Y143457D01*
X315302Y144763D01*
X316586Y146987D01*
X317250Y149466D01*
Y152034D01*
X316586Y154513D01*
X316363Y154898D01*
X351626Y190161D01*
X354166Y189109D01*
D02*
G37*
G36*
X399137Y153490D02*
Y20863D01*
X345863D01*
Y93250D01*
X345416Y95493D01*
X344146Y97395D01*
X317213Y124328D01*
X317250Y124466D01*
Y127034D01*
X316586Y129513D01*
X315302Y131737D01*
X316365Y134266D01*
X320151Y134293D01*
X320778Y134422D01*
X321403Y134547D01*
X321413Y134554D01*
X321425Y134556D01*
X321954Y134915D01*
X322485Y135269D01*
X359857Y172642D01*
X360580Y173724D01*
X360834Y175000D01*
Y177849D01*
X361169Y180250D01*
X372378D01*
X399137Y153490D01*
D02*
G37*
G36*
X1340000Y36303D02*
Y10000D01*
X1314383D01*
X1313331Y12540D01*
X1336646Y35854D01*
X1337460Y37073D01*
X1340000Y36303D01*
D02*
G37*
G36*
X29169Y12540D02*
X28117Y10000D01*
X10000D01*
Y28390D01*
X12347Y29362D01*
X29169Y12540D01*
D02*
G37*
%LPC*%
G36*
X468789Y718790D02*
X468770D01*
Y710270D01*
X477290D01*
Y710289D01*
X476623Y712779D01*
X475334Y715011D01*
X473511Y716834D01*
X471279Y718123D01*
X468789Y718790D01*
D02*
G37*
G36*
X477290Y707730D02*
X468770D01*
Y699210D01*
X468789D01*
X471279Y699877D01*
X473511Y701166D01*
X475334Y702989D01*
X476623Y705221D01*
X477290Y707711D01*
Y707730D01*
D02*
G37*
G36*
X653784Y697250D02*
X651216D01*
X648737Y696586D01*
X646513Y695302D01*
X644698Y693487D01*
X643415Y691263D01*
X642750Y688784D01*
Y686216D01*
X643415Y683737D01*
X644698Y681513D01*
X646513Y679698D01*
X648737Y678415D01*
X651216Y677750D01*
X653784D01*
X656263Y678415D01*
X658487Y679698D01*
X660302Y681513D01*
X661585Y683737D01*
X662250Y686216D01*
Y688784D01*
X661585Y691263D01*
X660302Y693487D01*
X658487Y695302D01*
X656263Y696586D01*
X653784Y697250D01*
D02*
G37*
G36*
X608784D02*
X606216D01*
X603737Y696586D01*
X601513Y695302D01*
X599698Y693487D01*
X598414Y691263D01*
X597750Y688784D01*
Y686216D01*
X598414Y683737D01*
X599698Y681513D01*
X601513Y679698D01*
X603737Y678415D01*
X606216Y677750D01*
X608784D01*
X611263Y678415D01*
X613487Y679698D01*
X615302Y681513D01*
X616586Y683737D01*
X617250Y686216D01*
Y688784D01*
X616586Y691263D01*
X615302Y693487D01*
X613487Y695302D01*
X611263Y696586D01*
X608784Y697250D01*
D02*
G37*
G36*
X687540Y659790D02*
X681520D01*
Y651270D01*
X687540D01*
Y659790D01*
D02*
G37*
G36*
X678980D02*
X672960D01*
Y651270D01*
X678980D01*
Y659790D01*
D02*
G37*
G36*
X706500Y659250D02*
X693000D01*
Y640750D01*
X706500D01*
Y645412D01*
X712000D01*
Y641500D01*
X727000D01*
Y658500D01*
X712000D01*
Y654588D01*
X706500D01*
Y659250D01*
D02*
G37*
G36*
X687540Y648730D02*
X681520D01*
Y640210D01*
X687540D01*
Y648730D01*
D02*
G37*
G36*
X678980D02*
X672960D01*
Y640210D01*
X678980D01*
Y648730D01*
D02*
G37*
G36*
X653855Y632790D02*
X653770D01*
Y623770D01*
X662790D01*
Y623855D01*
X662089Y626472D01*
X660734Y628818D01*
X658818Y630734D01*
X656472Y632089D01*
X653855Y632790D01*
D02*
G37*
G36*
X651230D02*
X651145D01*
X648528Y632089D01*
X646182Y630734D01*
X644266Y628818D01*
X642911Y626472D01*
X642210Y623855D01*
Y623770D01*
X651230D01*
Y632790D01*
D02*
G37*
G36*
X765830Y624612D02*
X760199D01*
Y618320D01*
X765830D01*
Y624612D01*
D02*
G37*
G36*
X617250Y632250D02*
X597750D01*
Y612750D01*
X617250D01*
Y632250D01*
D02*
G37*
G36*
X662790Y621230D02*
X653770D01*
Y612210D01*
X653855D01*
X656472Y612911D01*
X658818Y614266D01*
X660734Y616182D01*
X662089Y618528D01*
X662790Y621145D01*
Y621230D01*
D02*
G37*
G36*
X651230D02*
X642210D01*
Y621145D01*
X642911Y618528D01*
X644266Y616182D01*
X646182Y614266D01*
X648528Y612911D01*
X651145Y612210D01*
X651230D01*
Y621230D01*
D02*
G37*
G36*
X774001Y615780D02*
X767100D01*
X760199D01*
Y609489D01*
X762001D01*
X763053Y606949D01*
X762168Y606063D01*
X761218Y603770D01*
X773782D01*
X772832Y606063D01*
X771947Y606949D01*
X772999Y609489D01*
X774001D01*
Y615780D01*
D02*
G37*
G36*
X416230Y718790D02*
X416211D01*
X413721Y718123D01*
X411489Y716834D01*
X409666Y715011D01*
X408377Y712779D01*
X407710Y710289D01*
Y710270D01*
X416230D01*
Y718790D01*
D02*
G37*
G36*
X341289Y717790D02*
X341270D01*
Y709270D01*
X349790D01*
Y709289D01*
X349123Y711779D01*
X347834Y714011D01*
X346011Y715834D01*
X343779Y717123D01*
X341289Y717790D01*
D02*
G37*
G36*
X288730D02*
X288711D01*
X286221Y717123D01*
X283989Y715834D01*
X282166Y714011D01*
X280877Y711779D01*
X280210Y709289D01*
Y709270D01*
X288730D01*
Y717790D01*
D02*
G37*
G36*
X416230Y707730D02*
X407710D01*
Y707711D01*
X408377Y705221D01*
X409666Y702989D01*
X411489Y701166D01*
X413721Y699877D01*
X416211Y699210D01*
X416230D01*
Y707730D01*
D02*
G37*
G36*
X291289Y717790D02*
X291270D01*
Y708000D01*
Y698210D01*
X291289D01*
X293779Y698877D01*
X294920Y699536D01*
X297460Y698710D01*
Y698710D01*
X300730D01*
Y708000D01*
Y717290D01*
X297460D01*
Y717290D01*
X294920Y716464D01*
X293779Y717123D01*
X291289Y717790D01*
D02*
G37*
G36*
X349790Y706730D02*
X341270D01*
Y698210D01*
X341289D01*
X343779Y698877D01*
X346011Y700166D01*
X347834Y701989D01*
X349123Y704221D01*
X349790Y706711D01*
Y706730D01*
D02*
G37*
G36*
X288730D02*
X280210D01*
Y706711D01*
X280877Y704221D01*
X282166Y701989D01*
X283989Y700166D01*
X286221Y698877D01*
X288711Y698210D01*
X288730D01*
Y706730D01*
D02*
G37*
G36*
X1004645Y665540D02*
X1004560D01*
Y656520D01*
X1013580D01*
Y656605D01*
X1012879Y659222D01*
X1011524Y661568D01*
X1009608Y663484D01*
X1007262Y664839D01*
X1004645Y665540D01*
D02*
G37*
G36*
X1002020D02*
X1001935D01*
X999318Y664839D01*
X996972Y663484D01*
X995056Y661568D01*
X993701Y659222D01*
X993000Y656605D01*
Y656520D01*
X1002020D01*
Y665540D01*
D02*
G37*
G36*
X920480Y660080D02*
X911670D01*
Y651270D01*
X920480D01*
Y660080D01*
D02*
G37*
G36*
X909130D02*
X900320D01*
Y651270D01*
X909130D01*
Y660080D01*
D02*
G37*
G36*
X966040Y672088D02*
X877100D01*
X875344Y671739D01*
X873856Y670744D01*
X862272Y659161D01*
X860856Y659540D01*
X858344D01*
X855918Y658890D01*
X853742Y657634D01*
X851966Y655858D01*
X850710Y653682D01*
X850060Y651256D01*
Y648744D01*
X850710Y646318D01*
X851966Y644142D01*
X853742Y642366D01*
X855918Y641110D01*
X858344Y640460D01*
X860856D01*
X863282Y641110D01*
X865458Y642366D01*
X867234Y644142D01*
X868490Y646318D01*
X869140Y648744D01*
Y651256D01*
X868761Y652672D01*
X879000Y662912D01*
X964139D01*
X968540Y658511D01*
Y645500D01*
X988040D01*
Y665000D01*
X975029D01*
X969284Y670744D01*
X967796Y671739D01*
X966040Y672088D01*
D02*
G37*
G36*
X1013580Y653980D02*
X1004560D01*
Y644960D01*
X1004645D01*
X1007262Y645661D01*
X1009608Y647016D01*
X1011524Y648932D01*
X1012879Y651278D01*
X1013580Y653895D01*
Y653980D01*
D02*
G37*
G36*
X1002020D02*
X993000D01*
Y653895D01*
X993701Y651278D01*
X995056Y648932D01*
X996972Y647016D01*
X999318Y645661D01*
X1001935Y644960D01*
X1002020D01*
Y653980D01*
D02*
G37*
G36*
X886256Y659540D02*
X883744D01*
X881318Y658890D01*
X879142Y657634D01*
X877366Y655858D01*
X876110Y653682D01*
X875460Y651256D01*
Y648744D01*
X875839Y647328D01*
X850150Y621638D01*
X817926D01*
X817486Y622297D01*
X815382Y623702D01*
X812900Y624196D01*
X810418Y623702D01*
X808314Y622297D01*
X806908Y620193D01*
X806415Y617711D01*
Y616389D01*
X806908Y613907D01*
X808314Y611803D01*
X810418Y610398D01*
X812900Y609904D01*
X815382Y610398D01*
X817486Y611803D01*
X817926Y612462D01*
X852050D01*
X853806Y612811D01*
X855294Y613806D01*
X882328Y640839D01*
X883744Y640460D01*
X886256D01*
X888682Y641110D01*
X890858Y642366D01*
X892634Y644142D01*
X893890Y646318D01*
X894540Y648744D01*
Y651256D01*
X893890Y653682D01*
X892634Y655858D01*
X890858Y657634D01*
X888682Y658890D01*
X886256Y659540D01*
D02*
G37*
G36*
X920480Y648730D02*
X911670D01*
Y639920D01*
X920480D01*
Y648730D01*
D02*
G37*
G36*
X909130D02*
X900320D01*
Y639920D01*
X909130D01*
Y648730D01*
D02*
G37*
G36*
X341821Y611672D02*
X333770D01*
Y604879D01*
X341821D01*
Y611672D01*
D02*
G37*
G36*
X331230D02*
X323179D01*
Y604879D01*
X331230D01*
Y611672D01*
D02*
G37*
G36*
X314821Y610672D02*
X306270D01*
Y602879D01*
X314821D01*
Y610672D01*
D02*
G37*
G36*
X303730D02*
X295179D01*
Y602879D01*
X303730D01*
Y610672D01*
D02*
G37*
G36*
X331667Y600419D02*
X323874D01*
Y591868D01*
X331667D01*
Y600419D01*
D02*
G37*
G36*
Y589328D02*
X323874D01*
Y580777D01*
X331667D01*
Y589328D01*
D02*
G37*
G36*
X773782Y581230D02*
X768770D01*
Y576218D01*
X771063Y577168D01*
X772832Y578937D01*
X773782Y581230D01*
D02*
G37*
G36*
X766230D02*
X761218D01*
X762168Y578937D01*
X763937Y577168D01*
X766230Y576218D01*
Y581230D01*
D02*
G37*
G36*
X688090Y569640D02*
X679320D01*
Y563870D01*
X688090D01*
Y569640D01*
D02*
G37*
G36*
X676780D02*
X668010D01*
Y563870D01*
X676780D01*
Y569640D01*
D02*
G37*
G36*
X1103730Y557790D02*
X1103645D01*
X1101028Y557089D01*
X1098682Y555734D01*
X1096766Y553818D01*
X1095411Y551472D01*
X1094710Y548855D01*
Y548770D01*
X1103730D01*
Y557790D01*
D02*
G37*
G36*
X768035Y550996D02*
X752765D01*
Y544226D01*
X768035D01*
Y550996D01*
D02*
G37*
G36*
X937845D02*
X923575D01*
Y544226D01*
X937845D01*
Y550996D01*
D02*
G37*
G36*
X921035D02*
X906765D01*
Y544226D01*
X921035D01*
Y550996D01*
D02*
G37*
G36*
X937845Y541686D02*
X923575D01*
Y534916D01*
X937845D01*
Y541686D01*
D02*
G37*
G36*
X921035D02*
X906765D01*
Y534916D01*
X921035D01*
Y541686D01*
D02*
G37*
G36*
X768035Y541686D02*
X752765D01*
Y534916D01*
X768035D01*
Y541686D01*
D02*
G37*
G36*
X348784Y547250D02*
X346216D01*
X343737Y546586D01*
X341513Y545302D01*
X339698Y543487D01*
X338414Y541263D01*
X337750Y538784D01*
Y536216D01*
X338414Y533737D01*
X339698Y531513D01*
X341513Y529698D01*
X343737Y528414D01*
X346216Y527750D01*
X348784D01*
X351263Y528414D01*
X353487Y529698D01*
X355302Y531513D01*
X356586Y533737D01*
X357250Y536216D01*
Y538784D01*
X356586Y541263D01*
X355302Y543487D01*
X353487Y545302D01*
X351263Y546586D01*
X348784Y547250D01*
D02*
G37*
G36*
X278277Y552750D02*
X274723D01*
X271289Y551830D01*
X268211Y550053D01*
X265697Y547539D01*
X263920Y544461D01*
X263000Y541027D01*
Y537473D01*
X263920Y534039D01*
X265697Y530961D01*
X268211Y528447D01*
X271289Y526670D01*
X274723Y525750D01*
X278277D01*
X281711Y526670D01*
X284789Y528447D01*
X287303Y530961D01*
X289080Y534039D01*
X290000Y537473D01*
Y541027D01*
X289080Y544461D01*
X287303Y547539D01*
X284789Y550053D01*
X281711Y551830D01*
X278277Y552750D01*
D02*
G37*
G36*
X145277D02*
X141723D01*
X138289Y551830D01*
X135211Y550053D01*
X132697Y547539D01*
X130920Y544461D01*
X130000Y541027D01*
Y537473D01*
X130920Y534039D01*
X132697Y530961D01*
X135211Y528447D01*
X138289Y526670D01*
X141723Y525750D01*
X145277D01*
X148711Y526670D01*
X151789Y528447D01*
X154303Y530961D01*
X156080Y534039D01*
X157000Y537473D01*
Y541027D01*
X156080Y544461D01*
X154303Y547539D01*
X151789Y550053D01*
X148711Y551830D01*
X145277Y552750D01*
D02*
G37*
G36*
X703035Y527050D02*
X694984D01*
Y520257D01*
X703035D01*
Y527050D01*
D02*
G37*
G36*
X937305Y530456D02*
X907305D01*
Y515456D01*
X937305D01*
Y519622D01*
X944746D01*
X946287Y518081D01*
X948400Y517206D01*
X950688D01*
X952801Y518081D01*
X954419Y519699D01*
X955294Y521812D01*
Y524100D01*
X954419Y526213D01*
X952801Y527831D01*
X950688Y528706D01*
X948400D01*
X946287Y527831D01*
X944746Y526290D01*
X937305D01*
Y530456D01*
D02*
G37*
G36*
Y510456D02*
X907305D01*
Y495456D01*
X937305D01*
Y499622D01*
X944746D01*
X946287Y498081D01*
X948400Y497206D01*
X950688D01*
X952801Y498081D01*
X954419Y499699D01*
X955294Y501812D01*
Y504100D01*
X954419Y506213D01*
X952801Y507831D01*
X950688Y508706D01*
X948400D01*
X946287Y507831D01*
X944746Y506290D01*
X937305D01*
Y510456D01*
D02*
G37*
G36*
X255000Y521879D02*
X251084Y521364D01*
X247435Y519852D01*
X244302Y517448D01*
X241898Y514315D01*
X240386Y510666D01*
X239871Y506750D01*
X240386Y502834D01*
X241898Y499185D01*
X244302Y496052D01*
X247435Y493648D01*
X251084Y492136D01*
X255000Y491621D01*
X258916Y492136D01*
X262565Y493648D01*
X265698Y496052D01*
X268102Y499185D01*
X269614Y502834D01*
X270129Y506750D01*
X269614Y510666D01*
X268102Y514315D01*
X265698Y517448D01*
X262565Y519852D01*
X258916Y521364D01*
X255000Y521879D01*
D02*
G37*
G36*
X165000D02*
X161084Y521364D01*
X157435Y519852D01*
X154302Y517448D01*
X151897Y514315D01*
X150386Y510666D01*
X149871Y506750D01*
X150386Y502834D01*
X151897Y499185D01*
X154302Y496052D01*
X157435Y493648D01*
X161084Y492136D01*
X165000Y491621D01*
X168916Y492136D01*
X172565Y493648D01*
X175698Y496052D01*
X178102Y499185D01*
X179614Y502834D01*
X180129Y506750D01*
X179614Y510666D01*
X178102Y514315D01*
X175698Y517448D01*
X172565Y519852D01*
X168916Y521364D01*
X165000Y521879D01*
D02*
G37*
G36*
X308855Y497040D02*
X308770D01*
Y488020D01*
X317790D01*
Y488105D01*
X317089Y490722D01*
X315734Y493068D01*
X313818Y494984D01*
X311472Y496339D01*
X308855Y497040D01*
D02*
G37*
G36*
X306230D02*
X306145D01*
X303528Y496339D01*
X301182Y494984D01*
X299266Y493068D01*
X297911Y490722D01*
X297210Y488105D01*
Y488020D01*
X306230D01*
Y497040D01*
D02*
G37*
G36*
X783305Y490456D02*
X753305D01*
Y485834D01*
X749798D01*
X748257Y487375D01*
X746144Y488250D01*
X743856D01*
X741743Y487375D01*
X740125Y485757D01*
X739250Y483644D01*
Y481356D01*
X740125Y479243D01*
X741743Y477625D01*
X743856Y476750D01*
X746144D01*
X748257Y477625D01*
X749798Y479166D01*
X753305D01*
Y475456D01*
X783305D01*
Y490456D01*
D02*
G37*
G36*
X937305D02*
X907305D01*
Y475456D01*
X937305D01*
Y479622D01*
X944968D01*
X945125Y479243D01*
X946743Y477625D01*
X948856Y476750D01*
X951144D01*
X953257Y477625D01*
X954875Y479243D01*
X955750Y481356D01*
Y483644D01*
X954875Y485757D01*
X953257Y487375D01*
X951144Y488250D01*
X948856D01*
X946743Y487375D01*
X945658Y486290D01*
X937305D01*
Y490456D01*
D02*
G37*
G36*
X127500Y510336D02*
X124889Y509993D01*
X122457Y508985D01*
X120368Y507382D01*
X118765Y505293D01*
X117757Y502860D01*
X117414Y500250D01*
Y486750D01*
X117757Y484140D01*
X118765Y481707D01*
X120368Y479618D01*
X122457Y478015D01*
X124889Y477007D01*
X127500Y476664D01*
X130111Y477007D01*
X132543Y478015D01*
X134632Y479618D01*
X136235Y481707D01*
X137243Y484140D01*
X137586Y486750D01*
Y500250D01*
X137243Y502860D01*
X136235Y505293D01*
X134632Y507382D01*
X132543Y508985D01*
X130111Y509993D01*
X127500Y510336D01*
D02*
G37*
G36*
X317790Y485480D02*
X308770D01*
Y476460D01*
X308855D01*
X311472Y477161D01*
X313818Y478516D01*
X315734Y480432D01*
X317089Y482778D01*
X317790Y485395D01*
Y485480D01*
D02*
G37*
G36*
X306230D02*
X297210D01*
Y485395D01*
X297911Y482778D01*
X299266Y480432D01*
X301182Y478516D01*
X303528Y477161D01*
X306145Y476460D01*
X306230D01*
Y485480D01*
D02*
G37*
G36*
X469000Y483104D02*
X460449D01*
Y475311D01*
X469000D01*
Y483104D01*
D02*
G37*
G36*
X457909D02*
X449358D01*
Y475311D01*
X457909D01*
Y483104D01*
D02*
G37*
G36*
X50081Y481581D02*
X41270D01*
Y474279D01*
X50081D01*
Y481581D01*
D02*
G37*
G36*
X38730D02*
X29919D01*
Y474279D01*
X38730D01*
Y481581D01*
D02*
G37*
G36*
X393855Y482790D02*
X393770D01*
Y473770D01*
X402790D01*
Y473855D01*
X402089Y476472D01*
X400734Y478818D01*
X398818Y480734D01*
X396472Y482089D01*
X393855Y482790D01*
D02*
G37*
G36*
X391230D02*
X391145D01*
X388528Y482089D01*
X386182Y480734D01*
X384266Y478818D01*
X382911Y476472D01*
X382210Y473855D01*
Y473770D01*
X391230D01*
Y482790D01*
D02*
G37*
G36*
X50081Y471739D02*
X41270D01*
Y464436D01*
X50081D01*
Y471739D01*
D02*
G37*
G36*
X38730D02*
X29919D01*
Y464436D01*
X38730D01*
Y471739D01*
D02*
G37*
G36*
X783305Y470456D02*
X753305D01*
Y463334D01*
X749798D01*
X748257Y464875D01*
X746144Y465750D01*
X743856D01*
X741743Y464875D01*
X740125Y463257D01*
X739250Y461144D01*
Y458856D01*
X740125Y456743D01*
X741743Y455125D01*
X743856Y454250D01*
X746144D01*
X748257Y455125D01*
X749798Y456666D01*
X753305D01*
Y455456D01*
X783305D01*
Y470456D01*
D02*
G37*
G36*
X357250Y482250D02*
X337750D01*
Y462750D01*
X357250D01*
Y482250D01*
D02*
G37*
G36*
X402790Y471230D02*
X393770D01*
Y462210D01*
X393855D01*
X396472Y462911D01*
X398818Y464266D01*
X400734Y466182D01*
X402089Y468528D01*
X402790Y471145D01*
Y471230D01*
D02*
G37*
G36*
X391230D02*
X382210D01*
Y471145D01*
X382911Y468528D01*
X384266Y466182D01*
X386182Y464266D01*
X388528Y462911D01*
X391145Y462210D01*
X391230D01*
Y471230D01*
D02*
G37*
G36*
X937305Y470456D02*
X907305D01*
Y455456D01*
X937305D01*
Y459622D01*
X944968D01*
X945125Y459243D01*
X946743Y457625D01*
X948856Y456750D01*
X951144D01*
X953257Y457625D01*
X954875Y459243D01*
X955750Y461356D01*
Y463644D01*
X954875Y465757D01*
X953257Y467375D01*
X951144Y468250D01*
X948856D01*
X946743Y467375D01*
X945658Y466290D01*
X937305D01*
Y470456D01*
D02*
G37*
G36*
X105000Y476879D02*
X101084Y476364D01*
X97435Y474852D01*
X94302Y472448D01*
X91897Y469315D01*
X90386Y465666D01*
X89871Y461750D01*
X90386Y457834D01*
X91897Y454185D01*
X94302Y451052D01*
X97435Y448647D01*
X101084Y447136D01*
X105000Y446621D01*
X108916Y447136D01*
X112565Y448647D01*
X115698Y451052D01*
X118103Y454185D01*
X119614Y457834D01*
X120129Y461750D01*
X119614Y465666D01*
X118103Y469315D01*
X115698Y472448D01*
X112565Y474852D01*
X108916Y476364D01*
X105000Y476879D01*
D02*
G37*
G36*
X937305Y450456D02*
X907305D01*
Y435456D01*
X937305D01*
Y450456D01*
D02*
G37*
G36*
X783305D02*
X753305D01*
Y435456D01*
X783305D01*
Y450456D01*
D02*
G37*
G36*
X478081Y436816D02*
X470030D01*
Y430023D01*
X478081D01*
Y436816D01*
D02*
G37*
G36*
X467490D02*
X459439D01*
Y430023D01*
X467490D01*
Y436816D01*
D02*
G37*
G36*
X937305Y430456D02*
X907305D01*
Y415456D01*
X937305D01*
Y430456D01*
D02*
G37*
G36*
X783305D02*
X753305D01*
Y415456D01*
X783305D01*
Y430456D01*
D02*
G37*
G36*
X127500Y446836D02*
X124889Y446493D01*
X122457Y445485D01*
X120368Y443882D01*
X118765Y441793D01*
X117757Y439361D01*
X117414Y436750D01*
Y423250D01*
X117757Y420639D01*
X118765Y418207D01*
X120368Y416118D01*
X122457Y414515D01*
X124889Y413507D01*
X127500Y413164D01*
X130111Y413507D01*
X132543Y414515D01*
X134632Y416118D01*
X136235Y418207D01*
X137243Y420639D01*
X137586Y423250D01*
Y436750D01*
X137243Y439361D01*
X136235Y441793D01*
X134632Y443882D01*
X132543Y445485D01*
X130111Y446493D01*
X127500Y446836D01*
D02*
G37*
G36*
X49541Y460024D02*
X30459D01*
Y443959D01*
X49541D01*
Y448657D01*
X65878D01*
X73465Y441070D01*
X72757Y439361D01*
X72414Y436750D01*
Y423250D01*
X72757Y420639D01*
X73765Y418207D01*
X75368Y416118D01*
X77457Y414515D01*
X79889Y413507D01*
X82500Y413164D01*
X85111Y413507D01*
X87543Y414515D01*
X89632Y416118D01*
X91235Y418207D01*
X92243Y420639D01*
X92586Y423250D01*
Y436750D01*
X92243Y439361D01*
X91235Y441793D01*
X89632Y443882D01*
X87543Y445485D01*
X85111Y446493D01*
X82500Y446836D01*
X79889Y446493D01*
X78180Y445785D01*
X69616Y454349D01*
X68534Y455072D01*
X67259Y455326D01*
X49541D01*
Y460024D01*
D02*
G37*
G36*
X937845Y410996D02*
X923575D01*
Y404226D01*
X937845D01*
Y410996D01*
D02*
G37*
G36*
X921035D02*
X906765D01*
Y404226D01*
X921035D01*
Y410996D01*
D02*
G37*
G36*
X165000Y431879D02*
X161084Y431364D01*
X157435Y429852D01*
X154302Y427448D01*
X151897Y424315D01*
X150386Y420666D01*
X149871Y416750D01*
X150386Y412834D01*
X151897Y409185D01*
X154302Y406052D01*
X157435Y403647D01*
X161084Y402136D01*
X165000Y401621D01*
X168916Y402136D01*
X172565Y403647D01*
X175698Y406052D01*
X178102Y409185D01*
X179614Y412834D01*
X180129Y416750D01*
X179614Y420666D01*
X178102Y424315D01*
X175698Y427448D01*
X172565Y429852D01*
X168916Y431364D01*
X165000Y431879D01*
D02*
G37*
G36*
X783305Y410456D02*
X753305D01*
Y395456D01*
X783305D01*
Y410456D01*
D02*
G37*
G36*
X937845Y401686D02*
X923575D01*
Y394916D01*
X937845D01*
Y401686D01*
D02*
G37*
G36*
X921035D02*
X906765D01*
Y394916D01*
X921035D01*
Y401686D01*
D02*
G37*
G36*
X278277Y397750D02*
X274723D01*
X271289Y396830D01*
X268211Y395053D01*
X265697Y392539D01*
X263920Y389461D01*
X263000Y386027D01*
Y382473D01*
X263920Y379039D01*
X265697Y375961D01*
X268211Y373447D01*
X271289Y371670D01*
X274723Y370750D01*
X278277D01*
X281711Y371670D01*
X284789Y373447D01*
X287303Y375961D01*
X289080Y379039D01*
X290000Y382473D01*
Y386027D01*
X289080Y389461D01*
X287303Y392539D01*
X284789Y395053D01*
X281711Y396830D01*
X278277Y397750D01*
D02*
G37*
G36*
X478081Y375976D02*
X470030D01*
Y369183D01*
X478081D01*
Y375976D01*
D02*
G37*
G36*
X467490D02*
X459439D01*
Y369183D01*
X467490D01*
Y375976D01*
D02*
G37*
G36*
X656144Y368250D02*
X653856D01*
X651743Y367375D01*
X650125Y365757D01*
X650125Y365755D01*
X647375D01*
X647375Y365757D01*
X645757Y367375D01*
X643644Y368250D01*
X641356D01*
X639243Y367375D01*
X637625Y365757D01*
X637625Y365755D01*
X634875D01*
X634875Y365757D01*
X633257Y367375D01*
X631144Y368250D01*
X628856D01*
X626743Y367375D01*
X625125Y365757D01*
X625125Y365755D01*
X622375D01*
X622375Y365757D01*
X620757Y367375D01*
X618644Y368250D01*
X616356D01*
X614243Y367375D01*
X612625Y365757D01*
X611750Y363644D01*
Y361356D01*
X612625Y359243D01*
X614243Y357625D01*
X616356Y356750D01*
X618535D01*
X621666Y353619D01*
Y311881D01*
X608285Y298500D01*
X598000D01*
Y281500D01*
X613000D01*
Y293785D01*
X627357Y308143D01*
X628080Y309224D01*
X628317Y310416D01*
X628580Y310588D01*
X630874Y311411D01*
X641245Y301040D01*
X640193Y298500D01*
X627500D01*
Y281500D01*
X631666D01*
Y269250D01*
X628500D01*
Y250750D01*
X642000D01*
Y269250D01*
X638334D01*
Y281500D01*
X642500D01*
Y296193D01*
X645040Y297245D01*
X648500Y293785D01*
Y281500D01*
X663500D01*
Y298500D01*
X665764Y299166D01*
X675236D01*
X677500Y298500D01*
X677500Y296626D01*
Y281500D01*
X681666D01*
Y269250D01*
X678500D01*
Y250750D01*
X692000D01*
Y269250D01*
X688334D01*
Y281500D01*
X692500D01*
Y296626D01*
X692500Y298500D01*
X694764Y299166D01*
X696236D01*
X698500Y298500D01*
Y281500D01*
X713500D01*
Y298500D01*
X709512D01*
Y298822D01*
X709258Y300098D01*
X708535Y301180D01*
X705589Y304126D01*
X706624Y306666D01*
X746119D01*
X751745Y301040D01*
X750693Y298500D01*
X748500D01*
Y281500D01*
X763500D01*
Y298500D01*
X759334D01*
Y301500D01*
X759080Y302776D01*
X758357Y303858D01*
X749857Y312358D01*
X748776Y313080D01*
X747500Y313334D01*
X653881D01*
X650834Y316381D01*
Y353619D01*
X653965Y356750D01*
X656144D01*
X658257Y357625D01*
X659875Y359243D01*
X660750Y361356D01*
Y363644D01*
X659875Y365757D01*
X658257Y367375D01*
X656144Y368250D01*
D02*
G37*
G36*
X236355Y374540D02*
X236270D01*
Y365520D01*
X245290D01*
Y365605D01*
X244589Y368222D01*
X243234Y370568D01*
X241318Y372484D01*
X238972Y373839D01*
X236355Y374540D01*
D02*
G37*
G36*
X233730D02*
X233645D01*
X231028Y373839D01*
X228682Y372484D01*
X226766Y370568D01*
X225411Y368222D01*
X224710Y365605D01*
Y365520D01*
X233730D01*
Y374540D01*
D02*
G37*
G36*
X947551Y372102D02*
X939758D01*
Y363551D01*
X947551D01*
Y372102D01*
D02*
G37*
G36*
X401286Y368683D02*
X393493D01*
Y360132D01*
X401286D01*
Y368683D01*
D02*
G37*
G36*
X334305D02*
X326511D01*
Y360132D01*
X334305D01*
Y368683D01*
D02*
G37*
G36*
X245290Y362980D02*
X236270D01*
Y353960D01*
X236355D01*
X238972Y354661D01*
X241318Y356016D01*
X243234Y357932D01*
X244589Y360278D01*
X245290Y362895D01*
Y362980D01*
D02*
G37*
G36*
X233730D02*
X224710D01*
Y362895D01*
X225411Y360278D01*
X226766Y357932D01*
X228682Y356016D01*
X231028Y354661D01*
X233645Y353960D01*
X233730D01*
Y362980D01*
D02*
G37*
G36*
X947551Y361011D02*
X939758D01*
Y352460D01*
X947551D01*
Y361011D01*
D02*
G37*
G36*
X401286Y357592D02*
X393493D01*
Y349041D01*
X401286D01*
Y357592D01*
D02*
G37*
G36*
X334305D02*
X326511D01*
Y349041D01*
X334305D01*
Y357592D01*
D02*
G37*
G36*
X331230Y317121D02*
X322679D01*
Y309328D01*
X331230D01*
Y317121D01*
D02*
G37*
G36*
X518827Y310480D02*
X518770D01*
Y301670D01*
X527580D01*
Y301727D01*
X526893Y304291D01*
X525566Y306589D01*
X523689Y308466D01*
X521391Y309793D01*
X518827Y310480D01*
D02*
G37*
G36*
X516230D02*
X516173D01*
X513609Y309793D01*
X511311Y308466D01*
X509434Y306589D01*
X508107Y304291D01*
X507420Y301727D01*
Y301670D01*
X516230D01*
Y310480D01*
D02*
G37*
G36*
X527580Y299130D02*
X518770D01*
Y290320D01*
X518827D01*
X521391Y291007D01*
X523689Y292334D01*
X525566Y294211D01*
X526893Y296509D01*
X527580Y299073D01*
Y299130D01*
D02*
G37*
G36*
X516230D02*
X507420D01*
Y299073D01*
X508107Y296509D01*
X509434Y294211D01*
X511311Y292334D01*
X513609Y291007D01*
X516173Y290320D01*
X516230D01*
Y299130D01*
D02*
G37*
G36*
X518756Y284540D02*
X516244D01*
X513818Y283890D01*
X511642Y282634D01*
X509866Y280858D01*
X508610Y278682D01*
X507960Y276256D01*
Y273744D01*
X508610Y271318D01*
X509866Y269142D01*
X511642Y267366D01*
X513818Y266110D01*
X516244Y265460D01*
X518756D01*
X521182Y266110D01*
X523358Y267366D01*
X525134Y269142D01*
X526390Y271318D01*
X527040Y273744D01*
Y276256D01*
X526390Y278682D01*
X525134Y280858D01*
X523358Y282634D01*
X521182Y283890D01*
X518756Y284540D01*
D02*
G37*
G36*
X762040Y269790D02*
X756020D01*
Y261270D01*
X762040D01*
Y269790D01*
D02*
G37*
G36*
X753480D02*
X747460D01*
Y261270D01*
X753480D01*
Y269790D01*
D02*
G37*
G36*
X712040D02*
X706020D01*
Y261270D01*
X712040D01*
Y269790D01*
D02*
G37*
G36*
X703480D02*
X697460D01*
Y261270D01*
X703480D01*
Y269790D01*
D02*
G37*
G36*
X662040D02*
X656020D01*
Y261270D01*
X662040D01*
Y269790D01*
D02*
G37*
G36*
X653480D02*
X647460D01*
Y261270D01*
X653480D01*
Y269790D01*
D02*
G37*
G36*
X612040D02*
X606020D01*
Y261270D01*
X612040D01*
Y269790D01*
D02*
G37*
G36*
X603480D02*
X597460D01*
Y261270D01*
X603480D01*
Y269790D01*
D02*
G37*
G36*
X742500Y298500D02*
X727500D01*
Y281500D01*
X731666D01*
Y269250D01*
X728500D01*
Y250750D01*
X742000D01*
Y269250D01*
X738334D01*
Y281500D01*
X742500D01*
Y298500D01*
D02*
G37*
G36*
X592000D02*
X577000D01*
Y281500D01*
X581166D01*
Y269250D01*
X578500D01*
Y250750D01*
X592000D01*
Y269250D01*
X587834D01*
Y281500D01*
X592000D01*
Y298500D01*
D02*
G37*
G36*
X762040Y258730D02*
X756020D01*
Y250210D01*
X762040D01*
Y258730D01*
D02*
G37*
G36*
X753480D02*
X747460D01*
Y250210D01*
X753480D01*
Y258730D01*
D02*
G37*
G36*
X712040D02*
X706020D01*
Y250210D01*
X712040D01*
Y258730D01*
D02*
G37*
G36*
X703480D02*
X697460D01*
Y250210D01*
X703480D01*
Y258730D01*
D02*
G37*
G36*
X662040D02*
X656020D01*
Y250210D01*
X662040D01*
Y258730D01*
D02*
G37*
G36*
X653480D02*
X647460D01*
Y250210D01*
X653480D01*
Y258730D01*
D02*
G37*
G36*
X612040D02*
X606020D01*
Y250210D01*
X612040D01*
Y258730D01*
D02*
G37*
G36*
X603480D02*
X597460D01*
Y250210D01*
X603480D01*
Y258730D01*
D02*
G37*
G36*
X333793Y248446D02*
X326000D01*
Y239895D01*
X333793D01*
Y248446D01*
D02*
G37*
G36*
Y237355D02*
X326000D01*
Y228804D01*
X333793D01*
Y237355D01*
D02*
G37*
G36*
X278277Y241750D02*
X274723D01*
X271289Y240830D01*
X268211Y239053D01*
X265697Y236539D01*
X263920Y233461D01*
X263000Y230027D01*
Y226473D01*
X263920Y223039D01*
X265697Y219961D01*
X268211Y217447D01*
X271289Y215670D01*
X274723Y214750D01*
X278277D01*
X281711Y215670D01*
X284789Y217447D01*
X287303Y219961D01*
X289080Y223039D01*
X290000Y226473D01*
Y230027D01*
X289080Y233461D01*
X287303Y236539D01*
X284789Y239053D01*
X281711Y240830D01*
X278277Y241750D01*
D02*
G37*
G36*
X145277D02*
X141723D01*
X138289Y240830D01*
X135211Y239053D01*
X132697Y236539D01*
X130920Y233461D01*
X130000Y230027D01*
Y226473D01*
X130920Y223039D01*
X132697Y219961D01*
X135211Y217447D01*
X138289Y215670D01*
X141723Y214750D01*
X145277D01*
X148711Y215670D01*
X151789Y217447D01*
X154303Y219961D01*
X156080Y223039D01*
X157000Y226473D01*
Y230027D01*
X156080Y233461D01*
X154303Y236539D01*
X151789Y239053D01*
X148711Y240830D01*
X145277Y241750D01*
D02*
G37*
G36*
X338770Y218782D02*
Y213770D01*
X343782D01*
X342832Y216063D01*
X341063Y217832D01*
X338770Y218782D01*
D02*
G37*
G36*
X336230D02*
X333937Y217832D01*
X332168Y216063D01*
X331218Y213770D01*
X336230D01*
Y218782D01*
D02*
G37*
G36*
X343782Y211230D02*
X338770D01*
Y206218D01*
X341063Y207168D01*
X342832Y208937D01*
X343782Y211230D01*
D02*
G37*
G36*
X336230D02*
X331218D01*
X332168Y208937D01*
X333937Y207168D01*
X336230Y206218D01*
Y211230D01*
D02*
G37*
G36*
X255000Y210879D02*
X251084Y210364D01*
X247435Y208853D01*
X244302Y206448D01*
X241898Y203315D01*
X240386Y199666D01*
X239871Y195750D01*
X240386Y191834D01*
X241898Y188185D01*
X244302Y185052D01*
X247435Y182647D01*
X251084Y181136D01*
X255000Y180621D01*
X258916Y181136D01*
X262565Y182647D01*
X265698Y185052D01*
X268102Y188185D01*
X269614Y191834D01*
X270129Y195750D01*
X269614Y199666D01*
X268102Y203315D01*
X265698Y206448D01*
X262565Y208853D01*
X258916Y210364D01*
X255000Y210879D01*
D02*
G37*
G36*
X165000D02*
X161084Y210364D01*
X157435Y208853D01*
X154302Y206448D01*
X151897Y203315D01*
X150386Y199666D01*
X149871Y195750D01*
X150386Y191834D01*
X151897Y188185D01*
X154302Y185052D01*
X157435Y182647D01*
X161084Y181136D01*
X165000Y180621D01*
X168916Y181136D01*
X172565Y182647D01*
X175698Y185052D01*
X178102Y188185D01*
X179614Y191834D01*
X180129Y195750D01*
X179614Y199666D01*
X178102Y203315D01*
X175698Y206448D01*
X172565Y208853D01*
X168916Y210364D01*
X165000Y210879D01*
D02*
G37*
G36*
X703784Y199750D02*
X701216D01*
X698737Y199086D01*
X696513Y197802D01*
X694698Y195987D01*
X693414Y193763D01*
X692750Y191284D01*
Y188716D01*
X693414Y186237D01*
X694698Y184013D01*
X696513Y182198D01*
X698737Y180914D01*
X701216Y180250D01*
X703784D01*
X706263Y180914D01*
X708487Y182198D01*
X710302Y184013D01*
X711585Y186237D01*
X712250Y188716D01*
Y191284D01*
X711585Y193763D01*
X710302Y195987D01*
X708487Y197802D01*
X706263Y199086D01*
X703784Y199750D01*
D02*
G37*
G36*
X568784D02*
X566216D01*
X563737Y199086D01*
X561513Y197802D01*
X559698Y195987D01*
X558414Y193763D01*
X557750Y191284D01*
Y188716D01*
X558414Y186237D01*
X559698Y184013D01*
X561513Y182198D01*
X563737Y180914D01*
X566216Y180250D01*
X568784D01*
X571263Y180914D01*
X573487Y182198D01*
X575302Y184013D01*
X576586Y186237D01*
X577250Y188716D01*
Y191284D01*
X576586Y193763D01*
X575302Y195987D01*
X573487Y197802D01*
X571263Y199086D01*
X568784Y199750D01*
D02*
G37*
G36*
X747581Y187090D02*
X738770D01*
Y179787D01*
X747581D01*
Y187090D01*
D02*
G37*
G36*
X736230D02*
X727419D01*
Y179787D01*
X736230D01*
Y187090D01*
D02*
G37*
G36*
X612581Y186581D02*
X603770D01*
Y179279D01*
X612581D01*
Y186581D01*
D02*
G37*
G36*
X601230D02*
X592419D01*
Y179279D01*
X601230D01*
Y186581D01*
D02*
G37*
G36*
X308855Y186040D02*
X308770D01*
Y177020D01*
X317790D01*
Y177105D01*
X317089Y179722D01*
X315734Y182068D01*
X313818Y183984D01*
X311472Y185339D01*
X308855Y186040D01*
D02*
G37*
G36*
X306230D02*
X306145D01*
X303528Y185339D01*
X301182Y183984D01*
X299266Y182068D01*
X297911Y179722D01*
X297210Y177105D01*
Y177020D01*
X306230D01*
Y186040D01*
D02*
G37*
G36*
X747581Y177247D02*
X738770D01*
Y169945D01*
X747581D01*
Y177247D01*
D02*
G37*
G36*
X736230D02*
X727419D01*
Y169945D01*
X736230D01*
Y177247D01*
D02*
G37*
G36*
X612581Y176739D02*
X603770D01*
Y169436D01*
X612581D01*
Y176739D01*
D02*
G37*
G36*
X601230D02*
X592419D01*
Y169436D01*
X601230D01*
Y176739D01*
D02*
G37*
G36*
X127500Y199336D02*
X124889Y198993D01*
X122457Y197985D01*
X120368Y196382D01*
X118765Y194293D01*
X117757Y191861D01*
X117414Y189250D01*
Y175750D01*
X117757Y173139D01*
X118765Y170707D01*
X120368Y168618D01*
X122457Y167015D01*
X124889Y166007D01*
X127500Y165664D01*
X130111Y166007D01*
X132543Y167015D01*
X134632Y168618D01*
X136235Y170707D01*
X137243Y173139D01*
X137586Y175750D01*
Y189250D01*
X137243Y191861D01*
X136235Y194293D01*
X134632Y196382D01*
X132543Y197985D01*
X130111Y198993D01*
X127500Y199336D01*
D02*
G37*
G36*
X317790Y174480D02*
X308770D01*
Y165460D01*
X308855D01*
X311472Y166161D01*
X313818Y167516D01*
X315734Y169432D01*
X317089Y171778D01*
X317790Y174395D01*
Y174480D01*
D02*
G37*
G36*
X306230D02*
X297210D01*
Y174395D01*
X297911Y171778D01*
X299266Y169432D01*
X301182Y167516D01*
X303528Y166161D01*
X306145Y165460D01*
X306230D01*
Y174480D01*
D02*
G37*
G36*
X50081Y169081D02*
X41270D01*
Y161779D01*
X50081D01*
Y169081D01*
D02*
G37*
G36*
X38730D02*
X29919D01*
Y161779D01*
X38730D01*
Y169081D01*
D02*
G37*
G36*
X50081Y159239D02*
X41270D01*
Y151936D01*
X50081D01*
Y159239D01*
D02*
G37*
G36*
X38730D02*
X29919D01*
Y151936D01*
X38730D01*
Y159239D01*
D02*
G37*
G36*
X747041Y165532D02*
X727959D01*
Y154183D01*
X722110Y148334D01*
X711701D01*
X711585Y148763D01*
X710302Y150987D01*
X708487Y152802D01*
X706263Y154086D01*
X703784Y154750D01*
X701216D01*
X698737Y154086D01*
X696513Y152802D01*
X694698Y150987D01*
X693414Y148763D01*
X692750Y146284D01*
Y143716D01*
X693414Y141237D01*
X694698Y139013D01*
X696513Y137198D01*
X698737Y135914D01*
X701216Y135250D01*
X703784D01*
X706263Y135914D01*
X708487Y137198D01*
X710302Y139013D01*
X711585Y141237D01*
X711701Y141666D01*
X723491D01*
X724767Y141920D01*
X725849Y142642D01*
X732674Y149467D01*
X747041D01*
Y165532D01*
D02*
G37*
G36*
X612041Y165024D02*
X592959D01*
Y153674D01*
X587619Y148334D01*
X576701D01*
X576586Y148763D01*
X575302Y150987D01*
X573487Y152802D01*
X571263Y154086D01*
X568784Y154750D01*
X566216D01*
X563737Y154086D01*
X561513Y152802D01*
X559698Y150987D01*
X558414Y148763D01*
X557750Y146284D01*
Y143716D01*
X558414Y141237D01*
X559698Y139013D01*
X561513Y137198D01*
X563737Y135914D01*
X566216Y135250D01*
X568784D01*
X571263Y135914D01*
X573487Y137198D01*
X575302Y139013D01*
X576586Y141237D01*
X576701Y141666D01*
X589000D01*
X590276Y141920D01*
X591357Y142642D01*
X597674Y148959D01*
X612041D01*
Y165024D01*
D02*
G37*
G36*
X105000Y165879D02*
X101084Y165364D01*
X97435Y163853D01*
X94302Y161448D01*
X91897Y158315D01*
X90386Y154666D01*
X89871Y150750D01*
X90386Y146834D01*
X91897Y143185D01*
X94302Y140052D01*
X97435Y137647D01*
X101084Y136136D01*
X105000Y135621D01*
X108916Y136136D01*
X112565Y137647D01*
X115698Y140052D01*
X118103Y143185D01*
X119614Y146834D01*
X120129Y150750D01*
X119614Y154666D01*
X118103Y158315D01*
X115698Y161448D01*
X112565Y163853D01*
X108916Y165364D01*
X105000Y165879D01*
D02*
G37*
G36*
X773784Y154750D02*
X771216D01*
X768737Y154086D01*
X766513Y152802D01*
X764698Y150987D01*
X763414Y148763D01*
X762750Y146284D01*
Y143716D01*
X763414Y141237D01*
X764698Y139013D01*
X766513Y137198D01*
X768737Y135914D01*
X771216Y135250D01*
X773784D01*
X776263Y135914D01*
X778487Y137198D01*
X780302Y139013D01*
X781585Y141237D01*
X782250Y143716D01*
Y146284D01*
X781585Y148763D01*
X780302Y150987D01*
X778487Y152802D01*
X776263Y154086D01*
X773784Y154750D01*
D02*
G37*
G36*
X638784D02*
X636216D01*
X633737Y154086D01*
X631513Y152802D01*
X629698Y150987D01*
X628414Y148763D01*
X627750Y146284D01*
Y143716D01*
X628414Y141237D01*
X629698Y139013D01*
X631513Y137198D01*
X633737Y135914D01*
X636216Y135250D01*
X638784D01*
X641263Y135914D01*
X643487Y137198D01*
X645302Y139013D01*
X646585Y141237D01*
X647250Y143716D01*
Y146284D01*
X646585Y148763D01*
X645302Y150987D01*
X643487Y152802D01*
X641263Y154086D01*
X638784Y154750D01*
D02*
G37*
G36*
X127500Y135836D02*
X124889Y135493D01*
X122457Y134485D01*
X120368Y132882D01*
X118765Y130793D01*
X117757Y128361D01*
X117414Y125750D01*
Y112250D01*
X117757Y109640D01*
X118765Y107207D01*
X120368Y105118D01*
X122457Y103515D01*
X124889Y102507D01*
X127500Y102164D01*
X130111Y102507D01*
X132543Y103515D01*
X134632Y105118D01*
X136235Y107207D01*
X137243Y109640D01*
X137586Y112250D01*
Y125750D01*
X137243Y128361D01*
X136235Y130793D01*
X134632Y132882D01*
X132543Y134485D01*
X130111Y135493D01*
X127500Y135836D01*
D02*
G37*
G36*
X49541Y147524D02*
X30459D01*
Y131459D01*
X49541D01*
Y136157D01*
X67378D01*
X73465Y130070D01*
X72757Y128361D01*
X72414Y125750D01*
Y112250D01*
X72757Y109640D01*
X73765Y107207D01*
X75368Y105118D01*
X77457Y103515D01*
X79889Y102507D01*
X82500Y102164D01*
X85111Y102507D01*
X87543Y103515D01*
X89632Y105118D01*
X91235Y107207D01*
X92243Y109640D01*
X92586Y112250D01*
Y125750D01*
X92243Y128361D01*
X91235Y130793D01*
X89632Y132882D01*
X87543Y134485D01*
X85111Y135493D01*
X82500Y135836D01*
X79889Y135493D01*
X78180Y134785D01*
X71116Y141849D01*
X70034Y142572D01*
X68759Y142825D01*
X49541D01*
Y147524D01*
D02*
G37*
G36*
X165000Y120879D02*
X161084Y120364D01*
X157435Y118852D01*
X154302Y116448D01*
X151897Y113315D01*
X150386Y109666D01*
X149871Y105750D01*
X150386Y101834D01*
X151897Y98185D01*
X154302Y95052D01*
X157435Y92647D01*
X161084Y91136D01*
X165000Y90620D01*
X168916Y91136D01*
X172565Y92647D01*
X175698Y95052D01*
X178102Y98185D01*
X179614Y101834D01*
X180129Y105750D01*
X179614Y109666D01*
X178102Y113315D01*
X175698Y116448D01*
X172565Y118852D01*
X168916Y120364D01*
X165000Y120879D01*
D02*
G37*
G36*
X278277Y86750D02*
X274723D01*
X271289Y85830D01*
X268211Y84053D01*
X265697Y81539D01*
X263920Y78461D01*
X263000Y75027D01*
Y71473D01*
X263920Y68039D01*
X265697Y64961D01*
X268211Y62447D01*
X271289Y60670D01*
X274723Y59750D01*
X278277D01*
X281711Y60670D01*
X284789Y62447D01*
X287303Y64961D01*
X289080Y68039D01*
X290000Y71473D01*
Y75027D01*
X289080Y78461D01*
X287303Y81539D01*
X284789Y84053D01*
X281711Y85830D01*
X278277Y86750D01*
D02*
G37*
G36*
X145277D02*
X141723D01*
X138289Y85830D01*
X135211Y84053D01*
X132697Y81539D01*
X130920Y78461D01*
X130000Y75027D01*
Y71473D01*
X130920Y68039D01*
X132697Y64961D01*
X135211Y62447D01*
X138289Y60670D01*
X141723Y59750D01*
X145277D01*
X148711Y60670D01*
X151789Y62447D01*
X154303Y64961D01*
X156080Y68039D01*
X157000Y71473D01*
Y75027D01*
X156080Y78461D01*
X154303Y81539D01*
X151789Y84053D01*
X148711Y85830D01*
X145277Y86750D01*
D02*
G37*
G36*
X236355Y63540D02*
X236270D01*
Y54520D01*
X245290D01*
Y54605D01*
X244589Y57222D01*
X243234Y59568D01*
X241318Y61484D01*
X238972Y62839D01*
X236355Y63540D01*
D02*
G37*
G36*
X233730D02*
X233645D01*
X231028Y62839D01*
X228682Y61484D01*
X226766Y59568D01*
X225411Y57222D01*
X224710Y54605D01*
Y54520D01*
X233730D01*
Y63540D01*
D02*
G37*
G36*
X245290Y51980D02*
X236270D01*
Y42960D01*
X236355D01*
X238972Y43661D01*
X241318Y45016D01*
X243234Y46932D01*
X244589Y49278D01*
X245290Y51895D01*
Y51980D01*
D02*
G37*
G36*
X233730D02*
X224710D01*
Y51895D01*
X225411Y49278D01*
X226766Y46932D01*
X228682Y45016D01*
X231028Y43661D01*
X233645Y42960D01*
X233730D01*
Y51980D01*
D02*
G37*
G36*
X442898Y583595D02*
Y578583D01*
X447911D01*
X446961Y580876D01*
X445191Y582645D01*
X442898Y583595D01*
D02*
G37*
G36*
X440359D02*
X438065Y582645D01*
X436296Y580876D01*
X435346Y578583D01*
X440359D01*
Y583595D01*
D02*
G37*
G36*
X513090Y569640D02*
X504320D01*
Y563870D01*
X513090D01*
Y569640D01*
D02*
G37*
G36*
X1175000Y510129D02*
X1171084Y509614D01*
X1167435Y508102D01*
X1164302Y505698D01*
X1161898Y502565D01*
X1160386Y498916D01*
X1159871Y495000D01*
X1160386Y491084D01*
X1161898Y487435D01*
X1164302Y484302D01*
X1167435Y481898D01*
X1171084Y480386D01*
X1175000Y479871D01*
X1178916Y480386D01*
X1182565Y481898D01*
X1185698Y484302D01*
X1188102Y487435D01*
X1189614Y491084D01*
X1190129Y495000D01*
X1189614Y498916D01*
X1188102Y502565D01*
X1185698Y505698D01*
X1182565Y508102D01*
X1178916Y509614D01*
X1175000Y510129D01*
D02*
G37*
G36*
X1212500Y498586D02*
X1209890Y498243D01*
X1207457Y497235D01*
X1205368Y495632D01*
X1203765Y493543D01*
X1202757Y491110D01*
X1202414Y488500D01*
Y475000D01*
X1202757Y472389D01*
X1203765Y469957D01*
X1205368Y467868D01*
X1207457Y466265D01*
X1209890Y465257D01*
X1212500Y464914D01*
X1215110Y465257D01*
X1217543Y466265D01*
X1219632Y467868D01*
X1221235Y469957D01*
X1222243Y472389D01*
X1222586Y475000D01*
Y488500D01*
X1222243Y491110D01*
X1221235Y493543D01*
X1219632Y495632D01*
X1217543Y497235D01*
X1215110Y498243D01*
X1212500Y498586D01*
D02*
G37*
G36*
X1257500D02*
X1254890Y498243D01*
X1252457Y497235D01*
X1250368Y495632D01*
X1248765Y493543D01*
X1247757Y491110D01*
X1247414Y488500D01*
Y475000D01*
X1247757Y472389D01*
X1248765Y469957D01*
X1250368Y467868D01*
X1252457Y466265D01*
X1254890Y465257D01*
X1257500Y464914D01*
X1260110Y465257D01*
X1261820Y465965D01*
X1272134Y455651D01*
X1273215Y454928D01*
X1274491Y454674D01*
X1292959D01*
Y449976D01*
X1312041D01*
Y466041D01*
X1292959D01*
Y461343D01*
X1275872D01*
X1266535Y470680D01*
X1267243Y472389D01*
X1267586Y475000D01*
Y488500D01*
X1267243Y491110D01*
X1266235Y493543D01*
X1264632Y495632D01*
X1262543Y497235D01*
X1260110Y498243D01*
X1257500Y498586D01*
D02*
G37*
G36*
X1312581Y445564D02*
X1303770D01*
Y438261D01*
X1312581D01*
Y445564D01*
D02*
G37*
G36*
X1301230D02*
X1292419D01*
Y438261D01*
X1301230D01*
Y445564D01*
D02*
G37*
G36*
X1235000Y465129D02*
X1231084Y464614D01*
X1227435Y463102D01*
X1224302Y460698D01*
X1221898Y457565D01*
X1220386Y453916D01*
X1219871Y450000D01*
X1220386Y446084D01*
X1221898Y442435D01*
X1224302Y439302D01*
X1227435Y436898D01*
X1231084Y435386D01*
X1235000Y434871D01*
X1238916Y435386D01*
X1242565Y436898D01*
X1245698Y439302D01*
X1248102Y442435D01*
X1249614Y446084D01*
X1250129Y450000D01*
X1249614Y453916D01*
X1248102Y457565D01*
X1245698Y460698D01*
X1242565Y463102D01*
X1238916Y464614D01*
X1235000Y465129D01*
D02*
G37*
G36*
X1312581Y435722D02*
X1303770D01*
Y428419D01*
X1312581D01*
Y435722D01*
D02*
G37*
G36*
X1301230D02*
X1292419D01*
Y428419D01*
X1301230D01*
Y435722D01*
D02*
G37*
G36*
X1033855Y435290D02*
X1033770D01*
Y426270D01*
X1042790D01*
Y426355D01*
X1042089Y428972D01*
X1040734Y431318D01*
X1038818Y433234D01*
X1036472Y434589D01*
X1033855Y435290D01*
D02*
G37*
G36*
X1031230D02*
X1031145D01*
X1028528Y434589D01*
X1026182Y433234D01*
X1024266Y431318D01*
X1022911Y428972D01*
X1022210Y426355D01*
Y426270D01*
X1031230D01*
Y435290D01*
D02*
G37*
G36*
X1042790Y423730D02*
X1033770D01*
Y414710D01*
X1033855D01*
X1036472Y415411D01*
X1038818Y416766D01*
X1040734Y418682D01*
X1042089Y421028D01*
X1042790Y423645D01*
Y423730D01*
D02*
G37*
G36*
X1031230D02*
X1022210D01*
Y423645D01*
X1022911Y421028D01*
X1024266Y418682D01*
X1026182Y416766D01*
X1028528Y415411D01*
X1031145Y414710D01*
X1031230D01*
Y423730D01*
D02*
G37*
G36*
X1212500Y435086D02*
X1209890Y434743D01*
X1207457Y433735D01*
X1205368Y432132D01*
X1203765Y430043D01*
X1202757Y427611D01*
X1202414Y425000D01*
Y411500D01*
X1202757Y408890D01*
X1203765Y406457D01*
X1205368Y404368D01*
X1207457Y402765D01*
X1209890Y401757D01*
X1212500Y401414D01*
X1215110Y401757D01*
X1217543Y402765D01*
X1219632Y404368D01*
X1221235Y406457D01*
X1222243Y408890D01*
X1222586Y411500D01*
Y425000D01*
X1222243Y427611D01*
X1221235Y430043D01*
X1219632Y432132D01*
X1217543Y433735D01*
X1215110Y434743D01*
X1212500Y435086D01*
D02*
G37*
G36*
X1175000Y420129D02*
X1171084Y419614D01*
X1167435Y418102D01*
X1164302Y415698D01*
X1161898Y412565D01*
X1160386Y408916D01*
X1159871Y405000D01*
X1160386Y401084D01*
X1161898Y397435D01*
X1164302Y394302D01*
X1167435Y391898D01*
X1171084Y390386D01*
X1175000Y389870D01*
X1178916Y390386D01*
X1182565Y391898D01*
X1185698Y394302D01*
X1188102Y397435D01*
X1189614Y401084D01*
X1190129Y405000D01*
X1189614Y408916D01*
X1188102Y412565D01*
X1185698Y415698D01*
X1182565Y418102D01*
X1178916Y419614D01*
X1175000Y420129D01*
D02*
G37*
G36*
X1085000D02*
X1081084Y419614D01*
X1077435Y418102D01*
X1074302Y415698D01*
X1071898Y412565D01*
X1070386Y408916D01*
X1069871Y405000D01*
X1070386Y401084D01*
X1071898Y397435D01*
X1074302Y394302D01*
X1077435Y391898D01*
X1081084Y390386D01*
X1085000Y389870D01*
X1088916Y390386D01*
X1092565Y391898D01*
X1095698Y394302D01*
X1098102Y397435D01*
X1099614Y401084D01*
X1100129Y405000D01*
X1099614Y408916D01*
X1098102Y412565D01*
X1095698Y415698D01*
X1092565Y418102D01*
X1088916Y419614D01*
X1085000Y420129D01*
D02*
G37*
G36*
X1014000Y372102D02*
X1006207D01*
Y363551D01*
X1014000D01*
Y372102D01*
D02*
G37*
G36*
X1198277Y386000D02*
X1194723D01*
X1191289Y385080D01*
X1188211Y383303D01*
X1185697Y380789D01*
X1183920Y377711D01*
X1183000Y374277D01*
Y370723D01*
X1183920Y367289D01*
X1185697Y364211D01*
X1188211Y361697D01*
X1191289Y359920D01*
X1194723Y359000D01*
X1198277D01*
X1201711Y359920D01*
X1204789Y361697D01*
X1207303Y364211D01*
X1209080Y367289D01*
X1210000Y370723D01*
Y374277D01*
X1209080Y377711D01*
X1207303Y380789D01*
X1204789Y383303D01*
X1201711Y385080D01*
X1198277Y386000D01*
D02*
G37*
G36*
X1065277D02*
X1061723D01*
X1058289Y385080D01*
X1055211Y383303D01*
X1052697Y380789D01*
X1050920Y377711D01*
X1050000Y374277D01*
Y370723D01*
X1050920Y367289D01*
X1052697Y364211D01*
X1055211Y361697D01*
X1058289Y359920D01*
X1061723Y359000D01*
X1065277D01*
X1068711Y359920D01*
X1071789Y361697D01*
X1074303Y364211D01*
X1076080Y367289D01*
X1077000Y370723D01*
Y374277D01*
X1076080Y377711D01*
X1074303Y380789D01*
X1071789Y383303D01*
X1068711Y385080D01*
X1065277Y386000D01*
D02*
G37*
G36*
X1014000Y361011D02*
X1006207D01*
Y352460D01*
X1014000D01*
Y361011D01*
D02*
G37*
G36*
X1017321Y290672D02*
X1008770D01*
Y282879D01*
X1017321D01*
Y290672D01*
D02*
G37*
G36*
X1014000Y250262D02*
X1006207D01*
Y241711D01*
X1014000D01*
Y250262D01*
D02*
G37*
G36*
X1106355Y246040D02*
X1106270D01*
Y237020D01*
X1115290D01*
Y237105D01*
X1114589Y239722D01*
X1113234Y242068D01*
X1111318Y243984D01*
X1108972Y245339D01*
X1106355Y246040D01*
D02*
G37*
G36*
X1103730D02*
X1103645D01*
X1101028Y245339D01*
X1098682Y243984D01*
X1096766Y242068D01*
X1095411Y239722D01*
X1094710Y237105D01*
Y237020D01*
X1103730D01*
Y246040D01*
D02*
G37*
G36*
X1014000Y239171D02*
X1006207D01*
Y230620D01*
X1014000D01*
Y239171D01*
D02*
G37*
G36*
X1115290Y234480D02*
X1106270D01*
Y225460D01*
X1106355D01*
X1108972Y226161D01*
X1111318Y227516D01*
X1113234Y229432D01*
X1114589Y231778D01*
X1115290Y234395D01*
Y234480D01*
D02*
G37*
G36*
X1103730D02*
X1094710D01*
Y234395D01*
X1095411Y231778D01*
X1096766Y229432D01*
X1098682Y227516D01*
X1101028Y226161D01*
X1103645Y225460D01*
X1103730D01*
Y234480D01*
D02*
G37*
G36*
X821327Y257180D02*
X821270D01*
Y248370D01*
X830080D01*
Y248427D01*
X829393Y250991D01*
X828066Y253289D01*
X826189Y255166D01*
X823891Y256493D01*
X821327Y257180D01*
D02*
G37*
G36*
X818730D02*
X818673D01*
X816109Y256493D01*
X813811Y255166D01*
X811934Y253289D01*
X810607Y250991D01*
X809920Y248427D01*
Y248370D01*
X818730D01*
Y257180D01*
D02*
G37*
G36*
X946868Y249782D02*
X939075D01*
Y241231D01*
X946868D01*
Y249782D01*
D02*
G37*
G36*
X830080Y245830D02*
X821270D01*
Y237020D01*
X821327D01*
X823891Y237707D01*
X826189Y239034D01*
X828066Y240911D01*
X829393Y243209D01*
X830080Y245773D01*
Y245830D01*
D02*
G37*
G36*
X818730D02*
X809920D01*
Y245773D01*
X810607Y243209D01*
X811934Y240911D01*
X813811Y239034D01*
X816109Y237707D01*
X818673Y237020D01*
X818730D01*
Y245830D01*
D02*
G37*
G36*
X946868Y238691D02*
X939075D01*
Y230140D01*
X946868D01*
Y238691D01*
D02*
G37*
G36*
X968784Y199750D02*
X966216D01*
X963737Y199086D01*
X961513Y197802D01*
X959698Y195987D01*
X958414Y193763D01*
X957750Y191284D01*
Y188716D01*
X958414Y186237D01*
X959698Y184013D01*
X961513Y182198D01*
X963737Y180914D01*
X966216Y180250D01*
X968784D01*
X971263Y180914D01*
X973487Y182198D01*
X975302Y184013D01*
X976585Y186237D01*
X977250Y188716D01*
Y191284D01*
X976585Y193763D01*
X975302Y195987D01*
X973487Y197802D01*
X971263Y199086D01*
X968784Y199750D01*
D02*
G37*
G36*
X838784Y199750D02*
X836216D01*
X833737Y199086D01*
X831513Y197802D01*
X829698Y195987D01*
X828414Y193763D01*
X827750Y191284D01*
Y188716D01*
X828414Y186237D01*
X829698Y184013D01*
X831513Y182198D01*
X833737Y180914D01*
X836216Y180250D01*
X838784D01*
X841263Y180914D01*
X843487Y182198D01*
X845302Y184013D01*
X846585Y186237D01*
X847250Y188716D01*
Y191284D01*
X846585Y193763D01*
X845302Y195987D01*
X843487Y197802D01*
X841263Y199086D01*
X838784Y199750D01*
D02*
G37*
G36*
X998730Y186581D02*
X989919D01*
Y179279D01*
X998730D01*
Y186581D01*
D02*
G37*
G36*
X880081Y186581D02*
X871270D01*
Y179279D01*
X880081D01*
Y186581D01*
D02*
G37*
G36*
X868730D02*
X859919D01*
Y179279D01*
X868730D01*
Y186581D01*
D02*
G37*
G36*
X1010081Y176739D02*
X1001270D01*
Y169436D01*
X1010081D01*
Y176739D01*
D02*
G37*
G36*
X998730D02*
X989919D01*
Y169436D01*
X998730D01*
Y176739D01*
D02*
G37*
G36*
X880081Y176739D02*
X871270D01*
Y169436D01*
X880081D01*
Y176739D01*
D02*
G37*
G36*
X868730D02*
X859919D01*
Y169436D01*
X868730D01*
Y176739D01*
D02*
G37*
G36*
X1175000Y198379D02*
X1171084Y197864D01*
X1167435Y196353D01*
X1164302Y193948D01*
X1161898Y190815D01*
X1160386Y187166D01*
X1159871Y183250D01*
X1160386Y179334D01*
X1161898Y175685D01*
X1164302Y172552D01*
X1167435Y170147D01*
X1171084Y168636D01*
X1175000Y168121D01*
X1178916Y168636D01*
X1182565Y170147D01*
X1185698Y172552D01*
X1188102Y175685D01*
X1189614Y179334D01*
X1190129Y183250D01*
X1189614Y187166D01*
X1188102Y190815D01*
X1185698Y193948D01*
X1182565Y196353D01*
X1178916Y197864D01*
X1175000Y198379D01*
D02*
G37*
G36*
X1212500Y186836D02*
X1209890Y186493D01*
X1207457Y185485D01*
X1205368Y183882D01*
X1203765Y181793D01*
X1202757Y179361D01*
X1202414Y176750D01*
Y163250D01*
X1202757Y160639D01*
X1203765Y158207D01*
X1205368Y156118D01*
X1207457Y154515D01*
X1209890Y153507D01*
X1212500Y153164D01*
X1215110Y153507D01*
X1217543Y154515D01*
X1219632Y156118D01*
X1221235Y158207D01*
X1222243Y160639D01*
X1222586Y163250D01*
Y176750D01*
X1222243Y179361D01*
X1221235Y181793D01*
X1219632Y183882D01*
X1217543Y185485D01*
X1215110Y186493D01*
X1212500Y186836D01*
D02*
G37*
G36*
X1009541Y165024D02*
X990459D01*
Y153674D01*
X985119Y148334D01*
X976701D01*
X976585Y148763D01*
X975302Y150987D01*
X973487Y152802D01*
X971263Y154086D01*
X968784Y154750D01*
X966216D01*
X963737Y154086D01*
X961513Y152802D01*
X959698Y150987D01*
X958414Y148763D01*
X957750Y146284D01*
Y143716D01*
X958414Y141237D01*
X959698Y139013D01*
X961513Y137198D01*
X963737Y135914D01*
X966216Y135250D01*
X968784D01*
X971263Y135914D01*
X973487Y137198D01*
X975302Y139013D01*
X976585Y141237D01*
X976701Y141666D01*
X986500D01*
X987776Y141920D01*
X988857Y142642D01*
X995174Y148959D01*
X1009541D01*
Y165024D01*
D02*
G37*
G36*
X879541Y165024D02*
X860459D01*
Y153674D01*
X855119Y148334D01*
X846701D01*
X846585Y148763D01*
X845302Y150987D01*
X843487Y152802D01*
X841263Y154086D01*
X838784Y154750D01*
X836216D01*
X833737Y154086D01*
X831513Y152802D01*
X829698Y150987D01*
X828414Y148763D01*
X827750Y146284D01*
Y143716D01*
X828414Y141237D01*
X829698Y139013D01*
X831513Y137198D01*
X833737Y135914D01*
X836216Y135250D01*
X838784D01*
X841263Y135914D01*
X843487Y137198D01*
X845302Y139013D01*
X846585Y141237D01*
X846701Y141666D01*
X856500D01*
X857776Y141920D01*
X858857Y142642D01*
X865174Y148959D01*
X879541D01*
Y165024D01*
D02*
G37*
G36*
X1257500Y186836D02*
X1254890Y186493D01*
X1252457Y185485D01*
X1250368Y183882D01*
X1248765Y181793D01*
X1247757Y179361D01*
X1247414Y176750D01*
Y163250D01*
X1247757Y160639D01*
X1248765Y158207D01*
X1250368Y156118D01*
X1252457Y154515D01*
X1254890Y153507D01*
X1257500Y153164D01*
X1260110Y153507D01*
X1261820Y154215D01*
X1270384Y145651D01*
X1271466Y144928D01*
X1272741Y144675D01*
X1292959D01*
Y139976D01*
X1312041D01*
Y156041D01*
X1292959D01*
Y151343D01*
X1274122D01*
X1266535Y158930D01*
X1267243Y160639D01*
X1267586Y163250D01*
Y176750D01*
X1267243Y179361D01*
X1266235Y181793D01*
X1264632Y183882D01*
X1262543Y185485D01*
X1260110Y186493D01*
X1257500Y186836D01*
D02*
G37*
G36*
X903784Y154750D02*
X901216D01*
X898737Y154086D01*
X896513Y152802D01*
X894698Y150987D01*
X893414Y148763D01*
X892750Y146284D01*
Y143716D01*
X893414Y141237D01*
X894698Y139013D01*
X896513Y137198D01*
X898737Y135914D01*
X901216Y135250D01*
X903784D01*
X906263Y135914D01*
X908487Y137198D01*
X910302Y139013D01*
X911585Y141237D01*
X912250Y143716D01*
Y146284D01*
X911585Y148763D01*
X910302Y150987D01*
X908487Y152802D01*
X906263Y154086D01*
X903784Y154750D01*
D02*
G37*
G36*
X1312581Y135564D02*
X1303770D01*
Y128261D01*
X1312581D01*
Y135564D01*
D02*
G37*
G36*
X1301230D02*
X1292419D01*
Y128261D01*
X1301230D01*
Y135564D01*
D02*
G37*
G36*
X1235000Y153379D02*
X1231084Y152864D01*
X1227435Y151353D01*
X1224302Y148948D01*
X1221898Y145815D01*
X1220386Y142166D01*
X1219871Y138250D01*
X1220386Y134334D01*
X1221898Y130685D01*
X1224302Y127552D01*
X1227435Y125147D01*
X1231084Y123636D01*
X1235000Y123121D01*
X1238916Y123636D01*
X1242565Y125147D01*
X1245698Y127552D01*
X1248102Y130685D01*
X1249614Y134334D01*
X1250129Y138250D01*
X1249614Y142166D01*
X1248102Y145815D01*
X1245698Y148948D01*
X1242565Y151353D01*
X1238916Y152864D01*
X1235000Y153379D01*
D02*
G37*
G36*
X1312581Y125721D02*
X1303770D01*
Y118419D01*
X1312581D01*
Y125721D01*
D02*
G37*
G36*
X1301230D02*
X1292419D01*
Y118419D01*
X1301230D01*
Y125721D01*
D02*
G37*
G36*
X1033855Y123540D02*
X1033770D01*
Y114520D01*
X1042790D01*
Y114605D01*
X1042089Y117222D01*
X1040734Y119568D01*
X1038818Y121484D01*
X1036472Y122839D01*
X1033855Y123540D01*
D02*
G37*
G36*
X1031230D02*
X1031145D01*
X1028528Y122839D01*
X1026182Y121484D01*
X1024266Y119568D01*
X1022911Y117222D01*
X1022210Y114605D01*
Y114520D01*
X1031230D01*
Y123540D01*
D02*
G37*
G36*
X1042790Y111980D02*
X1033770D01*
Y102960D01*
X1033855D01*
X1036472Y103661D01*
X1038818Y105016D01*
X1040734Y106932D01*
X1042089Y109278D01*
X1042790Y111895D01*
Y111980D01*
D02*
G37*
G36*
X1031230D02*
X1022210D01*
Y111895D01*
X1022911Y109278D01*
X1024266Y106932D01*
X1026182Y105016D01*
X1028528Y103661D01*
X1031145Y102960D01*
X1031230D01*
Y111980D01*
D02*
G37*
G36*
X1212500Y123336D02*
X1209890Y122993D01*
X1207457Y121985D01*
X1205368Y120382D01*
X1203765Y118293D01*
X1202757Y115861D01*
X1202414Y113250D01*
Y99750D01*
X1202757Y97140D01*
X1203765Y94707D01*
X1205368Y92618D01*
X1207457Y91015D01*
X1209890Y90007D01*
X1212500Y89664D01*
X1215110Y90007D01*
X1217543Y91015D01*
X1219632Y92618D01*
X1221235Y94707D01*
X1222243Y97140D01*
X1222586Y99750D01*
Y113250D01*
X1222243Y115861D01*
X1221235Y118293D01*
X1219632Y120382D01*
X1217543Y121985D01*
X1215110Y122993D01*
X1212500Y123336D01*
D02*
G37*
G36*
X1175000Y108379D02*
X1171084Y107864D01*
X1167435Y106352D01*
X1164302Y103948D01*
X1161898Y100815D01*
X1160386Y97166D01*
X1159871Y93250D01*
X1160386Y89334D01*
X1161898Y85685D01*
X1164302Y82552D01*
X1167435Y80147D01*
X1171084Y78636D01*
X1175000Y78120D01*
X1178916Y78636D01*
X1182565Y80147D01*
X1185698Y82552D01*
X1188102Y85685D01*
X1189614Y89334D01*
X1190129Y93250D01*
X1189614Y97166D01*
X1188102Y100815D01*
X1185698Y103948D01*
X1182565Y106352D01*
X1178916Y107864D01*
X1175000Y108379D01*
D02*
G37*
G36*
X1085000D02*
X1081084Y107864D01*
X1077435Y106352D01*
X1074302Y103948D01*
X1071898Y100815D01*
X1070386Y97166D01*
X1069871Y93250D01*
X1070386Y89334D01*
X1071898Y85685D01*
X1074302Y82552D01*
X1077435Y80147D01*
X1081084Y78636D01*
X1085000Y78120D01*
X1088916Y78636D01*
X1092565Y80147D01*
X1095698Y82552D01*
X1098102Y85685D01*
X1099614Y89334D01*
X1100129Y93250D01*
X1099614Y97166D01*
X1098102Y100815D01*
X1095698Y103948D01*
X1092565Y106352D01*
X1088916Y107864D01*
X1085000Y108379D01*
D02*
G37*
G36*
X1198277Y74250D02*
X1194723D01*
X1191289Y73330D01*
X1188211Y71553D01*
X1185697Y69039D01*
X1183920Y65961D01*
X1183000Y62527D01*
Y58973D01*
X1183920Y55539D01*
X1185697Y52461D01*
X1188211Y49947D01*
X1191289Y48170D01*
X1194723Y47250D01*
X1198277D01*
X1201711Y48170D01*
X1204789Y49947D01*
X1207303Y52461D01*
X1209080Y55539D01*
X1210000Y58973D01*
Y62527D01*
X1209080Y65961D01*
X1207303Y69039D01*
X1204789Y71553D01*
X1201711Y73330D01*
X1198277Y74250D01*
D02*
G37*
G36*
X1065277D02*
X1061723D01*
X1058289Y73330D01*
X1055211Y71553D01*
X1052697Y69039D01*
X1050920Y65961D01*
X1050000Y62527D01*
Y58973D01*
X1050920Y55539D01*
X1052697Y52461D01*
X1055211Y49947D01*
X1058289Y48170D01*
X1061723Y47250D01*
X1065277D01*
X1068711Y48170D01*
X1071789Y49947D01*
X1074303Y52461D01*
X1076080Y55539D01*
X1077000Y58973D01*
Y62527D01*
X1076080Y65961D01*
X1074303Y69039D01*
X1071789Y71553D01*
X1068711Y73330D01*
X1065277Y74250D01*
D02*
G37*
G36*
X399684Y237355D02*
X391891D01*
Y228804D01*
X399684D01*
Y237355D01*
D02*
G37*
G36*
X373770Y218782D02*
Y213770D01*
X378782D01*
X377832Y216063D01*
X376063Y217832D01*
X373770Y218782D01*
D02*
G37*
G36*
X371230D02*
X368937Y217832D01*
X367168Y216063D01*
X366218Y213770D01*
X371230D01*
Y218782D01*
D02*
G37*
G36*
X378782Y211230D02*
X373770D01*
Y206218D01*
X376063Y207168D01*
X377832Y208937D01*
X378782Y211230D01*
D02*
G37*
G36*
X371230D02*
X366218D01*
X367168Y208937D01*
X368937Y207168D01*
X371230Y206218D01*
Y211230D01*
D02*
G37*
G36*
X437202Y199750D02*
X434635D01*
X432155Y199086D01*
X429932Y197802D01*
X428117Y195987D01*
X426833Y193763D01*
X426169Y191284D01*
Y188716D01*
X426833Y186237D01*
X428117Y184013D01*
X429932Y182198D01*
X432155Y180914D01*
X434635Y180250D01*
X437202D01*
X439682Y180914D01*
X441906Y182198D01*
X443721Y184013D01*
X445004Y186237D01*
X445669Y188716D01*
Y191284D01*
X445004Y193763D01*
X443721Y195987D01*
X441906Y197802D01*
X439682Y199086D01*
X437202Y199750D01*
D02*
G37*
G36*
X481000Y186581D02*
X472189D01*
Y179279D01*
X481000D01*
Y186581D01*
D02*
G37*
G36*
X469649D02*
X460838D01*
Y179279D01*
X469649D01*
Y186581D01*
D02*
G37*
G36*
X481000Y176739D02*
X472189D01*
Y169436D01*
X481000D01*
Y176739D01*
D02*
G37*
G36*
X469649D02*
X460838D01*
Y169436D01*
X469649D01*
Y176739D01*
D02*
G37*
G36*
X480460Y165024D02*
X461378D01*
Y153674D01*
X456038Y148334D01*
X445119D01*
X445004Y148763D01*
X443721Y150987D01*
X441906Y152802D01*
X439682Y154086D01*
X437202Y154750D01*
X434635D01*
X432155Y154086D01*
X429932Y152802D01*
X428117Y150987D01*
X426833Y148763D01*
X426169Y146284D01*
Y143716D01*
X426833Y141237D01*
X428117Y139013D01*
X429932Y137198D01*
X432155Y135914D01*
X434635Y135250D01*
X437202D01*
X439682Y135914D01*
X441906Y137198D01*
X443721Y139013D01*
X445004Y141237D01*
X445119Y141666D01*
X457419D01*
X458695Y141920D01*
X459776Y142642D01*
X466093Y148959D01*
X480460D01*
Y165024D01*
D02*
G37*
G36*
X503784Y154750D02*
X501216D01*
X498737Y154086D01*
X496513Y152802D01*
X494698Y150987D01*
X493414Y148763D01*
X492750Y146284D01*
Y143716D01*
X493414Y141237D01*
X494698Y139013D01*
X496513Y137198D01*
X498737Y135914D01*
X501216Y135250D01*
X503784D01*
X506263Y135914D01*
X508487Y137198D01*
X510302Y139013D01*
X511586Y141237D01*
X512250Y143716D01*
Y146284D01*
X511586Y148763D01*
X510302Y150987D01*
X508487Y152802D01*
X506263Y154086D01*
X503784Y154750D01*
D02*
G37*
G36*
X372202Y154750D02*
X369635D01*
X367155Y154086D01*
X364932Y152802D01*
X363117Y150987D01*
X361833Y148763D01*
X361169Y146284D01*
Y143716D01*
X361833Y141237D01*
X363117Y139013D01*
X364932Y137198D01*
X367155Y135914D01*
X369635Y135250D01*
X372202D01*
X374682Y135914D01*
X376906Y137198D01*
X378721Y139013D01*
X380004Y141237D01*
X380669Y143716D01*
Y146284D01*
X380004Y148763D01*
X378721Y150987D01*
X376906Y152802D01*
X374682Y154086D01*
X372202Y154750D01*
D02*
G37*
%LPD*%
D13*
X380620Y642500D02*
X390000D01*
X350691Y642500D02*
X355691Y637500D01*
X350000Y642500D02*
X350691D01*
X355691Y637500D02*
X370250D01*
X350072Y632500D02*
X370250D01*
X320480Y662092D02*
X350072Y632500D01*
X320480Y662092D02*
Y681796D01*
X350000Y617500D02*
X355000Y622500D01*
X349052Y590598D02*
X349650Y590000D01*
X332942Y627500D02*
X370250D01*
X355000Y622500D02*
X370250D01*
X390000Y642500D02*
X395000Y637500D01*
X370250Y642500D02*
X380620D01*
X321500Y682816D02*
Y708000D01*
X320480Y681796D02*
X321500Y682816D01*
X349052Y590598D02*
X350000Y591546D01*
Y617500D01*
X441628Y562716D02*
Y577313D01*
Y562716D02*
X441658Y562687D01*
X384000Y637500D02*
Y639120D01*
X380620Y642500D02*
X384000Y639120D01*
X375949Y605489D02*
X380000Y609540D01*
X375949Y603449D02*
Y605489D01*
X375000Y602500D02*
X375949Y603449D01*
X380000Y609540D02*
Y612750D01*
X332500Y627058D02*
X332942Y627500D01*
X385000Y546348D02*
X392500Y538848D01*
Y537500D02*
Y538848D01*
X385000Y546348D02*
Y612750D01*
X425478Y547978D02*
X441065D01*
X304442Y627500D02*
X305000Y628058D01*
X285000Y627500D02*
X304442D01*
X305000Y628058D02*
X306000Y627058D01*
X332500D01*
X328000Y697000D02*
X335000Y690000D01*
X328000Y697000D02*
Y708000D01*
X395000Y667039D02*
X398231Y670270D01*
X395000Y662250D02*
Y667039D01*
X312500Y680000D02*
Y693842D01*
X315000Y696342D02*
Y708000D01*
X312500Y693842D02*
X315000Y696342D01*
X398231Y670270D02*
X487230D01*
X545000Y612500D01*
X552500Y597500D02*
Y615000D01*
X492500Y675000D02*
X552500Y615000D01*
X396541Y675000D02*
X492500D01*
X390270Y668729D02*
X396541Y675000D01*
X390270Y662520D02*
Y668729D01*
X390000Y662250D02*
X390270Y662520D01*
X449000Y694227D02*
X457500Y685727D01*
X448905Y708905D02*
X449000Y709000D01*
X457500Y685000D02*
Y685727D01*
X448905Y702849D02*
Y708905D01*
X442488Y693830D02*
X442500Y693842D01*
X442488Y688854D02*
Y693830D01*
X442500Y693842D02*
Y709000D01*
X445000Y685000D02*
Y686342D01*
X449000Y694227D02*
Y709000D01*
X442488Y688854D02*
X445000Y686342D01*
X650000Y512500D02*
X677350D01*
X678050Y511800D01*
X650000Y525000D02*
X650500Y524500D01*
X678050D01*
X667500Y397500D02*
X678050D01*
X662500Y402500D02*
X667500Y397500D01*
X662500Y402500D02*
Y495000D01*
X377500Y520000D02*
X418009Y479491D01*
X307500Y520000D02*
X377500D01*
X418009Y479491D02*
X430000D01*
X503650Y435000D02*
X616809D01*
X621809Y430000D02*
X622500D01*
X616809Y435000D02*
X621809Y430000D01*
X740213Y387713D02*
Y439787D01*
X740000Y387500D02*
X740213Y387713D01*
X728893Y387553D02*
Y436107D01*
X691300Y473700D02*
X728893Y436107D01*
X693600Y486400D02*
X740213Y439787D01*
X678050Y410200D02*
X678622Y409628D01*
X687872D01*
X690280Y340280D02*
Y407220D01*
X687872Y409628D02*
X690280Y407220D01*
X678822Y422128D02*
X687872D01*
X678050Y422900D02*
X678822Y422128D01*
X697500Y350000D02*
Y412500D01*
X687872Y422128D02*
X697500Y412500D01*
X687872Y434628D02*
X705000Y417500D01*
X679022Y434628D02*
X687872D01*
X705000Y360000D02*
Y417500D01*
X678050Y435600D02*
X679022Y434628D01*
X687872Y447128D02*
X712500Y422500D01*
X678050Y448300D02*
X679222Y447128D01*
X687872D01*
X678050Y461000D02*
X689000D01*
X720000Y430000D01*
X678050Y473700D02*
X691300D01*
X678050Y486400D02*
X693600D01*
X720000Y380000D02*
Y430000D01*
X712500Y370000D02*
Y422500D01*
X690000Y340000D02*
X690280Y340280D01*
X630000Y361158D02*
Y362500D01*
Y361158D02*
X632500Y358658D01*
Y314500D02*
X656000Y291000D01*
X632500Y314500D02*
Y358658D01*
X626630Y443370D02*
X632500Y437500D01*
X521630Y443370D02*
X626630D01*
X634660Y452840D02*
X642500Y445000D01*
X524660Y452840D02*
X634660D01*
X642690Y462310D02*
X652500Y452500D01*
X530190Y462310D02*
X642690D01*
X982500Y292270D02*
Y295000D01*
X980000Y297500D02*
X982500Y295000D01*
X968254Y297500D02*
X980000D01*
X960088Y289334D02*
X968254Y297500D01*
X960088Y279088D02*
Y289334D01*
X960000Y279000D02*
X960088Y279088D01*
X982500Y292270D02*
X1007172D01*
X939223Y300214D02*
X962890D01*
X970088Y307412D01*
X432500Y736000D02*
X452500D01*
X429500Y733000D02*
X432500Y736000D01*
X429500Y709000D02*
Y733000D01*
X282500Y436750D02*
Y495000D01*
X307500Y520000D01*
X965000Y257500D02*
X970000Y262500D01*
Y279000D01*
X1006854Y307412D02*
X1007500Y308058D01*
X970088Y307412D02*
X1006854D01*
X970088D02*
Y320912D01*
X924009Y285000D02*
X939223Y300214D01*
X922500Y285000D02*
X924009D01*
X961976Y334270D02*
X964912Y331334D01*
X923739Y334270D02*
X961976D01*
X964912Y321088D02*
Y331334D01*
X922500Y335509D02*
X923739Y334270D01*
X913604Y326206D02*
X959788D01*
X964912Y321088D02*
X965000Y321000D01*
X960000D02*
Y325994D01*
X959788Y326206D02*
X960000Y325994D01*
X922500Y263983D02*
X960229D01*
X370000Y321000D02*
Y336809D01*
X375000Y341809D01*
Y342500D01*
X417572Y235000D02*
X502900D01*
X392381Y260191D02*
X417572Y235000D01*
X502900D02*
X517500Y249600D01*
X370230Y267104D02*
X377143Y260191D01*
X370230Y269945D02*
Y270145D01*
X370000Y270375D02*
X370230Y270145D01*
X370000Y270375D02*
Y279000D01*
X370230Y269945D02*
X370230Y269945D01*
Y267104D02*
Y269945D01*
X377143Y260191D02*
X392381D01*
X415000Y247500D02*
Y263143D01*
X416588Y264731D01*
X369912Y279088D02*
X370000Y279000D01*
X375088Y268666D02*
Y278912D01*
Y268666D02*
X379023Y264731D01*
X416588D01*
X447500Y247500D02*
Y264327D01*
X365000Y248888D02*
X374505Y239383D01*
X365000Y248888D02*
Y279000D01*
X351179Y239383D02*
X360000Y248204D01*
Y279000D01*
X210000Y85139D02*
X262070Y137209D01*
X210000Y53250D02*
Y85139D01*
X262070Y137209D02*
X320127Y137627D01*
X357500Y175000D01*
Y221620D01*
X374505Y238625D01*
X351179Y194429D02*
Y238625D01*
X307500Y150750D02*
X351179Y194429D01*
X678050Y537200D02*
X678200Y537350D01*
X694850D01*
X694900Y549900D02*
X695000Y550000D01*
X678050Y549900D02*
X694900D01*
X501950Y487500D02*
X503050Y486400D01*
X487500Y487500D02*
X501950D01*
X485000Y511800D02*
X503050D01*
X485500Y524500D02*
X503050D01*
X521502Y402500D02*
X522500D01*
X516502Y397500D02*
X521502Y402500D01*
X503050Y397500D02*
X516502D01*
X529002Y415000D02*
X530000D01*
X524202Y410200D02*
X529002Y415000D01*
X503050Y410200D02*
X524202D01*
X503659Y499709D02*
X515480D01*
X468760Y390681D02*
X480681D01*
X468079Y390000D02*
X468760Y390681D01*
X560000Y386200D02*
Y402500D01*
X572500Y386000D02*
Y402500D01*
X571500Y385000D02*
X572500Y386000D01*
X558800Y385000D02*
X560000Y386200D01*
X647500Y315000D02*
X652500Y310000D01*
X747500D01*
X756000Y301500D01*
X446588Y265240D02*
X447500Y264327D01*
X640000Y314315D02*
Y358658D01*
X642500Y361158D01*
X647500Y355000D02*
X655000Y362500D01*
X642500Y361158D02*
Y362500D01*
X617500D02*
X625000Y355000D01*
X890000Y335509D02*
Y355000D01*
X745000Y460000D02*
X765349D01*
X768305Y462956D01*
X745000Y482500D02*
X767849D01*
X768305Y482956D01*
X1020000Y150750D02*
Y184214D01*
Y150750D02*
X1032500Y138250D01*
X964254Y239961D02*
X1020000Y184214D01*
X1011520Y200980D02*
X1095230D01*
X1130000Y235750D01*
X988821Y223679D02*
Y241199D01*
Y223679D02*
X1011520Y200980D01*
X756000Y290000D02*
Y301500D01*
X647500Y315000D02*
Y355000D01*
X640000Y314315D02*
X651815Y302500D01*
X605500Y291000D02*
X625000Y310500D01*
Y355000D01*
X706178Y290178D02*
Y298822D01*
X651815Y302500D02*
X702500D01*
X706000Y290000D02*
X706178Y290178D01*
X702500Y302500D02*
X706178Y298822D01*
X656000Y290000D02*
Y291000D01*
X605500Y290000D02*
Y291000D01*
X503050Y473700D02*
X518800D01*
X530190Y462310D01*
X503050Y461000D02*
X516500D01*
X524660Y452840D01*
X503050Y448300D02*
X516700D01*
X521630Y443370D01*
X503050Y435600D02*
X503650Y435000D01*
X546055Y385045D02*
Y402762D01*
X585000Y367500D02*
Y384200D01*
X584200Y385000D02*
X585000Y384200D01*
X546055Y385045D02*
X546100Y385000D01*
X964254Y240718D02*
X975000Y251465D01*
Y279000D01*
X980000Y250020D02*
X988821Y241199D01*
X980000Y250020D02*
Y279000D01*
X970088Y289334D02*
X973024Y292270D01*
X982500D01*
X970088Y279088D02*
Y289334D01*
X964937Y361523D02*
Y434937D01*
X1042292Y512292D02*
X1085377D01*
X964937Y434937D02*
X1042292Y512292D01*
X1085377D02*
X1118440Y545355D01*
X1127855D01*
X1130000Y547500D01*
X988821Y361523D02*
Y406321D01*
X1032500Y450000D01*
X425483Y274033D02*
X434277Y265240D01*
X380000Y274246D02*
Y279000D01*
X380212Y274033D02*
X425483D01*
X380000Y274246D02*
X380212Y274033D01*
X346970Y349470D02*
Y354142D01*
X351690Y358862D01*
X337500Y340000D02*
X346970Y349470D01*
X234250Y340000D02*
X337500D01*
X351690Y358104D02*
X356944Y352851D01*
X357701D01*
X210000Y364250D02*
X234250Y340000D01*
X360000Y321000D02*
Y350552D01*
X357701Y352851D02*
X360000Y350552D01*
X376107Y358104D02*
Y393143D01*
X307500Y461750D02*
X376107Y393143D01*
X366976Y307730D02*
X369912Y310666D01*
X332828Y307730D02*
X366976D01*
X369912Y320912D02*
X370000Y321000D01*
X369912Y310666D02*
Y320912D01*
X380212Y324454D02*
X425483D01*
X434786Y333757D01*
X469410Y156992D02*
X470919D01*
X457419Y145000D02*
X469410Y156992D01*
X435919Y145000D02*
X457419D01*
X998491Y156992D02*
X1000000D01*
X986500Y145000D02*
X998491Y156992D01*
X967500Y145000D02*
X986500D01*
X868491Y156991D02*
X870000D01*
X856500Y145000D02*
X868491Y156991D01*
X837500Y145000D02*
X856500D01*
X735991Y157500D02*
X737500D01*
X723491Y145000D02*
X735991Y157500D01*
X702500Y145000D02*
X723491D01*
X600991Y156991D02*
X602500D01*
X589000Y145000D02*
X600991Y156991D01*
X567500Y145000D02*
X589000D01*
X584500Y260750D02*
X585250Y260000D01*
X584500Y260750D02*
Y290000D01*
X635000Y260250D02*
X635250Y260000D01*
X635000Y260250D02*
Y290000D01*
X685000Y260250D02*
X685250Y260000D01*
X685000Y260250D02*
Y290000D01*
X735000Y260250D02*
X735250Y260000D01*
X735000Y260250D02*
Y290000D01*
X922500Y335509D02*
Y355000D01*
X503050Y499100D02*
X503659Y499709D01*
X480363Y414637D02*
X484800Y410200D01*
X468397Y415000D02*
X468760Y414637D01*
X480363D01*
X480681Y390681D02*
X487500Y397500D01*
X503050D01*
X484800Y410200D02*
X503050D01*
X459335Y511835D02*
X484700Y537200D01*
X459335Y500645D02*
Y511835D01*
X484700Y537200D02*
X503050D01*
X459179Y500489D02*
X459335Y500645D01*
X428511Y500489D02*
X459179D01*
X392500Y536500D02*
X428511Y500489D01*
X596900Y385000D02*
X597500Y385600D01*
Y402500D01*
X609600Y385000D02*
X610000Y385400D01*
Y402500D01*
X949544Y462956D02*
X950000Y462500D01*
X922305Y462956D02*
X949544D01*
Y522956D02*
X950000Y522500D01*
X922305Y522956D02*
X949544D01*
Y482956D02*
X950000Y482500D01*
X922305Y482956D02*
X949544D01*
X949544Y502956D02*
X950000Y502500D01*
X922305Y502956D02*
X949544D01*
X1257500Y163250D02*
Y170000D01*
Y163250D02*
X1272741Y148009D01*
X1302500D01*
X82500Y430000D02*
Y436750D01*
X67259Y451991D02*
X82500Y436750D01*
X40000Y451991D02*
X67259D01*
X82500Y119000D02*
Y125750D01*
X68759Y139491D02*
X82500Y125750D01*
X40000Y139491D02*
X68759D01*
X1257500Y475000D02*
Y481750D01*
Y475000D02*
X1274491Y458009D01*
X1302500D01*
X332500Y308058D02*
X332828Y307730D01*
X332500Y291942D02*
X332828Y292270D01*
X366976D01*
X369912Y279088D02*
Y289334D01*
X366976Y292270D02*
X369912Y289334D01*
X365000Y321000D02*
Y346997D01*
X376107Y358104D01*
X375088Y321088D02*
Y331334D01*
X378024Y334270D01*
X416074D01*
X434277Y265240D02*
X446588D01*
X375000Y279000D02*
X375088Y278912D01*
X380000Y321000D02*
Y324242D01*
X380212Y324454D01*
X416074Y334270D02*
X416588Y333757D01*
X434786D02*
X446588D01*
X375000Y321000D02*
X375088Y321088D01*
X964937Y361523D02*
X975000Y351460D01*
Y321000D02*
Y351460D01*
X980000Y352702D02*
X988821Y361523D01*
X980000Y321000D02*
Y352702D01*
X964912Y278912D02*
X965000Y279000D01*
X964912Y268666D02*
Y278912D01*
X960229Y263983D02*
X964912Y268666D01*
X904302Y335509D02*
X913604Y326206D01*
X890000Y335509D02*
X904302D01*
X970000Y321000D02*
X970088Y320912D01*
X1007172Y292270D02*
X1007500Y291942D01*
X970000Y279000D02*
X970088Y279088D01*
D15*
X281500Y730500D02*
G03*
X281500Y730500I-2500J0D01*
G01*
Y739500D02*
G03*
X281500Y739500I-2500J0D01*
G01*
X353500Y730500D02*
G03*
X353500Y730500I-2500J0D01*
G01*
Y739500D02*
G03*
X353500Y739500I-2500J0D01*
G01*
X481000Y740500D02*
G03*
X481000Y740500I-2500J0D01*
G01*
Y731500D02*
G03*
X481000Y731500I-2500J0D01*
G01*
X409000Y740500D02*
G03*
X409000Y740500I-2500J0D01*
G01*
Y731500D02*
G03*
X409000Y731500I-2500J0D01*
G01*
X441658Y562600D02*
X503050D01*
X766361Y504900D02*
X768305Y502956D01*
X468729Y546059D02*
X472570Y549900D01*
X467991Y547315D02*
X468729Y548054D01*
X425000Y547500D02*
X425478Y547978D01*
X441065D02*
X441658Y548571D01*
X503050Y549900D02*
X522400D01*
X472570D02*
X503050D01*
X442914Y547315D02*
X467991D01*
X441658Y548571D02*
X442914Y547315D01*
X565000Y592500D02*
X790000D01*
X732724Y504254D02*
X766361D01*
X732107Y504871D02*
X732724Y504254D01*
X522400Y549900D02*
X565000Y592500D01*
X790000Y517151D02*
Y592500D01*
Y617050D01*
X768855Y638855D02*
X790000Y617711D01*
Y617050D02*
Y617711D01*
X757711Y650000D02*
X768855Y638855D01*
X740500Y650000D02*
X757711D01*
X775805Y502956D02*
X790000Y517151D01*
X768305Y502956D02*
X775805D01*
X699750Y650000D02*
X719500D01*
X812900Y617050D02*
X852050D01*
X885000Y650000D01*
X859600D02*
X877100Y667500D01*
X966040D02*
X978290Y655250D01*
X877100Y667500D02*
X966040D01*
X704305Y518987D02*
X731340D01*
X732724Y520370D01*
X704305Y504871D02*
X732107D01*
X766364Y521015D02*
X768305Y522956D01*
X732724Y520370D02*
X766364D01*
D16*
X305000Y735000D02*
D03*
X325000D02*
D03*
X452500Y736000D02*
D03*
X432500D02*
D03*
D17*
X302000Y708000D02*
D03*
X308500D02*
D03*
X315000D02*
D03*
X321500D02*
D03*
X328000D02*
D03*
X455500Y709000D02*
D03*
X449000D02*
D03*
X442500D02*
D03*
X436000D02*
D03*
X429500D02*
D03*
D18*
X575550Y485400D02*
D03*
X561550D02*
D03*
X589550D02*
D03*
X561550Y471400D02*
D03*
X575550D02*
D03*
X589550D02*
D03*
X561550Y499400D02*
D03*
X575550D02*
D03*
X589550D02*
D03*
D19*
X503050Y562600D02*
D03*
Y549900D02*
D03*
Y537200D02*
D03*
Y524500D02*
D03*
Y511800D02*
D03*
Y499100D02*
D03*
Y486400D02*
D03*
Y473700D02*
D03*
Y461000D02*
D03*
Y448300D02*
D03*
Y435600D02*
D03*
Y422900D02*
D03*
Y410200D02*
D03*
Y397500D02*
D03*
X678050D02*
D03*
Y410200D02*
D03*
Y422900D02*
D03*
Y435600D02*
D03*
Y448300D02*
D03*
Y461000D02*
D03*
Y473700D02*
D03*
Y486400D02*
D03*
Y499100D02*
D03*
Y511800D02*
D03*
Y524500D02*
D03*
Y537200D02*
D03*
Y549900D02*
D03*
Y562600D02*
D03*
D20*
X520700Y385000D02*
D03*
X533400D02*
D03*
X546100D02*
D03*
X558800D02*
D03*
X571500D02*
D03*
X584200D02*
D03*
X596900D02*
D03*
X609600D02*
D03*
X622300D02*
D03*
X635000D02*
D03*
X647700D02*
D03*
X660400D02*
D03*
D21*
X468729Y546059D02*
D03*
Y562175D02*
D03*
X459179Y500489D02*
D03*
Y484374D02*
D03*
X332500Y291942D02*
D03*
Y308058D02*
D03*
X1007500Y308058D02*
D03*
Y291942D02*
D03*
X732724Y504254D02*
D03*
Y520370D02*
D03*
X305000Y628058D02*
D03*
Y611942D02*
D03*
D22*
X441658Y548571D02*
D03*
Y562687D02*
D03*
X468760Y377246D02*
D03*
Y391362D02*
D03*
Y428753D02*
D03*
Y414637D02*
D03*
X332500Y612942D02*
D03*
Y627058D02*
D03*
X704305Y504871D02*
D03*
Y518987D02*
D03*
D23*
X376107Y358862D02*
D03*
X392223D02*
D03*
X349052Y590598D02*
D03*
X332937D02*
D03*
X351690Y358862D02*
D03*
X335575D02*
D03*
X351179Y238625D02*
D03*
X335063D02*
D03*
X374505D02*
D03*
X390621D02*
D03*
X964254Y239961D02*
D03*
X948138D02*
D03*
X988821Y240441D02*
D03*
X1004937D02*
D03*
X988821Y362281D02*
D03*
X1004937D02*
D03*
X964937D02*
D03*
X948821D02*
D03*
D24*
X584500Y290000D02*
D03*
X605500D02*
D03*
X685000D02*
D03*
X706000D02*
D03*
X756000D02*
D03*
X735000D02*
D03*
X656000D02*
D03*
X635000D02*
D03*
X740500Y650000D02*
D03*
X719500D02*
D03*
D25*
X430000Y500509D02*
D03*
Y479491D02*
D03*
X446588Y265240D02*
D03*
Y286257D02*
D03*
X416588Y264731D02*
D03*
Y285748D02*
D03*
X446588Y312740D02*
D03*
Y333757D02*
D03*
X416588D02*
D03*
Y312740D02*
D03*
X1302500Y126991D02*
D03*
Y148009D02*
D03*
X1302500Y458009D02*
D03*
Y436991D02*
D03*
X40000Y160509D02*
D03*
Y139491D02*
D03*
Y473009D02*
D03*
Y451991D02*
D03*
X890000Y335509D02*
D03*
Y314491D02*
D03*
X922500Y335509D02*
D03*
Y314491D02*
D03*
Y263983D02*
D03*
Y285000D02*
D03*
X470919Y178009D02*
D03*
Y156992D02*
D03*
X602500Y178009D02*
D03*
Y156991D02*
D03*
X737500Y157500D02*
D03*
Y178517D02*
D03*
X870000Y178009D02*
D03*
Y156991D02*
D03*
X1000000Y178009D02*
D03*
Y156992D02*
D03*
D26*
X699750Y650000D02*
D03*
X680250D02*
D03*
X604750Y260000D02*
D03*
X585250D02*
D03*
X635250D02*
D03*
X654750D02*
D03*
X685250D02*
D03*
X704750D02*
D03*
X735250D02*
D03*
X754750D02*
D03*
D27*
X370250Y622500D02*
D03*
X419750Y652500D02*
D03*
Y647500D02*
D03*
Y642500D02*
D03*
Y637500D02*
D03*
Y632500D02*
D03*
Y627500D02*
D03*
Y622500D02*
D03*
X370250Y627500D02*
D03*
Y632500D02*
D03*
Y637500D02*
D03*
Y642500D02*
D03*
Y647500D02*
D03*
Y652500D02*
D03*
D28*
X395000Y637500D02*
D03*
D29*
X380000Y662250D02*
D03*
X385000D02*
D03*
X390000D02*
D03*
X395000D02*
D03*
X400000D02*
D03*
X405000D02*
D03*
X410000D02*
D03*
Y612750D02*
D03*
X405000D02*
D03*
X400000D02*
D03*
X395000D02*
D03*
X390000D02*
D03*
X385000D02*
D03*
X380000D02*
D03*
D30*
X960000Y279000D02*
D03*
X965000D02*
D03*
X970000D02*
D03*
X975000D02*
D03*
X980000D02*
D03*
X960000Y321000D02*
D03*
X965000D02*
D03*
X970000D02*
D03*
X975000D02*
D03*
X980000D02*
D03*
X360000Y279000D02*
D03*
X365000D02*
D03*
X370000D02*
D03*
X375000D02*
D03*
X380000D02*
D03*
X360000Y321000D02*
D03*
X365000D02*
D03*
X370000D02*
D03*
X375000D02*
D03*
X380000D02*
D03*
D31*
X769305Y542956D02*
D03*
D32*
X768305Y522956D02*
D03*
Y502956D02*
D03*
Y482956D02*
D03*
Y462956D02*
D03*
Y442956D02*
D03*
Y422956D02*
D03*
Y402956D02*
D03*
X922305D02*
D03*
Y422956D02*
D03*
Y442956D02*
D03*
Y462956D02*
D03*
Y482956D02*
D03*
Y502956D02*
D03*
Y522956D02*
D03*
Y542956D02*
D03*
D33*
X790000Y682950D02*
D03*
D34*
X812900Y617050D02*
D03*
X790000D02*
D03*
D35*
X767100D02*
D03*
D50*
X652500Y687500D02*
D03*
Y622500D02*
D03*
X607500Y687500D02*
D03*
X392500Y537500D02*
D03*
Y472500D02*
D03*
X347500Y537500D02*
D03*
X967500Y190000D02*
D03*
X902500Y145000D02*
D03*
X967500D02*
D03*
X837500Y190000D02*
D03*
X772500Y145000D02*
D03*
X837500D02*
D03*
X702500Y190000D02*
D03*
X637500Y145000D02*
D03*
X702500D02*
D03*
X567500Y190000D02*
D03*
X502500Y145000D02*
D03*
X567500D02*
D03*
X435919Y190000D02*
D03*
X370919Y145000D02*
D03*
X435919D02*
D03*
X1105000Y547500D02*
D03*
X1130000D02*
D03*
X1032500Y425000D02*
D03*
Y450000D02*
D03*
Y475000D02*
D03*
X235000Y364250D02*
D03*
X210000D02*
D03*
X307500Y486750D02*
D03*
Y461750D02*
D03*
Y436750D02*
D03*
X235000Y53250D02*
D03*
X210000D02*
D03*
X307500Y175750D02*
D03*
Y150750D02*
D03*
Y125750D02*
D03*
X1003290Y655250D02*
D03*
X1105000Y235750D02*
D03*
X1130000D02*
D03*
X1032500Y113250D02*
D03*
Y138250D02*
D03*
Y163250D02*
D03*
D51*
X607500Y622500D02*
D03*
X347500Y472500D02*
D03*
X1155000Y547500D02*
D03*
X185000Y364250D02*
D03*
Y53250D02*
D03*
X1155000Y235750D02*
D03*
D54*
X902500Y190000D02*
D03*
X772500Y190000D02*
D03*
X637500D02*
D03*
X502500D02*
D03*
X370919Y190000D02*
D03*
X978290Y655250D02*
D03*
D56*
X1257500Y481750D02*
D03*
X1212500D02*
D03*
X1257500Y418250D02*
D03*
X1212500D02*
D03*
X82500Y430000D02*
D03*
X127500D02*
D03*
X82500Y493500D02*
D03*
X127500D02*
D03*
X82500Y119000D02*
D03*
X127500D02*
D03*
X82500Y182500D02*
D03*
X127500D02*
D03*
X1257500Y170000D02*
D03*
X1212500D02*
D03*
X1257500Y106500D02*
D03*
X1212500D02*
D03*
D57*
X1063500Y527500D02*
D03*
Y372500D02*
D03*
X1196500Y527500D02*
D03*
Y372500D02*
D03*
X276500Y384250D02*
D03*
Y539250D02*
D03*
X143500Y384250D02*
D03*
Y539250D02*
D03*
X276500Y73250D02*
D03*
Y228250D02*
D03*
X143500Y73250D02*
D03*
Y228250D02*
D03*
X1063500Y215750D02*
D03*
Y60750D02*
D03*
X1196500Y215750D02*
D03*
Y60750D02*
D03*
D60*
X819800Y297700D02*
X820200D01*
Y298100D01*
X12500Y362574D02*
X14176Y364250D01*
X12500Y362574D02*
X12500Y362574D01*
X416588Y285748D02*
X416842Y286002D01*
X12500Y362574D02*
Y362723D01*
Y215000D02*
Y362574D01*
X768855Y638855D02*
X790000Y660000D01*
Y682950D01*
X282500Y436750D02*
X307500D01*
X890000Y314491D02*
X922500D01*
X824190Y301690D02*
X836991Y314491D01*
X890000D01*
X823790Y301690D02*
X824190D01*
X820200Y298100D02*
X823790Y301690D01*
X816210Y294110D02*
X819800Y297700D01*
X816210Y293710D02*
Y294110D01*
X772500Y250000D02*
X816210Y293710D01*
X772500Y190000D02*
Y250000D01*
X416588Y285748D02*
X416588Y285748D01*
X416588Y312740D02*
X446588D01*
X416588Y312739D02*
X416588Y312740D01*
X416588Y285748D02*
Y312739D01*
X416842Y286002D02*
X446333D01*
X446588Y286257D01*
X480843D01*
X517500Y249600D01*
X502500Y190000D02*
X517500Y205000D01*
Y249600D01*
X922500Y285000D02*
Y314491D01*
X772500Y190000D02*
X805000Y157500D01*
X340000Y15000D02*
Y93250D01*
X1257500Y418250D02*
X1288250Y387500D01*
X1332500D01*
Y547500D01*
Y237500D02*
Y387500D01*
X1155000Y512500D02*
Y547500D01*
X1117500Y475000D02*
X1155000Y512500D01*
X1032500Y475000D02*
X1117500D01*
X1155000Y547500D02*
X1332500D01*
Y705000D01*
X1155000Y200000D02*
Y235750D01*
X1118250Y163250D02*
X1155000Y200000D01*
X1032500Y163250D02*
X1118250D01*
X1330750Y235750D02*
X1332500Y237500D01*
X1155000Y235750D02*
X1330750D01*
X1286500Y77500D02*
X1332500D01*
X1265876Y98124D02*
X1286500Y77500D01*
X1261426Y98124D02*
X1265876D01*
X1257500Y102050D02*
X1261426Y98124D01*
X1257500Y102050D02*
Y106500D01*
X1332500Y77500D02*
Y237500D01*
X185000Y364250D02*
X185000Y364250D01*
Y395000D01*
X226750Y436750D01*
X282500D01*
X14176Y364250D02*
X185000D01*
X12500Y37500D02*
Y215000D01*
X185000Y17500D02*
X187500Y15000D01*
X185000Y17500D02*
Y53250D01*
X187500Y15000D02*
X340000D01*
X307500Y125750D02*
X340000Y93250D01*
Y15000D02*
X405000D01*
X35000D02*
X187500D01*
X935000D02*
Y157500D01*
X902500Y190000D02*
X935000Y157500D01*
Y15000D02*
X1307500D01*
X670000D02*
X805000D01*
X670000D02*
Y157500D01*
X637500Y190000D02*
X670000Y157500D01*
X537500Y15000D02*
X670000D01*
X805000D02*
Y157500D01*
Y15000D02*
X935000D01*
X537500D02*
Y155000D01*
X502500Y190000D02*
X537500Y155000D01*
X405000Y15000D02*
Y155919D01*
X370919Y190000D02*
X405000Y155919D01*
Y15000D02*
X537500D01*
X12500Y215000D02*
X50000D01*
X74124Y190876D01*
X78573D01*
X82500Y186950D01*
Y182500D02*
Y186950D01*
X27500Y525000D02*
X72500D01*
X82500Y515000D01*
Y493500D02*
Y515000D01*
X12500Y510000D02*
X27500Y525000D01*
X12500Y37500D02*
X35000Y15000D01*
X12500Y510000D02*
X12500Y362723D01*
X1307500Y15000D02*
X1332500Y40000D01*
Y77500D01*
X815000Y735000D02*
X1302500D01*
X790000Y710000D02*
X815000Y735000D01*
X1302500D02*
X1332500Y705000D01*
X790000Y682950D02*
Y710000D01*
D61*
X340000Y708000D02*
D03*
X290000D02*
D03*
X417500Y709000D02*
D03*
X467500D02*
D03*
D62*
X575550Y492400D02*
D03*
X561550D02*
D03*
X589550D02*
D03*
X561550Y478400D02*
D03*
X575550D02*
D03*
X589550D02*
D03*
X568550Y499400D02*
D03*
X582550D02*
D03*
X568550Y485400D02*
D03*
X582550D02*
D03*
X568550Y471400D02*
D03*
X582550D02*
D03*
D63*
X910400Y650000D02*
D03*
D64*
X885000D02*
D03*
X859600D02*
D03*
X517500Y275000D02*
D03*
Y300400D02*
D03*
X820000Y272500D02*
D03*
Y247100D02*
D03*
D65*
X517500Y249600D02*
D03*
X820000Y297900D02*
D03*
D66*
X652500Y452500D02*
D03*
X642500Y445000D02*
D03*
X632500Y437500D02*
D03*
X622500Y430000D02*
D03*
X350000Y642500D02*
D03*
X441628Y577313D02*
D03*
X375000Y602500D02*
D03*
X425000Y547500D02*
D03*
X285000Y627500D02*
D03*
X335000Y690000D02*
D03*
X312500Y680000D02*
D03*
X545000Y612500D02*
D03*
X552500Y597500D02*
D03*
X457500Y685000D02*
D03*
X445000D02*
D03*
X650000Y512500D02*
D03*
Y525000D02*
D03*
X662500Y495000D02*
D03*
X767500Y602500D02*
D03*
X740000Y387500D02*
D03*
X728893Y387553D02*
D03*
X712500Y370000D02*
D03*
X720000Y380000D02*
D03*
X705000Y360000D02*
D03*
X697500Y350000D02*
D03*
X690000Y340000D02*
D03*
X630000Y362500D02*
D03*
X617500D02*
D03*
X372500Y212500D02*
D03*
X337500D02*
D03*
X767500Y582500D02*
D03*
X965000Y257500D02*
D03*
X375000Y342500D02*
D03*
X415000Y247500D02*
D03*
X447500D02*
D03*
X695000Y550000D02*
D03*
X694850Y537350D02*
D03*
X487500Y487500D02*
D03*
X485000Y511800D02*
D03*
X485500Y524500D02*
D03*
X522500Y402500D02*
D03*
X530000Y415000D02*
D03*
X515480Y499709D02*
D03*
X560000Y402500D02*
D03*
X572500D02*
D03*
X642500Y362500D02*
D03*
X655000D02*
D03*
X890000Y355000D02*
D03*
X745000Y460000D02*
D03*
Y482500D02*
D03*
X546055Y402762D02*
D03*
X585000Y367500D02*
D03*
X922500Y355000D02*
D03*
X950000Y462500D02*
D03*
Y482500D02*
D03*
X949544Y502956D02*
D03*
X949544Y522956D02*
D03*
X610000Y402500D02*
D03*
X597500D02*
D03*
D67*
X406000Y626500D02*
D03*
X395000D02*
D03*
X384000D02*
D03*
X406000Y637500D02*
D03*
X395000D02*
D03*
X384000D02*
D03*
X406000Y648500D02*
D03*
X395000D02*
D03*
X384000D02*
D03*
M02*
