G04*
G04 #@! TF.GenerationSoftware,Altium Limited,Altium Designer,25.2.1 (25)*
G04*
G04 Layer_Color=255*
%FSLAX44Y44*%
%MOMM*%
G71*
G04*
G04 #@! TF.SameCoordinates,47AF1686-E751-4D8C-A91A-F2C49F431613*
G04*
G04*
G04 #@! TF.FilePolarity,Positive*
G04*
G01*
G75*
%ADD16R,1.5000X1.9000*%
%ADD17R,0.4000X1.3500*%
%ADD18R,0.9000X0.9000*%
%ADD19R,1.5000X0.9000*%
%ADD20R,0.9000X1.5000*%
%ADD21R,1.4562X1.3046*%
%ADD22R,1.3562X1.1046*%
%ADD23R,1.3046X1.4562*%
%ADD24R,1.1000X1.3000*%
%ADD25R,1.5082X1.2065*%
%ADD26R,0.9500X1.4500*%
%ADD27O,0.9500X0.2000*%
%ADD28R,3.1300X3.1300*%
%ADD29O,0.2000X0.9500*%
%ADD30O,0.3000X2.0000*%
%ADD31R,2.8000X1.1000*%
%ADD32R,2.6000X1.1000*%
G04:AMPARAMS|DCode=33|XSize=1.0043mm|YSize=3.1821mm|CornerRadius=0.4369mm|HoleSize=0mm|Usage=FLASHONLY|Rotation=90.000|XOffset=0mm|YOffset=0mm|HoleType=Round|Shape=RoundedRectangle|*
%AMROUNDEDRECTD33*
21,1,1.0043,2.3084,0,0,90.0*
21,1,0.1306,3.1821,0,0,90.0*
1,1,0.8737,1.1542,0.0653*
1,1,0.8737,1.1542,-0.0653*
1,1,0.8737,-1.1542,-0.0653*
1,1,0.8737,-1.1542,0.0653*
%
%ADD33ROUNDEDRECTD33*%
G04:AMPARAMS|DCode=34|XSize=1.0043mm|YSize=0.8721mm|CornerRadius=0.4361mm|HoleSize=0mm|Usage=FLASHONLY|Rotation=90.000|XOffset=0mm|YOffset=0mm|HoleType=Round|Shape=RoundedRectangle|*
%AMROUNDEDRECTD34*
21,1,1.0043,0.0000,0,0,90.0*
21,1,0.1322,0.8721,0,0,90.0*
1,1,0.8721,0.0000,0.0661*
1,1,0.8721,0.0000,-0.0661*
1,1,0.8721,0.0000,-0.0661*
1,1,0.8721,0.0000,0.0661*
%
%ADD34ROUNDEDRECTD34*%
%ADD35R,0.8721X1.0043*%
%ADD50C,1.5500*%
%ADD51R,1.5500X1.5500*%
%ADD54R,1.5500X1.5500*%
G04:AMPARAMS|DCode=56|XSize=2.95mm|YSize=1.6mm|CornerRadius=0.8mm|HoleSize=0mm|Usage=FLASHONLY|Rotation=90.000|XOffset=0mm|YOffset=0mm|HoleType=Round|Shape=RoundedRectangle|*
%AMROUNDEDRECTD56*
21,1,2.9500,0.0000,0,0,90.0*
21,1,1.3500,1.6000,0,0,90.0*
1,1,1.6000,0.0000,0.6750*
1,1,1.6000,0.0000,-0.6750*
1,1,1.6000,0.0000,-0.6750*
1,1,1.6000,0.0000,0.6750*
%
%ADD56ROUNDEDRECTD56*%
%ADD57C,2.3000*%
%ADD61C,1.4500*%
%ADD62C,0.4000*%
%ADD63R,1.5080X1.5080*%
%ADD64C,1.5080*%
%ADD65R,1.5080X1.5080*%
D16*
X305000Y735000D02*
D03*
X325000D02*
D03*
X452500Y736000D02*
D03*
X432500D02*
D03*
D17*
X302000Y708000D02*
D03*
X308500D02*
D03*
X315000D02*
D03*
X321500D02*
D03*
X328000D02*
D03*
X455500Y709000D02*
D03*
X449000D02*
D03*
X442500D02*
D03*
X436000D02*
D03*
X429500D02*
D03*
D18*
X575550Y485400D02*
D03*
X561550D02*
D03*
X589550D02*
D03*
X561550Y471400D02*
D03*
X575550D02*
D03*
X589550D02*
D03*
X561550Y499400D02*
D03*
X575550D02*
D03*
X589550D02*
D03*
D19*
X503050Y562600D02*
D03*
Y549900D02*
D03*
Y537200D02*
D03*
Y524500D02*
D03*
Y511800D02*
D03*
Y499100D02*
D03*
Y486400D02*
D03*
Y473700D02*
D03*
Y461000D02*
D03*
Y448300D02*
D03*
Y435600D02*
D03*
Y422900D02*
D03*
Y410200D02*
D03*
Y397500D02*
D03*
X678050D02*
D03*
Y410200D02*
D03*
Y422900D02*
D03*
Y435600D02*
D03*
Y448300D02*
D03*
Y461000D02*
D03*
Y473700D02*
D03*
Y486400D02*
D03*
Y499100D02*
D03*
Y511800D02*
D03*
Y524500D02*
D03*
Y537200D02*
D03*
Y549900D02*
D03*
Y562600D02*
D03*
D20*
X520700Y385000D02*
D03*
X533400D02*
D03*
X546100D02*
D03*
X558800D02*
D03*
X571500D02*
D03*
X584200D02*
D03*
X596900D02*
D03*
X609600D02*
D03*
X622300D02*
D03*
X635000D02*
D03*
X647700D02*
D03*
X660400D02*
D03*
D21*
X468729Y546059D02*
D03*
Y562175D02*
D03*
X459179Y500489D02*
D03*
Y484374D02*
D03*
X332500Y291942D02*
D03*
Y308058D02*
D03*
X1007500Y308058D02*
D03*
Y291942D02*
D03*
X732724Y504254D02*
D03*
Y520370D02*
D03*
X305000Y628058D02*
D03*
Y611942D02*
D03*
D22*
X441658Y548571D02*
D03*
Y562687D02*
D03*
X468760Y377246D02*
D03*
Y391362D02*
D03*
Y428753D02*
D03*
Y414637D02*
D03*
X332500Y612942D02*
D03*
Y627058D02*
D03*
X704305Y504871D02*
D03*
Y518987D02*
D03*
D23*
X376107Y358862D02*
D03*
X392223D02*
D03*
X349052Y590598D02*
D03*
X332937D02*
D03*
X351690Y358862D02*
D03*
X335575D02*
D03*
X351179Y238625D02*
D03*
X335063D02*
D03*
X374505D02*
D03*
X390621D02*
D03*
X964254Y239961D02*
D03*
X948138D02*
D03*
X988821Y240441D02*
D03*
X1004937D02*
D03*
X988821Y362281D02*
D03*
X1004937D02*
D03*
X964937D02*
D03*
X948821D02*
D03*
D24*
X584500Y290000D02*
D03*
X605500D02*
D03*
X685000D02*
D03*
X706000D02*
D03*
X756000D02*
D03*
X735000D02*
D03*
X656000D02*
D03*
X635000D02*
D03*
X740500Y650000D02*
D03*
X719500D02*
D03*
D25*
X430000Y500509D02*
D03*
Y479491D02*
D03*
X446588Y265240D02*
D03*
Y286257D02*
D03*
X416588Y264731D02*
D03*
Y285748D02*
D03*
X446588Y312740D02*
D03*
Y333757D02*
D03*
X416588D02*
D03*
Y312740D02*
D03*
X1302500Y126991D02*
D03*
Y148009D02*
D03*
X1302500Y458009D02*
D03*
Y436991D02*
D03*
X40000Y160509D02*
D03*
Y139491D02*
D03*
Y473009D02*
D03*
Y451991D02*
D03*
X890000Y335509D02*
D03*
Y314491D02*
D03*
X922500Y335509D02*
D03*
Y314491D02*
D03*
Y263983D02*
D03*
Y285000D02*
D03*
X470919Y178009D02*
D03*
Y156992D02*
D03*
X602500Y178009D02*
D03*
Y156991D02*
D03*
X737500Y157500D02*
D03*
Y178517D02*
D03*
X870000Y178009D02*
D03*
Y156991D02*
D03*
X1000000Y178009D02*
D03*
Y156992D02*
D03*
D26*
X699750Y650000D02*
D03*
X680250D02*
D03*
X604750Y260000D02*
D03*
X585250D02*
D03*
X635250D02*
D03*
X654750D02*
D03*
X685250D02*
D03*
X704750D02*
D03*
X735250D02*
D03*
X754750D02*
D03*
D27*
X370250Y622500D02*
D03*
X419750Y652500D02*
D03*
Y647500D02*
D03*
Y642500D02*
D03*
Y637500D02*
D03*
Y632500D02*
D03*
Y627500D02*
D03*
Y622500D02*
D03*
X370250Y627500D02*
D03*
Y632500D02*
D03*
Y637500D02*
D03*
Y642500D02*
D03*
Y647500D02*
D03*
Y652500D02*
D03*
D28*
X395000Y637500D02*
D03*
D29*
X380000Y662250D02*
D03*
X385000D02*
D03*
X390000D02*
D03*
X395000D02*
D03*
X400000D02*
D03*
X405000D02*
D03*
X410000D02*
D03*
Y612750D02*
D03*
X405000D02*
D03*
X400000D02*
D03*
X395000D02*
D03*
X390000D02*
D03*
X385000D02*
D03*
X380000D02*
D03*
D30*
X960000Y279000D02*
D03*
X965000D02*
D03*
X970000D02*
D03*
X975000D02*
D03*
X980000D02*
D03*
X960000Y321000D02*
D03*
X965000D02*
D03*
X970000D02*
D03*
X975000D02*
D03*
X980000D02*
D03*
X360000Y279000D02*
D03*
X365000D02*
D03*
X370000D02*
D03*
X375000D02*
D03*
X380000D02*
D03*
X360000Y321000D02*
D03*
X365000D02*
D03*
X370000D02*
D03*
X375000D02*
D03*
X380000D02*
D03*
D31*
X769305Y542956D02*
D03*
D32*
X768305Y522956D02*
D03*
Y502956D02*
D03*
Y482956D02*
D03*
Y462956D02*
D03*
Y442956D02*
D03*
Y422956D02*
D03*
Y402956D02*
D03*
X922305D02*
D03*
Y422956D02*
D03*
Y442956D02*
D03*
Y462956D02*
D03*
Y482956D02*
D03*
Y502956D02*
D03*
Y522956D02*
D03*
Y542956D02*
D03*
D33*
X790000Y682950D02*
D03*
D34*
X812900Y617050D02*
D03*
X790000D02*
D03*
D35*
X767100D02*
D03*
D50*
X652500Y687500D02*
D03*
Y622500D02*
D03*
X607500Y687500D02*
D03*
X392500Y537500D02*
D03*
Y472500D02*
D03*
X347500Y537500D02*
D03*
X967500Y190000D02*
D03*
X902500Y145000D02*
D03*
X967500D02*
D03*
X837500Y190000D02*
D03*
X772500Y145000D02*
D03*
X837500D02*
D03*
X702500Y190000D02*
D03*
X637500Y145000D02*
D03*
X702500D02*
D03*
X567500Y190000D02*
D03*
X502500Y145000D02*
D03*
X567500D02*
D03*
X435919Y190000D02*
D03*
X370919Y145000D02*
D03*
X435919D02*
D03*
X1105000Y547500D02*
D03*
X1130000D02*
D03*
X1032500Y425000D02*
D03*
Y450000D02*
D03*
Y475000D02*
D03*
X235000Y364250D02*
D03*
X210000D02*
D03*
X307500Y486750D02*
D03*
Y461750D02*
D03*
Y436750D02*
D03*
X235000Y53250D02*
D03*
X210000D02*
D03*
X307500Y175750D02*
D03*
Y150750D02*
D03*
Y125750D02*
D03*
X1003290Y655250D02*
D03*
X1105000Y235750D02*
D03*
X1130000D02*
D03*
X1032500Y113250D02*
D03*
Y138250D02*
D03*
Y163250D02*
D03*
D51*
X607500Y622500D02*
D03*
X347500Y472500D02*
D03*
X1155000Y547500D02*
D03*
X185000Y364250D02*
D03*
Y53250D02*
D03*
X1155000Y235750D02*
D03*
D54*
X902500Y190000D02*
D03*
X772500Y190000D02*
D03*
X637500D02*
D03*
X502500D02*
D03*
X370919Y190000D02*
D03*
X978290Y655250D02*
D03*
D56*
X1257500Y481750D02*
D03*
X1212500D02*
D03*
X1257500Y418250D02*
D03*
X1212500D02*
D03*
X82500Y430000D02*
D03*
X127500D02*
D03*
X82500Y493500D02*
D03*
X127500D02*
D03*
X82500Y119000D02*
D03*
X127500D02*
D03*
X82500Y182500D02*
D03*
X127500D02*
D03*
X1257500Y170000D02*
D03*
X1212500D02*
D03*
X1257500Y106500D02*
D03*
X1212500D02*
D03*
D57*
X1063500Y527500D02*
D03*
Y372500D02*
D03*
X1196500Y527500D02*
D03*
Y372500D02*
D03*
X276500Y384250D02*
D03*
Y539250D02*
D03*
X143500Y384250D02*
D03*
Y539250D02*
D03*
X276500Y73250D02*
D03*
Y228250D02*
D03*
X143500Y73250D02*
D03*
Y228250D02*
D03*
X1063500Y215750D02*
D03*
Y60750D02*
D03*
X1196500Y215750D02*
D03*
Y60750D02*
D03*
D61*
X340000Y708000D02*
D03*
X290000D02*
D03*
X417500Y709000D02*
D03*
X467500D02*
D03*
D62*
X575550Y492400D02*
D03*
X561550D02*
D03*
X589550D02*
D03*
X561550Y478400D02*
D03*
X575550D02*
D03*
X589550D02*
D03*
X568550Y499400D02*
D03*
X582550D02*
D03*
X568550Y485400D02*
D03*
X582550D02*
D03*
X568550Y471400D02*
D03*
X582550D02*
D03*
D63*
X910400Y650000D02*
D03*
D64*
X885000D02*
D03*
X859600D02*
D03*
X517500Y275000D02*
D03*
Y300400D02*
D03*
X820000Y272500D02*
D03*
Y247100D02*
D03*
D65*
X517500Y249600D02*
D03*
X820000Y297900D02*
D03*
M02*
