%TF.GenerationSoftware,KiCad,Pcbnew,8.0.4*%
%TF.CreationDate,2024-12-10T19:57:11+05:30*%
%TF.ProjectId,controller-v3,636f6e74-726f-46c6-9c65-722d76332e6b,rev?*%
%TF.SameCoordinates,Original*%
%TF.FileFunction,Paste,Top*%
%TF.FilePolarity,Positive*%
%FSLAX46Y46*%
G04 Gerber Fmt 4.6, Leading zero omitted, Abs format (unit mm)*
G04 Created by KiCad (PCBNEW 8.0.4) date 2024-12-10 19:57:11*
%MOMM*%
%LPD*%
G01*
G04 APERTURE LIST*
G04 Aperture macros list*
%AMRoundRect*
0 Rectangle with rounded corners*
0 $1 Rounding radius*
0 $2 $3 $4 $5 $6 $7 $8 $9 X,Y pos of 4 corners*
0 Add a 4 corners polygon primitive as box body*
4,1,4,$2,$3,$4,$5,$6,$7,$8,$9,$2,$3,0*
0 Add four circle primitives for the rounded corners*
1,1,$1+$1,$2,$3*
1,1,$1+$1,$4,$5*
1,1,$1+$1,$6,$7*
1,1,$1+$1,$8,$9*
0 Add four rect primitives between the rounded corners*
20,1,$1+$1,$2,$3,$4,$5,0*
20,1,$1+$1,$4,$5,$6,$7,0*
20,1,$1+$1,$6,$7,$8,$9,0*
20,1,$1+$1,$8,$9,$2,$3,0*%
G04 Aperture macros list end*
%ADD10RoundRect,0.250000X-0.262500X-0.450000X0.262500X-0.450000X0.262500X0.450000X-0.262500X0.450000X0*%
%ADD11RoundRect,0.250000X0.262500X0.450000X-0.262500X0.450000X-0.262500X-0.450000X0.262500X-0.450000X0*%
%ADD12RoundRect,0.375000X0.375000X-0.625000X0.375000X0.625000X-0.375000X0.625000X-0.375000X-0.625000X0*%
%ADD13RoundRect,0.500000X1.400000X-0.500000X1.400000X0.500000X-1.400000X0.500000X-1.400000X-0.500000X0*%
%ADD14RoundRect,0.175000X-0.175000X-0.425000X0.175000X-0.425000X0.175000X0.425000X-0.175000X0.425000X0*%
%ADD15RoundRect,0.190000X0.190000X0.410000X-0.190000X0.410000X-0.190000X-0.410000X0.190000X-0.410000X0*%
%ADD16RoundRect,0.200000X0.200000X0.400000X-0.200000X0.400000X-0.200000X-0.400000X0.200000X-0.400000X0*%
%ADD17RoundRect,0.175000X0.175000X0.425000X-0.175000X0.425000X-0.175000X-0.425000X0.175000X-0.425000X0*%
%ADD18RoundRect,0.190000X-0.190000X-0.410000X0.190000X-0.410000X0.190000X0.410000X-0.190000X0.410000X0*%
%ADD19RoundRect,0.200000X-0.200000X-0.400000X0.200000X-0.400000X0.200000X0.400000X-0.200000X0.400000X0*%
%ADD20O,1.100000X1.700000*%
%ADD21RoundRect,0.250000X-0.475000X0.250000X-0.475000X-0.250000X0.475000X-0.250000X0.475000X0.250000X0*%
G04 APERTURE END LIST*
D10*
%TO.C,R4*%
X161615000Y-117750000D03*
X163440000Y-117750000D03*
%TD*%
D11*
%TO.C,R11*%
X140412500Y-123400000D03*
X138587500Y-123400000D03*
%TD*%
D10*
%TO.C,R8*%
X138717500Y-134900000D03*
X140542500Y-134900000D03*
%TD*%
D12*
%TO.C,U5*%
X92800000Y-133287500D03*
X95100000Y-133287500D03*
D13*
X95100000Y-126987500D03*
D12*
X97400000Y-133287500D03*
%TD*%
D10*
%TO.C,R1*%
X161615000Y-108900000D03*
X163440000Y-108900000D03*
%TD*%
%TO.C,R9*%
X138717500Y-137600000D03*
X140542500Y-137600000D03*
%TD*%
%TO.C,R5*%
X161627500Y-120700000D03*
X163452500Y-120700000D03*
%TD*%
D11*
%TO.C,R13*%
X98872500Y-112125000D03*
X97047500Y-112125000D03*
%TD*%
D10*
%TO.C,R17*%
X161602500Y-132550000D03*
X163427500Y-132550000D03*
%TD*%
D11*
%TO.C,R19*%
X98902500Y-118500000D03*
X97077500Y-118500000D03*
%TD*%
%TO.C,R_pulldown1*%
X147902500Y-101100000D03*
X146077500Y-101100000D03*
%TD*%
D10*
%TO.C,R16*%
X161602500Y-129600000D03*
X163427500Y-129600000D03*
%TD*%
%TO.C,R15*%
X161615000Y-126650000D03*
X163440000Y-126650000D03*
%TD*%
D14*
%TO.C,J1*%
X96585000Y-139357500D03*
D15*
X98605000Y-139357500D03*
D16*
X99835000Y-139357500D03*
D17*
X97585000Y-139357500D03*
D18*
X95565000Y-139357500D03*
D19*
X94335000Y-139357500D03*
D20*
X92765000Y-139437500D03*
X92765000Y-143237500D03*
X101405000Y-139437500D03*
X101405000Y-143237500D03*
%TD*%
D11*
%TO.C,R10*%
X140412500Y-120450000D03*
X138587500Y-120450000D03*
%TD*%
%TO.C,R12*%
X98882500Y-105800000D03*
X97057500Y-105800000D03*
%TD*%
D21*
%TO.C,C1*%
X111650000Y-86430000D03*
X111650000Y-88330000D03*
%TD*%
D11*
%TO.C,R6*%
X98872500Y-99300000D03*
X97047500Y-99300000D03*
%TD*%
D10*
%TO.C,R3*%
X161615000Y-114800000D03*
X163440000Y-114800000D03*
%TD*%
%TO.C,R14*%
X161615000Y-123700000D03*
X163440000Y-123700000D03*
%TD*%
%TO.C,R18*%
X161602500Y-135500000D03*
X163427500Y-135500000D03*
%TD*%
%TO.C,R7*%
X138717500Y-140500000D03*
X140542500Y-140500000D03*
%TD*%
%TO.C,R2*%
X161615000Y-111850000D03*
X163440000Y-111850000D03*
%TD*%
M02*
