%TF.GenerationSoftware,KiCad,Pcbnew,8.0.4*%
%TF.CreationDate,2024-12-10T19:57:11+05:30*%
%TF.ProjectId,controller-v3,636f6e74-726f-46c6-9c65-722d76332e6b,rev?*%
%TF.SameCoordinates,Original*%
%TF.FileFunction,Soldermask,Top*%
%TF.FilePolarity,Negative*%
%FSLAX46Y46*%
G04 Gerber Fmt 4.6, Leading zero omitted, Abs format (unit mm)*
G04 Created by KiCad (PCBNEW 8.0.4) date 2024-12-10 19:57:11*
%MOMM*%
%LPD*%
G01*
G04 APERTURE LIST*
G04 Aperture macros list*
%AMRoundRect*
0 Rectangle with rounded corners*
0 $1 Rounding radius*
0 $2 $3 $4 $5 $6 $7 $8 $9 X,Y pos of 4 corners*
0 Add a 4 corners polygon primitive as box body*
4,1,4,$2,$3,$4,$5,$6,$7,$8,$9,$2,$3,0*
0 Add four circle primitives for the rounded corners*
1,1,$1+$1,$2,$3*
1,1,$1+$1,$4,$5*
1,1,$1+$1,$6,$7*
1,1,$1+$1,$8,$9*
0 Add four rect primitives between the rounded corners*
20,1,$1+$1,$2,$3,$4,$5,0*
20,1,$1+$1,$4,$5,$6,$7,0*
20,1,$1+$1,$6,$7,$8,$9,0*
20,1,$1+$1,$8,$9,$2,$3,0*%
G04 Aperture macros list end*
%ADD10R,1.700000X1.700000*%
%ADD11C,1.700000*%
%ADD12O,1.700000X1.700000*%
%ADD13RoundRect,0.250000X-0.262500X-0.450000X0.262500X-0.450000X0.262500X0.450000X-0.262500X0.450000X0*%
%ADD14RoundRect,0.250000X0.262500X0.450000X-0.262500X0.450000X-0.262500X-0.450000X0.262500X-0.450000X0*%
%ADD15RoundRect,0.375000X0.375000X-0.625000X0.375000X0.625000X-0.375000X0.625000X-0.375000X-0.625000X0*%
%ADD16RoundRect,0.500000X1.400000X-0.500000X1.400000X0.500000X-1.400000X0.500000X-1.400000X-0.500000X0*%
%ADD17R,1.800000X1.800000*%
%ADD18C,1.800000*%
%ADD19R,2.000000X1.200000*%
%ADD20O,2.000000X1.200000*%
%ADD21RoundRect,0.175000X-0.175000X-0.425000X0.175000X-0.425000X0.175000X0.425000X-0.175000X0.425000X0*%
%ADD22RoundRect,0.190000X0.190000X0.410000X-0.190000X0.410000X-0.190000X-0.410000X0.190000X-0.410000X0*%
%ADD23RoundRect,0.200000X0.200000X0.400000X-0.200000X0.400000X-0.200000X-0.400000X0.200000X-0.400000X0*%
%ADD24RoundRect,0.175000X0.175000X0.425000X-0.175000X0.425000X-0.175000X-0.425000X0.175000X-0.425000X0*%
%ADD25RoundRect,0.190000X-0.190000X-0.410000X0.190000X-0.410000X0.190000X0.410000X-0.190000X0.410000X0*%
%ADD26RoundRect,0.200000X-0.200000X-0.400000X0.200000X-0.400000X0.200000X0.400000X-0.200000X0.400000X0*%
%ADD27O,1.100000X1.700000*%
%ADD28RoundRect,0.250000X-0.475000X0.250000X-0.475000X-0.250000X0.475000X-0.250000X0.475000X0.250000X0*%
G04 APERTURE END LIST*
D10*
%TO.C,U4*%
X116010000Y-88370000D03*
D11*
X116010000Y-85830000D03*
X118550000Y-88370000D03*
X118550000Y-85830000D03*
X121090000Y-88370000D03*
X121090000Y-85830000D03*
X123630000Y-88370000D03*
X123630000Y-85830000D03*
%TD*%
D10*
%TO.C,SW5*%
X152300000Y-119575000D03*
D12*
X154840000Y-119575000D03*
%TD*%
D13*
%TO.C,R4*%
X161615000Y-117750000D03*
X163440000Y-117750000D03*
%TD*%
D14*
%TO.C,R11*%
X140412500Y-123400000D03*
X138587500Y-123400000D03*
%TD*%
D10*
%TO.C,SW8*%
X152300000Y-133375000D03*
D12*
X154840000Y-133375000D03*
%TD*%
D13*
%TO.C,R8*%
X138717500Y-134900000D03*
X140542500Y-134900000D03*
%TD*%
D15*
%TO.C,U5*%
X92800000Y-133287500D03*
X95100000Y-133287500D03*
D16*
X95100000Y-126987500D03*
D15*
X97400000Y-133287500D03*
%TD*%
D13*
%TO.C,R1*%
X161615000Y-108900000D03*
X163440000Y-108900000D03*
%TD*%
D10*
%TO.C,joy3*%
X92745000Y-121125000D03*
D12*
X95285000Y-121125000D03*
X97825000Y-121125000D03*
X100365000Y-121125000D03*
X102905000Y-121125000D03*
%TD*%
D10*
%TO.C,SW6*%
X152300000Y-124175000D03*
D12*
X154840000Y-124175000D03*
%TD*%
D17*
%TO.C,D1*%
X146575000Y-132000000D03*
D18*
X144035000Y-132000000D03*
%TD*%
D13*
%TO.C,R9*%
X138717500Y-137600000D03*
X140542500Y-137600000D03*
%TD*%
D10*
%TO.C,joy0*%
X92785000Y-114700000D03*
D12*
X95325000Y-114700000D03*
X97865000Y-114700000D03*
X100405000Y-114700000D03*
X102945000Y-114700000D03*
%TD*%
D13*
%TO.C,R5*%
X161627500Y-120700000D03*
X163452500Y-120700000D03*
%TD*%
D14*
%TO.C,R13*%
X98872500Y-112125000D03*
X97047500Y-112125000D03*
%TD*%
D10*
%TO.C,joy2*%
X92785000Y-101975000D03*
D12*
X95325000Y-101975000D03*
X97865000Y-101975000D03*
X100405000Y-101975000D03*
X102945000Y-101975000D03*
%TD*%
D10*
%TO.C,joy1*%
X92785000Y-108375000D03*
D12*
X95325000Y-108375000D03*
X97865000Y-108375000D03*
X100405000Y-108375000D03*
X102945000Y-108375000D03*
%TD*%
D13*
%TO.C,R17*%
X161602500Y-132550000D03*
X163427500Y-132550000D03*
%TD*%
D14*
%TO.C,R19*%
X98902500Y-118500000D03*
X97077500Y-118500000D03*
%TD*%
D10*
%TO.C,SW1*%
X152340000Y-101175000D03*
D12*
X154880000Y-101175000D03*
%TD*%
D14*
%TO.C,R_pulldown1*%
X147902500Y-101100000D03*
X146077500Y-101100000D03*
%TD*%
D13*
%TO.C,R16*%
X161602500Y-129600000D03*
X163427500Y-129600000D03*
%TD*%
D10*
%TO.C,SW2*%
X152340000Y-105775000D03*
D12*
X154880000Y-105775000D03*
%TD*%
D10*
%TO.C,SW7*%
X152300000Y-128775000D03*
D12*
X154840000Y-128775000D03*
%TD*%
D13*
%TO.C,R15*%
X161615000Y-126650000D03*
X163440000Y-126650000D03*
%TD*%
D19*
%TO.C,U7*%
X108900000Y-99060000D03*
D20*
X108900000Y-101600000D03*
X108900000Y-104140000D03*
X108900000Y-106680000D03*
X108900000Y-109220000D03*
X108900000Y-111760000D03*
X108900000Y-114300000D03*
X108900000Y-116840000D03*
X108900000Y-119380000D03*
X108900000Y-121920000D03*
X108900000Y-124460000D03*
X108900000Y-127000000D03*
X108900000Y-129540000D03*
X108900000Y-132080000D03*
X108900000Y-134620000D03*
X108900000Y-137160000D03*
X108900000Y-139700000D03*
X108900000Y-142240000D03*
X108900000Y-144780000D03*
X134296320Y-144777280D03*
X134296320Y-142237280D03*
X134300000Y-139700000D03*
X134300000Y-137160000D03*
X134300000Y-134620000D03*
X134300000Y-132080000D03*
X134300000Y-129540000D03*
X134300000Y-127000000D03*
X134300000Y-124460000D03*
X134300000Y-121920000D03*
X134300000Y-119380000D03*
X134300000Y-116840000D03*
X134300000Y-114300000D03*
X134300000Y-111760000D03*
X134300000Y-109220000D03*
X134300000Y-106680000D03*
X134300000Y-104140000D03*
X134300000Y-101600000D03*
X134300000Y-99060000D03*
%TD*%
D10*
%TO.C,U1*%
X92800000Y-95575000D03*
D12*
X95340000Y-95575000D03*
X97880000Y-95575000D03*
X100420000Y-95575000D03*
%TD*%
D17*
%TO.C,D3*%
X146575000Y-143100000D03*
D18*
X144035000Y-143100000D03*
%TD*%
D10*
%TO.C,on/off1*%
X102275000Y-135802500D03*
D12*
X102275000Y-133262500D03*
%TD*%
D21*
%TO.C,J1*%
X96585000Y-139357500D03*
D22*
X98605000Y-139357500D03*
D23*
X99835000Y-139357500D03*
D24*
X97585000Y-139357500D03*
D25*
X95565000Y-139357500D03*
D26*
X94335000Y-139357500D03*
D27*
X92765000Y-139437500D03*
X92765000Y-143237500D03*
X101405000Y-139437500D03*
X101405000Y-143237500D03*
%TD*%
D10*
%TO.C,SW4*%
X152340000Y-114975000D03*
D12*
X154880000Y-114975000D03*
%TD*%
D10*
%TO.C,SW10*%
X152300000Y-142600000D03*
D12*
X154840000Y-142600000D03*
%TD*%
D14*
%TO.C,R10*%
X140412500Y-120450000D03*
X138587500Y-120450000D03*
%TD*%
D10*
%TO.C,SW3*%
X152340000Y-110375000D03*
D12*
X154880000Y-110375000D03*
%TD*%
D14*
%TO.C,R12*%
X98882500Y-105800000D03*
X97057500Y-105800000D03*
%TD*%
D10*
%TO.C,mode_select1*%
X146575000Y-119575000D03*
D12*
X144035000Y-119575000D03*
%TD*%
D28*
%TO.C,C1*%
X111650000Y-86430000D03*
X111650000Y-88330000D03*
%TD*%
D14*
%TO.C,R6*%
X98872500Y-99300000D03*
X97047500Y-99300000D03*
%TD*%
D10*
%TO.C,SW9*%
X152300000Y-138000000D03*
D12*
X154840000Y-138000000D03*
%TD*%
D17*
%TO.C,D2*%
X146575000Y-137550000D03*
D18*
X144035000Y-137550000D03*
%TD*%
D13*
%TO.C,R3*%
X161615000Y-114800000D03*
X163440000Y-114800000D03*
%TD*%
%TO.C,R14*%
X161615000Y-123700000D03*
X163440000Y-123700000D03*
%TD*%
%TO.C,R18*%
X161602500Y-135500000D03*
X163427500Y-135500000D03*
%TD*%
%TO.C,R7*%
X138717500Y-140500000D03*
X140542500Y-140500000D03*
%TD*%
D10*
%TO.C,oled_cycle1*%
X146575000Y-124175000D03*
D12*
X144035000Y-124175000D03*
%TD*%
D13*
%TO.C,R2*%
X161615000Y-111850000D03*
X163440000Y-111850000D03*
%TD*%
M02*
